<svg width="278" height="129" viewBox="0 0 278 129" fill="none" xmlns="http://www.w3.org/2000/svg">
<path fill-rule="evenodd" clip-rule="evenodd" d="M3.85156 62.4009V125.15H86.022V62.4009H3.85156Z" fill="#04B5AD"/>
<path fill-rule="evenodd" clip-rule="evenodd" d="M9.66058 54.3378C8.33848 55.2005 7.05078 56.1122 5.79688 57.0731C5.79688 57.0731 5.79688 39.8807 5.79688 5.49579C55.0632 5.49579 79.6962 5.49579 79.6962 5.49579C78.2768 5.93059 76.8416 6.68159 75.3912 7.74919C71.8931 10.1065 68.6988 12.4406 65.8078 14.7515C62.5603 17.3865 59.3178 20.1007 56.081 22.8937C55.4375 23.4738 54.7451 24.0857 54.0032 24.7297C49.1794 27.9389 44.0641 31.3421 38.6574 34.939C32.0984 39.3025 25.578 43.6402 19.0961 47.9525C15.4227 50.4742 12.2776 52.6026 9.66058 54.3378V54.3378Z" fill="#04B5AD"/>
<path fill-rule="evenodd" clip-rule="evenodd" d="M75.1426 98.2418C77.7622 90.358 82.0906 70.7697 83.7219 64.2412C83.7219 89.8204 83.7219 64.2412 83.7219 89.8204C83.7219 98.2759 83.7219 93.48 83.7219 101.936C83.7219 101.936 83.2924 101.75 75.1426 98.2418Z" fill="#F8A941"/>
<path fill-rule="evenodd" clip-rule="evenodd" d="M60.776 122.986C23.228 122.986 5.7977 122.986 5.7977 122.986C5.7977 122.986 5.7977 119.165 5.7977 110.165C5.5469 105.387 7.1884 101.28 13.1679 99.1952C12.2841 96.9826 12.4597 94.8513 13.6953 92.8008C14.8443 91.0867 16.4396 90.0681 18.4814 89.7455C20.9884 89.4368 24.1971 90.5804 25.8558 92.6134C25.8558 92.6134 28.7284 90.0256 33.9105 83.7242C41.5998 86.221 45.7973 88.6312 50.4435 92.6435C48.6404 99.8338 47.7389 103.429 47.7389 103.429C51.3512 105.182 54.3561 107.781 55.0654 110.101C55.6953 112.061 55.1918 114.763 54.1171 116.516C58.7295 117.257 59.9483 118.789 60.776 122.986V122.986Z" fill="white"/>
<path fill-rule="evenodd" clip-rule="evenodd" d="M16.1973 73.8067C16.1973 73.8067 18.3595 70.5581 19.5003 69.153C28.2969 58.0723 48.3632 32.862 57.7452 25.6011C83.7225 5.4958 83.7225 5.49579 83.7225 5.49579C83.7225 38.8846 83.7225 10.5382 83.7225 38.8846C83.7225 41.033 83.5855 42.9869 83.3558 44.8111C81.9307 56.1324 76.7185 74.9909 73.4716 86.0488C73.0218 87.5887 69.0914 101.458 69.0914 101.458C57.9279 89.8153 38.0925 75.9816 16.1973 73.8067V73.8067Z" fill="#FFEB00"/>
<path fill-rule="evenodd" clip-rule="evenodd" d="M15.0066 66.2247C38.0738 40.6717 15.0066 66.2247 38.7311 39.9269C5.79688 60.0154 5.79688 60.0154 5.79688 60.0154C15.0066 66.2247 5.87508 60.0684 15.0066 66.2247V66.2247Z" fill="#F8A941"/>
<path fill-rule="evenodd" clip-rule="evenodd" d="M58.9683 45.7787C60.2712 45.7787 61.5613 46.0353 62.765 46.5339C63.9688 47.0325 65.0625 47.7633 65.9838 48.6846C66.9051 49.6059 67.6359 50.6996 68.1345 51.9033C68.6331 53.1071 68.8897 54.3972 68.8897 55.7001C68.8897 57.6624 68.3078 59.5805 67.2176 61.2121C66.1274 62.8437 64.5779 64.1153 62.765 64.8663C60.9521 65.6172 58.9573 65.8137 57.0327 65.4308C55.1082 65.048 53.3403 64.1031 51.9528 62.7156C50.5653 61.328 49.6203 59.5602 49.2375 57.6357C48.8547 55.7111 49.0512 53.7162 49.8021 51.9033C50.553 50.0904 51.8247 48.5409 53.4562 47.4507C55.0878 46.3606 57.006 45.7787 58.9683 45.7787V45.7787Z" fill="white"/>
<path fill-rule="evenodd" clip-rule="evenodd" d="M126.508 22.2388C130.148 20.2117 131.968 17.0891 131.968 12.8703C131.968 11.0088 131.648 9.33411 131.007 7.84451C130.365 6.35541 129.456 5.08382 128.277 4.02882C127.098 2.97432 125.66 2.15701 123.965 1.57851C122.269 0.999114 120.387 0.709717 118.319 0.709717H100.574V39.3436H108.454V44.8845H100.574V39.3436H108.454V44.8845H119.064C121.132 44.8845 123.003 44.5846 124.678 43.9848C126.353 43.385 127.78 42.5371 128.959 41.441C130.138 40.3448 131.037 39.0213 131.658 37.4702C132.279 35.9191 132.589 34.1715 132.589 32.2275C132.589 30.6557 132.371 29.2494 131.937 28.0087C131.503 26.7677 130.81 25.6305 129.859 24.5961C129.404 24.1414 128.949 23.7483 128.494 23.4174C128.039 23.0866 127.377 22.6938 126.508 22.2388V22.2388ZM117.637 18.5781H109.198V8.40292H117.637C119.415 8.40292 120.811 8.85791 121.824 9.76811C122.838 10.678 123.344 11.9187 123.344 13.4908C123.344 15.0623 122.838 16.3033 121.824 17.2133C120.811 18.1229 119.415 18.5781 117.637 18.5781ZM118.195 37.1913H109.198V26.3334H118.195C119.973 26.3334 121.379 26.8091 122.414 27.7604C123.448 28.7117 123.965 30.0352 123.965 31.7312C123.965 33.4269 123.448 34.7609 122.414 35.7331C121.379 36.7049 119.973 37.1913 118.195 37.1913Z" fill="#6E6F70"/>
<path fill-rule="evenodd" clip-rule="evenodd" d="M107.362 101.378H109.222L105.886 92.2418H104.487L101.164 101.378H103.025L103.576 99.7607H106.823L107.362 101.378ZM105.232 94.9361L106.348 98.2595H104.077L105.232 94.9361ZM113.893 101.378H115.895L113.585 97.9644L115.805 94.6923H113.803L112.661 96.6043L111.532 94.6923H109.531L111.75 97.9644L109.441 101.378H111.442L112.661 99.376L113.893 101.378ZM122.58 98.0287C122.58 97.7464 122.574 97.4726 122.561 97.2075C122.548 96.9422 122.518 96.6899 122.471 96.4504C122.424 96.2109 122.355 95.9864 122.265 95.7766C122.176 95.5671 122.049 95.3812 121.887 95.2185C121.699 95.0217 121.466 94.8721 121.188 94.7694C120.91 94.6668 120.604 94.6155 120.27 94.6155C119.928 94.6155 119.627 94.6646 119.366 94.7629C119.105 94.8613 118.867 95.0348 118.654 95.2828V92.2418H116.985V101.378H118.602V100.749C118.833 101.005 119.079 101.187 119.34 101.294C119.601 101.401 119.911 101.455 120.27 101.455C120.595 101.455 120.899 101.403 121.181 101.3C121.464 101.198 121.699 101.048 121.887 100.851C122.049 100.689 122.176 100.503 122.265 100.293C122.355 100.084 122.424 99.8593 122.471 99.6198C122.518 99.3803 122.548 99.1257 122.561 98.8562C122.574 98.5869 122.58 98.3108 122.58 98.0287V98.0287ZM120.912 98.0287C120.912 98.3023 120.899 98.5546 120.873 98.7856C120.848 99.0166 120.796 99.2198 120.719 99.395C120.642 99.5705 120.529 99.7074 120.379 99.8058C120.23 99.9041 120.031 99.9532 119.783 99.9532C119.535 99.9532 119.336 99.9041 119.186 99.8058C119.036 99.7074 118.923 99.5705 118.846 99.395C118.769 99.2198 118.718 99.0166 118.692 98.7856C118.666 98.5546 118.654 98.3023 118.654 98.0287C118.654 97.7634 118.666 97.5131 118.692 97.2781C118.718 97.0428 118.769 96.8396 118.846 96.6684C118.923 96.4974 119.036 96.3628 119.186 96.2642C119.336 96.1658 119.535 96.1168 119.783 96.1168C120.031 96.1168 120.23 96.1658 120.379 96.2642C120.529 96.3628 120.642 96.4974 120.719 96.6684C120.796 96.8396 120.848 97.0428 120.873 97.2781C120.899 97.5131 120.912 97.7634 120.912 98.0287ZM129.547 98.0287C129.547 97.4213 129.496 96.9187 129.393 96.521C129.291 96.1233 129.09 95.7619 128.79 95.4367C128.576 95.2142 128.301 95.0217 127.963 94.8593C127.625 94.6969 127.208 94.6155 126.712 94.6155C126.216 94.6155 125.801 94.6969 125.467 94.8593C125.133 95.0217 124.86 95.2142 124.646 95.4367C124.346 95.7619 124.145 96.1233 124.043 96.521C123.94 96.9187 123.889 97.4213 123.889 98.0287C123.889 98.6359 123.94 99.1408 124.043 99.5427C124.145 99.9447 124.346 100.308 124.646 100.633C124.86 100.856 125.133 101.048 125.467 101.211C125.801 101.373 126.216 101.455 126.712 101.455C127.208 101.455 127.625 101.373 127.963 101.211C128.301 101.048 128.576 100.856 128.79 100.633C129.098 100.317 129.301 99.9554 129.4 99.5492C129.498 99.1427 129.547 98.6359 129.547 98.0287ZM127.879 98.0287C127.879 98.3794 127.858 98.6957 127.815 98.978C127.772 99.2604 127.665 99.4871 127.494 99.6581C127.298 99.8548 127.037 99.9532 126.712 99.9532C126.395 99.9532 126.138 99.8548 125.942 99.6581C125.771 99.4871 125.664 99.2604 125.621 98.978C125.578 98.6957 125.557 98.3794 125.557 98.0287C125.557 97.6863 125.578 97.3742 125.621 97.0919C125.664 96.8095 125.771 96.5831 125.942 96.4118C126.138 96.2151 126.395 96.1168 126.712 96.1168C127.037 96.1168 127.298 96.2151 127.494 96.4118C127.665 96.5831 127.772 96.8095 127.815 97.0919C127.858 97.3742 127.879 97.6863 127.879 98.0287ZM134.77 96.5145L136.027 95.2443C135.796 95.0132 135.557 94.8508 135.309 94.7567C135.061 94.6626 134.774 94.6155 134.449 94.6155C134.09 94.6155 133.76 94.6861 133.461 94.8273C133.162 94.9684 132.931 95.1374 132.768 95.3341V94.6923H131.138V101.378H132.807V97.3484C132.807 97.1347 132.839 96.9507 132.903 96.7968C132.967 96.6429 133.05 96.5145 133.153 96.4118C133.256 96.3092 133.371 96.2344 133.499 96.1873C133.628 96.1403 133.756 96.1168 133.884 96.1168C134.09 96.1168 134.257 96.1511 134.385 96.2194C134.513 96.2877 134.642 96.3863 134.77 96.5145V96.5145ZM141.968 98.0287C141.968 97.4213 141.917 96.9187 141.814 96.521C141.712 96.1233 141.51 95.7619 141.211 95.4367C140.997 95.2142 140.722 95.0217 140.384 94.8593C140.046 94.6969 139.628 94.6155 139.132 94.6155C138.636 94.6155 138.221 94.6969 137.888 94.8593C137.554 95.0217 137.281 95.2142 137.067 95.4367C136.767 95.7619 136.566 96.1233 136.464 96.521C136.361 96.9187 136.31 97.4213 136.31 98.0287C136.31 98.6359 136.361 99.1408 136.464 99.5427C136.566 99.9447 136.767 100.308 137.067 100.633C137.281 100.856 137.554 101.048 137.888 101.211C138.221 101.373 138.636 101.455 139.132 101.455C139.628 101.455 140.046 101.373 140.384 101.211C140.722 101.048 140.997 100.856 141.211 100.633C141.519 100.317 141.722 99.9554 141.821 99.5492C141.919 99.1427 141.968 98.6359 141.968 98.0287ZM140.3 98.0287C140.3 98.3794 140.279 98.6957 140.236 98.978C140.193 99.2604 140.086 99.4871 139.915 99.6581C139.718 99.8548 139.458 99.9532 139.132 99.9532C138.816 99.9532 138.559 99.8548 138.363 99.6581C138.192 99.4871 138.084 99.2604 138.042 98.978C137.999 98.6957 137.978 98.3794 137.978 98.0287C137.978 97.6863 137.999 97.3742 138.042 97.0919C138.084 96.8095 138.192 96.5831 138.363 96.4118C138.559 96.2151 138.816 96.1168 139.132 96.1168C139.458 96.1168 139.718 96.2151 139.915 96.4118C140.086 96.5831 140.193 96.8095 140.236 97.0919C140.279 97.3742 140.3 97.6863 140.3 98.0287ZM145.651 101.378H146.562V99.9662H145.959C145.574 99.9662 145.381 99.7652 145.381 99.363V96.1553H146.562V94.8848H145.381V92.9088H143.713V94.8848H143.007V96.1553H143.713V99.4656C143.713 99.7051 143.75 99.9384 143.822 100.165C143.895 100.392 144.01 100.595 144.169 100.774C144.327 100.954 144.528 101.099 144.772 101.211C145.015 101.322 145.309 101.378 145.651 101.378V101.378ZM153.94 101.378L156.391 94.6923H154.633L153.286 98.8241L151.925 94.6923H150.167L152.631 101.378H153.94ZM160.741 101.378H162.37V96.9765C162.37 95.4024 161.421 94.6155 159.522 94.6155C158.966 94.6155 158.508 94.6838 158.149 94.8208C157.79 94.9577 157.447 95.2057 157.122 95.5651L158.174 96.6043C158.354 96.3991 158.538 96.2514 158.726 96.1615C158.915 96.072 159.158 96.0269 159.458 96.0269C159.902 96.0269 160.221 96.1102 160.414 96.2772C160.606 96.4439 160.702 96.7112 160.702 97.0791V97.4128H159.15C158.756 97.4128 158.414 97.4641 158.123 97.5667C157.832 97.6693 157.593 97.8085 157.405 97.9837C157.216 98.1591 157.075 98.3643 156.981 98.5996C156.887 98.8349 156.84 99.0849 156.84 99.3502C156.84 99.6496 156.887 99.9277 156.981 100.184C157.075 100.441 157.212 100.663 157.392 100.851C157.785 101.245 158.354 101.442 159.098 101.442C159.483 101.442 159.798 101.39 160.041 101.288C160.285 101.185 160.518 101.023 160.741 100.8V101.378ZM160.702 98.5546V98.914C160.702 99.1277 160.683 99.3009 160.645 99.4336C160.606 99.5662 160.54 99.6754 160.446 99.7607C160.3 99.8976 160.15 99.9855 159.997 100.024C159.843 100.062 159.663 100.082 159.458 100.082C159.107 100.082 158.85 100.013 158.688 99.8763C158.525 99.7394 158.444 99.5555 158.444 99.3244C158.444 98.8114 158.773 98.5546 159.432 98.5546H160.702ZM173.829 95.0903C173.829 94.7054 173.76 94.3397 173.624 93.993C173.487 93.6466 173.29 93.3431 173.033 93.0823C172.777 92.8212 172.46 92.616 172.084 92.4663C171.707 92.3166 171.284 92.2418 170.813 92.2418H167.272V101.378H169.056V97.9389H170.813C171.284 97.9389 171.707 97.864 172.084 97.7144C172.46 97.5644 172.777 97.3592 173.033 97.0984C173.29 96.8373 173.487 96.5337 173.624 96.1873C173.76 95.8409 173.829 95.4753 173.829 95.0903V95.0903ZM172.045 95.0903C172.045 95.4665 171.928 95.7681 171.692 95.9949C171.457 96.2216 171.134 96.3347 170.724 96.3347H169.056V93.8329H170.724C171.134 93.8329 171.457 93.9483 171.692 94.1793C171.928 94.4103 172.045 94.7139 172.045 95.0903V95.0903ZM176.382 98.5546H180.565V97.849C180.565 97.3785 180.501 96.9445 180.373 96.5465C180.245 96.1488 180.056 95.8066 179.808 95.5201C179.56 95.2335 179.255 95.0112 178.891 94.8528C178.527 94.6946 178.114 94.6155 177.653 94.6155C177.216 94.6155 176.82 94.6904 176.466 94.84C176.11 94.9897 175.805 95.21 175.548 95.5008C175.291 95.7916 175.092 96.1488 174.951 96.5723C174.81 96.9958 174.74 97.4811 174.74 98.0287C174.74 98.7045 174.827 99.2626 175.003 99.7031C175.178 100.144 175.409 100.494 175.696 100.755C175.982 101.016 176.312 101.198 176.684 101.3C177.056 101.403 177.439 101.455 177.832 101.455C178.132 101.455 178.401 101.433 178.641 101.39C178.88 101.347 179.1 101.281 179.302 101.192C179.503 101.102 179.689 100.99 179.86 100.858C180.031 100.725 180.202 100.573 180.373 100.402L179.359 99.4143C179.145 99.6198 178.931 99.7757 178.718 99.8829C178.504 99.9897 178.213 100.043 177.845 100.043C177.366 100.043 177.002 99.9041 176.754 99.626C176.506 99.348 176.382 98.9911 176.382 98.5546V98.5546ZM178.923 97.4128H176.382C176.391 97.2673 176.403 97.1412 176.42 97.034C176.438 96.9272 176.476 96.8138 176.536 96.6942C176.63 96.4974 176.769 96.3328 176.953 96.2001C177.137 96.0674 177.37 96.0014 177.653 96.0014C177.935 96.0014 178.168 96.0674 178.352 96.2001C178.536 96.3328 178.675 96.4974 178.769 96.6942C178.829 96.8138 178.867 96.9272 178.884 97.034C178.902 97.1412 178.914 97.2673 178.923 97.4128V97.4128ZM185.801 101.378H187.43V92.2418H185.762V95.2828C185.54 95.0348 185.298 94.8613 185.037 94.7629C184.776 94.6646 184.475 94.6155 184.132 94.6155C183.799 94.6155 183.493 94.6668 183.215 94.7694C182.937 94.8721 182.704 95.0217 182.516 95.2185C182.353 95.3812 182.227 95.5671 182.137 95.7766C182.048 95.9864 181.979 96.2109 181.932 96.4504C181.885 96.6899 181.855 96.9422 181.842 97.2075C181.829 97.4726 181.823 97.7464 181.823 98.0287C181.823 98.3108 181.829 98.5869 181.842 98.8562C181.855 99.1257 181.885 99.3803 181.932 99.6198C181.979 99.8593 182.048 100.084 182.137 100.293C182.227 100.503 182.353 100.689 182.516 100.851C182.704 101.048 182.939 101.198 183.222 101.3C183.504 101.403 183.812 101.455 184.145 101.455C184.505 101.455 184.813 101.401 185.069 101.294C185.326 101.187 185.57 101.005 185.801 100.749V101.378ZM185.762 98.0287C185.762 98.3023 185.749 98.5546 185.724 98.7856C185.698 99.0166 185.644 99.2198 185.563 99.395C185.482 99.5705 185.367 99.7074 185.217 99.8058C185.067 99.9041 184.868 99.9532 184.62 99.9532C184.372 99.9532 184.173 99.9041 184.024 99.8058C183.874 99.7074 183.761 99.5705 183.683 99.395C183.607 99.2198 183.555 99.0166 183.53 98.7856C183.504 98.5546 183.491 98.3023 183.491 98.0287C183.491 97.7634 183.504 97.5131 183.53 97.2781C183.555 97.0428 183.607 96.8396 183.683 96.6684C183.761 96.4974 183.874 96.3628 184.024 96.2642C184.173 96.1658 184.372 96.1168 184.62 96.1168C184.868 96.1168 185.067 96.1658 185.217 96.2642C185.367 96.3628 185.482 96.4974 185.563 96.6684C185.644 96.8396 185.698 97.0428 185.724 97.2781C185.749 97.5131 185.762 97.7634 185.762 98.0287ZM192.729 101.378H194.359V96.9765C194.359 95.4024 193.41 94.6155 191.51 94.6155C190.955 94.6155 190.497 94.6838 190.138 94.8208C189.778 94.9577 189.436 95.2057 189.111 95.5651L190.163 96.6043C190.343 96.3991 190.527 96.2514 190.715 96.1615C190.903 96.072 191.147 96.0269 191.446 96.0269C191.891 96.0269 192.21 96.1102 192.402 96.2772C192.595 96.4439 192.691 96.7112 192.691 97.0791V97.4128H191.138C190.745 97.4128 190.403 97.4641 190.112 97.5667C189.821 97.6693 189.581 97.8085 189.393 97.9837C189.205 98.1591 189.064 98.3643 188.97 98.5996C188.876 98.8349 188.829 99.0849 188.829 99.3502C188.829 99.6496 188.876 99.9277 188.97 100.184C189.064 100.441 189.201 100.663 189.38 100.851C189.774 101.245 190.343 101.442 191.087 101.442C191.472 101.442 191.786 101.39 192.03 101.288C192.274 101.185 192.507 101.023 192.729 100.8V101.378ZM192.691 98.5546V98.914C192.691 99.1277 192.672 99.3009 192.633 99.4336C192.595 99.5662 192.528 99.6754 192.434 99.7607C192.289 99.8976 192.139 99.9855 191.985 100.024C191.831 100.062 191.652 100.082 191.446 100.082C191.096 100.082 190.839 100.013 190.676 99.8763C190.514 99.7394 190.433 99.5555 190.433 99.3244C190.433 98.8114 190.762 98.5546 191.421 98.5546H192.691ZM201.404 101.134V94.6923H199.787V95.3211C199.556 95.0645 199.316 94.8828 199.068 94.776C198.82 94.6688 198.516 94.6155 198.157 94.6155C197.832 94.6155 197.53 94.6668 197.253 94.7694C196.975 94.8721 196.742 95.0175 196.553 95.2057C196.399 95.3596 196.275 95.5308 196.181 95.7191C196.087 95.9073 196.019 96.1102 195.976 96.3285C195.933 96.5465 195.905 96.7818 195.892 97.034C195.879 97.2866 195.873 97.5582 195.873 97.849C195.873 98.1398 195.879 98.4137 195.892 98.6702C195.905 98.9267 195.933 99.1643 195.976 99.3823C196.019 99.6005 196.087 99.8035 196.181 99.9917C196.275 100.18 196.399 100.351 196.553 100.505C196.742 100.693 196.972 100.839 197.246 100.941C197.52 101.044 197.819 101.095 198.144 101.095C198.469 101.095 198.76 101.046 199.017 100.948C199.273 100.849 199.513 100.676 199.735 100.428V101.108C199.735 101.279 199.712 101.448 199.665 101.615C199.618 101.782 199.541 101.929 199.434 102.058C199.327 102.186 199.188 102.291 199.017 102.372C198.846 102.453 198.636 102.494 198.388 102.494C198.106 102.494 197.864 102.453 197.663 102.372C197.462 102.291 197.267 102.16 197.079 101.981L196.04 103.033C196.391 103.366 196.754 103.595 197.131 103.719C197.507 103.843 197.952 103.905 198.465 103.905C198.91 103.905 199.314 103.837 199.678 103.7C200.041 103.563 200.351 103.371 200.608 103.123C200.865 102.875 201.062 102.581 201.198 102.244C201.335 101.906 201.404 101.536 201.404 101.134V101.134ZM199.735 97.849C199.735 98.0712 199.725 98.2872 199.703 98.497C199.682 98.7065 199.633 98.8924 199.556 99.0551C199.479 99.2176 199.368 99.348 199.222 99.4463C199.077 99.545 198.88 99.594 198.632 99.594C198.384 99.594 198.187 99.545 198.042 99.4463C197.896 99.348 197.787 99.2176 197.714 99.0551C197.642 98.8924 197.595 98.7065 197.573 98.497C197.552 98.2872 197.541 98.0712 197.541 97.849C197.541 97.6265 197.552 97.4105 197.573 97.201C197.595 96.9915 197.642 96.8076 197.714 96.6491C197.787 96.4909 197.896 96.3628 198.042 96.2642C198.187 96.1658 198.384 96.1168 198.632 96.1168C198.88 96.1168 199.077 96.1658 199.222 96.2642C199.368 96.3628 199.479 96.4909 199.556 96.6491C199.633 96.8076 199.682 96.9915 199.703 97.201C199.725 97.4105 199.735 97.6265 199.735 97.849ZM208.654 98.0287C208.654 97.4213 208.602 96.9187 208.5 96.521C208.397 96.1233 208.196 95.7619 207.896 95.4367C207.683 95.2142 207.407 95.0217 207.069 94.8593C206.731 94.6969 206.314 94.6155 205.818 94.6155C205.322 94.6155 204.907 94.6969 204.573 94.8593C204.239 95.0217 203.966 95.2142 203.752 95.4367C203.453 95.7619 203.252 96.1233 203.149 96.521C203.046 96.9187 202.995 97.4213 202.995 98.0287C202.995 98.6359 203.046 99.1408 203.149 99.5427C203.252 99.9447 203.453 100.308 203.752 100.633C203.966 100.856 204.239 101.048 204.573 101.211C204.907 101.373 205.322 101.455 205.818 101.455C206.314 101.455 206.731 101.373 207.069 101.211C207.407 101.048 207.683 100.856 207.896 100.633C208.205 100.317 208.407 99.9554 208.506 99.5492C208.604 99.1427 208.654 98.6359 208.654 98.0287V98.0287ZM206.985 98.0287C206.985 98.3794 206.964 98.6957 206.921 98.978C206.878 99.2604 206.772 99.4871 206.6 99.6581C206.404 99.8548 206.143 99.9532 205.818 99.9532C205.501 99.9532 205.245 99.8548 205.048 99.6581C204.877 99.4871 204.77 99.2604 204.727 98.978C204.684 98.6957 204.663 98.3794 204.663 98.0287C204.663 97.6863 204.684 97.3742 204.727 97.0919C204.77 96.8095 204.877 96.5831 205.048 96.4118C205.245 96.2151 205.501 96.1168 205.818 96.1168C206.143 96.1168 206.404 96.2151 206.6 96.4118C206.772 96.5831 206.878 96.8095 206.921 97.0919C206.964 97.3742 206.985 97.6863 206.985 98.0287ZM215.492 101.134V94.6923H213.876V95.3211C213.645 95.0645 213.405 94.8828 213.157 94.776C212.909 94.6688 212.605 94.6155 212.246 94.6155C211.921 94.6155 211.619 94.6668 211.342 94.7694C211.064 94.8721 210.831 95.0175 210.642 95.2057C210.488 95.3596 210.364 95.5308 210.27 95.7191C210.176 95.9073 210.108 96.1102 210.065 96.3285C210.022 96.5465 209.994 96.7818 209.981 97.034C209.969 97.2866 209.962 97.5582 209.962 97.849C209.962 98.1398 209.968 98.4137 209.981 98.6702C209.994 98.9267 210.022 99.1643 210.065 99.3823C210.108 99.6005 210.176 99.8035 210.27 99.9917C210.364 100.18 210.488 100.351 210.642 100.505C210.831 100.693 211.061 100.839 211.335 100.941C211.609 101.044 211.908 101.095 212.233 101.095C212.558 101.095 212.849 101.046 213.106 100.948C213.362 100.849 213.602 100.676 213.824 100.428V101.108C213.824 101.279 213.801 101.448 213.754 101.615C213.707 101.782 213.63 101.929 213.523 102.058C213.416 102.186 213.277 102.291 213.106 102.372C212.935 102.453 212.725 102.494 212.477 102.494C212.195 102.494 211.953 102.453 211.752 102.372C211.551 102.291 211.356 102.16 211.168 101.981L210.129 103.033C210.48 103.366 210.843 103.595 211.22 103.719C211.596 103.843 212.041 103.905 212.554 103.905C212.999 103.905 213.403 103.837 213.767 103.7C214.13 103.563 214.44 103.371 214.697 103.123C214.954 102.875 215.15 102.581 215.287 102.244C215.424 101.906 215.492 101.536 215.492 101.134V101.134ZM213.824 97.849C213.824 98.0712 213.814 98.2872 213.792 98.497C213.771 98.7065 213.722 98.8924 213.645 99.0551C213.568 99.2176 213.457 99.348 213.311 99.4463C213.166 99.545 212.969 99.594 212.721 99.594C212.473 99.594 212.276 99.545 212.131 99.4463C211.985 99.348 211.876 99.2176 211.803 99.0551C211.731 98.8924 211.684 98.7065 211.662 98.497C211.641 98.2872 211.63 98.0712 211.63 97.849C211.63 97.6265 211.641 97.4105 211.662 97.201C211.684 96.9915 211.731 96.8076 211.803 96.6491C211.876 96.4909 211.985 96.3628 212.131 96.2642C212.276 96.1658 212.473 96.1168 212.721 96.1168C212.969 96.1168 213.166 96.1658 213.311 96.2642C213.457 96.3628 213.568 96.4909 213.645 96.6491C213.722 96.8076 213.771 96.9915 213.792 97.201C213.814 97.4105 213.824 97.6265 213.824 97.849ZM217.366 101.378H219.034V94.8848H217.366V101.378ZM217.34 93.5506H219.047V92.1905H217.34V93.5506ZM224.911 101.378H226.977L224.41 97.387L226.797 94.6923H224.783L222.563 97.4255V92.2418H220.894V101.378H222.563V99.3888L223.269 98.5931L224.911 101.378ZM231.365 101.378H232.995V96.9765C232.995 95.4024 232.045 94.6155 230.146 94.6155C229.59 94.6155 229.132 94.6838 228.773 94.8208C228.414 94.9577 228.072 95.2057 227.747 95.5651L228.799 96.6043C228.979 96.3991 229.162 96.2514 229.351 96.1615C229.539 96.072 229.783 96.0269 230.082 96.0269C230.527 96.0269 230.845 96.1102 231.038 96.2772C231.23 96.4439 231.327 96.7112 231.327 97.0791V97.4128H229.774C229.38 97.4128 229.038 97.4641 228.747 97.5667C228.457 97.6693 228.217 97.8085 228.029 97.9837C227.841 98.1591 227.7 98.3643 227.606 98.5996C227.512 98.8349 227.465 99.0849 227.465 99.3502C227.465 99.6496 227.512 99.9277 227.606 100.184C227.7 100.441 227.836 100.663 228.016 100.851C228.41 101.245 228.979 101.442 229.723 101.442C230.108 101.442 230.422 101.39 230.666 101.288C230.909 101.185 231.143 101.023 231.365 100.8V101.378ZM231.327 98.5546V98.914C231.327 99.1277 231.307 99.3009 231.269 99.4336C231.23 99.5662 231.164 99.6754 231.07 99.7607C230.924 99.8976 230.775 99.9855 230.621 100.024C230.467 100.062 230.287 100.082 230.082 100.082C229.731 100.082 229.475 100.013 229.312 99.8763C229.15 99.7394 229.068 99.5555 229.068 99.3244C229.068 98.8114 229.398 98.5546 230.056 98.5546H231.327ZM105.655 107.116H108.042V105.525H101.485V107.116H103.871V114.66H105.655V107.116ZM109.646 111.837H113.829V111.132C113.829 110.661 113.765 110.227 113.636 109.829C113.508 109.432 113.32 109.089 113.072 108.803C112.824 108.516 112.518 108.294 112.155 108.136C111.791 107.977 111.378 107.898 110.916 107.898C110.48 107.898 110.084 107.973 109.73 108.123C109.374 108.273 109.069 108.493 108.812 108.784C108.555 109.074 108.356 109.432 108.215 109.855C108.074 110.279 108.003 110.764 108.003 111.312C108.003 111.987 108.091 112.545 108.266 112.986C108.442 113.426 108.673 113.777 108.96 114.038C109.246 114.299 109.576 114.481 109.947 114.583C110.32 114.686 110.702 114.737 111.096 114.737C111.395 114.737 111.665 114.716 111.904 114.673C112.144 114.63 112.364 114.564 112.565 114.474C112.766 114.385 112.952 114.273 113.123 114.141C113.294 114.008 113.466 113.856 113.636 113.685L112.623 112.697C112.409 112.903 112.195 113.059 111.981 113.166C111.768 113.273 111.476 113.326 111.109 113.326C110.63 113.326 110.266 113.187 110.018 112.909C109.77 112.631 109.646 112.274 109.646 111.837V111.837ZM112.187 110.696H109.646C109.655 110.55 109.667 110.424 109.684 110.317C109.702 110.21 109.74 110.097 109.8 109.977C109.894 109.78 110.033 109.616 110.217 109.483C110.401 109.35 110.634 109.284 110.916 109.284C111.199 109.284 111.432 109.35 111.616 109.483C111.8 109.616 111.939 109.78 112.033 109.977C112.092 110.097 112.131 110.21 112.148 110.317C112.165 110.424 112.178 110.55 112.187 110.696V110.696ZM118.782 114.66H120.783L118.474 111.247L120.694 107.975H118.692L117.55 109.887L116.421 107.975H114.419L116.639 111.247L114.329 114.66H116.331L117.55 112.659L118.782 114.66ZM125.762 114.66H127.43V110.387C127.43 110.02 127.385 109.68 127.295 109.368C127.205 109.055 127.024 108.762 126.75 108.489C126.562 108.3 126.335 108.155 126.07 108.052C125.805 107.95 125.505 107.898 125.172 107.898C124.864 107.898 124.564 107.956 124.274 108.072C123.983 108.187 123.726 108.36 123.504 108.591V107.975H121.874V114.66H123.542V110.618C123.542 110.387 123.576 110.195 123.645 110.041C123.713 109.887 123.801 109.763 123.908 109.669C124.015 109.575 124.135 109.506 124.267 109.464C124.4 109.421 124.53 109.4 124.658 109.4C124.787 109.4 124.917 109.421 125.05 109.464C125.183 109.506 125.302 109.575 125.409 109.669C125.516 109.763 125.602 109.887 125.666 110.041C125.73 110.195 125.762 110.387 125.762 110.618V114.66ZM134.603 111.312C134.603 110.704 134.552 110.201 134.449 109.804C134.346 109.406 134.145 109.045 133.846 108.72C133.632 108.497 133.356 108.305 133.018 108.142C132.68 107.98 132.263 107.898 131.767 107.898C131.271 107.898 130.856 107.98 130.522 108.142C130.189 108.305 129.915 108.497 129.701 108.72C129.402 109.045 129.201 109.406 129.098 109.804C128.995 110.201 128.944 110.704 128.944 111.312C128.944 111.919 128.995 112.424 129.098 112.826C129.201 113.227 129.402 113.591 129.701 113.916C129.915 114.139 130.189 114.331 130.522 114.494C130.856 114.656 131.271 114.737 131.767 114.737C132.263 114.737 132.68 114.656 133.018 114.494C133.356 114.331 133.632 114.139 133.846 113.916C134.154 113.6 134.357 113.238 134.455 112.832C134.554 112.426 134.603 111.919 134.603 111.312ZM132.935 111.312C132.935 111.662 132.914 111.979 132.871 112.261C132.828 112.543 132.721 112.77 132.55 112.941C132.353 113.138 132.092 113.236 131.767 113.236C131.451 113.236 131.194 113.138 130.997 112.941C130.826 112.77 130.719 112.543 130.676 112.261C130.634 111.979 130.612 111.662 130.612 111.312C130.612 110.969 130.634 110.657 130.676 110.375C130.719 110.092 130.826 109.866 130.997 109.695C131.194 109.498 131.451 109.4 131.767 109.4C132.092 109.4 132.353 109.498 132.55 109.695C132.721 109.866 132.828 110.092 132.871 110.375C132.914 110.657 132.935 110.969 132.935 111.312ZM138.08 114.66H139.03V113.249H138.388C138.174 113.249 138.022 113.198 137.933 113.095C137.843 112.992 137.798 112.843 137.798 112.646V105.525H136.13V112.748C136.13 112.988 136.166 113.221 136.239 113.448C136.311 113.675 136.427 113.878 136.585 114.057C136.743 114.237 136.947 114.382 137.195 114.494C137.443 114.605 137.738 114.66 138.08 114.66V114.66ZM145.612 111.312C145.612 110.704 145.561 110.201 145.458 109.804C145.356 109.406 145.154 109.045 144.855 108.72C144.641 108.497 144.365 108.305 144.028 108.142C143.69 107.98 143.272 107.898 142.776 107.898C142.28 107.898 141.865 107.98 141.532 108.142C141.198 108.305 140.924 108.497 140.71 108.72C140.411 109.045 140.21 109.406 140.108 109.804C140.005 110.201 139.954 110.704 139.954 111.312C139.954 111.919 140.005 112.424 140.108 112.826C140.21 113.227 140.411 113.591 140.71 113.916C140.924 114.139 141.198 114.331 141.532 114.494C141.865 114.656 142.28 114.737 142.776 114.737C143.272 114.737 143.69 114.656 144.028 114.494C144.365 114.331 144.641 114.139 144.855 113.916C145.163 113.6 145.366 113.238 145.464 112.832C145.563 112.426 145.612 111.919 145.612 111.312ZM143.944 111.312C143.944 111.662 143.923 111.979 143.88 112.261C143.837 112.543 143.73 112.77 143.559 112.941C143.362 113.138 143.102 113.236 142.776 113.236C142.46 113.236 142.203 113.138 142.006 112.941C141.836 112.77 141.728 112.543 141.686 112.261C141.643 111.979 141.622 111.662 141.622 111.312C141.622 110.969 141.643 110.657 141.686 110.375C141.728 110.092 141.836 109.866 142.006 109.695C142.203 109.498 142.46 109.4 142.776 109.4C143.102 109.4 143.362 109.498 143.559 109.695C143.73 109.866 143.837 110.092 143.88 110.375C143.923 110.657 143.944 110.969 143.944 111.312Z" fill="#04B5AD"/>
<path fill-rule="evenodd" clip-rule="evenodd" d="M152.45 114.417V107.975H150.834V108.604C150.602 108.347 150.363 108.166 150.115 108.059C149.867 107.952 149.563 107.898 149.204 107.898C148.879 107.898 148.577 107.95 148.299 108.052C148.021 108.155 147.788 108.3 147.6 108.489C147.446 108.642 147.322 108.814 147.228 109.002C147.134 109.19 147.065 109.393 147.023 109.611C146.98 109.829 146.952 110.065 146.939 110.317C146.926 110.569 146.92 110.841 146.92 111.132C146.92 111.423 146.926 111.696 146.939 111.953C146.952 112.21 146.98 112.447 147.023 112.665C147.065 112.883 147.134 113.086 147.228 113.275C147.322 113.463 147.446 113.634 147.6 113.788C147.788 113.976 148.019 114.122 148.293 114.224C148.567 114.327 148.866 114.378 149.191 114.378C149.516 114.378 149.807 114.329 150.064 114.231C150.32 114.132 150.56 113.959 150.782 113.711V114.391C150.782 114.562 150.759 114.731 150.712 114.898C150.665 115.065 150.587 115.212 150.481 115.34C150.374 115.469 150.235 115.573 150.064 115.655C149.892 115.736 149.683 115.777 149.435 115.777C149.153 115.777 148.911 115.736 148.71 115.655C148.509 115.573 148.314 115.443 148.126 115.264L147.087 116.316C147.437 116.649 147.801 116.878 148.177 117.002C148.554 117.126 148.999 117.188 149.512 117.188C149.957 117.188 150.361 117.12 150.724 116.983C151.088 116.846 151.398 116.653 151.655 116.405C151.911 116.157 152.108 115.864 152.245 115.526C152.382 115.188 152.45 114.819 152.45 114.417V114.417ZM150.782 111.132C150.782 111.354 150.771 111.57 150.75 111.78C150.729 111.989 150.68 112.175 150.602 112.338C150.525 112.5 150.414 112.631 150.269 112.729C150.123 112.828 149.927 112.877 149.679 112.877C149.431 112.877 149.234 112.828 149.089 112.729C148.943 112.631 148.834 112.5 148.761 112.338C148.689 112.175 148.641 111.989 148.62 111.78C148.599 111.57 148.588 111.354 148.588 111.132C148.588 110.909 148.599 110.693 148.62 110.484C148.641 110.274 148.689 110.09 148.761 109.932C148.834 109.774 148.943 109.646 149.089 109.547C149.234 109.449 149.431 109.4 149.679 109.4C149.927 109.4 150.123 109.449 150.269 109.547C150.414 109.646 150.525 109.774 150.602 109.932C150.68 110.09 150.729 110.274 150.75 110.484C150.771 110.693 150.782 110.909 150.782 111.132ZM154.324 114.66H155.992V108.168H154.324V114.66ZM154.298 106.833H156.005V105.473H154.298V106.833ZM160.342 115.738L163.203 107.975H161.445L160.111 112.107L158.725 107.975H156.967L159.251 114.186L158.969 115.007C158.883 115.255 158.783 115.418 158.667 115.494C158.552 115.571 158.374 115.61 158.135 115.61H157.75V117.111H158.404C158.678 117.111 158.937 117.075 159.18 117.002C159.424 116.93 159.645 116.795 159.841 116.598C160.03 116.41 160.196 116.123 160.342 115.738V115.738ZM167.489 114.66H169.118V110.259C169.118 108.685 168.169 107.898 166.27 107.898C165.714 107.898 165.256 107.967 164.897 108.104C164.538 108.24 164.195 108.489 163.87 108.848L164.923 109.887C165.102 109.682 165.286 109.534 165.474 109.444C165.663 109.355 165.906 109.31 166.206 109.31C166.651 109.31 166.969 109.393 167.162 109.56C167.354 109.727 167.45 109.994 167.45 110.362V110.696H165.898C165.504 110.696 165.162 110.747 164.871 110.849C164.58 110.952 164.341 111.091 164.153 111.266C163.964 111.442 163.823 111.647 163.729 111.882C163.635 112.118 163.588 112.368 163.588 112.633C163.588 112.932 163.635 113.21 163.729 113.467C163.823 113.724 163.96 113.946 164.14 114.134C164.533 114.528 165.102 114.724 165.846 114.724C166.231 114.724 166.546 114.673 166.789 114.571C167.033 114.468 167.267 114.305 167.489 114.083V114.66ZM167.45 111.837V112.197C167.45 112.411 167.431 112.584 167.393 112.716C167.354 112.849 167.288 112.958 167.194 113.044C167.048 113.18 166.899 113.268 166.745 113.307C166.591 113.345 166.411 113.364 166.206 113.364C165.855 113.364 165.598 113.296 165.436 113.159C165.273 113.022 165.192 112.838 165.192 112.607C165.192 112.094 165.522 111.837 166.18 111.837H167.45ZM172.801 114.66H173.75V113.249H173.109C172.895 113.249 172.743 113.198 172.653 113.095C172.564 112.992 172.519 112.843 172.519 112.646V105.525H170.851V112.748C170.851 112.988 170.887 113.221 170.96 113.448C171.032 113.675 171.148 113.878 171.306 114.057C171.464 114.237 171.668 114.382 171.916 114.494C172.164 114.605 172.459 114.66 172.801 114.66V114.66ZM178.511 114.66H180.141V110.259C180.141 108.685 179.191 107.898 177.292 107.898C176.736 107.898 176.278 107.967 175.919 108.104C175.56 108.24 175.217 108.489 174.892 108.848L175.945 109.887C176.124 109.682 176.308 109.534 176.496 109.444C176.685 109.355 176.928 109.31 177.228 109.31C177.673 109.31 177.991 109.393 178.184 109.56C178.376 109.727 178.473 109.994 178.473 110.362V110.696H176.92C176.526 110.696 176.184 110.747 175.893 110.849C175.602 110.952 175.363 111.091 175.175 111.266C174.986 111.442 174.845 111.647 174.751 111.882C174.657 112.118 174.61 112.368 174.61 112.633C174.61 112.932 174.657 113.21 174.751 113.467C174.845 113.724 174.982 113.946 175.162 114.134C175.555 114.528 176.124 114.724 176.868 114.724C177.253 114.724 177.568 114.673 177.812 114.571C178.055 114.468 178.289 114.305 178.511 114.083V114.66ZM178.473 111.837V112.197C178.473 112.411 178.453 112.584 178.415 112.716C178.376 112.849 178.31 112.958 178.216 113.044C178.07 113.18 177.921 113.268 177.767 113.307C177.613 113.345 177.433 113.364 177.228 113.364C176.877 113.364 176.62 113.296 176.458 113.159C176.295 113.022 176.214 112.838 176.214 112.607C176.214 112.094 176.543 111.837 177.202 111.837H178.473ZM185.568 109.797L186.826 108.527C186.595 108.296 186.355 108.134 186.107 108.04C185.859 107.945 185.573 107.898 185.248 107.898C184.888 107.898 184.559 107.969 184.26 108.11C183.96 108.251 183.729 108.42 183.567 108.617V107.975H181.937V114.66H183.605V110.631C183.605 110.417 183.637 110.234 183.701 110.08C183.766 109.926 183.849 109.797 183.952 109.695C184.054 109.592 184.17 109.517 184.298 109.47C184.426 109.423 184.555 109.4 184.683 109.4C184.888 109.4 185.055 109.434 185.183 109.502C185.312 109.571 185.44 109.669 185.568 109.797V109.797ZM187.775 114.66H189.443V108.168H187.775V114.66ZM187.75 106.833H189.456V105.473H187.75V106.833ZM102.164 127.943H103.948V118.807H102.164V127.943ZM109.837 127.943H111.506V123.67C111.506 123.303 111.461 122.963 111.371 122.65C111.281 122.338 111.099 122.045 110.825 121.771C110.637 121.583 110.411 121.438 110.145 121.335C109.88 121.233 109.581 121.181 109.247 121.181C108.939 121.181 108.64 121.239 108.349 121.354C108.058 121.47 107.801 121.643 107.579 121.874V121.258H105.949V127.943H107.617V123.901C107.617 123.67 107.652 123.478 107.72 123.324C107.789 123.17 107.876 123.046 107.983 122.952C108.09 122.858 108.21 122.789 108.342 122.747C108.475 122.704 108.605 122.682 108.734 122.682C108.862 122.682 108.993 122.704 109.125 122.747C109.258 122.789 109.378 122.858 109.485 122.952C109.591 123.046 109.677 123.17 109.741 123.324C109.805 123.478 109.837 123.67 109.837 123.901V127.943ZM117.19 127.943H118.858V123.67C118.858 123.303 118.813 122.963 118.723 122.65C118.633 122.338 118.451 122.045 118.178 121.771C117.99 121.583 117.763 121.438 117.498 121.335C117.232 121.233 116.933 121.181 116.6 121.181C116.291 121.181 115.992 121.239 115.701 121.354C115.41 121.47 115.154 121.643 114.931 121.874V121.258H113.302V127.943H114.97V123.901C114.97 123.67 115.004 123.478 115.072 123.324C115.141 123.17 115.229 123.046 115.336 122.952C115.442 122.858 115.562 122.789 115.695 122.747C115.827 122.704 115.958 122.682 116.086 122.682C116.215 122.682 116.345 122.704 116.478 122.747C116.61 122.789 116.73 122.858 116.837 122.952C116.944 123.046 117.029 123.17 117.094 123.324C117.158 123.478 117.19 123.67 117.19 123.901V127.943ZM126.03 124.594C126.03 123.987 125.979 123.484 125.876 123.087C125.774 122.689 125.573 122.328 125.273 122.002C125.06 121.78 124.784 121.587 124.446 121.425C124.108 121.263 123.691 121.181 123.195 121.181C122.699 121.181 122.284 121.263 121.95 121.425C121.616 121.587 121.343 121.78 121.129 122.002C120.829 122.328 120.628 122.689 120.526 123.087C120.423 123.484 120.372 123.987 120.372 124.594C120.372 125.202 120.423 125.706 120.526 126.108C120.628 126.51 120.829 126.874 121.129 127.199C121.343 127.421 121.616 127.614 121.95 127.777C122.284 127.939 122.699 128.02 123.195 128.02C123.691 128.02 124.108 127.939 124.446 127.777C124.784 127.614 125.06 127.421 125.273 127.199C125.581 126.883 125.784 126.521 125.883 126.115C125.981 125.708 126.03 125.202 126.03 124.594ZM124.362 124.594C124.362 124.945 124.341 125.261 124.298 125.544C124.255 125.826 124.148 126.053 123.977 126.224C123.781 126.42 123.52 126.519 123.195 126.519C122.878 126.519 122.621 126.42 122.425 126.224C122.254 126.053 122.147 125.826 122.104 125.544C122.061 125.261 122.04 124.945 122.04 124.594C122.04 124.252 122.061 123.94 122.104 123.658C122.147 123.375 122.254 123.149 122.425 122.978C122.621 122.781 122.878 122.682 123.195 122.682C123.52 122.682 123.781 122.781 123.977 122.978C124.148 123.149 124.255 123.375 124.298 123.658C124.341 123.94 124.362 124.252 124.362 124.594ZM130.38 127.943L132.831 121.258H131.073L129.726 125.39L128.366 121.258H126.608L129.071 127.943H130.38ZM137.181 127.943H138.811V123.542C138.811 121.968 137.861 121.181 135.962 121.181C135.406 121.181 134.948 121.25 134.589 121.386C134.23 121.523 133.888 121.771 133.563 122.131L134.615 123.17C134.795 122.965 134.978 122.817 135.167 122.727C135.355 122.638 135.599 122.593 135.898 122.593C136.343 122.593 136.661 122.676 136.854 122.843C137.046 123.01 137.143 123.277 137.143 123.645V123.978H135.59C135.196 123.978 134.854 124.03 134.564 124.132C134.273 124.235 134.033 124.374 133.845 124.549C133.657 124.725 133.516 124.93 133.422 125.165C133.328 125.401 133.281 125.651 133.281 125.916C133.281 126.215 133.328 126.493 133.422 126.75C133.516 127.007 133.652 127.229 133.832 127.417C134.226 127.811 134.795 128.007 135.539 128.007C135.924 128.007 136.238 127.956 136.482 127.853C136.725 127.751 136.959 127.588 137.181 127.366V127.943ZM137.143 125.12V125.48C137.143 125.693 137.123 125.867 137.085 125.999C137.046 126.132 136.98 126.241 136.886 126.326C136.741 126.463 136.591 126.551 136.437 126.589C136.283 126.628 136.103 126.647 135.898 126.647C135.547 126.647 135.291 126.579 135.128 126.442C134.966 126.305 134.884 126.121 134.884 125.89C134.884 125.377 135.214 125.12 135.872 125.12H137.143ZM142.699 127.943H143.61V126.532H143.006C142.622 126.532 142.429 126.331 142.429 125.929V122.721H143.61V121.451H142.429V119.474H140.761V121.451H140.055V122.721H140.761V126.031C140.761 126.271 140.797 126.504 140.87 126.731C140.943 126.957 141.058 127.161 141.217 127.34C141.375 127.52 141.576 127.665 141.82 127.777C142.063 127.888 142.357 127.943 142.699 127.943V127.943ZM150.089 125.839C150.089 125.266 149.925 124.812 149.595 124.479C149.266 124.145 148.768 123.944 148.1 123.876L147.048 123.773C146.8 123.747 146.623 123.688 146.516 123.593C146.409 123.499 146.355 123.367 146.355 123.196C146.355 123.025 146.43 122.875 146.58 122.747C146.73 122.618 146.971 122.554 147.305 122.554C147.604 122.554 147.889 122.586 148.158 122.65C148.428 122.714 148.661 122.832 148.857 123.003L149.884 121.964C149.559 121.665 149.185 121.459 148.761 121.348C148.338 121.237 147.861 121.181 147.33 121.181C146.988 121.181 146.661 121.226 146.349 121.316C146.037 121.406 145.763 121.54 145.528 121.72C145.293 121.9 145.104 122.122 144.963 122.387C144.822 122.652 144.752 122.961 144.752 123.311C144.752 123.927 144.925 124.378 145.271 124.665C145.617 124.951 146.086 125.125 146.676 125.185L147.754 125.287C148.028 125.313 148.214 125.379 148.312 125.486C148.41 125.593 148.46 125.732 148.46 125.903C148.46 126.031 148.425 126.138 148.357 126.224C148.289 126.309 148.199 126.38 148.088 126.436C147.976 126.491 147.85 126.532 147.709 126.557C147.568 126.583 147.425 126.596 147.279 126.596C147.151 126.596 147.012 126.589 146.862 126.577C146.713 126.564 146.559 126.534 146.4 126.487C146.242 126.44 146.086 126.376 145.932 126.294C145.778 126.213 145.633 126.104 145.496 125.967L144.405 127.058C144.619 127.272 144.839 127.441 145.066 127.565C145.293 127.689 145.524 127.785 145.759 127.853C145.994 127.922 146.236 127.967 146.484 127.988C146.732 128.01 146.988 128.02 147.254 128.02C147.647 128.02 148.017 127.975 148.363 127.885C148.71 127.796 149.011 127.661 149.268 127.481C149.525 127.302 149.726 127.075 149.871 126.801C150.017 126.528 150.089 126.207 150.089 125.839V125.839ZM151.488 127.943H153.156V121.451H151.488V127.943ZM151.462 120.116H153.169V118.756H151.462V120.116ZM160.393 124.594C160.393 123.987 160.342 123.484 160.239 123.087C160.137 122.689 159.935 122.328 159.636 122.002C159.422 121.78 159.146 121.587 158.809 121.425C158.471 121.263 158.053 121.181 157.557 121.181C157.061 121.181 156.646 121.263 156.313 121.425C155.979 121.587 155.705 121.78 155.491 122.002C155.192 122.328 154.991 122.689 154.888 123.087C154.786 123.484 154.735 123.987 154.735 124.594C154.735 125.202 154.786 125.706 154.888 126.108C154.991 126.51 155.192 126.874 155.491 127.199C155.705 127.421 155.979 127.614 156.313 127.777C156.646 127.939 157.061 128.02 157.557 128.02C158.053 128.02 158.471 127.939 158.809 127.777C159.146 127.614 159.422 127.421 159.636 127.199C159.944 126.883 160.147 126.521 160.245 126.115C160.344 125.708 160.393 125.202 160.393 124.594V124.594ZM158.725 124.594C158.725 124.945 158.704 125.261 158.661 125.544C158.618 125.826 158.511 126.053 158.34 126.224C158.143 126.42 157.882 126.519 157.557 126.519C157.241 126.519 156.984 126.42 156.787 126.224C156.616 126.053 156.509 125.826 156.467 125.544C156.424 125.261 156.402 124.945 156.402 124.594C156.402 124.252 156.424 123.94 156.467 123.658C156.509 123.375 156.616 123.149 156.787 122.978C156.984 122.781 157.241 122.682 157.557 122.682C157.882 122.682 158.143 122.781 158.34 122.978C158.511 123.149 158.618 123.375 158.661 123.658C158.704 123.94 158.725 124.252 158.725 124.594ZM165.872 127.943H167.54V123.67C167.54 123.303 167.495 122.963 167.405 122.65C167.315 122.338 167.134 122.045 166.86 121.771C166.672 121.583 166.445 121.438 166.18 121.335C165.915 121.233 165.615 121.181 165.282 121.181C164.974 121.181 164.674 121.239 164.383 121.354C164.093 121.47 163.836 121.643 163.614 121.874V121.258H161.984V127.943H163.652V123.901C163.652 123.67 163.686 123.478 163.755 123.324C163.823 123.17 163.911 123.046 164.018 122.952C164.125 122.858 164.245 122.789 164.377 122.747C164.51 122.704 164.64 122.682 164.768 122.682C164.897 122.682 165.027 122.704 165.16 122.747C165.292 122.789 165.412 122.858 165.519 122.952C165.626 123.046 165.711 123.17 165.776 123.324C165.84 123.478 165.872 123.67 165.872 123.901V127.943ZM178.934 127.943H180.718V118.807H178.96L176.586 123.747L174.2 118.807H172.441V127.943H174.225V122.618L175.983 126.083H177.189L178.934 122.618V127.943ZM186.146 127.943H187.775V123.542C187.775 121.968 186.826 121.181 184.927 121.181C184.371 121.181 183.913 121.25 183.554 121.386C183.194 121.523 182.852 121.771 182.527 122.131L183.579 123.17C183.759 122.965 183.943 122.817 184.131 122.727C184.319 122.638 184.563 122.593 184.863 122.593C185.307 122.593 185.626 122.676 185.818 122.843C186.011 123.01 186.107 123.277 186.107 123.645V123.978H184.554C184.161 123.978 183.819 124.03 183.528 124.132C183.237 124.235 182.998 124.374 182.809 124.549C182.621 124.725 182.48 124.93 182.386 125.165C182.292 125.401 182.245 125.651 182.245 125.916C182.245 126.215 182.292 126.493 182.386 126.75C182.48 127.007 182.617 127.229 182.797 127.417C183.19 127.811 183.759 128.007 184.503 128.007C184.888 128.007 185.202 127.956 185.446 127.853C185.69 127.751 185.923 127.588 186.146 127.366V127.943ZM186.107 125.12V125.48C186.107 125.693 186.088 125.867 186.049 125.999C186.011 126.132 185.945 126.241 185.85 126.326C185.705 126.463 185.555 126.551 185.401 126.589C185.248 126.628 185.068 126.647 184.863 126.647C184.512 126.647 184.255 126.579 184.093 126.442C183.93 126.305 183.849 126.121 183.849 125.89C183.849 125.377 184.178 125.12 184.837 125.12H186.107ZM193.203 123.08L194.46 121.81C194.229 121.579 193.99 121.416 193.742 121.322C193.494 121.228 193.207 121.181 192.882 121.181C192.523 121.181 192.194 121.252 191.894 121.393C191.595 121.534 191.364 121.703 191.201 121.9V121.258H189.572V127.943H191.24V123.914C191.24 123.7 191.272 123.516 191.336 123.362C191.4 123.209 191.483 123.08 191.586 122.978C191.689 122.875 191.804 122.8 191.932 122.753C192.061 122.706 192.189 122.682 192.317 122.682C192.523 122.682 192.69 122.717 192.818 122.785C192.946 122.853 193.075 122.952 193.203 123.08V123.08ZM199.426 127.943H201.492L198.926 123.953L201.313 121.258H199.298L197.078 123.991V118.807H195.41V127.943H197.078V125.954L197.784 125.159L199.426 127.943ZM205.88 127.943H207.51V123.542C207.51 121.968 206.561 121.181 204.661 121.181C204.106 121.181 203.648 121.25 203.289 121.386C202.929 121.523 202.587 121.771 202.262 122.131L203.314 123.17C203.494 122.965 203.678 122.817 203.866 122.727C204.054 122.638 204.298 122.593 204.597 122.593C205.042 122.593 205.361 122.676 205.553 122.843C205.746 123.01 205.842 123.277 205.842 123.645V123.978H204.289C203.896 123.978 203.554 124.03 203.263 124.132C202.972 124.235 202.732 124.374 202.544 124.549C202.356 124.725 202.215 124.93 202.121 125.165C202.027 125.401 201.98 125.651 201.98 125.916C201.98 126.215 202.027 126.493 202.121 126.75C202.215 127.007 202.352 127.229 202.532 127.417C202.925 127.811 203.494 128.007 204.238 128.007C204.623 128.007 204.937 127.956 205.181 127.853C205.425 127.751 205.658 127.588 205.88 127.366V127.943ZM205.842 125.12V125.48C205.842 125.693 205.823 125.867 205.784 125.999C205.746 126.132 205.679 126.241 205.585 126.326C205.44 126.463 205.29 126.551 205.136 126.589C204.982 126.628 204.803 126.647 204.597 126.647C204.247 126.647 203.99 126.579 203.828 126.442C203.665 126.305 203.584 126.121 203.584 125.89C203.584 125.377 203.913 125.12 204.572 125.12H205.842ZM208.845 127.943H213.938V126.442H210.936L213.938 122.529V121.258H209.011V122.76H211.808L208.845 126.673V127.943ZM215.44 127.943H217.108V121.451H215.44V127.943ZM215.414 120.116H217.121V118.756H215.414V120.116Z" fill="#04B5AD"/>
<path fill-rule="evenodd" clip-rule="evenodd" d="M163.934 44.8844H168.526V38.0597H165.424C164.389 38.0597 163.655 37.8113 163.221 37.315C162.787 36.8189 162.57 36.0948 162.57 35.1435V0.709503H154.504V35.6399C154.504 36.798 154.68 37.925 155.031 39.0212C155.383 40.1174 155.941 41.0998 156.707 41.9682C157.472 42.8369 158.454 43.5402 159.654 44.0777C160.853 44.6155 162.28 44.8844 163.934 44.8844V44.8844Z" fill="#6E6F70"/>
<path fill-rule="evenodd" clip-rule="evenodd" d="M173.652 86.0067H181.532V64.7258C181.532 57.1152 174.521 53.3098 165.338 53.3098C162.65 53.3098 160.437 53.6407 158.699 54.3025C156.962 54.9643 155.308 56.1639 153.736 57.9011L158.824 62.9267C159.692 61.9339 160.581 61.2204 161.492 60.7861C162.401 60.3517 163.58 60.1345 165.028 60.1345C167.179 60.1345 171.14 60.5392 172.07 61.3444C173 62.1499 173.466 63.446 173.466 65.2221V66.8352H163.539C161.639 66.8352 159.981 67.0848 158.576 67.5799C157.171 68.0751 156.011 68.7484 155.101 69.5962C154.191 70.4441 153.509 71.4368 153.054 72.5744C152.599 73.7117 152.371 74.9216 152.371 76.2038C152.371 77.6514 152.599 78.9959 153.054 80.2367C153.509 81.4774 154.171 82.553 155.039 83.4629C156.942 85.3654 159.692 86.317 163.291 86.317C165.152 86.317 169.093 86.0675 170.271 85.5723C171.448 85.0772 172.577 84.2901 173.652 83.2148V86.0067ZM173.466 72.3572V74.0943C173.466 75.1261 173.372 75.9672 173.187 76.607C173.002 77.247 172.674 77.7721 172.225 78.1892C171.519 78.845 170.797 79.2763 170.054 79.4611C169.31 79.6459 166.021 79.7403 165.028 79.7403C163.332 79.7403 162.091 79.4094 161.305 78.7476C160.519 78.0858 160.127 77.1965 160.127 76.0798C160.127 73.598 161.719 72.3572 164.904 72.3572H173.466Z" fill="#6E6F70"/>
<path fill-rule="evenodd" clip-rule="evenodd" d="M207.474 86.0067H217.463L205.054 66.7113L216.594 53.6821H206.854L196.12 66.8972V41.8319H188.055V86.0067H196.12V76.3902L199.532 72.5433L207.474 86.0067ZM225.653 44.8845H233.718V24.2239C233.718 22.4454 233.459 20.8014 232.942 19.2913C232.425 17.7819 231.505 16.3654 230.182 15.0419C229.272 14.1314 228.124 13.4284 226.738 12.9321C225.352 12.4357 223.853 12.1874 222.24 12.1874C220.213 12.1874 218.435 12.508 216.904 13.1495C215.374 13.7904 213.926 14.8347 212.561 16.2824C211.527 14.8761 210.297 13.842 208.87 13.1801C207.443 12.5185 205.819 12.1874 204 12.1874C202.51 12.1874 201.063 12.4774 199.656 13.0563C198.25 13.6354 197.009 14.4625 195.934 15.538V12.0463H188.055V41.8319H196.12V25.341C196.12 24.2239 196.285 23.2936 196.616 22.5492C196.947 21.8043 197.371 21.2044 197.888 20.7498C198.405 20.2948 198.984 19.964 199.625 19.7571C200.266 19.5501 200.897 19.447 201.518 19.447C202.138 19.447 202.769 19.5501 203.41 19.7571C204.051 19.964 204.631 20.2948 205.147 20.7498C205.664 21.2044 206.078 21.8043 206.388 22.5492C206.698 23.2936 206.854 24.2239 206.854 25.341V44.8845H214.919V25.1548C214.919 24.1207 215.084 23.2312 215.415 22.4868C215.746 21.7425 216.17 21.1529 216.687 20.7186C217.204 20.284 217.783 19.964 218.424 19.7571C219.065 19.5501 219.696 19.447 220.317 19.447C220.937 19.447 221.568 19.5501 222.209 19.7571C222.85 19.964 223.429 20.2948 223.946 20.7498C224.463 21.2044 224.877 21.8043 225.187 22.5492C225.498 23.2936 225.653 24.2239 225.653 25.341V44.8845Z" fill="#6E6F70"/>
<path fill-rule="evenodd" clip-rule="evenodd" d="M245.344 69.8134C245.344 66.8767 245.095 64.4466 244.599 62.5232C244.103 60.6 243.131 58.8523 241.683 57.2807C240.649 56.2054 239.315 55.2747 237.681 54.4888C236.047 53.7027 234.031 53.3098 231.632 53.3098C229.233 53.3098 227.227 53.7027 225.614 54.4888C224.001 55.2747 222.677 56.2054 221.643 57.2807C220.195 58.8523 219.223 60.6 218.727 62.5232C218.231 64.4466 217.982 66.8767 217.982 69.8134C217.982 72.7501 218.231 75.1905 218.727 77.1345C219.223 79.0785 220.195 80.8365 221.643 82.4081C222.677 83.4834 224.001 84.4141 225.614 85.2C227.227 85.9861 229.233 86.379 231.632 86.379C234.031 86.379 236.047 85.9861 237.681 85.2C239.315 84.4141 240.649 83.4834 241.683 82.4081C243.172 80.8776 244.154 79.1302 244.63 77.1656C245.106 75.2008 245.344 72.7501 245.344 69.8134V69.8134ZM237.278 69.8134C237.278 71.5094 237.174 73.0396 236.967 74.4047C236.761 75.7694 236.244 76.8656 235.417 77.6929C234.465 78.6441 233.204 79.1199 231.632 79.1199C230.102 79.1199 228.861 78.6441 227.909 77.6929C227.082 76.8656 226.565 75.7694 226.358 74.4047C226.151 73.0396 226.048 71.5094 226.048 69.8134C226.048 68.1589 226.151 66.6492 226.358 65.2841C226.565 63.9194 227.082 62.8232 227.909 61.996C228.861 61.0447 230.102 60.5689 231.632 60.5689C233.204 60.5689 234.465 61.0447 235.417 61.996C236.244 62.8232 236.761 63.9194 236.967 65.2841C237.174 66.6492 237.278 68.1589 237.278 69.8134V69.8134Z" fill="#6E6F70"/>
<path fill-rule="evenodd" clip-rule="evenodd" d="M269.436 86.0067H277.501V65.3462C277.501 63.5676 277.284 61.9237 276.85 60.4137C276.416 58.9041 275.537 57.4876 274.213 56.1639C273.303 55.2538 272.207 54.5508 270.925 54.0545C269.642 53.5581 268.195 53.3098 266.582 53.3098C265.093 53.3098 263.645 53.589 262.239 54.1473C260.833 54.7057 259.591 55.5436 258.516 56.6603V53.6821H250.637V86.0067H258.702V66.4632C258.702 65.3462 258.868 64.4157 259.199 63.6711C259.529 62.9267 259.954 62.3269 260.47 61.8719C260.987 61.417 261.567 61.0861 262.208 60.8792C262.849 60.6723 263.479 60.5689 264.1 60.5689C264.721 60.5689 265.351 60.6723 265.992 60.8792C266.633 61.0861 267.213 61.417 267.73 61.8719C268.246 62.3269 268.66 62.9267 268.97 63.6711C269.281 64.4157 269.436 65.3462 269.436 66.4632V86.0067Z" fill="#6E6F70"/>
<path fill-rule="evenodd" clip-rule="evenodd" d="M139.266 44.8845H147.331V13.7354C146.124 14.3936 144.739 14.7678 143.267 14.7678C141.821 14.7678 140.458 14.4061 139.266 13.7689V44.8845Z" fill="#6E6F70"/>
<path fill-rule="evenodd" clip-rule="evenodd" d="M173.467 44.8845H181.533V13.7354C180.325 14.3936 178.94 14.7678 177.468 14.7678C176.022 14.7678 174.66 14.4061 173.467 13.7689V44.8845Z" fill="#6E6F70"/>
<path fill-rule="evenodd" clip-rule="evenodd" d="M83.7213 38.8847C77.2172 32.3375 68.6776 28.2284 57.7441 25.601C75.0623 12.1974 83.7213 5.4957 83.7213 5.4957C83.7213 27.755 83.7213 38.8847 83.7213 38.8847Z" fill="#FFEB00"/>
<path fill-rule="evenodd" clip-rule="evenodd" d="M143.267 0.709717C144.74 0.709717 146.153 1.29489 147.195 2.3365C148.236 3.37812 148.821 4.79085 148.821 6.26392C148.821 7.36243 148.496 8.43628 147.885 9.34966C147.275 10.263 146.407 10.9749 145.393 11.3953C144.378 11.8157 143.261 11.9257 142.184 11.7114C141.106 11.4971 140.116 10.9681 139.34 10.1913C138.563 9.41456 138.034 8.4249 137.82 7.34749C137.605 6.27008 137.715 5.15331 138.136 4.13841C138.556 3.12352 139.268 2.25607 140.181 1.64577C141.095 1.03546 142.169 0.709717 143.267 0.709717Z" fill="#04B5AD"/>
<path fill-rule="evenodd" clip-rule="evenodd" d="M177.468 0.709717C178.941 0.709743 180.354 1.29493 181.396 2.33654C182.437 3.37815 183.022 4.79087 183.022 6.26392C183.022 7.36244 182.697 8.43628 182.086 9.34967C181.476 10.2631 180.609 10.975 179.594 11.3953C178.579 11.8157 177.462 11.9257 176.385 11.7114C175.307 11.4971 174.318 10.9681 173.541 10.1913C172.764 9.41451 172.235 8.42484 172.021 7.34743C171.806 6.27001 171.916 5.15324 172.337 4.13834C172.757 3.12345 173.469 2.25601 174.383 1.64572C175.296 1.03543 176.37 0.709697 177.468 0.709717Z" fill="#04B5AD"/>
<path fill-rule="evenodd" clip-rule="evenodd" d="M108.454 53.6821V56.6602C109.529 55.5847 110.771 54.7576 112.177 54.1787C113.583 53.5996 115.03 53.3099 116.519 53.3099C118.339 53.3099 119.963 53.6407 121.39 54.3029C122.817 54.9645 124.047 55.9986 125.082 57.4046C126.446 55.9569 127.894 54.9126 129.425 54.2717C130.955 53.6305 132.733 53.3099 134.76 53.3099C136.373 53.3099 137.873 53.5582 139.258 54.0546C140.644 54.5512 141.792 55.2539 142.701 56.1638C144.025 57.4876 144.946 58.9041 145.463 60.4138C145.98 61.9236 146.238 63.5677 146.238 65.3461V86.0067H138.172V66.4635C138.172 65.3461 138.017 64.4158 137.707 63.6711C137.397 62.9267 136.983 62.3272 136.466 61.872C135.949 61.4173 135.37 61.0862 134.73 60.8793C134.088 60.6723 133.457 60.5689 132.837 60.5689C132.216 60.5689 131.586 60.6723 130.944 60.8793C130.303 61.0862 129.724 61.4065 129.207 61.8408C128.69 62.2751 128.267 62.8647 127.935 63.609C127.604 64.3534 127.439 65.2429 127.439 66.277V86.0067H119.373V66.4635C119.373 65.3461 119.218 64.4158 118.908 63.6711C118.598 62.9267 118.184 62.3272 117.667 61.872C117.15 61.4173 116.571 61.0862 115.93 60.8793C115.289 60.6723 114.659 60.5689 114.038 60.5689C113.417 60.5689 112.787 60.6723 112.145 60.8793C111.504 61.0862 110.925 61.4173 110.408 61.872C109.891 62.3272 109.467 62.9267 109.136 63.6711C108.805 64.4158 108.64 65.3461 108.64 66.4635V86.0067H100.574V53.6821H108.454Z" fill="#6E6F70"/>
<path fill-rule="evenodd" clip-rule="evenodd" d="M83.7228 122.986V107.536H83.7231C86.0685 108.533 85.6586 108.067 85.8514 107.869C87.4793 105.689 88.4473 103.166 88.7569 100.301V122.986H83.7228ZM83.7228 101.935V64.242L83.7231 64.241C83.7231 89.8203 83.7231 64.241 83.7231 89.8203C83.7231 98.2757 83.7231 93.4798 83.7231 101.935L83.7228 101.935ZM83.7228 38.8847V5.49569L83.7231 5.49539C83.7231 38.8844 83.7231 10.538 83.7231 38.8844V38.885L83.7228 38.8847ZM88.7569 4.10419V4.10439L88.7351 4.14269L88.6701 4.25549L88.5939 4.38849L88.5003 4.55199L88.3663 4.78589L88.332 4.84539L87.9595 5.49539H88.7569V13.486C88.6648 11.7756 87.9997 9.80829 86.7624 7.58309L88.7569 4.10419ZM88.7569 31.7221V91.7049C88.2206 83.1715 86.5541 74.9867 83.7563 67.1489C86.1516 56.5837 87.8186 44.7748 88.7569 31.7221ZM88.7572 4.10389V5.49539H87.9595L88.332 4.84539L88.3663 4.78589L88.5003 4.55199L88.5939 4.38849L88.6701 4.25549L88.7351 4.14269L88.7572 4.10389ZM75.9128 5.49539H0.763816V0.461395H82.314L75.9128 5.49539ZM88.7572 122.986V128.02H75.2855C73.2026 123.823 70.207 124.838 66.2974 122.986H88.7572ZM75.2855 128.02C25.6044 128.02 0.763816 128.02 0.763816 128.02V117.912H4.07892H5.51472V120.551C5.60282 120.262 5.69752 119.977 5.79812 119.695V122.986C23.5116 122.986 42.3719 122.986 60.7767 122.986C59.9487 118.789 58.73 117.257 54.1175 116.515C55.1924 114.762 55.6958 112.061 55.066 110.101C54.3565 107.781 51.352 105.182 47.7396 103.429C47.7396 103.429 48.641 99.8335 50.4441 92.6429C49.3763 91.7208 48.332 90.8831 47.2636 90.1099L47.9383 88.2061L45.5847 87.3761L43.2311 86.5461L42.9269 87.4042C42.1584 86.996 41.3556 86.6028 40.5061 86.2199L41.0149 85.4866L38.9641 84.0706L36.9132 82.6547L35.7436 84.3408C35.1551 84.135 34.5448 83.9298 33.911 83.724C28.729 90.0254 25.8564 92.6131 25.8564 92.6131C24.1975 90.5798 20.989 89.4366 18.4818 89.7453C16.4402 90.0679 14.8449 91.0864 13.6957 92.8005C12.4601 94.8511 12.2849 96.9822 13.1685 99.1949C7.93462 101.02 6.02492 104.394 5.79812 108.412V97.2466C6.42202 96.7483 7.10382 96.314 7.84362 95.945C8.49902 86.9977 17.3672 82.7032 25.4405 86.5495C25.4405 86.5495 27.1575 84.6781 29.5057 81.8625C27.0081 80.4256 17.3315 78.6091 8.55262 76.9324C8.55262 76.9324 9.58612 75.2172 12.5259 70.7005C5.79812 65.8147 12.5259 70.7005 5.79812 65.8147V60.015V54.9985V54.9855C5.88152 54.8341 7.90911 52.9255 46.2054 28.8583C82.314 0.461399 46.2054 28.8583 82.314 0.461395C85.1416 0.461395 88.7574 0.461395 88.7574 0.461395C88.7574 2.8895 88.7574 4.10329 88.7574 4.10329C87.4274 6.42319 86.7624 7.58309 86.7624 7.58309C88.0023 9.81259 88.6673 11.7835 88.7574 13.4962C88.7574 25.6415 88.7574 31.7145 88.7574 31.7145C87.8192 44.7703 86.1521 56.5817 83.7563 67.1489C86.5549 74.9893 88.2217 83.1772 88.7574 91.7137C88.7574 97.4357 88.7574 100.296 88.7574 100.296C88.4485 103.163 87.4802 105.688 85.8514 107.869C85.6586 108.067 86.0685 108.533 83.7231 107.536C73.0966 103.021 84.1364 107.712 73.5099 103.196C71.6265 109.722 73.5099 103.196 71.6265 109.722C66.5701 105.806 61.0193 100.291 54.3216 95.6371C53.2314 99.0838 52.6854 100.807 52.6854 100.807C55.5694 102.118 57.5585 103.79 58.6535 105.822C60.2228 108.774 60.6842 111.632 60.0357 114.398C63.6822 115.705 65.7696 119.228 66.2974 122.986C70.207 124.838 73.2026 123.823 75.2855 128.02V128.02ZM4.07892 117.912C3.67952 118.919 3.33962 119.972 3.06412 121.071C3.33962 119.972 3.67952 118.919 4.07892 117.912ZM5.79812 60.015C15.0079 66.2246 5.87642 60.0677 15.0079 66.2246C38.0751 40.6714 15.0079 66.2246 38.7325 39.9267C5.79811 60.015 5.79812 60.015 5.79812 60.015ZM0.763816 111.458C0.758416 111.087 0.758416 110.721 0.763816 110.361V111.458ZM75.1435 98.2416C77.763 90.3576 82.0915 70.7691 83.7231 64.2409C83.7231 89.8202 83.7231 64.2409 83.7231 89.8202C83.7231 98.2756 83.7231 93.4797 83.7231 101.935C83.7231 101.935 83.2931 101.75 75.1435 98.2416ZM16.1976 73.8064C16.1976 73.8064 18.3596 70.5579 19.5005 69.1528C27.0784 59.6071 43.0202 39.5761 53.2895 29.5672C52.9204 29.4904 52.5482 29.4141 52.1701 29.3385C52.1701 29.3385 53.3751 27.933 55.786 25.1216C56.4555 25.2812 57.1081 25.4403 57.7459 25.6004L83.7231 5.49539C83.7231 38.8844 83.7231 10.538 83.7231 38.8844V38.885C84.0264 39.175 84.3309 39.4706 84.6376 39.7739C84.9528 45.0617 84.7444 47.0771 84.0117 45.8185C83.7812 45.5654 83.5516 45.3171 83.3223 45.0719C81.8514 56.4201 76.694 75.0746 73.4719 86.0484C73.022 87.5882 69.0915 101.458 69.0915 101.458C57.9281 89.8151 38.0927 75.9814 16.1976 73.8064V73.8064ZM84.6376 39.7739C84.9528 45.0617 84.7444 47.0771 84.0117 45.8185C75.2923 36.2371 67.4313 32.3925 52.1701 29.3385C52.1701 29.3385 53.3751 27.933 55.786 25.1216C69.5493 28.4022 76.4137 31.6374 84.6376 39.7739ZM47.9383 88.2061L41.4985 106.378C44.9545 108.506 47.0652 111.312 48.3345 114.404C49.4369 117.089 49.8675 120.2 49.9931 122.986H45.0061C44.8902 120.765 44.5452 118.296 43.7254 116.299C42.6667 113.719 40.7507 111.408 37.3701 109.809L35.3298 108.843L43.2311 86.5461L47.9383 88.2061ZM10.981 122.986C12.3643 117.612 15.5893 113.788 19.3982 111.979C21.6248 110.922 24.0476 110.471 26.4176 110.607C28.8081 110.745 31.1475 111.477 33.1856 112.784C36.3139 114.791 38.7231 118.396 39.5052 122.986H34.4181C33.7684 120.335 32.3157 118.155 30.4905 116.984C29.184 116.146 27.6813 115.676 26.1444 115.587C24.5867 115.498 22.9928 115.795 21.527 116.491C19.2655 117.565 17.296 119.885 16.1968 122.986H10.981ZM41.0149 85.4866L26.7893 105.995L25.5077 106.017C20.6531 106.098 16.1698 107.635 12.6265 110.409C9.50442 112.854 6.81442 116.285 5.51472 120.551V117.912H5.79812V109.811C6.89322 108.583 8.29912 107.471 9.56002 106.483C13.6334 103.294 18.6748 101.424 24.1275 101.088L36.9132 82.6547L41.0149 85.4866ZM58.9682 41.4282C66.8502 41.4282 73.2397 47.8178 73.2397 55.6998C73.2397 63.5815 66.8502 69.9714 58.9682 69.9714C51.0859 69.9714 44.6963 63.5815 44.6963 55.6998C44.6963 47.8178 51.0859 41.4282 58.9682 41.4282ZM58.9682 46.1853C64.2227 46.1853 68.4824 50.4452 68.4824 55.6998C68.4824 60.9544 64.2227 65.2143 58.9682 65.2143C53.7133 65.2143 49.4539 60.9544 49.4539 55.6998C49.4539 50.4452 53.7133 46.1853 58.9682 46.1853ZM0.763816 5.49539H5.79812V117.912H0.763816V5.49539Z" fill="#6E6F70"/>
<path fill-rule="evenodd" clip-rule="evenodd" d="M100.574 53.6821H108.454V56.6602C109.529 55.5847 110.771 54.7576 112.177 54.1787C112.662 53.9786 113.154 53.8131 113.649 53.6821H119.641C120.254 53.8394 120.836 54.0461 121.39 54.3029C122.817 54.9645 124.047 55.9986 125.082 57.4046C126.446 55.9569 127.894 54.9126 129.425 54.2717C130.003 54.0294 130.617 53.8329 131.266 53.6821H138.01C138.436 53.785 138.852 53.9092 139.258 54.0546C140.644 54.5512 141.792 55.2539 142.701 56.1638C144.025 57.4876 144.946 58.9041 145.463 60.4138C145.98 61.9236 146.238 63.5677 146.238 65.3461V86.0067H138.172V66.4635C138.172 65.3461 138.017 64.4158 137.707 63.6711C137.397 62.9267 136.983 62.3272 136.466 61.872C135.949 61.4173 135.37 61.0862 134.73 60.8793C134.088 60.6723 133.457 60.5689 132.837 60.5689C132.216 60.5689 131.586 60.6723 130.944 60.8793C130.303 61.0862 129.724 61.4065 129.207 61.8408C128.69 62.2751 128.267 62.8647 127.935 63.609C127.604 64.3534 127.439 65.2429 127.439 66.277V86.0067H119.373V66.4635C119.373 65.3461 119.218 64.4158 118.908 63.6711C118.598 62.9267 118.184 62.3272 117.667 61.872C117.15 61.4173 116.571 61.0862 115.93 60.8793C115.289 60.6723 114.659 60.5689 114.038 60.5689C113.417 60.5689 112.787 60.6723 112.145 60.8793C111.504 61.0862 110.925 61.4173 110.408 61.872C109.891 62.3272 109.467 62.9267 109.136 63.6711C108.805 64.4158 108.64 65.3461 108.64 66.4635V86.0067H100.574V53.6821Z" fill="#6E6F70"/>
</svg>
