<?xml version="1.0" standalone="no"?>
<!DOCTYPE svg PUBLIC "-//W3C//DTD SVG 20010904//EN"
 "http://www.w3.org/TR/2001/REC-SVG-20010904/DTD/svg10.dtd">
<svg version="1.0" xmlns="http://www.w3.org/2000/svg"
 width="270.000000pt" height="270.000000pt" viewBox="0 0 270.000000 270.000000"
 preserveAspectRatio="xMidYMid meet">
<metadata>
Created by potrace 1.11, written by Peter Selinger 2001-2013
</metadata>
<g transform="translate(0.000000,270.000000) scale(0.100000,-0.100000)"
fill="#000000" stroke="none">
<path d="M29 2688 c-2 -7 -4 -614 -4 -1348 l0 -1335 1325 -3 1326 -2 -2 1337
c-1 736 -3 1344 -3 1351 -1 18 -2637 18 -2642 0z m1504 -213 c-3 -9 -8 -14
-10 -11 -3 3 -2 9 2 15 9 16 15 13 8 -4z m11 -34 c-8 -8 -34 -10 -38 -2 -3 4
6 7 19 7 14 0 22 -2 19 -5z m-57 -16 c0 -8 -4 -15 -9 -15 -10 0 -11 14 -1 23
9 10 10 9 10 -8z m-40 -60 c0 -8 -4 -12 -9 -9 -5 3 -6 10 -3 15 9 13 12 11 12
-6z m-22 -65 c3 -6 -1 -7 -9 -4 -10 4 -16 1 -16 -7 0 -7 -3 -10 -6 -6 -7 7 4
27 16 27 5 0 12 -4 15 -10z m-52 -14 c4 -10 1 -13 -8 -9 -8 3 -12 9 -9 14 7
12 11 11 17 -5z m-46 -56 c-1 -21 -10 -18 -13 5 -1 8 2 15 6 15 5 0 8 -9 7
-20z m-19 -35 c-3 -3 -9 2 -12 12 -6 14 -5 15 5 6 7 -7 10 -15 7 -18z m-198
-21 c0 -2 -9 0 -19 6 -13 7 -22 7 -26 0 -3 -5 1 -10 9 -10 9 0 16 -5 16 -11 0
-5 5 -7 12 -3 7 4 8 3 4 -5 -6 -9 -11 -9 -23 1 -13 10 -14 9 -12 -7 2 -11 -1
-21 -6 -23 -6 -2 -19 -11 -29 -20 -11 -9 -16 -11 -12 -4 4 6 3 12 -1 12 -13 0
-34 -40 -28 -50 4 -6 1 -10 -4 -10 -18 0 -12 21 15 57 l26 34 -27 -5 c-15 -3
-24 -2 -21 2 4 4 21 7 37 8 24 1 27 -1 18 -13 -7 -7 -10 -16 -7 -18 3 -3 11 2
19 11 11 14 10 18 -6 31 -20 16 -20 16 0 9 l20 -6 -20 16 c-16 13 -16 15 -3
11 10 -3 20 -2 23 3 6 10 45 -4 45 -16z m180 2 c0 -2 -6 -9 -14 -15 -11 -9
-16 -9 -22 0 -4 8 -3 9 4 5 7 -4 12 -2 12 3 0 6 5 11 10 11 6 0 10 -2 10 -4z
m-31 -49 c13 -21 13 -21 -5 -6 -10 9 -25 14 -31 12 -7 -3 -13 -1 -13 4 0 18
37 11 49 -10z m-281 -32 c-8 -19 -14 -22 -20 -13 -4 7 -8 18 -8 23 0 6 4 4 9
-3 7 -11 9 -11 14 2 4 9 9 16 11 16 3 0 0 -11 -6 -25z m234 -2 c-6 -2 -9 -10
-6 -15 4 -7 2 -8 -5 -4 -13 9 -5 26 12 25 9 0 8 -2 -1 -6z m-27 -33 c2 -12 1
-20 -2 -16 -4 4 -8 16 -10 28 -4 28 6 18 12 -12z m-297 -11 c-3 -8 -7 -3 -11
10 -4 17 -3 21 5 13 5 -5 8 -16 6 -23z m28 -7 c-15 -15 -15 -15 -4 10 7 15 15
23 17 17 2 -6 -4 -18 -13 -27z m221 -8 c-3 -3 -12 -4 -19 -1 -8 3 -5 6 6 6 11
1 17 -2 13 -5z m-277 -8 c0 -2 -8 -10 -17 -17 -16 -13 -17 -12 -4 4 13 16 21
21 21 13z m270 -10 c0 -2 -8 -10 -17 -17 -16 -13 -17 -12 -4 4 13 16 21 21 21
13z m-331 -20 c9 -11 9 -16 -1 -22 -7 -4 -10 -4 -6 1 4 4 3 14 -3 22 -6 7 -9
13 -6 13 2 0 10 -6 16 -14z m135 6 c3 -5 -1 -9 -9 -9 -8 0 -12 4 -9 9 3 4 7 8
9 8 2 0 6 -4 9 -8z m-172 -34 c-8 -8 -9 -4 -5 13 4 13 8 18 11 10 2 -7 -1 -18
-6 -23z m316 -28 c-7 -11 -14 -17 -17 -15 -2 3 1 11 7 18 7 8 8 18 4 22 -4 5
-1 5 5 1 10 -5 10 -11 1 -26z m-412 0 c0 -12 -4 -16 -9 -11 -5 5 -6 14 -3 20
10 15 12 14 12 -9z m224 6 c0 -2 -7 -7 -16 -10 -8 -3 -12 -2 -9 4 6 10 25 14
25 6z m-2 -35 c-7 -11 -15 -18 -19 -15 -4 2 -9 -2 -12 -8 -3 -7 -4 -3 -4 8 1
13 6 20 13 17 7 -2 15 0 19 6 3 6 8 11 11 11 2 0 -1 -9 -8 -19z m-284 -9 c3
-5 -1 -9 -9 -9 -8 0 -12 4 -9 9 3 4 7 8 9 8 2 0 6 -4 9 -8z m86 2 c0 -8 -19
-13 -24 -6 -3 5 1 9 9 9 8 0 15 -2 15 -3z m346 -11 c-3 -19 -19 -21 -21 -2 -2
9 3 16 10 16 7 0 12 -6 11 -14z m-192 -19 c3 -8 2 -12 -4 -9 -6 3 -10 10 -10
16 0 14 7 11 14 -7z m-294 -19 c-5 -7 -6 -16 -2 -20 4 -5 1 -5 -6 -1 -8 5 -16
-1 -21 -16 -7 -15 -10 -17 -10 -7 -1 9 6 22 14 29 8 7 13 16 10 19 -2 4 2 8
10 8 10 0 12 -4 5 -12z m275 6 c3 -5 0 -13 -6 -17 -7 -4 -9 -3 -5 4 3 5 0 13
-6 15 -9 4 -10 6 -1 6 6 1 14 -3 18 -8z m195 -1 c18 -12 2 -12 -25 0 -13 6
-15 9 -5 9 8 0 22 -4 30 -9z m-517 -21 c-8 -8 -13 -7 -18 2 -5 8 -4 10 3 5 7
-4 12 -2 12 5 0 7 3 9 7 6 4 -4 2 -12 -4 -18z m87 7 c0 -2 -7 -7 -16 -10 -8
-3 -12 -2 -9 4 6 10 25 14 25 6z m420 -13 c0 -3 -6 -3 -14 0 -8 3 -17 -1 -20
-9 -3 -8 -10 -14 -16 -14 -5 0 -2 9 7 19 14 17 43 19 43 4z m1620 3 c0 -2 -8
-10 -17 -17 -16 -13 -17 -12 -4 4 13 16 21 21 21 13z m-2136 -32 c7 -19 2 -18
-19 6 -16 17 -16 20 -3 15 9 -4 19 -13 22 -21z m271 16 c-3 -5 -12 -10 -18
-10 -7 0 -6 4 3 10 19 12 23 12 15 0z m38 -5 c-3 -9 -8 -14 -10 -11 -3 3 -2 9
2 15 9 16 15 13 8 -4z m-337 -17 c4 -7 3 -8 -4 -4 -7 4 -12 1 -12 -8 0 -8 -4
-17 -9 -20 -12 -8 -8 27 4 36 13 10 13 10 21 -4z m450 -16 c-17 -16 -18 -16
-5 5 7 12 15 20 18 17 3 -2 -3 -12 -13 -22z m-161 0 c-3 -3 -11 0 -18 7 -9 10
-8 11 6 5 10 -3 15 -9 12 -12z m192 -4 c-3 -8 -6 -5 -6 6 -1 11 2 17 5 13 3
-3 4 -12 1 -19z m24 -1 c-10 -9 -11 -8 -5 6 3 10 9 15 12 12 3 -3 0 -11 -7
-18z m1654 -5 c-3 -3 -11 0 -18 7 -9 10 -8 11 6 5 10 -3 15 -9 12 -12z m-15
-16 c0 -2 -8 -10 -17 -17 -16 -13 -17 -12 -4 4 13 16 21 21 21 13z m-2244 -32
c0 -20 -11 -25 -11 -6 0 4 -3 12 -7 18 -4 6 -1 11 5 11 7 0 13 -11 13 -23z
m320 -23 c-1 -16 -4 -27 -8 -25 -9 6 -6 54 3 54 3 0 6 -13 5 -29z m-382 -7 c3
-8 2 -12 -4 -9 -6 3 -10 10 -10 16 0 14 7 11 14 -7z m33 10 c-3 -3 -12 -4 -19
-1 -8 3 -5 6 6 6 11 1 17 -2 13 -5z m539 -6 c3 -4 -1 -5 -10 -4 -8 1 -18 5
-22 8 -3 4 1 5 10 4 8 -1 18 -5 22 -8z m-222 -16 c3 -5 -1 -9 -9 -9 -8 0 -12
4 -9 9 3 4 7 8 9 8 2 0 6 -4 9 -8z m-480 -20 c3 -5 -1 -9 -9 -9 -8 0 -12 4 -9
9 3 4 7 8 9 8 2 0 6 -4 9 -8z m-6 -47 c-3 -3 -9 2 -12 12 -6 14 -5 15 5 6 7
-7 10 -15 7 -18z m643 2 c-10 -9 -11 -8 -5 6 3 10 9 15 12 12 3 -3 0 -11 -7
-18z m-663 -12 c-3 -3 -9 2 -12 12 -6 14 -5 15 5 6 7 -7 10 -15 7 -18z m62 11
c0 -2 -8 -10 -17 -17 -16 -13 -17 -12 -4 4 13 16 21 21 21 13z m-80 -16 c0 -5
-2 -10 -4 -10 -3 0 -8 5 -11 10 -3 6 -1 10 4 10 6 0 11 -4 11 -10z m434 -2
c-5 -7 -2 -9 8 -6 8 4 15 1 15 -7 0 -8 -7 -11 -15 -7 -11 4 -13 1 -7 -8 5 -8
4 -11 -3 -7 -5 4 -9 15 -7 25 5 23 4 22 11 22 3 0 2 -5 -2 -12z m2052 -3 c-1
-5 -5 -16 -9 -22 -5 -8 -3 -13 5 -13 7 0 4 -6 -7 -12 -11 -6 -23 -16 -27 -22
-5 -8 -8 -7 -8 1 0 7 8 17 18 22 9 6 13 11 8 11 -5 0 -3 7 4 15 8 10 9 15 2
15 -6 0 -16 -9 -22 -20 -6 -11 -15 -20 -21 -20 -6 0 -3 7 5 16 17 17 12 39 -6
28 -6 -4 -8 -3 -5 2 8 13 65 12 63 -1z m-2502 -14 c13 -14 14 -21 5 -27 -8 -4
-10 -3 -5 4 4 7 3 12 -2 12 -6 0 -12 7 -16 15 -7 20 -3 19 18 -4z m53 4 c0 -8
-4 -12 -9 -9 -5 3 -6 10 -3 15 9 13 12 11 12 -6z m620 0 c0 -8 -4 -15 -9 -15
-10 0 -11 14 -1 23 9 10 10 9 10 -8z m-706 -38 c-10 -9 -11 -8 -5 6 3 10 9 15
12 12 3 -3 0 -11 -7 -18z m460 0 c-8 -8 -14 -7 -23 2 -11 10 -9 11 6 5 15 -6
17 -4 11 6 -6 9 -4 11 4 5 9 -5 10 -10 2 -18z m186 3 c1 -11 -2 -20 -7 -20 -6
0 -7 17 -1 38 3 8 7 -1 8 -18z m-202 -50 c3 -5 1 -10 -4 -10 -6 0 -11 5 -11
10 0 6 2 10 4 10 3 0 8 -4 11 -10z m175 6 c0 -2 -8 -10 -17 -17 -16 -13 -17
-12 -4 4 13 16 21 21 21 13z m3 -31 c-3 -9 -8 -14 -10 -11 -3 3 -2 9 2 15 9
16 15 13 8 -4z m-213 -20 c-7 -9 -15 -13 -19 -10 -3 3 1 10 9 15 21 14 24 12
10 -5z m193 0 c4 -8 3 -16 -1 -19 -4 -3 -9 4 -9 15 -2 23 3 25 10 4z"/>
</g>
</svg>
