<svg width="17" height="17" viewBox="0 0 17 17" xmlns="http://www.w3.org/2000/svg">
<path d="M15.8825 3.43203C16.5803 2.49797 16.998 1.52819 17 0.835361C16.9991 0.611 16.9541 0.435667 16.8685 0.305056C16.8595 0.289083 16.8349 0.247278 16.7913 0.206083C16.7481 0.163139 16.7092 0.140194 16.7008 0.135556C16.5638 0.0441111 16.3876 0 16.1632 0C15.4721 0.00116667 14.502 0.418555 13.5677 1.1175C12.8125 1.68264 12.0572 2.47853 11.0116 3.58064C10.8343 3.76756 10.6476 3.96408 10.4503 4.17017L8.42512 3.56322L8.43121 3.55742C8.51537 3.47236 8.56329 3.35539 8.56212 3.24044C8.56329 3.11911 8.51423 3.00214 8.42976 2.91797L8.06404 2.55167C7.97957 2.46661 7.86287 2.41786 7.74215 2.41786C7.62023 2.41786 7.50646 2.46489 7.4214 2.55081L6.87426 3.09825L6.58457 3.01175C6.64699 2.9325 6.68151 2.83353 6.68035 2.736C6.68151 2.61292 6.6339 2.49828 6.54829 2.41322L6.18082 2.04575C6.09693 1.96158 5.98082 1.91339 5.85893 1.91339C5.7376 1.91339 5.6241 1.96072 5.53993 2.04633L5.03779 2.54819L2.97869 1.93139C2.93255 1.91775 2.88377 1.9105 2.83152 1.9105C2.68524 1.91225 2.54969 1.96653 2.45071 2.06464L1.7268 2.78883C1.64463 2.87097 1.59849 2.98214 1.59938 3.0875C1.59677 3.24278 1.68269 3.38617 1.82027 3.45989L6.15038 5.87892C6.17157 5.89081 6.23282 5.93611 6.25546 5.95875L7.48993 7.19294C6.33526 8.40942 5.30657 9.58761 4.50491 10.6125C4.43002 10.7077 4.35918 10.8006 4.28952 10.8926L0.939633 10.5884C0.923383 10.5864 0.905077 10.5849 0.881855 10.5849C0.7283 10.5881 0.578244 10.6488 0.4668 10.7565L0.129217 11.0938C0.0459118 11.1753 -0.00111593 11.2856 5.074e-05 11.3921C-0.00256037 11.5547 0.0958284 11.705 0.243578 11.7709L2.60019 12.8902C2.62049 12.9003 2.67333 12.9378 2.69046 12.9549L2.8861 13.1491C2.82485 13.3215 2.7938 13.471 2.79205 13.6022C2.79146 13.7778 2.84807 13.9281 2.95635 14.0364L2.96477 14.0437L2.96707 14.0454C3.07824 14.1531 3.22221 14.208 3.40044 14.208C3.52874 14.2059 3.67677 14.1755 3.84977 14.1145L4.0483 14.3128C4.06368 14.329 4.10055 14.3807 4.11013 14.4013L5.22704 16.7527C5.29527 16.9028 5.44241 17 5.60263 17H5.60493C5.71582 17 5.82176 16.9556 5.90274 16.8743L6.24843 16.5275C6.35088 16.4195 6.41127 16.2706 6.41357 16.1136C6.41357 16.0944 6.41271 16.0796 6.41213 16.0715L6.10707 12.7094C6.19879 12.6403 6.29168 12.5692 6.38715 12.4949C7.41351 11.692 8.59198 10.6624 9.80612 9.50953L11.0415 10.7461C11.0615 10.7652 11.1082 10.8265 11.1219 10.852L13.5363 15.1743C13.61 15.3139 13.7519 15.4001 13.9093 15.4001C14.0216 15.4001 14.1284 15.3557 14.2103 15.2733L14.9394 14.5447C15.034 14.4457 15.0871 14.3113 15.0886 14.1645C15.0886 14.1151 15.0816 14.0673 15.0689 14.0223L14.4521 11.9626L14.9539 11.4598C15.0384 11.3759 15.0863 11.2592 15.0863 11.1394C15.0863 11.0189 15.0395 10.9057 14.9545 10.8195L14.5864 10.4517C14.5023 10.3673 14.3859 10.3191 14.266 10.3191C14.1644 10.3191 14.0652 10.3531 13.9876 10.4143L13.9014 10.1258L14.4491 9.57808C14.5333 9.49361 14.5812 9.37692 14.5812 9.25675C14.5812 9.13572 14.5345 9.02225 14.4491 8.93719L14.0828 8.57086C13.9983 8.48522 13.8811 8.43675 13.7606 8.43675C13.6396 8.43675 13.5223 8.4858 13.4396 8.57028L13.4358 8.57375L12.8291 6.54889C13.0387 6.34919 13.2375 6.15906 13.4277 5.97997C14.5259 4.93789 15.3188 4.18553 15.8825 3.43203Z"/>
</svg>
