<svg width="21" height="17" viewBox="0 0 21 17" xmlns="http://www.w3.org/2000/svg">
<path d="M20.9997 9.44324C20.9997 9.03967 20.9065 8.65421 20.738 8.30156C20.7207 8.21191 20.7008 8.1224 20.676 8.0316L18.8519 3.61482L18.8396 3.57509C18.2013 1.7184 17.2932 0 14.9905 0H6.18621C3.82672 0 2.99295 1.76098 2.34073 3.56477L0.432671 7.99232C0.156827 8.42412 0 8.91807 0 9.44324V10.8176C0 11.0301 0.0257079 11.238 0.0745904 11.4382C0.0270683 11.5591 0 11.6895 0 11.8269V15.9146C0 16.514 0.497363 17 1.11088 17H3.41614C4.02933 17 4.5267 16.514 4.5267 15.9146V13.8704H16.6047V15.9146C16.6047 16.514 17.1022 17 17.7157 17H19.889C20.5027 17 21 16.514 21 15.9146V11.8264C21 11.6895 20.9727 11.5586 20.9255 11.438C20.9742 11.2375 21 11.0299 21 10.8174L20.9997 9.44324ZM3.69452 4.00821C4.42086 2.00606 5.00497 1.39486 6.18621 1.39486H14.9899C16.1625 1.39486 16.8154 2.07655 17.4789 3.9996L18.81 6.63514C18.3754 6.47788 17.8971 6.39061 17.3946 6.39061H3.60515C3.15269 6.39061 2.7203 6.4617 2.32136 6.59036L3.69452 4.00821ZM4.83801 11.3396H2.4057C1.96778 11.3396 1.61261 10.9922 1.61261 10.5644C1.61261 10.1365 1.96778 9.78937 2.4057 9.78937H4.83801C5.27612 9.78937 5.63129 10.1365 5.63129 10.5644C5.63129 10.9922 5.27588 11.3396 4.83801 11.3396ZM13.4302 11.1843H7.7726C7.49521 11.1843 7.27045 10.9646 7.27045 10.6937C7.27045 10.4223 7.49521 10.2027 7.7726 10.2027H13.4302C13.7079 10.2027 13.9326 10.4223 13.9326 10.6937C13.9326 10.9646 13.7079 11.1843 13.4302 11.1843ZM18.5327 11.3396H16.1005C15.6622 11.3396 15.3072 10.9922 15.3072 10.5644C15.3072 10.1365 15.6625 9.78937 16.1005 9.78937H18.5327C18.971 9.78937 19.3263 10.1365 19.3263 10.5644C19.3263 10.9922 18.971 11.3396 18.5327 11.3396Z" />
</svg>
