<svg width="15" height="16" viewBox="0 0 15 16" xmlns="http://www.w3.org/2000/svg">
<path d="M15 6.40827C15 4.9139 14.5084 3.45301 13.5732 2.29477C12.65 1.15152 11.3633 0.340508 9.92864 0.0110676C9.7074 -0.0398934 9.49068 0.0896393 9.42505 0.306911L7.59102 6.40708H2.43592V4.89713C2.43592 4.65888 2.28731 4.46571 2.04908 4.46571H0.431385C0.193152 4.46571 0 4.65888 0 4.89713C0 5.13538 0.193152 5.32854 0.431385 5.32854H1.57315V8.92661C1.57315 9.7093 2.25215 10.3438 3.03474 10.3438H6.81027L7.43033 10.9639L6.15494 12.2394C5.84154 12.0423 5.47131 11.9279 5.07465 11.9279C3.95208 11.9279 3.03878 12.8413 3.03878 13.964C3.03878 15.0866 3.95208 16 5.07465 16C6.03259 16 6.83761 15.3348 7.05335 14.4422H9.02753C9.24328 15.3348 10.0483 16 11.0061 16C12.1288 16 13.0421 15.0867 13.0421 13.964C13.0421 12.8413 12.1288 11.9279 11.0061 11.9279C10.6095 11.9279 10.2392 12.0423 9.92589 12.2393L8.65056 10.9639L9.27062 10.3438H13.6275C14.4101 10.3438 15 9.70925 15 8.92661V6.40827ZM8.05039 10.3438L8.04042 10.3538L8.03049 10.3438H8.05039ZM5.07459 15.1372C4.42773 15.1372 3.9015 14.6109 3.9015 13.9641C3.9015 13.3171 4.42773 12.7908 5.07459 12.7908C5.72151 12.7908 6.2478 13.3171 6.2478 13.9641C6.2478 14.6109 5.72151 15.1372 5.07459 15.1372ZM11.0061 15.1372C10.3593 15.1372 9.83304 14.6109 9.83304 13.9641C9.83304 13.3171 10.3593 12.7908 11.0061 12.7908C11.653 12.7908 12.1793 13.3171 12.1793 13.9641C12.1793 14.6109 11.653 15.1372 11.0061 15.1372ZM9.30836 12.8421C9.16272 13.0619 9.0587 13.3114 9.0072 13.5794H7.07368C7.02219 13.3114 6.91817 13.0619 6.77247 12.8421L8.04047 11.574L9.30836 12.8421Z"/>
</svg>
