<svg width="15" height="17" viewBox="0 0 15 17" xmlns="http://www.w3.org/2000/svg">
<path d="M11.5999 7.25135V6.05768C11.5999 5.62615 11.2416 5.27601 10.8003 5.27601H8.72189C9.14209 4.74103 9.31498 4.22341 9.23612 3.70977C9.13765 3.07243 8.6771 2.56856 8.27023 2.12292C7.68862 1.48594 7.37283 1.09998 7.65457 0.571152C7.7449 0.400783 7.69529 0.190625 7.53721 0.0766844C7.37987 -0.0376184 7.15959 -0.0227879 7.01965 0.112133C5.15006 1.90553 6.1415 3.08002 6.86564 3.93802C7.32841 4.48674 7.60718 4.85063 7.51536 5.27601H5.12266C5.54323 4.74103 5.71575 4.22341 5.63689 3.70977C5.53879 3.07243 5.07787 2.56856 4.671 2.12292C4.08902 1.48594 3.77323 1.09998 4.05496 0.571152C4.14567 0.400783 4.09606 0.190625 3.93798 0.0766844C3.78027 -0.0376184 3.55999 -0.0227879 3.42005 0.112133C1.55046 1.90553 2.54227 3.08002 3.26641 3.93802C3.72918 4.48674 4.00758 4.85063 3.91576 5.27601H0.800035C0.358368 5.27601 0 5.62615 0 6.05768V14.2647C0 15.7731 1.25651 17 2.79994 17H8.80001C10.2139 17 11.3837 15.9691 11.5707 14.6369C13.4917 14.4539 15 12.8674 15 10.9423C15.0004 9.02775 13.508 7.4474 11.5999 7.25135ZM3.60034 13.874C3.60034 14.3052 3.24197 14.6557 2.80031 14.6557C2.35864 14.6557 2.00027 14.3052 2.00027 13.874V8.01168C2.00027 7.58015 2.35864 7.23001 2.80031 7.23001C3.24197 7.23001 3.60034 7.58015 3.60034 8.01168V13.874ZM11.5999 13.0551V8.83097C12.6225 9.01581 13.3999 9.89189 13.3999 10.943C13.4003 11.9946 12.6225 12.8703 11.5999 13.0551Z" />
</svg>
