<svg width="34" height="36" viewBox="0 0 34 36" fill="none" xmlns="http://www.w3.org/2000/svg">
<path d="M33.8061 9.74229L24.6138 0.212203C24.4829 0.0766406 24.3024 0 24.1138 0H10.4133C8.88009 0 7.63267 1.24411 7.63267 2.77327V12.4616H2.0804C0.933259 12.4616 0 13.3924 0 14.5367V24.9249C0 26.0691 0.933259 27 2.0804 27H7.63267V33.2316C7.63267 34.7581 8.88009 36 10.4133 36H31.2193C32.7526 36 34 34.7588 34 33.2331V10.2224C34 10.0434 33.9304 9.87131 33.8061 9.74229ZM24.2857 1.86898L31.8318 9.6923H24.2857V1.86898ZM2.0804 25.6154C1.69844 25.6154 1.3878 25.3057 1.3878 24.9249V14.5367C1.3878 14.1559 1.69851 13.8461 2.0804 13.8461H20.8175C21.1994 13.8461 21.5102 14.1559 21.5102 14.5367V24.9249C21.5102 25.3057 21.1994 25.6154 20.8175 25.6154H2.0804ZM32.6122 33.2331C32.6122 33.9953 31.9873 34.6154 31.2193 34.6154H10.4133C9.64527 34.6154 9.0204 33.9947 9.0204 33.2317V27H20.8175C21.9647 27 22.8979 26.0691 22.8979 24.9249V14.5367C22.8979 13.3924 21.9647 12.4616 20.8175 12.4616H9.0204V2.77327C9.0204 2.00749 9.64527 1.38459 10.4133 1.38459H22.8979V10.3846C22.8979 10.767 23.2086 11.0769 23.5918 11.0769H32.6122V33.2331Z" fill="black"/>
<path d="M8.17875 18.5239C8.04866 18.144 7.85909 17.823 7.60962 17.5605C7.36036 17.2982 7.06079 17.1158 6.71111 17.013C6.45093 16.9371 6.07291 16.8994 5.57679 16.8994H3.37736V22.8461H5.64184C6.08644 22.8461 6.44155 22.8043 6.70709 22.7203C7.0622 22.6067 7.34409 22.4485 7.55275 22.2458C7.82928 21.978 8.04197 21.6278 8.19116 21.1951C8.31307 20.8408 8.37396 20.4191 8.37396 19.9294C8.37389 19.3725 8.30885 18.9039 8.17875 18.5239ZM7.00779 20.966C6.92661 21.2324 6.82147 21.4236 6.69278 21.5399C6.56403 21.6562 6.40202 21.7388 6.20688 21.7874C6.0579 21.8253 5.8152 21.8441 5.47919 21.8441H4.58067V17.9052H5.12133C5.6121 17.9052 5.94134 17.9241 6.10942 17.962C6.33443 18.0108 6.52006 18.1041 6.66643 18.2419C6.81266 18.3798 6.92661 18.5719 7.00779 18.8181C7.08912 19.064 7.12992 19.4169 7.12992 19.8768C7.12999 20.3366 7.08919 20.6996 7.00779 20.966Z" fill="black"/>
<path d="M19.6848 20.6596C19.5843 21.0951 19.419 21.4143 19.1886 21.6169C18.9583 21.8198 18.6832 21.9213 18.3633 21.9213C17.9296 21.9213 17.5773 21.7617 17.3063 21.4427C17.0352 21.1236 16.8997 20.588 16.8997 19.8362C16.8997 19.1278 17.0373 18.6153 17.3124 18.299C17.5875 17.9824 17.9459 17.8241 18.3877 17.8241C18.7076 17.8241 18.9793 17.9134 19.2029 18.0919C19.4265 18.2705 19.5736 18.5138 19.644 18.8221L20.8353 18.538C20.6998 18.0621 20.4965 17.6971 20.2256 17.4428C19.7702 17.013 19.178 16.7979 18.4489 16.7979C17.614 16.7979 16.9404 17.0717 16.4282 17.6194C15.9159 18.1671 15.6597 18.9356 15.6597 19.9254C15.6597 20.8611 15.9145 21.5987 16.4242 22.1382C16.9336 22.6778 17.5841 22.9475 18.3757 22.9475C19.0152 22.9475 19.5431 22.79 19.9593 22.4749C20.3753 22.1599 20.6727 21.6779 20.8516 21.0289L19.6848 20.6596Z" fill="black"/>
<path d="M14.1412 17.6134C13.6139 17.0697 12.9114 16.7979 12.0331 16.7979C11.5479 16.7979 11.1198 16.8763 10.7484 17.0331C10.4692 17.1494 10.2124 17.3279 9.97797 17.5686C9.74344 17.8092 9.55852 18.0811 9.42286 18.384C9.24126 18.795 9.15056 19.3034 9.15056 19.9091C9.15056 20.8557 9.41215 21.5987 9.93512 22.1382C10.4583 22.6777 11.1632 22.9475 12.0494 22.9475C12.9249 22.9475 13.6242 22.6765 14.1474 22.1342C14.6703 21.5919 14.9319 20.8408 14.9319 19.8807C14.9319 18.9126 14.6684 18.1568 14.1412 17.6134ZM13.2264 21.4041C12.9188 21.7489 12.525 21.9213 12.0452 21.9213C11.5656 21.9213 11.1699 21.7475 10.8582 21.4001C10.5465 21.0525 10.3905 20.5421 10.3905 19.8688C10.3905 19.1846 10.5423 18.6728 10.8458 18.3334C11.1494 17.994 11.5493 17.8241 12.0452 17.8241C12.5413 17.8241 12.9391 17.9918 13.2385 18.3273C13.5381 18.6626 13.6878 19.1711 13.6878 19.8525C13.6878 20.5421 13.5341 21.0593 13.2264 21.4041Z" fill="black"/>
</svg>
