<svg width="19" height="19" viewBox="0 0 19 19" xmlns="http://www.w3.org/2000/svg">
<path fill-rule="evenodd" clip-rule="evenodd" d="M13.0975 1.68063C12.3918 1.68063 11.715 1.94643 11.216 2.41954L3.07128 10.142C2.23969 10.9305 1.77253 11.9999 1.77253 13.115C1.77253 14.2301 2.23969 15.2995 3.07128 16.0879C3.90286 16.8764 5.03075 17.3194 6.20679 17.3194C7.38283 17.3194 8.51071 16.8764 9.3423 16.0879L17.4871 8.36544C17.8332 8.03728 18.3943 8.03728 18.7404 8.36544C19.0865 8.69361 19.0865 9.22564 18.7404 9.5538L10.5957 17.2763C9.43166 18.3799 7.85293 19 6.20679 19C4.56064 19 2.98191 18.3799 1.81791 17.2763C0.65391 16.1726 0 14.6758 0 13.115C0 11.5542 0.65391 10.0573 1.81791 8.95367L9.96267 1.23119C10.7941 0.442887 11.9217 0 13.0975 0C14.2733 0 15.4009 0.442887 16.2323 1.23119C17.0637 2.01948 17.5308 3.08865 17.5308 4.20347C17.5308 5.31829 17.0637 6.38745 16.2323 7.17575L8.07865 14.8982C7.57985 15.3712 6.90333 15.6368 6.19792 15.6368C5.4925 15.6368 4.81598 15.3712 4.31718 14.8982C3.81837 14.4253 3.53815 13.7838 3.53815 13.115C3.53815 12.4461 3.81837 11.8047 4.31718 11.3317L11.8419 4.20552C12.1882 3.87755 12.7494 3.87788 13.0953 4.20624C13.4412 4.53459 13.4409 5.06663 13.0946 5.3946L5.57054 12.5201C5.40438 12.6779 5.31068 12.892 5.31068 13.115C5.31068 13.3381 5.40415 13.5521 5.57054 13.7098C5.73694 13.8676 5.9626 13.9562 6.19792 13.9562C6.43323 13.9562 6.65892 13.8676 6.82531 13.7098L14.9789 5.98734C15.4777 5.51425 15.7582 4.87241 15.7582 4.20347C15.7582 3.53438 15.4779 2.89266 14.9789 2.41954C14.4799 1.94643 13.8032 1.68063 13.0975 1.68063Z"/>
</svg>
