<svg width="16" height="17" viewBox="0 0 16 17" xmlns="http://www.w3.org/2000/svg">
<path d="M13.6713 2.76839C12.3922 1.03471 10.2732 0 8.00046 0C5.72687 0 3.60778 1.03534 2.32928 2.76995C0.831253 4.38299 0.00389572 6.52202 0 8.79715C0.00360812 10.6263 0.540015 12.3703 1.55167 13.8435C2.00734 15.4849 3.42531 16.6427 5.05045 16.7164C5.13326 16.8865 5.30224 16.9993 5.49378 16.9993C5.52058 16.9993 5.54529 16.9964 5.57658 16.992L6.92555 16.747C7.16439 16.7032 7.33727 16.4881 7.33727 16.2351C7.33727 16.2068 7.33486 16.1797 7.33034 16.1466L6.09492 8.70735C6.05155 8.45948 5.84615 8.27898 5.6049 8.27835C5.57026 8.27835 5.53894 8.28182 5.50821 8.28844L4.1719 8.53131C3.93306 8.57572 3.76018 8.7899 3.76079 9.03526C3.76079 9.03841 3.76079 9.04188 3.76018 9.04535C2.90485 9.41483 2.21063 10.0961 1.80194 10.952C1.59081 10.2558 1.4839 9.53391 1.4839 8.79685C1.4839 7.39581 1.86759 6.04705 2.59463 4.89044C3.07469 4.72665 3.41231 4.44946 3.61471 4.23938L3.62315 4.23054L3.63097 4.22045C4.58812 3.01818 6.22079 2.30097 7.99986 2.30097C9.68765 2.30064 11.273 2.96084 12.2404 4.06705L12.2573 4.08658C12.2844 4.11712 12.307 4.14422 12.3365 4.17949C12.507 4.36817 12.8666 4.70078 13.4033 4.88694C14.1315 6.04514 14.5164 7.39452 14.5164 8.79715C14.5164 9.53514 14.4095 10.2577 14.1981 10.9532C13.7894 10.0968 13.0951 9.41516 12.2386 9.04568V9.0438C12.2386 8.79026 12.0658 8.57509 11.8272 8.53164L10.4846 8.28723C10.4569 8.28125 10.427 8.27873 10.3939 8.27873C10.1524 8.27936 9.94696 8.46079 9.9045 8.71025L8.66966 16.1413C8.66425 16.1703 8.6615 16.2012 8.6615 16.2352C8.6615 16.4881 8.83438 16.7033 9.07322 16.7477L10.4249 16.9931C10.4514 16.9975 10.4773 17 10.5062 17C10.6544 17 10.789 16.932 10.8815 16.8217L10.952 16.8346L10.9718 16.7156C12.5858 16.6327 13.9933 15.4789 14.4474 13.8477C15.4603 12.3723 15.997 10.6279 16 8.7969C15.9973 6.52139 15.17 4.3814 13.6713 2.76839ZM5.48502 8.97732L6.66985 16.1082L5.61452 16.3003L4.4297 9.16944L5.48502 8.97732ZM10.3864 16.3003L9.33107 16.1082L10.5159 8.97762L11.5718 9.16944L11.5652 9.20693L10.3864 16.3003Z" />
</svg>
