<svg xmlns="http://www.w3.org/2000/svg" viewBox="0 0 13 13.031">
  <path style="fill-rule: evenodd;" d="M726.834,144.328a0.658,0.658,0,0,0-.051-0.918l-5.807-5.264a0.706,0.706,0,0,0-.945.011l-5.826,5.533a0.655,0.655,0,0,0-.028.918l0.146,0.157a0.622,0.622,0,0,0,.874.07l0.436-.4v5.914a0.646,0.646,0,0,0,.634.657h2.271a0.646,0.646,0,0,0,.634-0.657v-4.138h2.9v4.138a0.611,0.611,0,0,0,.6.656h2.407a0.645,0.645,0,0,0,.634-0.656v-5.831l0.269,0.244a0.56,0.56,0,0,0,.695-0.241Z" transform="translate(-714 -137.969)"/>
</svg>
