<svg xmlns="http://www.w3.org/2000/svg" viewBox="0 0 23.6 23.594">
  <path style="fill-rule: evenodd;" d="M1255.38,62.664h17.53a2.951,2.951,0,0,1,3.02,3.025V83.211a2.952,2.952,0,0,1-3.02,3.025h-17.53a2.952,2.952,0,0,1-3.02-3.025V65.689a2.951,2.951,0,0,1,3.02-3.025h0Zm14.15,2.619a1.066,1.066,0,0,0-1.06,1.061v2.54a1.066,1.066,0,0,0,1.06,1.061h2.67a1.066,1.066,0,0,0,1.06-1.061v-2.54a1.066,1.066,0,0,0-1.06-1.061h-2.67Zm3.74,7.35h-2.08a6.78,6.78,0,0,1,.31,2.022,7.334,7.334,0,0,1-14.66,0,7.108,7.108,0,0,1,.3-2.022h-2.16V82.59a0.94,0.94,0,0,0,.94.937h16.41a0.939,0.939,0,0,0,.94-0.937V72.632h0Zm-9.1-2.821a4.59,4.59,0,1,0,4.73,4.588A4.664,4.664,0,0,0,1264.17,69.812Z" transform="translate(-1252.34 -62.656)"/>
</svg>
