<svg width="34" height="36" viewBox="0 0 34 36" fill="none" xmlns="http://www.w3.org/2000/svg">
<path d="M33.7296 9.74229L24.5581 0.212203C24.4275 0.0766406 24.2474 0 24.0592 0H10.3898C8.86001 0 7.61541 1.24411 7.61541 2.77327V12.4616H2.0757C0.931148 12.4616 0 13.3924 0 14.5367V24.9249C0 26.0691 0.931148 27 2.0757 27H7.61541V33.2316C7.61541 34.7581 8.86001 36 10.3898 36H31.1487C32.6785 36 33.9231 34.7588 33.9231 33.2331V10.2224C33.9231 10.0434 33.8537 9.87131 33.7296 9.74229ZM24.2308 1.86898L31.7598 9.6923H24.2308V1.86898ZM2.0757 25.6154C1.6946 25.6154 1.38466 25.3057 1.38466 24.9249V14.5367C1.38466 14.1559 1.69467 13.8461 2.0757 13.8461H20.7705C21.1516 13.8461 21.4616 14.1559 21.4616 14.5367V24.9249C21.4616 25.3057 21.1515 25.6154 20.7705 25.6154H2.0757ZM32.5384 33.2331C32.5384 33.9953 31.915 34.6154 31.1486 34.6154H10.3898C9.62346 34.6154 9 33.9947 9 33.2317V27H20.7705C21.9151 27 22.8462 26.0691 22.8462 24.9249V14.5367C22.8462 13.3924 21.9151 12.4616 20.7705 12.4616H9V2.77327C9 2.00749 9.62346 1.38459 10.3898 1.38459H22.8461V10.3846C22.8461 10.767 23.1562 11.0769 23.5384 11.0769H32.5384V33.2331Z" fill="black"/>
<path d="M16.3016 19.6577V20.6596H17.6767V21.4143C17.4955 21.5549 17.2785 21.6744 17.0256 21.7733C16.7728 21.8719 16.5206 21.9213 16.2691 21.9213C15.7606 21.9213 15.3496 21.7449 15.0359 21.3919C14.7222 21.039 14.5654 20.5096 14.5654 19.8038C14.5654 19.1494 14.7202 18.6557 15.0299 18.3231C15.3395 17.9904 15.7566 17.8241 16.2813 17.8241C16.6275 17.8241 16.9162 17.9087 17.1474 18.0776C17.3785 18.2467 17.536 18.4773 17.62 18.7693L18.8125 18.5462C18.6936 17.9999 18.4265 17.5719 18.0113 17.2623C17.5963 16.9526 17.0196 16.7979 16.2813 16.7979C15.7134 16.7979 15.2388 16.8965 14.8575 17.094C14.3572 17.3509 13.9772 17.72 13.7176 18.2014C13.4581 18.6827 13.3283 19.2331 13.3283 19.8523C13.3283 20.423 13.4446 20.951 13.6771 21.4363C13.9097 21.9218 14.2572 22.295 14.7196 22.556C15.182 22.817 15.7242 22.9475 16.3463 22.9475C16.8358 22.9475 17.3191 22.8549 17.7965 22.6695C18.2738 22.4843 18.6381 22.2701 18.8898 22.0267V19.6576L16.3016 19.6577Z" fill="black"/>
<path d="M12.2046 17.5707C11.9748 17.2719 11.6895 17.0779 11.3487 16.9885C11.127 16.9289 10.651 16.8994 9.92082 16.8994H7.99398V22.8462H9.1947V20.6029H9.97763C10.5212 20.6029 10.9363 20.5745 11.2229 20.5178C11.4339 20.4717 11.6414 20.3777 11.8456 20.2358C12.0498 20.0939 12.2181 19.8984 12.3507 19.6496C12.4832 19.4009 12.5495 19.0939 12.5495 18.7288C12.5495 18.2557 12.4345 17.8695 12.2046 17.5707ZM11.1763 19.2076C11.0858 19.34 10.9607 19.4374 10.8011 19.4996C10.6415 19.5617 10.3251 19.5928 9.85184 19.5928H9.1947V17.9053H9.77478C10.2075 17.9053 10.4955 17.9188 10.6388 17.9458C10.8335 17.9811 10.9944 18.0688 11.1215 18.2095C11.2486 18.3501 11.3122 18.5287 11.3122 18.745C11.3122 18.9208 11.267 19.0749 11.1763 19.2076Z" fill="black"/>
<path d="M5.51958 16.8994V20.7408C5.51958 21.2221 5.46418 21.5392 5.35329 21.692C5.24241 21.8449 5.05313 21.9212 4.78538 21.9212C4.52037 21.9212 4.32293 21.8144 4.19314 21.6008C4.10658 21.4601 4.05659 21.2195 4.04302 20.8787L2.91127 21.0085C2.91394 21.6441 3.07355 22.1261 3.38996 22.4546C3.70636 22.7832 4.15798 22.9475 4.74481 22.9475C5.24508 22.9475 5.64804 22.8426 5.95362 22.6332C6.2592 22.4236 6.47014 22.1456 6.58643 21.7995C6.67299 21.5345 6.71623 21.1558 6.71623 20.6638V16.8994H5.51958Z" fill="black"/>
</svg>
