<svg width="14" height="11" viewBox="0 0 14 11" fill="none" xmlns="http://www.w3.org/2000/svg">
<path fill-rule="evenodd" clip-rule="evenodd" d="M1.90913 1.22222C1.56058 1.22222 1.27277 1.49862 1.27277 1.83333V9.16667C1.27277 9.50138 1.56058 9.77778 1.90913 9.77778H12.0909C12.4394 9.77778 12.7272 9.50138 12.7272 9.16667V1.83333C12.7272 1.49862 12.4394 1.22222 12.0909 1.22222H1.90913ZM5.20645e-05 1.83333C5.20645e-05 0.823604 0.857682 0 1.90913 0H12.0909C13.1423 0 13.9999 0.823604 13.9999 1.83333V9.16667C13.9999 10.1764 13.1423 11 12.0909 11H1.90913C0.857682 11 5.20645e-05 10.1764 5.20645e-05 9.16667V1.83333Z" fill="#4F4F4F"/>
<path fill-rule="evenodd" clip-rule="evenodd" d="M0.115087 1.48287C0.316631 1.20637 0.713424 1.13915 1.00134 1.3327L7 5.36516L12.9987 1.3327C13.2866 1.13915 13.6834 1.20637 13.8849 1.48287C14.0865 1.75937 14.0164 2.14042 13.7285 2.33396L7.36493 6.61174C7.14582 6.75903 6.85419 6.75903 6.63507 6.61174L0.271487 2.33396C-0.0164329 2.14042 -0.0864568 1.75937 0.115087 1.48287Z" fill="#4F4F4F"/>
</svg>
