<svg width="15" height="18" viewBox="0 0 15 18" fill="none" xmlns="http://www.w3.org/2000/svg">
<path fill-rule="evenodd" clip-rule="evenodd" d="M1.2204 12.118C2.0018 11.2741 3.0616 10.8 4.16667 10.8H10.8333C11.9384 10.8 12.9982 11.2741 13.7796 12.118C14.561 12.9619 15 14.1065 15 15.3V17.1C15 17.5971 14.6269 18 14.1667 18C13.7064 18 13.3333 17.5971 13.3333 17.1V15.3C13.3333 14.5839 13.07 13.8971 12.6011 13.3908C12.1323 12.8844 11.4964 12.6 10.8333 12.6H4.16667C3.50363 12.6 2.86775 12.8844 2.39891 13.3908C1.93007 13.8971 1.66667 14.5839 1.66667 15.3V17.1C1.66667 17.5971 1.29357 18 0.833333 18C0.373096 18 0 17.5971 0 17.1V15.3C0 14.1065 0.438996 12.9619 1.2204 12.118Z" fill="#C4C4C4"/>
<path fill-rule="evenodd" clip-rule="evenodd" d="M7.5 1.8C6.11929 1.8 5 3.00883 5 4.5C5 5.99117 6.11929 7.2 7.5 7.2C8.88071 7.2 10 5.99117 10 4.5C10 3.00883 8.88071 1.8 7.5 1.8ZM3.33333 4.5C3.33333 2.01472 5.19881 0 7.5 0C9.80119 0 11.6667 2.01472 11.6667 4.5C11.6667 6.98528 9.80119 9 7.5 9C5.19881 9 3.33333 6.98528 3.33333 4.5Z" fill="#C4C4C4"/>
</svg>
