<svg width="34" height="36" viewBox="0 0 34 36" fill="none" xmlns="http://www.w3.org/2000/svg">
<path d="M33.8061 9.74229L24.6138 0.212203C24.4829 0.0766406 24.3024 0 24.1138 0H10.4133C8.88009 0 7.63267 1.24411 7.63267 2.77327V12.4616H2.0804C0.933259 12.4616 0 13.3924 0 14.5367V24.9249C0 26.0691 0.933259 27 2.0804 27H7.63267V33.2316C7.63267 34.7581 8.88009 36 10.4133 36H31.2193C32.7526 36 34 34.7588 34 33.2331V10.2224C34 10.0434 33.9304 9.87131 33.8061 9.74229ZM24.2857 1.86898L31.8318 9.6923H24.2857V1.86898ZM2.0804 25.6154C1.69844 25.6154 1.3878 25.3057 1.3878 24.9249V14.5367C1.3878 14.1559 1.69851 13.8461 2.0804 13.8461H20.8176C21.1996 13.8461 21.5102 14.1559 21.5102 14.5367V24.9249C21.5102 25.3057 21.1995 25.6154 20.8176 25.6154H2.0804ZM32.6122 33.2331C32.6122 33.9953 31.9873 34.6154 31.2193 34.6154H10.4133C9.64527 34.6154 9.0204 33.9947 9.0204 33.2317V27H20.8176C21.9647 27 22.898 26.0691 22.898 24.9249V14.5367C22.898 13.3924 21.9647 12.4616 20.8176 12.4616H9.0204V2.77327C9.0204 2.00749 9.64527 1.38459 10.4133 1.38459H22.8979V10.3846C22.8979 10.767 23.2086 11.0769 23.5918 11.0769H32.6122V33.2331Z" fill="black"/>
<path d="M8.29539 17.5707C8.06501 17.2718 7.77904 17.0778 7.43753 16.9886C7.21526 16.9291 6.73824 16.8993 6.00639 16.8993H4.07518V22.8461H5.27863V20.6029H6.06333C6.60815 20.6029 7.02421 20.5745 7.31153 20.5177C7.52294 20.4717 7.73098 20.3778 7.93563 20.2357C8.14028 20.0938 8.30899 19.8984 8.44183 19.6496C8.57467 19.4008 8.64105 19.0939 8.64105 18.7288C8.64098 18.2555 8.52576 17.8695 8.29539 17.5707ZM7.26473 19.2075C7.17397 19.34 7.0486 19.4373 6.88863 19.4996C6.72865 19.5618 6.4116 19.5929 5.93726 19.5929H5.27863V17.9054H5.86002C6.2937 17.9054 6.58236 17.9189 6.72598 17.9459C6.92111 17.9811 7.08242 18.069 7.20977 18.2096C7.33718 18.3502 7.40089 18.5288 7.40089 18.745C7.40096 18.9208 7.3555 19.0749 7.26473 19.2075Z" fill="black"/>
<path d="M14.4264 18.524C14.2963 18.144 14.1066 17.8229 13.8572 17.5605C13.6079 17.2982 13.3083 17.1157 12.9587 17.0129C12.6985 16.9372 12.3204 16.8993 11.8244 16.8993H9.62484V22.8461H11.8895C12.334 22.8461 12.689 22.8042 12.9546 22.7204C13.3097 22.6068 13.5916 22.4486 13.8003 22.2458C14.0768 21.978 14.2895 21.6278 14.4386 21.1951C14.5606 20.8408 14.6216 20.419 14.6216 19.9295C14.6216 19.3724 14.5565 18.9039 14.4264 18.524ZM13.2555 20.966C13.1742 21.2324 13.0691 21.4237 12.9404 21.54C12.8116 21.6562 12.6497 21.7387 12.4546 21.7874C12.3055 21.8253 12.0629 21.8442 11.7268 21.8442H10.8283V17.9054H11.369C11.8596 17.9054 12.189 17.9243 12.357 17.9622C12.5819 18.0108 12.7676 18.1041 12.914 18.2421C13.0603 18.38 13.1742 18.572 13.2555 18.8181C13.3368 19.0642 13.3775 19.4171 13.3775 19.8769C13.3775 20.3366 13.3368 20.6996 13.2555 20.966Z" fill="black"/>
<path d="M19.7362 17.9054V16.8993H15.6502V22.8461H16.8536V20.319H19.3419V19.3129H16.8536V17.9054H19.7362Z" fill="black"/>
</svg>
