<svg width="21" height="32" viewBox="0 0 21 32" fill="none" xmlns="http://www.w3.org/2000/svg">
<path d="M17.9542 3.24006H11.4014L13.7347 0.90974L12.8238 0L8.93553 3.88344L12.8187 7.76045L13.7296 6.85071L11.4014 4.52682H17.9542V3.24006Z" fill="white"/>
<path d="M16.0375 18.9299C16.0371 18.9295 16.0362 18.9287 16.0358 18.9282C16.0369 18.9294 16.0366 18.9291 16.0375 18.9299Z" fill="white"/>
<path d="M20.9987 11.5358C21 11.0185 20.58 10.599 20.062 10.599C19.5196 10.599 18.257 11.1009 17.3526 12.0042C16.4223 12.9332 15.8477 14.2148 15.8477 15.6341V16.9209C12.342 13.4196 14.2462 15.3215 7.12912 8.21339C6.12675 7.21229 4.48662 7.21229 3.48554 8.21339C2.93926 8.75898 2.70219 9.49243 2.75115 10.2092C2.03351 10.1603 1.29913 10.3983 0.752846 10.9426C-0.250734 11.9411 -0.250734 13.5792 0.751558 14.5803L5.88968 19.7119C5.28027 21.126 4.28305 23.8437 3.9674 25.0494C3.73162 25.9475 3.97384 26.8997 4.63092 27.5547L6.51327 29.4347C9.77678 32.694 15.3104 32.9269 18.5649 29.6766C20.0363 28.2071 20.9382 26.1959 20.991 23.9942L21 24.0019C21 23.4757 21 24.3906 20.9987 11.5358ZM19.7026 23.9633C19.6614 25.7082 18.9888 27.4183 17.654 28.7668C14.9471 31.4703 10.2625 31.3596 7.42416 28.5249L5.54182 26.645C5.21328 26.3168 5.09088 25.8433 5.21328 25.3749C5.63845 23.7536 6.64984 21.2277 7.24765 19.8238C7.35073 19.5832 7.29532 19.3027 7.11108 19.1174L1.66245 13.6705C1.16006 13.1687 1.16006 12.3516 1.66245 11.8511C2.16493 11.3492 2.98306 11.3492 3.48425 11.8511L8.27837 16.6391C8.52961 16.89 8.93803 16.89 9.18927 16.6391C9.44051 16.3882 9.44051 15.9803 9.18927 15.7294L4.39514 10.9413C3.89267 10.4395 3.89267 9.6224 4.39514 9.12185C4.89762 8.6213 5.71575 8.62001 6.21694 9.12185C6.31791 9.2227 15.728 18.6209 16.0358 18.9282C16.2201 19.1123 16.4971 19.1676 16.738 19.0672C16.9789 18.9681 17.1361 18.7327 17.1361 18.4727C17.1361 16.7691 17.1361 17.3365 17.1361 15.6329C17.1361 14.6047 17.5368 13.6397 18.2634 12.9126C18.6693 12.5073 19.1576 12.1985 19.7103 12.0029C19.7103 12.5768 19.7155 23.392 19.7026 23.9633Z" fill="white"/>
</svg>
