<svg width="19" height="16" viewBox="0 0 19 16" xmlns="http://www.w3.org/2000/svg">
<path d="M13.8438 0.891216L13.6062 1.11536V0.891216H12.4357C11.908 1.659 10.7938 2.18972 9.50026 2.18972C8.20718 2.18972 7.09301 1.659 6.56528 0.891216H5.39479V1.11536L5.15671 0.891216L0.94711 4.85668L3.24975 7.02635L5.39479 5.00596V15.1088H13.6053V5.0064L15.7508 7.02679L18.0529 4.85668L13.8438 0.891216Z" />
<path d="M13.6052 16H5.39476C4.87223 16 4.44815 15.6007 4.44815 15.1088V7.15825L3.91899 7.65644C3.7415 7.82399 3.50059 7.91756 3.24926 7.91756C2.99841 7.91756 2.75702 7.82354 2.57953 7.65644L0.276885 5.48677C-0.092295 5.13875 -0.092295 4.57506 0.276885 4.22659L4.48743 0.261126C4.69285 0.0672868 4.98961 -0.0267365 5.27549 0.00712974C5.31478 0.00267366 5.35453 0 5.39476 0H6.56525C6.88616 0 7.18576 0.153289 7.35994 0.40684C7.73243 0.948699 8.57255 1.2985 9.50024 1.2985C10.4279 1.2985 11.2685 0.948699 11.641 0.40684C11.8152 0.153289 12.1143 0 12.4357 0H13.6062C13.6464 0 13.6862 0.00222805 13.7255 0.00712974C13.7643 0.00267366 13.8036 0 13.8433 0C14.0942 0 14.3356 0.0940233 14.5135 0.261126L18.7231 4.22615C19.0923 4.57417 19.0923 5.13786 18.7231 5.48633L16.4209 7.65644C16.2435 7.82354 16.0025 7.91756 15.7517 7.91756C15.5008 7.91801 15.2594 7.82399 15.082 7.65688L14.5523 7.1578V15.1088C14.5519 15.6012 14.1282 16 13.6052 16ZM6.34138 14.2176H12.6586V5.00641C12.6586 4.64591 12.8891 4.32106 13.2427 4.18292C13.5967 4.04434 14.0033 4.12098 14.2745 4.37632L15.7503 5.76572L16.7149 4.85668L13.6862 2.00345C13.5352 2.01638 13.3866 1.9941 13.2441 1.93884C13.1452 1.90052 13.0557 1.84705 12.9781 1.78243H12.8967C12.1153 2.59344 10.8629 3.08093 9.50024 3.08093C8.13758 3.08093 6.88568 2.59344 6.10378 1.78243H6.02237C5.94522 1.84705 5.85577 1.90007 5.75684 1.93884C5.61343 1.99454 5.46103 2.01415 5.31383 2.00345L2.28466 4.85713L3.24926 5.76617L4.72456 4.37632C4.99529 4.12098 5.40234 4.04478 5.75637 4.18292C6.11041 4.32106 6.34091 4.64591 6.34091 5.00641L6.34138 14.2176Z" />
</svg>
