<svg width="34" height="36" viewBox="0 0 34 36" fill="none" xmlns="http://www.w3.org/2000/svg">
<path d="M33.8061 9.74229L24.6138 0.212203C24.4829 0.0766406 24.3024 0 24.1138 0H10.4133C8.88009 0 7.63267 1.24411 7.63267 2.77327V12.4616H2.0804C0.933259 12.4616 0 13.3924 0 14.5367V24.9249C0 26.0691 0.933259 27 2.0804 27H7.63267V33.2316C7.63267 34.7581 8.88009 36 10.4133 36H31.2193C32.7526 36 34 34.7588 34 33.2331V10.2224C34 10.0434 33.9304 9.87131 33.8061 9.74229ZM24.2857 1.86898L31.8318 9.6923H24.2857V1.86898ZM2.0804 25.6154C1.69844 25.6154 1.3878 25.3057 1.3878 24.9249V14.5367C1.3878 14.1559 1.69851 13.8461 2.0804 13.8461H20.8175C21.1994 13.8461 21.5102 14.1559 21.5102 14.5367V24.9249C21.5102 25.3057 21.1994 25.6154 20.8175 25.6154H2.0804ZM32.6122 33.2331C32.6122 33.9953 31.9873 34.6154 31.2193 34.6154H10.4133C9.64527 34.6154 9.0204 33.9947 9.0204 33.2317V27H20.8175C21.9647 27 22.8979 26.0691 22.8979 24.9249V14.5367C22.8979 13.3924 21.9647 12.4616 20.8175 12.4616H9.0204V2.77327C9.0204 2.00749 9.64527 1.38459 10.4133 1.38459H22.8979V10.3846C22.8979 10.767 23.2086 11.0769 23.5918 11.0769H32.6122V33.2331Z" fill="black"/>
<path d="M19.0187 20.167C18.8601 19.9113 18.6405 19.7099 18.36 19.5624C18.0795 19.4151 17.6466 19.2725 17.0611 19.1346C16.4756 18.9966 16.1071 18.8641 15.9553 18.737C15.8359 18.637 15.7763 18.5164 15.7763 18.376C15.7763 18.2218 15.8399 18.0986 15.9674 18.0068C16.1653 17.8635 16.4391 17.7918 16.7887 17.7918C17.1274 17.7918 17.3816 17.8588 17.551 17.9925C17.7204 18.1264 17.8308 18.3461 17.8823 18.6518L19.0857 18.599C19.0668 18.0527 18.8684 17.616 18.4902 17.2889C18.112 16.9616 17.549 16.798 16.801 16.798C16.3428 16.798 15.9519 16.8668 15.628 17.0049C15.3041 17.1428 15.056 17.3436 14.8839 17.6072C14.7119 17.8709 14.6257 18.1543 14.6257 18.4572C14.6257 18.9276 14.8087 19.3265 15.1747 19.6538C15.4349 19.8863 15.8875 20.0824 16.5326 20.2419C17.034 20.3664 17.3552 20.4529 17.4961 20.5015C17.7022 20.5746 17.8464 20.6604 17.929 20.7591C18.0118 20.8579 18.0531 20.9775 18.0531 21.1182C18.0531 21.3372 17.9548 21.5286 17.7583 21.6921C17.5618 21.8557 17.2698 21.9375 16.8822 21.9375C16.5163 21.9375 16.2256 21.8456 16.0102 21.6616C15.7947 21.4778 15.6518 21.1898 15.5812 20.7976L14.4102 20.9111C14.4888 21.5764 14.7301 22.0829 15.134 22.4304C15.5379 22.7777 16.1165 22.9515 16.8701 22.9515C17.3877 22.9515 17.8202 22.8792 18.1671 22.7345C18.514 22.59 18.7822 22.3688 18.9719 22.0712C19.1617 21.7739 19.2567 21.4547 19.2567 21.1139C19.2565 20.7381 19.1772 20.4224 19.0187 20.167Z" fill="black"/>
<path d="M10.8649 21.8442V16.9481H9.66134V22.8461H13.8573V21.8442H10.8649Z" fill="black"/>
<path d="M6.97397 19.7876L8.82801 16.8994H7.43351L6.26262 18.81L5.06721 16.8994H3.66059L5.50625 19.7429L3.4694 22.8461H4.91267L6.23817 20.7894L7.55945 22.8461H9.01089L6.97397 19.7876Z" fill="black"/>
</svg>
