<svg xmlns="http://www.w3.org/2000/svg" viewBox="0 0 22.84 22.844">
  <path style="fill-rule: evenodd;" d="M1298.45,80.358a0.791,0.791,0,0,1-.57.421,0.205,0.205,0,0,1-.21-0.21,2.287,2.287,0,0,1-.01-0.35V76.561h-0.9V80.49a2.5,2.5,0,0,0,.08.739,0.553,0.553,0,0,0,.58.37,1.451,1.451,0,0,0,1.03-.611v0.542h0.9V76.561h-0.9v3.8Zm3.51-3.858a1.219,1.219,0,0,0-.93.539V74.862h-0.9v6.668h0.9V81.048a1.224,1.224,0,0,0,.93.55,0.712,0.712,0,0,0,.72-0.559,3.987,3.987,0,0,0,.09-1V78.06a3.846,3.846,0,0,0-.09-1A0.719,0.719,0,0,0,1301.96,76.5Zm-0.09,3.609c0,0.449-.13.67-0.39,0.67a0.639,0.639,0,0,1-.45-0.222V77.53a0.646,0.646,0,0,1,.45-0.219c0.26,0,.39.23,0.39,0.678v2.12Zm-8.38-4.309h1.06v5.73h1V75.8h1.08V74.861h-3.14V75.8Zm5.73-3.829c0.29,0,.43-0.233.43-0.7V69.162c0-.465-0.14-0.7-0.43-0.7s-0.44.231-.44,0.7v2.112C1298.78,71.739,1298.93,71.971,1299.22,71.971Zm5.6,4.529a1.264,1.264,0,0,0-1.07.51,1.873,1.873,0,0,0-.28,1.171v1.74a1.933,1.933,0,0,0,.29,1.169,1.291,1.291,0,0,0,1.09.509,1.22,1.22,0,0,0,1.08-.539,1.271,1.271,0,0,0,.21-0.539c0.01-.09.02-0.29,0.02-0.581V79.808h-0.91c0,0.361-.02.561-0.02,0.61a0.394,0.394,0,0,1-.41.361c-0.31,0-.46-0.229-0.46-0.689V79.209h1.8V78.18a2.022,2.022,0,0,0-.27-1.171A1.264,1.264,0,0,0,1304.82,76.5Zm0.44,1.959h-0.9V78c0-.46.16-0.689,0.46-0.689s0.44,0.23.44,0.689v0.46Zm4.77-15.066h-20.41a1.212,1.212,0,0,0-1.21,1.215V85.021a1.211,1.211,0,0,0,1.21,1.215h20.41a1.22,1.22,0,0,0,1.22-1.215V64.609A1.22,1.22,0,0,0,1310.03,63.393Zm-8.72,4.315h0.91v3.7a2.343,2.343,0,0,0,.01.354,0.207,0.207,0,0,0,.21.213,0.807,0.807,0,0,0,.58-0.426V67.708h0.91v5.021h-0.91V72.181a1.462,1.462,0,0,1-1.04.617,0.557,0.557,0,0,1-.59-0.373,2.552,2.552,0,0,1-.08-0.747v-3.97Zm-3.43,1.637a1.977,1.977,0,0,1,.28-1.183,1.348,1.348,0,0,1,2.12,0,1.977,1.977,0,0,1,.28,1.183V71.1a1.972,1.972,0,0,1-.28,1.181,1.349,1.349,0,0,1-2.12,0,1.972,1.972,0,0,1-.28-1.181V69.345Zm-2.44-3.354,0.72,2.646,0.69-2.646h1.02L1296.65,70v2.729h-1.01V70a16.722,16.722,0,0,0-.61-2.131c-0.22-.625-0.44-1.252-0.65-1.877h1.06Zm11.57,15.977a1.879,1.879,0,0,1-1.61,1.464,75.323,75.323,0,0,1-11.15,0,1.879,1.879,0,0,1-1.61-1.464,15.922,15.922,0,0,1-.26-3.521,15.929,15.929,0,0,1,.26-3.522,1.878,1.878,0,0,1,1.61-1.463,75.458,75.458,0,0,1,11.16,0,1.89,1.89,0,0,1,1.61,1.463,15.925,15.925,0,0,1,.25,3.522A15.922,15.922,0,0,1,1307.01,81.968Z" transform="translate(-1288.41 -63.406)"/>
</svg>
