<svg width="39" height="39" viewBox="0 0 39 39" fill="none" xmlns="http://www.w3.org/2000/svg">
<path fill-rule="evenodd" clip-rule="evenodd" d="M17.1736 0C13.7767 0.000335361 10.4563 1.00793 7.63201 2.89537C4.80777 4.78282 2.60653 7.46536 1.30684 10.6038C0.00713766 13.7422 -0.332644 17.1955 0.33026 20.527C0.993164 23.8586 2.62912 26.9188 5.03119 29.3206C7.43327 31.7225 10.4935 33.3581 13.8251 34.0206C17.1568 34.6832 20.6101 34.343 23.7484 33.043C25.346 32.3812 26.8254 31.4858 28.1419 30.3936C28.9575 29.7169 29.7106 28.9646 30.3906 28.1455C30.769 27.6896 31.1248 27.213 31.4561 26.7172C33.3432 23.8927 34.3506 20.5721 34.3506 17.1753C34.3466 12.621 32.5355 8.25454 29.315 5.03438C26.0945 1.81422 21.7278 0.00359199 17.1736 0ZM17.1736 31.1797C14.4039 31.1793 11.6965 30.3577 9.3937 28.8187C7.09091 27.2796 5.29606 25.0923 4.23636 22.5333C3.17665 19.9743 2.89951 17.1586 3.44007 14.4421C3.98062 11.7256 5.31468 9.23044 7.2733 7.27206C9.23192 5.31368 11.7273 3.98006 14.4438 3.43983C17.1604 2.89961 19.9762 3.17704 22.535 4.23705C25.0939 5.29706 27.2809 7.09204 28.8196 9.39502C30.3584 11.698 31.1797 14.4055 31.1797 17.1753C31.1761 20.8885 29.6993 24.4486 27.0733 27.0739C24.4473 29.6992 20.8868 31.1753 17.1736 31.178V31.1797ZM38.5388 36.2938L30.3906 28.1455L29.4501 27.2051C29.3045 27.0501 29.1294 26.9259 28.9349 26.8398C28.7405 26.7537 28.5307 26.7075 28.3181 26.7038C28.1055 26.7002 27.8944 26.7392 27.6971 26.8186C27.4999 26.898 27.3205 27.0161 27.1697 27.166C27.0189 27.316 26.8997 27.4946 26.8191 27.6914C26.7385 27.8881 26.6981 28.0991 26.7005 28.3117C26.7028 28.5243 26.7478 28.7343 26.8328 28.9293C26.9177 29.1242 27.0409 29.3002 27.195 29.4467L28.1419 30.3936L36.2837 38.5354C36.5835 38.833 36.9887 39 37.4112 39C37.8336 39 38.239 38.833 38.5388 38.5354C38.8344 38.2359 39 37.832 39 37.4112C39 36.9904 38.8344 36.5865 38.5388 36.287V36.2938Z" fill="#B6FFF7"/>
<path d="M28.1419 30.3936C28.9575 29.7169 29.7106 28.9646 30.3906 28.1455L29.4501 27.2051C29.3045 27.0501 29.1294 26.9259 28.9349 26.8398C28.7405 26.7537 28.5307 26.7075 28.3181 26.7038C28.1055 26.7002 27.8944 26.7392 27.6971 26.8186C27.4999 26.898 27.3205 27.0161 27.1697 27.166C27.0189 27.316 26.8997 27.4946 26.8191 27.6914C26.7385 27.8881 26.6981 28.0991 26.7005 28.3117C26.7028 28.5243 26.7478 28.7343 26.8328 28.9293C26.9177 29.1242 27.0409 29.3002 27.195 29.4467L28.1419 30.3936Z" fill="#B6FFF7"/>
</svg>
