<?xml version="1.0" encoding="UTF-8"?>
<!DOCTYPE svg PUBLIC "-//W3C//DTD SVG 1.1//EN" "http://www.w3.org/Graphics/SVG/1.1/DTD/svg11.dtd">
<!-- Creator: CorelDRAW 2018 (64-Bit) -->
<svg xmlns="http://www.w3.org/2000/svg" xml:space="preserve" width="51.2415mm" height="23.5537mm" version="1.1" style="shape-rendering:geometricPrecision; text-rendering:geometricPrecision; image-rendering:optimizeQuality; fill-rule:evenodd; clip-rule:evenodd"
viewBox="0 0 6267.25 2880.81"
 xmlns:xlink="http://www.w3.org/1999/xlink">
 <defs>
  <style type="text/css">
   <![CDATA[
    .fil2 {fill:#FEFEFE}
    .fil5 {fill:#727271}
    .fil1 {fill:#F7AA47}
    .fil3 {fill:#FCEB08}
    .fil0 {fill:#2AB5B2}
    .fil6 {fill:#FEFEFE;fill-rule:nonzero}
    .fil4 {fill:#727271;fill-rule:nonzero}
   ]]>
  </style>
 </defs>
 <g id="Слой_x0020_1">
  <metadata id="CorelCorpID_0Corel-Layer"/>
  <polygon class="fil0" points="68.92,1380.82 1900.75,1380.82 1900.75,2779.69 68.92,2779.69 "/>
  <path class="fil0" d="M198.47 1201.07c-29.48,19.24 -58.18,39.55 -86.14,60.98 0,0 0,-383.28 0,-1149.81 1098.29,0 1647.44,0 1647.44,0 -31.64,9.69 -63.65,26.43 -95.98,50.23 -77.97,52.54 -149.19,104.59 -213.64,156.1 -72.41,58.74 -144.68,119.25 -216.85,181.52 -14.35,12.93 -29.77,26.57 -46.31,40.92 -107.55,71.54 -221.59,147.41 -342.11,227.59 -146.23,97.28 -291.57,193.98 -436.09,290.11 -81.89,56.21 -152,103.67 -210.33,142.34z"/>
  <path class="fil1" d="M1658.24 2179.83c58.39,-175.76 154.89,-612.43 191.27,-757.98 0,570.24 0,0 0,570.24 0,188.5 0,81.58 0,270.08 0,0 -9.59,-4.13 -191.27,-82.34z"/>
  <path class="fil2" d="M1337.97 2731.45c-837.06,0 -1225.64,0 -1225.64,0 0,0 0,-85.19 0,-285.81 -5.58,-106.53 31.01,-198.09 164.3,-244.57 -19.69,-49.33 -15.78,-96.83 11.77,-142.55 25.62,-38.21 61.18,-60.92 106.7,-68.11 55.88,-6.87 127.41,18.62 164.38,63.94 0,0 64.04,-57.69 179.57,-198.18 171.41,55.66 265.01,109.39 368.58,198.85 -40.2,160.28 -60.3,240.43 -60.3,240.43 80.53,39.09 147.52,97.03 163.33,148.74 14.05,43.7 2.83,103.93 -21.15,143 102.82,16.54 129.99,50.68 148.46,144.25z"/>
  <path class="fil3" d="M344.16 1635.09c0,0 48.2,-72.42 73.64,-103.74 196.1,-247.03 643.44,-809.03 852.57,-970.91 579.13,-448.2 579.13,-448.2 579.13,-448.2 0,744.33 0,112.4 0,744.33 0,47.9 -3.07,91.45 -8.19,132.12 -31.75,252.38 -147.94,672.79 -220.34,919.3 -10.02,34.33 -97.65,343.53 -97.65,343.53 -248.87,-259.55 -691.05,-567.95 -1179.16,-616.43z"/>
  <path class="fil1" d="M317.65 1466.06c514.23,-569.65 0,0 528.89,-586.25 -734.2,447.83 -734.2,447.83 -734.2,447.83 205.32,138.42 1.76,1.17 205.32,138.42z"/>
  <path class="fil2" d="M1297.65 1010.27c122.14,0 221.16,99.02 221.16,221.17 0,122.15 -99.02,221.18 -221.16,221.18 -122.17,0 -221.18,-99.03 -221.18,-221.18 0,-122.15 99.01,-221.17 221.18,-221.17z"/>
  <path class="fil4" d="M2803.32 485.49c81.14,-45.19 121.71,-114.8 121.71,-208.85 0,-41.5 -7.14,-78.83 -21.44,-112.03 -14.3,-33.19 -34.56,-61.55 -60.85,-85.07 -26.28,-23.51 -58.34,-41.73 -96.13,-54.62 -37.81,-12.92 -79.76,-19.37 -125.87,-19.37l-395.58 0 0 861.27 175.67 0 0 123.52 -175.67 0 0 -123.52 175.67 0 0 123.52 236.52 0c46.1,0 87.81,-6.69 125.16,-20.06 37.35,-13.37 69.15,-32.28 95.44,-56.71 26.3,-24.44 46.34,-53.94 60.18,-88.51 13.83,-34.58 20.73,-73.53 20.73,-116.88 0,-35.04 -4.83,-66.39 -14.51,-94.04 -9.69,-27.67 -25.13,-53.02 -46.33,-76.08 -10.16,-10.14 -20.3,-18.91 -30.44,-26.28 -10.14,-7.38 -24.9,-16.13 -44.25,-26.27zm-197.78 -81.6l-188.11 0 0 -226.84 188.11 0c39.65,0 70.77,10.15 93.36,30.44 22.58,20.28 33.88,47.94 33.88,82.99 0,35.03 -11.3,62.7 -33.88,82.99 -22.59,20.28 -53.71,30.43 -93.36,30.43zm12.44 414.94l-200.55 0 0 -242.06 200.55 0c39.65,0 71.01,10.6 94.05,31.81 23.04,21.21 34.58,50.71 34.58,88.53 0,37.79 -11.53,67.54 -34.58,89.21 -23.04,21.66 -54.4,32.51 -94.05,32.51z"/>
  <path class="fil4" d="M3637.68 990.33l102.36 0 0 -152.15 -69.17 0c-23.06,0 -39.42,-5.53 -49.09,-16.6 -9.69,-11.06 -14.52,-27.2 -14.52,-48.41l0 -767.63 -179.82 0 0 778.7c0,25.82 3.93,50.94 11.77,75.38 7.84,24.44 20.28,46.34 37.33,65.69 17.06,19.37 38.96,35.05 65.72,47.03 26.72,12 58.54,17.99 95.42,17.99z"/>
  <path class="fil4" d="M3854.31 1907.07l175.65 0 0 -474.42c0,-169.65 -156.3,-254.49 -360.99,-254.49 -59.93,0 -109.26,7.38 -148.01,22.13 -38.71,14.75 -75.6,41.5 -110.64,80.22l113.43 112.03c19.35,-22.13 39.16,-38.04 59.47,-47.72 20.29,-9.67 46.55,-14.52 78.83,-14.52 47.96,0 136.28,9.03 156.99,26.97 20.72,17.95 31.13,46.86 31.13,86.45l0 35.96 -221.3 0c-42.37,0 -79.34,5.57 -110.65,16.61 -31.34,11.03 -57.17,26.04 -77.45,44.95 -20.3,18.9 -35.51,41.02 -45.65,66.39 -10.16,25.35 -15.22,52.32 -15.22,80.91 0,32.28 5.05,62.24 15.22,89.91 10.14,27.65 24.88,51.64 44.25,71.92 42.4,42.42 103.73,63.62 183.96,63.62 41.49,0 129.34,-5.57 155.6,-16.6 26.24,-11.04 51.41,-28.58 75.38,-52.56l0 62.24zm-4.15 -304.29l0 38.72c0,23.01 -2.12,41.76 -6.24,56.02 -4.11,14.27 -11.41,25.98 -21.43,35.27 -15.75,14.62 -31.85,24.23 -48.42,28.35 -16.56,4.12 -89.9,6.23 -112.03,6.23 -37.81,0 -65.46,-7.38 -82.99,-22.13 -17.51,-14.76 -26.28,-34.59 -26.28,-59.48 0,-55.33 35.51,-82.99 106.51,-82.99l190.89 0z"/>
  <path class="fil4" d="M4608.29 1907.07l222.7 0 -276.64 -430.16 257.26 -290.46 -217.16 0 -239.28 294.6 0 -558.78 -179.79 0 0 984.79 179.79 0 0 -214.38 76.09 -85.76 177.03 300.14zm405.26 -916.74l179.82 0 0 -460.59c0,-39.64 -5.77,-76.3 -17.31,-109.96 -11.52,-33.66 -32.03,-65.23 -61.55,-94.74 -20.28,-20.29 -45.87,-35.97 -76.77,-47.03 -30.87,-11.07 -64.3,-16.61 -100.26,-16.61 -45.18,0 -84.83,7.16 -118.96,21.45 -34.12,14.29 -66.38,37.57 -96.81,69.84 -23.06,-31.35 -50.49,-54.4 -82.3,-69.15 -31.81,-14.75 -68.02,-22.14 -108.59,-22.14 -33.19,0 -65.46,6.47 -96.82,19.37 -31.35,12.92 -59.01,31.35 -82.99,55.32l0 -77.84 -175.65 0 0 664.01 179.79 0 0 -367.63c0,-24.9 3.69,-45.65 11.08,-62.23 7.38,-16.61 16.82,-29.98 28.34,-40.12 11.53,-10.14 24.45,-17.51 38.73,-22.13 14.3,-4.62 28.35,-6.92 42.18,-6.92 13.83,0 27.89,2.3 42.18,6.92 14.3,4.61 27.2,11.99 38.73,22.13 11.52,10.14 20.76,23.51 27.65,40.12 6.91,16.58 10.37,37.33 10.37,62.23l0 435.69 179.81 0 0 -439.83c0,-23.06 3.69,-42.88 11.08,-59.48 7.36,-16.6 16.82,-29.73 28.34,-39.42 11.53,-9.69 24.44,-16.82 38.73,-21.43 14.3,-4.62 28.35,-6.92 42.2,-6.92 13.82,0 27.89,2.3 42.17,6.92 14.29,4.61 27.2,11.99 38.73,22.13 11.53,10.14 20.73,23.51 27.65,40.12 6.91,16.58 10.37,37.33 10.37,62.23l0 435.69z"/>
  <path class="fil4" d="M5452.52 1546.06c0,-65.46 -5.53,-119.64 -16.61,-162.51 -11.06,-42.88 -32.72,-81.84 -65.01,-116.88 -23.04,-23.97 -52.78,-44.72 -89.21,-62.23 -36.41,-17.53 -81.37,-26.28 -134.86,-26.28 -53.47,0 -98.2,8.76 -134.16,26.28 -35.96,17.51 -65.47,38.26 -88.5,62.23 -32.29,35.04 -53.96,74 -65.02,116.88 -11.07,42.87 -16.61,97.05 -16.61,162.51 0,65.47 5.54,119.87 16.61,163.21 11.06,43.35 32.73,82.53 65.02,117.57 23.03,23.97 52.54,44.72 88.5,62.23 35.96,17.53 80.69,26.28 134.16,26.28 53.49,0 98.45,-8.76 134.86,-26.28 36.44,-17.51 66.17,-38.26 89.21,-62.23 33.19,-34.12 55.1,-73.08 65.72,-116.88 10.59,-43.8 15.9,-98.43 15.9,-163.91zm-179.81 0c0,37.82 -2.32,71.93 -6.93,102.36 -4.59,30.42 -16.13,54.86 -34.55,73.3 -21.22,21.21 -49.34,31.81 -84.39,31.81 -34.1,0 -61.77,-10.6 -82.99,-31.81 -18.43,-18.44 -29.97,-42.88 -34.56,-73.3 -4.62,-30.43 -6.92,-64.54 -6.92,-102.36 0,-36.88 2.3,-70.54 6.92,-100.97 4.6,-30.42 16.13,-54.86 34.56,-73.3 21.22,-21.21 48.89,-31.81 82.99,-31.81 35.05,0 63.17,10.6 84.39,31.81 18.42,18.44 29.97,42.88 34.55,73.3 4.61,30.43 6.93,64.09 6.93,100.97z"/>
  <path class="fil4" d="M5989.59 1907.07l179.81 0 0 -460.59c0,-39.65 -4.86,-76.3 -14.54,-109.96 -9.67,-33.66 -29.27,-65.24 -58.78,-94.74 -20.29,-20.29 -44.7,-35.96 -73.3,-47.03 -28.58,-11.07 -60.85,-16.6 -96.82,-16.6 -33.18,0 -65.47,6.21 -96.81,18.66 -31.35,12.45 -59.01,31.13 -82.99,56.02l0 -66.39 -175.65 0 0 720.62 179.79 0 0 -435.69c0,-24.9 3.69,-45.65 11.06,-62.24 7.38,-16.6 16.84,-29.97 28.36,-40.1 11.51,-10.15 24.44,-17.53 38.71,-22.14 14.3,-4.61 28.35,-6.91 42.21,-6.91 13.81,0 27.89,2.3 42.18,6.91 14.27,4.61 27.2,11.99 38.71,22.14 11.52,10.14 20.76,23.51 27.65,40.1 6.93,16.6 10.4,37.34 10.4,62.24l0 435.69z"/>
  <path class="fil4" d="M3087.72 990.33l179.81 0 0 -694.4c-26.92,14.68 -57.79,23.02 -90.59,23.02 -32.25,0 -62.63,-8.07 -89.21,-22.27l0 693.66z"/>
  <path class="fil4" d="M3850.16 990.33l179.79 0 0 -694.4c-26.92,14.68 -57.78,23.02 -90.58,23.02 -32.25,0 -62.63,-8.07 -89.21,-22.27l0 693.66z"/>
  <path class="fil3" d="M1849.51 856.57c-145.01,-145.95 -335.37,-237.56 -579.1,-296.13 386.07,-298.8 579.1,-448.21 579.1,-448.21 0,496.23 0,744.34 0,744.34z"/>
  <path class="fil0" d="M3176.93 5.54c68.37,0 123.81,55.44 123.81,123.82 0,68.38 -55.44,123.81 -123.81,123.81 -68.39,0 -123.82,-55.43 -123.82,-123.81 0,-68.38 55.43,-123.82 123.82,-123.82z"/>
  <path class="fil0" d="M3939.38 5.54c68.37,0 123.81,55.44 123.81,123.82 0,68.38 -55.44,123.81 -123.81,123.81 -68.39,0 -123.82,-55.43 -123.82,-123.81 0,-68.38 55.43,-123.82 123.82,-123.82z"/>
  <path class="fil5" d="M1849.51 2731.44l0 -344.42 0.01 0c52.27,22.22 43.13,11.84 47.43,7.44 36.3,-48.62 57.88,-104.84 64.77,-168.71l0 505.7 -112.22 0zm0 -469.28l0 -840.28 0.01 -0.04c0,570.24 0,0 0,570.24 0,188.5 0,81.59 0,270.08l-0.01 0zm0 -1405.58l0 -744.34 0.01 0c0,744.34 0,112.41 0,744.34l0 0.01 -0.01 -0.01zm112.22 -775.36l0 0.01 -0.49 0.84 -1.44 2.52 -1.7 2.96 -2.08 3.66 -3 5.21 -0.76 1.32 -8.3 14.49 17.77 0 0 178.13c-2.05,-38.12 -16.88,-81.98 -44.46,-131.59l44.46 -77.56zm0 615.69l0 1337.2c-11.96,-190.24 -49.11,-372.7 -111.47,-547.43 53.4,-235.53 90.54,-498.78 111.47,-789.77zm0 -615.69l0 31.02 -17.77 0 8.3 -14.49 0.76 -1.32 3 -5.21 2.08 -3.66 1.7 -2.96 1.44 -2.52 0.49 -0.86zm-286.32 31.02l-1675.29 0 0 -112.23 1817.98 0 -142.68 112.23zm286.32 2619.21l0 112.23 -300.32 0c-46.44,-93.58 -113.22,-70.94 -200.37,-112.23l500.68 0zm-300.32 112.23c-1107.55,0 -1661.3,0 -1661.3,0l0 -225.34 73.9 0 32.01 0 0 58.84c1.96,-6.46 4.07,-12.81 6.31,-19.08l0 73.35c394.9,0 815.34,0 1225.64,0 -18.47,-93.55 -45.63,-127.71 -148.46,-144.25 23.97,-39.08 35.2,-99.3 21.16,-143 -15.83,-51.71 -82.81,-109.65 -163.33,-148.73 0,0 20.08,-80.15 60.29,-240.46 -23.81,-20.55 -47.09,-39.22 -70.91,-56.47l15.06 -42.43 -52.48 -18.51 -52.46 -18.51 -6.79 19.13c-17.12,-9.1 -35.02,-17.87 -53.95,-26.41l11.33 -16.34 -45.71 -31.57 -45.72 -31.57 -26.09 37.59c-13.11,-4.59 -26.72,-9.16 -40.85,-13.75 -115.52,140.48 -179.56,198.16 -179.56,198.16 -36.99,-45.33 -108.51,-70.82 -164.39,-63.93 -45.52,7.19 -81.08,29.89 -106.7,68.11 -27.54,45.71 -31.46,93.22 -11.75,142.55 -116.68,40.67 -159.26,115.9 -164.31,205.47l0 -248.9c13.91,-11.12 29.12,-20.79 45.61,-29.02 14.6,-199.46 212.31,-295.19 392.28,-209.45 0,0 38.28,-41.72 90.62,-104.49 -55.66,-32.03 -271.4,-72.53 -467.11,-109.91 0,0 23.06,-38.23 88.59,-138.93 -149.99,-108.92 0,0 -149.99,-108.92l0 -129.29 0 -111.83 0 -0.29c1.86,-3.38 47.05,-45.93 900.8,-582.46 804.96,-633.05 0,0 804.96,-633.05 63.04,0 143.65,0 143.65,0 0,54.13 0,81.2 0,81.2 -29.66,51.71 -44.47,77.57 -44.47,77.57 27.63,49.71 42.47,93.64 44.47,131.82 0,270.75 0,406.14 0,406.14 -20.93,291.06 -58.07,554.36 -111.48,789.94 62.38,174.78 99.55,357.31 111.48,547.62 0,127.56 0,191.33 0,191.33 -6.89,63.92 -28.49,120.19 -64.79,168.83 -4.31,4.4 4.84,14.79 -47.43,-7.44 -236.91,-100.65 9.2,3.91 -227.69,-96.75 -41.99,145.49 0,0 -41.99,145.49 -112.73,-87.32 -236.47,-210.25 -385.77,-314 -24.3,76.83 -36.48,115.26 -36.48,115.26 64.3,29.22 108.63,66.47 133.05,111.79 34.98,65.8 45.27,129.52 30.82,191.18 81.29,29.15 127.82,107.67 139.59,191.45 87.14,41.29 153.92,18.65 200.37,112.23zm-1587.4 -225.34c-8.9,22.44 -16.49,45.93 -22.63,70.43 6.14,-24.5 13.72,-47.98 22.63,-70.43zm38.32 -1290.69c205.32,138.43 1.75,1.17 205.32,138.43 514.23,-569.65 0,0 528.89,-586.26 -734.2,447.83 -734.2,447.83 -734.2,447.83zm-112.22 1146.82c-0.13,-8.28 -0.13,-16.44 0,-24.45l0 24.45zm1658.13 -294.64c58.39,-175.76 154.89,-612.45 191.28,-757.98 0,570.24 0,0 0,570.24 0,188.5 0,81.59 0,270.08 0,0 -9.6,-4.12 -191.28,-82.34zm-1314.08 -544.74c0,0 48.2,-72.42 73.64,-103.74 168.93,-212.79 524.31,-659.35 753.26,-882.48 -8.24,-1.71 -16.54,-3.41 -24.98,-5.1 0,0 26.87,-31.32 80.63,-94.01 14.92,3.56 29.46,7.11 43.69,10.68l579.12 -448.2c0,744.34 0,112.41 0,744.34l0 0.01c6.74,6.46 13.54,13.05 20.36,19.81 7.03,117.88 2.4,162.8 -13.94,134.75 -5.15,-5.64 -10.26,-11.18 -15.37,-16.65 -32.78,252.99 -147.76,668.85 -219.59,913.5 -10.02,34.32 -97.65,343.51 -97.65,343.51 -248.87,-259.55 -691.05,-567.94 -1179.16,-616.43zm1525.72 -758.68c7.03,117.88 2.4,162.8 -13.94,134.75 -194.37,-213.6 -369.62,-299.3 -709.85,-367.39 0,0 26.87,-31.32 80.63,-94.01 306.82,73.14 459.85,145.27 643.17,326.65zm-818.12 1079.7l-143.57 405.11c77.04,47.44 124.11,109.99 152.38,178.91 24.58,59.87 34.17,129.22 36.99,191.31l-111.17 0c-2.59,-49.51 -10.29,-104.55 -28.56,-149.07 -23.59,-57.51 -66.33,-109.04 -141.67,-144.69l-45.49 -21.53 176.14 -497.06 104.94 37.01zm-823.89 775.34c30.83,-119.81 102.73,-205.04 187.65,-245.36 49.63,-23.58 103.64,-33.63 156.49,-30.6 53.28,3.07 105.43,19.4 150.87,48.54 69.74,44.74 123.45,125.11 140.89,227.42l-113.4 0c-14.49,-59.1 -46.88,-107.7 -87.57,-133.81 -29.12,-18.68 -62.62,-29.15 -96.88,-31.13 -34.71,-1.99 -70.27,4.62 -102.92,20.14 -50.43,23.94 -94.34,75.66 -118.85,144.79l-116.27 0zm669.54 -835.96l-317.12 457.2 -28.58 0.48c-108.22,1.81 -208.16,36.07 -287.16,97.92 -69.61,54.5 -129.57,130.98 -158.54,226.1l0 -58.84 6.31 0 0 -180.59c24.41,-27.38 55.76,-52.18 83.88,-74.19 90.8,-71.1 203.19,-112.79 324.74,-120.29l285.04 -410.92 91.43 63.14zm400.24 -982.2c175.7,0 318.15,142.44 318.15,318.16 0,175.71 -142.45,318.15 -318.15,318.15 -175.73,0 -318.16,-142.44 -318.16,-318.15 0,-175.72 142.43,-318.16 318.16,-318.16zm0 106.05c117.13,0 212.08,94.96 212.08,212.11 0,117.13 -94.95,212.11 -212.08,212.11 -117.16,0 -212.09,-94.97 -212.09,-212.11 0,-117.15 94.94,-212.11 212.09,-212.11zm-1297.54 -907.1l112.22 0 0 2506.09 -112.22 0 0 -2506.09z"/>
  <path class="fil4" d="M2225.15 1186.45l175.67 0 0 66.39c23.96,-23.97 51.65,-42.42 82.97,-55.32 10.85,-4.45 21.8,-8.15 32.84,-11.07l133.58 0c13.65,3.51 26.64,8.12 38.98,13.85 31.81,14.75 59.25,37.79 82.3,69.14 30.42,-32.28 62.7,-55.55 96.83,-69.84 12.88,-5.41 26.57,-9.78 41.02,-13.15l150.35 0c9.5,2.3 18.77,5.06 27.83,8.3 30.9,11.07 56.49,26.74 76.76,47.03 29.51,29.5 50.02,61.08 61.56,94.74 11.52,33.66 17.28,70.3 17.28,109.96l0 460.59 -179.81 0 0 -435.67c0,-24.91 -3.46,-45.66 -10.36,-62.25 -6.93,-16.6 -16.14,-29.97 -27.67,-40.1 -11.53,-10.14 -24.44,-17.51 -38.73,-22.14 -14.29,-4.61 -28.35,-6.91 -42.18,-6.91 -13.83,0 -27.89,2.3 -42.18,6.91 -14.3,4.62 -27.2,11.75 -38.73,21.44 -11.52,9.67 -20.96,22.82 -28.34,39.42 -7.39,16.6 -11.08,36.42 -11.08,59.48l0 439.83 -179.81 0 0 -435.67c0,-24.91 -3.46,-45.66 -10.37,-62.25 -6.92,-16.6 -16.12,-29.97 -27.67,-40.1 -11.52,-10.14 -24.42,-17.51 -38.71,-22.14 -14.31,-4.61 -28.36,-6.91 -42.2,-6.91 -13.83,0 -27.9,2.3 -42.17,6.91 -14.3,4.62 -27.21,12 -38.75,22.14 -11.52,10.14 -20.96,23.51 -28.34,40.1 -7.39,16.6 -11.07,37.34 -11.07,62.25l0 435.67 -179.82 0 0 -720.62z"/>
  <path class="fil4" d="M2400.82 1186.45l0 66.39c23.96,-23.97 51.65,-42.42 82.97,-55.32 31.36,-12.9 63.62,-19.36 96.82,-19.36 40.58,0 76.77,7.38 108.59,22.14 31.81,14.75 59.25,37.79 82.3,69.14 30.42,-32.28 62.7,-55.55 96.83,-69.84 34.11,-14.3 73.75,-21.44 118.93,-21.44 35.96,0 69.39,5.53 100.27,16.6 30.9,11.07 56.49,26.74 76.76,47.03 29.51,29.5 50.02,61.08 61.56,94.74 11.52,33.66 17.28,70.3 17.28,109.96l0 460.59 -179.81 0 0 -435.67c0,-24.91 -3.46,-45.66 -10.36,-62.25 -6.93,-16.6 -16.14,-29.97 -27.67,-40.1 -11.53,-10.14 -24.44,-17.51 -38.73,-22.14 -14.29,-4.61 -28.35,-6.91 -42.18,-6.91 -13.83,0 -27.89,2.3 -42.18,6.91 -14.3,4.62 -27.2,11.75 -38.73,21.44 -11.52,9.67 -20.96,22.82 -28.34,39.42 -7.39,16.6 -11.08,36.42 -11.08,59.48l0 439.83 -179.81 0 0 -435.67c0,-24.91 -3.46,-45.66 -10.37,-62.25 -6.92,-16.6 -16.12,-29.97 -27.67,-40.1 -11.52,-10.14 -24.42,-17.51 -38.71,-22.14 -14.31,-4.61 -28.36,-6.91 -42.2,-6.91 -13.83,0 -27.9,2.3 -42.17,6.91 -14.3,4.62 -27.21,12 -38.75,22.14 -11.52,10.14 -20.96,23.51 -28.34,40.1 -7.39,16.6 -11.07,37.34 -11.07,62.25l0 435.67 -179.82 0 0 -720.62 175.67 0z"/>
  <polygon class="fil6" points="2408.79,2271.61 2408.79,2055.27 2367.49,2055.27 2284.29,2190.48 2284.29,2055.27 2241.77,2055.27 2241.77,2271.61 2280.41,2271.61 2366.31,2131.64 2366.31,2271.61 "/>
  <polygon class="fil6" points="2453.67,2271.61 2495.56,2271.61 2495.56,2207.71 2548.78,2207.71 2548.78,2271.61 2590.67,2271.61 2590.67,2106.38 2548.78,2106.38 2548.78,2169.09 2495.56,2169.09 2495.56,2106.38 2453.67,2106.38 "/>
  <polygon class="fil6" points="2631.96,2271.61 2673.88,2271.61 2673.88,2207.71 2727.07,2207.71 2727.07,2271.61 2768.96,2271.61 2768.96,2106.38 2727.07,2106.38 2727.07,2169.09 2673.88,2169.09 2673.88,2106.38 2631.96,2106.38 "/>
  <path class="fil6" d="M2880.99 2275.18c44.29,0 77.27,-35.37 77.27,-84.4l0 -3.27c0,-49.33 -32.68,-84.39 -76.98,-84.39 -44.28,0 -77.84,35.96 -77.84,84.69l0 3.28c0,49.03 32.97,84.1 77.54,84.1zm0.29 -36.56c-21.38,0 -36.24,-21.1 -36.24,-48.43l0 -2.08c0,-27.64 13.38,-48.45 35.95,-48.45 21.4,0 35.67,21.1 35.67,48.74l0 2.08c0,27.64 -13.07,48.14 -35.37,48.14z"/>
  <path class="fil6" d="M2992.73 2271.61l69.54 0c36.85,0 62.99,-15.45 62.99,-47.25 0,-21.4 -11.58,-32.4 -29.4,-38.64 13.97,-6.84 23.75,-17.23 23.75,-36.25 0,-28.23 -21.67,-43.09 -57.63,-43.09l-69.25 0 0 165.23zm86.19 -116.49c0,11.58 -6.85,18.42 -22.6,18.42l-22.88 0 0 -36.25 23.18 0c15.15,-0.31 22.31,7.13 22.31,17.83zm5.63 66.27c0,12.78 -8.92,19.31 -24.06,19.31l-27.05 0 0 -37.74 26.16 0c16.65,0 24.95,6.84 24.95,18.43z"/>
  <path class="fil6" d="M3198.98 2274.58c20.19,0 33.57,-8.32 43.37,-21.39l0 18.42 41.32 0 0 -100.75c0,-21.39 -5.34,-38.04 -16.93,-49.62 -11.01,-11 -27.65,-16.65 -49.94,-16.65 -23.76,0 -40.1,5.05 -55.86,13.07l11.57 32.99c10.42,-4.45 22.6,-9.21 38.36,-9.21 20.21,0 31.8,9.81 31.8,29.72l0 5.34c-10.41,-3.86 -20.82,-6.84 -35.09,-6.84 -34.17,0 -57.94,16.34 -57.94,52.9l0 1.79c0,32.09 21.99,50.22 49.34,50.22zm13.67 -30.91c-13.09,-0.29 -22.31,-7.42 -22.31,-21.7l0 -0.59c0,-15.46 10.41,-24.07 27.35,-24.07 9.52,0 18.71,2.08 25.56,5.34l0 14.57c0,15.74 -12.78,26.74 -30.6,26.44z"/>
  <polygon class="fil6" points="3441.17,2308.46 3478.9,2308.46 3478.9,2233.57 3459.88,2233.57 3459.88,2106.38 3418,2106.38 3418,2233.27 3364.8,2233.27 3364.8,2106.38 3322.88,2106.38 3322.88,2271.61 3441.17,2271.61 "/>
  <polygon class="fil6" points="3508.31,2271.61 3546.36,2271.61 3603.72,2177.7 3603.72,2271.61 3645.31,2271.61 3645.31,2106.38 3605.8,2106.38 3549.93,2197.9 3549.93,2106.38 3508.31,2106.38 "/>
  <path class="fil6" d="M3757.06 2275.18c44.26,0 77.25,-35.37 77.25,-84.4l0 -3.27c0,-49.33 -32.67,-84.39 -76.96,-84.39 -44.29,0 -77.86,35.96 -77.86,84.69l0 3.28c0,49.03 32.99,84.1 77.57,84.1zm0.29 -36.56c-21.39,0 -36.25,-21.1 -36.25,-48.43l0 -2.08c0,-27.64 13.38,-48.45 35.96,-48.45 21.39,0 35.65,21.1 35.65,48.74l0 2.08c0,27.64 -13.07,48.14 -35.36,48.14z"/>
  <polygon class="fil6" points="3868.78,2271.61 3910.69,2271.61 3910.69,2207.71 3963.89,2207.71 3963.89,2271.61 4005.79,2271.61 4005.79,2106.38 3963.89,2106.38 3963.89,2169.09 3910.69,2169.09 3910.69,2106.38 3868.78,2106.38 "/>
  <polygon class="fil6" points="4047.09,2271.61 4088.98,2271.61 4088.98,2207.71 4142.2,2207.71 4142.2,2271.61 4184.08,2271.61 4184.08,2106.38 4142.2,2106.38 4142.2,2169.09 4088.98,2169.09 4088.98,2106.38 4047.09,2106.38 "/>
  <path class="fil6" d="M4267 2106.38l-41.62 0 0 165.23 59.44 0c43.7,0 68.35,-22.28 68.35,-59.14l0 -0.29c0,-38.34 -26.75,-57.36 -63.59,-57.36l-22.58 0 0 -48.43zm0 82.31l19.3 0c16.94,-0.29 25.57,10.1 25.57,24.07l0 0.29c0,15.46 -9.22,24.38 -26.16,24.38l-18.71 0 0 -48.74zm106.68 82.91l41.61 0 0 -165.23 -41.61 0 0 165.23z"/>
  <path class="fil6" d="M4456.29 2271.61l38.06 0 57.35 -93.91 0 93.91 41.58 0 0 -165.23 -39.52 0 -55.86 91.52 0 -91.52 -41.62 0 0 165.23zm68.36 -180.98c28.24,0 48.43,-15.75 50.82,-44.57l-27.92 0c-2.68,10.4 -9.53,17.53 -22.9,17.53 -13.38,0 -20.21,-7.13 -22.87,-17.53l-27.95 0c2.37,28.82 22.6,44.57 50.82,44.57z"/>
  <polygon class="fil6" points="4826.87,2308.46 4864.6,2308.46 4864.6,2233.57 4845.58,2233.57 4845.58,2106.38 4803.7,2106.38 4803.7,2233.27 4750.5,2233.27 4750.5,2106.38 4708.58,2106.38 4708.58,2271.61 4826.87,2271.61 "/>
  <path class="fil6" d="M4961.49 2275.18c24.98,0 43.39,-9.52 58.55,-26.16l-21.71 -25.55c-10.38,10.4 -21.1,16.34 -35.07,16.34 -19.31,0 -33.57,-11.58 -37.14,-35.07l99.85 0c0.29,-6.24 0.29,-11.29 0.29,-13.97 0,-49.03 -23.75,-87.66 -70.12,-87.66 -41.32,0 -71.92,35.96 -71.92,84.99l0 2.67c0,51.42 33.59,84.4 77.26,84.4zm-35.67 -98.67c2.37,-24.07 13.67,-38.64 30.32,-38.64 17.53,0 27.35,14.86 29.43,38.64l-59.75 0z"/>
  <polygon class="fil6" points="5060.44,2271.61 5102.35,2271.61 5102.35,2207.71 5155.56,2207.71 5155.56,2271.61 5197.44,2271.61 5197.44,2106.38 5155.56,2106.38 5155.56,2169.09 5102.35,2169.09 5102.35,2106.38 5060.44,2106.38 "/>
  <polygon class="fil6" points="5275.02,2271.61 5316.6,2271.61 5316.6,2144.12 5362.38,2144.12 5362.38,2106.38 5229.24,2106.38 5229.24,2144.12 5275.02,2144.12 "/>
  <path class="fil6" d="M5394.17 2318.27l41.89 0 0 -68.65c9.53,12.48 22.9,24.96 45.47,24.96 33.29,0 63.31,-27.04 63.31,-83.21l0 -4.76c0,-56.46 -30.01,-83.5 -63.31,-83.5 -22.27,0 -35.65,12.48 -45.47,26.74l0 -23.47 -41.89 0 0 211.89zm75.18 -80.54c-18.73,0 -33.88,-18.42 -33.88,-47.25l0 -2.97c0,-29.42 15.15,-47.55 33.88,-47.55 19.02,0 33.28,18.14 33.28,47.55l0 2.97c0,29.42 -14.26,47.25 -33.28,47.25z"/>
  <polygon class="fil6" points="2237.92,2557.64 2275.96,2557.64 2333.32,2463.73 2333.32,2557.64 2374.91,2557.64 2374.91,2392.41 2335.4,2392.41 2279.52,2483.93 2279.52,2392.41 2237.92,2392.41 "/>
  <polygon class="fil6" points="2415.92,2557.64 2457.83,2557.64 2457.83,2493.74 2511.02,2493.74 2511.02,2557.64 2552.93,2557.64 2552.93,2392.41 2511.02,2392.41 2511.02,2455.12 2457.83,2455.12 2457.83,2392.41 2415.92,2392.41 "/>
  <path class="fil6" d="M2713.69 2604.3l0 -46.06c52.3,-3.28 84.39,-36.56 84.39,-82.91l0 -0.89c0,-46.95 -31.8,-79.34 -84.39,-82.62l0 -57.35 -41.6 0 0 57.35c-53.2,3.28 -84.69,36.85 -84.69,82.91l0 0.89c0,46.95 31.48,79.34 84.69,82.62l0 46.06 41.6 0zm43.39 -128.97c0,27.63 -15.45,45.46 -44.29,47.54l0 -95.39c28.24,2.08 44.29,19.91 44.29,47.54l0 0.31zm-128.68 -0.6c0,-27.34 15.15,-45.77 44.58,-47.25l0 95.39c-28.53,-2.08 -44.58,-19.61 -44.58,-47.85l0 -0.29z"/>
  <path class="fil6" d="M2903.28 2561.21c44.29,0 77.27,-35.37 77.27,-84.4l0 -3.27c0,-49.33 -32.69,-84.39 -76.98,-84.39 -44.26,0 -77.84,35.96 -77.84,84.69l0 3.28c0,49.03 32.99,84.1 77.54,84.1zm0.29 -36.56c-21.39,0 -36.25,-21.1 -36.25,-48.43l0 -2.08c0,-27.64 13.38,-48.45 35.96,-48.45 21.42,0 35.67,21.1 35.67,48.74l0 2.08c0,27.64 -13.06,48.14 -35.37,48.14z"/>
  <path class="fil6" d="M3015.02 2604.3l41.89 0 0 -68.65c9.53,12.48 22.9,24.96 45.47,24.96 33.28,0 63.31,-27.04 63.31,-83.21l0 -4.76c0,-56.46 -30.03,-83.5 -63.31,-83.5 -22.27,0 -35.65,12.48 -45.47,26.74l0 -23.47 -41.89 0 0 211.89zm75.18 -80.54c-18.73,0 -33.88,-18.42 -33.88,-47.25l0 -2.97c0,-29.42 15.15,-47.55 33.88,-47.55 19.03,0 33.28,18.14 33.28,47.55l0 2.97c0,29.42 -14.25,47.25 -33.28,47.25z"/>
  <polygon class="fil6" points="3200.45,2557.64 3241.15,2557.64 3241.15,2458.97 3279.8,2526.43 3280.7,2526.43 3319.92,2458.38 3319.92,2557.64 3360.63,2557.64 3360.63,2392.41 3317.55,2392.41 3280.39,2458.09 3243.83,2392.41 3200.45,2392.41 "/>
  <path class="fil6" d="M3441.75 2560.61c20.21,0 33.57,-8.32 43.39,-21.39l0 18.42 41.3 0 0 -100.75c0,-21.39 -5.34,-38.04 -16.94,-49.62 -10.98,-11 -27.63,-16.65 -49.93,-16.65 -23.76,0 -40.1,5.05 -55.86,13.07l11.58 32.99c10.4,-4.45 22.59,-9.21 38.34,-9.21 20.19,0 31.8,9.81 31.8,29.72l0 5.34c-10.42,-3.86 -20.8,-6.84 -35.08,-6.84 -34.17,0 -57.95,16.34 -57.95,52.9l0 1.79c0,32.09 22,50.22 49.33,50.22zm13.67 -30.91c-13.09,-0.29 -22.28,-7.42 -22.28,-21.7l0 -0.59c0,-15.46 10.4,-24.07 27.34,-24.07 9.52,0 18.71,2.08 25.56,5.34l0 14.57c0,15.74 -12.78,26.74 -30.61,26.44z"/>
  <polygon class="fil6" points="3683.96,2594.49 3721.69,2594.49 3721.69,2519.6 3702.67,2519.6 3702.67,2392.41 3660.77,2392.41 3660.77,2519.3 3607.58,2519.3 3607.58,2392.41 3565.66,2392.41 3565.66,2557.64 3683.96,2557.64 "/>
  <polygon class="fil6" points="3751.09,2557.64 3789.16,2557.64 3846.49,2463.73 3846.49,2557.64 3888.09,2557.64 3888.09,2392.41 3848.57,2392.41 3792.72,2483.93 3792.72,2392.41 3751.09,2392.41 "/>
  <path class="fil6" d="M3999.83 2561.21c44.29,0 77.27,-35.37 77.27,-84.4l0 -3.27c0,-49.33 -32.68,-84.39 -76.98,-84.39 -44.26,0 -77.84,35.96 -77.84,84.69l0 3.28c0,49.03 32.99,84.1 77.54,84.1zm0.29 -36.56c-21.38,0 -36.25,-21.1 -36.25,-48.43l0 -2.08c0,-27.64 13.39,-48.45 35.96,-48.45 21.42,0 35.67,21.1 35.67,48.74l0 2.08c0,27.64 -13.06,48.14 -35.37,48.14z"/>
  <polygon class="fil6" points="4111.57,2557.64 4153.46,2557.64 4153.46,2493.74 4206.67,2493.74 4206.67,2557.64 4248.57,2557.64 4248.57,2392.41 4206.67,2392.41 4206.67,2455.12 4153.46,2455.12 4153.46,2392.41 4111.57,2392.41 "/>
  <polygon class="fil6" points="4289.86,2557.64 4331.78,2557.64 4331.78,2493.74 4384.97,2493.74 4384.97,2557.64 4426.86,2557.64 4426.86,2392.41 4384.97,2392.41 4384.97,2455.12 4331.78,2455.12 4331.78,2392.41 4289.86,2392.41 "/>
  <path class="fil6" d="M4509.77 2392.41l-41.6 0 0 165.23 59.43 0c43.69,0 68.35,-22.28 68.35,-59.14l0 -0.29c0,-38.34 -26.74,-57.36 -63.58,-57.36l-22.6 0 0 -48.43zm0 82.31l19.31 0c16.94,-0.29 25.57,10.1 25.57,24.07l0 0.29c0,15.46 -9.22,24.38 -26.16,24.38l-18.73 0 0 -48.74zm106.7 82.91l41.58 0 0 -165.23 -41.58 0 0 165.23z"/>
  <polygon class="fil6" points="4733.27,2392.41 4688.68,2392.41 4736.82,2473.54 4686.9,2557.64 4730.87,2557.64 4759.7,2504.44 4788.54,2557.64 4833.41,2557.64 4783.49,2472.94 4831.61,2392.41 4787.94,2392.41 4760.59,2442.34 "/>
  <polygon class="fil6" points="4935.61,2557.64 4973.67,2557.64 5031.01,2463.73 5031.01,2557.64 5072.62,2557.64 5072.62,2392.41 5033.09,2392.41 4977.23,2483.93 4977.23,2392.41 4935.61,2392.41 "/>
  <polygon class="fil6" points="2237.92,2843.67 2279.81,2843.67 2279.81,2716.77 2333.03,2716.77 2333.03,2843.67 2374.91,2843.67 2374.91,2678.44 2237.92,2678.44 "/>
  <path class="fil6" d="M2486.07 2847.24c24.95,0 43.37,-9.52 58.52,-26.16l-21.69 -25.55c-10.41,10.4 -21.1,16.34 -35.07,16.34 -19.31,0 -33.57,-11.58 -37.14,-35.07l99.84 0c0.29,-6.24 0.29,-11.29 0.29,-13.97 0,-49.03 -23.76,-87.66 -70.13,-87.66 -41.29,0 -71.92,35.96 -71.92,84.99l0 2.67c0,51.42 33.59,84.4 77.29,84.4zm-35.67 -98.67c2.37,-24.07 13.66,-38.64 30.3,-38.64 17.54,0 27.35,14.86 29.43,38.64l-59.72 0z"/>
  <path class="fil6" d="M2632.85 2677.25l-47.24 128.67 -16.94 0 0 74.89 37.44 0 0 -37.14 98.67 0 0 37.14 37.44 0 0 -74.89 -17.23 0 -47.26 -128.67 -44.87 0zm22.3 47.1l27.63 83.35 -55.86 0 28.23 -83.35z"/>
  <path class="fil6" d="M2809.69 2846.64c20.19,0 33.57,-8.32 43.37,-21.39l0 18.42 41.33 0 0 -100.75c0,-21.39 -5.36,-38.04 -16.94,-49.62 -11.01,-11 -27.65,-16.65 -49.93,-16.65 -23.79,0 -40.12,5.05 -55.87,13.07l11.57 32.99c10.42,-4.45 22.6,-9.21 38.36,-9.21 20.21,0 31.8,9.81 31.8,29.72l0 5.34c-10.41,-3.86 -20.82,-6.84 -35.09,-6.84 -34.17,0 -57.93,16.34 -57.93,52.9l0 1.79c0,32.09 21.98,50.22 49.33,50.22zm13.67 -30.91c-13.09,-0.29 -22.31,-7.42 -22.31,-21.7l0 -0.59c0,-15.46 10.41,-24.07 27.35,-24.07 9.5,0 18.71,2.08 25.55,5.34l0 14.57c0,15.74 -12.77,26.74 -30.59,26.44z"/>
  <polygon class="fil6" points="2933.59,2843.67 2975.5,2843.67 2975.5,2716.77 3042.37,2716.77 3042.37,2678.44 2933.59,2678.44 "/>
  <path class="fil6" d="M3134.78 2847.24c44.28,0 77.26,-35.37 77.26,-84.4l0 -3.27c0,-49.33 -32.68,-84.39 -76.97,-84.39 -44.29,0 -77.86,35.96 -77.86,84.69l0 3.28c0,49.03 32.99,84.1 77.57,84.1zm0.29 -36.56c-21.39,0 -36.25,-21.1 -36.25,-48.43l0 -2.08c0,-27.64 13.38,-48.45 35.96,-48.45 21.39,0 35.65,21.1 35.65,48.74l0 2.08c0,27.64 -13.07,48.14 -35.36,48.14z"/>
  <polygon class="fil6" points="3246.5,2843.67 3288.41,2843.67 3288.41,2716.77 3355.28,2716.77 3355.28,2678.44 3246.5,2678.44 "/>
  <polygon class="fil6" points="3386.19,2843.67 3424.23,2843.67 3481.59,2749.76 3481.59,2843.67 3523.18,2843.67 3523.18,2678.44 3483.67,2678.44 3427.78,2769.96 3427.78,2678.44 3386.19,2678.44 "/>
  <path class="fil6" d="M3648.88 2843.67l42.21 0 0 -165.23 -42.21 0 0 74.89c-6.84,2.08 -13.66,3.56 -21.99,3.56 -16.94,0 -24.95,-5.94 -24.95,-23.47l0 -54.98 -41.92 0 0 59.14c0,40.72 23.2,57.06 60.64,57.06 10.38,0 20.19,-1.48 28.22,-3.86l0 52.9z"/>
  <path class="fil6" d="M3802.24 2847.24c24.95,0 43.37,-9.52 58.52,-26.16l-21.69 -25.55c-10.41,10.4 -21.1,16.34 -35.07,16.34 -19.31,0 -33.57,-11.58 -37.16,-35.07l99.85 0c0.29,-6.24 0.29,-11.29 0.29,-13.97 0,-49.03 -23.76,-87.66 -70.13,-87.66 -41.29,0 -71.9,35.96 -71.9,84.99l0 2.67c0,51.42 33.57,84.4 77.27,84.4zm-35.67 -98.67c2.37,-24.07 13.66,-38.64 30.3,-38.64 17.54,0 27.35,14.86 29.43,38.64l-59.72 0z"/>
  <path class="fil6" d="M3969.26 2847.24c26.14,0 42.48,-10.11 55.86,-25.27l-22.28 -27.63c-9.21,9.21 -17.53,15.15 -30.61,15.45 -22.59,0 -35.95,-19.61 -35.95,-48.14l0 -1.19c0,-27.64 14.25,-47.55 35.07,-47.55 13.36,0 21.98,6.84 30.3,15.15l22.9 -30.6c-13.98,-13.97 -30.03,-22.28 -53.79,-22.28 -44.58,0 -76.38,35.96 -76.38,84.69l0 3.57c0,48.74 30.92,83.81 74.9,83.81z"/>
  <polygon class="fil6" points="4097.31,2678.44 4055.42,2678.44 4055.42,2843.67 4097.31,2843.67 4097.31,2778.88 4108.32,2778.88 4150.52,2843.67 4198.95,2843.67 4141.61,2759.27 4197.76,2678.44 4148.42,2678.44 4108.03,2741.73 4097.31,2741.73 "/>
  <polygon class="fil6" points="4223.61,2843.67 4261.67,2843.67 4319.01,2749.76 4319.01,2843.67 4360.62,2843.67 4360.62,2678.44 4321.09,2678.44 4265.22,2769.96 4265.22,2678.44 4223.61,2678.44 "/>
  <polygon class="fil6" points="4435.8,2678.44 4391.22,2678.44 4439.36,2759.57 4389.43,2843.67 4433.43,2843.67 4462.25,2790.47 4491.07,2843.67 4535.95,2843.67 4486.02,2758.97 4534.17,2678.44 4490.47,2678.44 4463.15,2728.37 "/>
  <polygon class="fil6" points="4674.42,2843.67 4716.03,2843.67 4716.03,2716.18 4761.79,2716.18 4761.79,2678.44 4628.67,2678.44 4628.67,2716.18 4674.42,2716.18 "/>
  <path class="fil6" d="M4855.4 2847.24c24.98,0 43.39,-9.52 58.54,-26.16l-21.7 -25.55c-10.38,10.4 -21.09,16.34 -35.07,16.34 -19.3,0 -33.57,-11.58 -37.13,-35.07l99.85 0c0.29,-6.24 0.29,-11.29 0.29,-13.97 0,-49.03 -23.78,-87.66 -70.13,-87.66 -41.32,0 -71.93,35.96 -71.93,84.99l0 2.67c0,51.42 33.59,84.4 77.27,84.4zm-35.65 -98.67c2.37,-24.07 13.67,-38.64 30.31,-38.64 17.54,0 27.34,14.86 29.42,38.64l-59.72 0z"/>
  <polygon class="fil6" points="4981.7,2678.44 4937.13,2678.44 4985.27,2759.57 4935.34,2843.67 4979.31,2843.67 5008.15,2790.47 5036.98,2843.67 5081.84,2843.67 5031.92,2758.97 5080.06,2678.44 5036.38,2678.44 5009.03,2728.37 "/>
  <polygon class="fil6" points="5109.78,2843.67 5151.67,2843.67 5151.67,2779.77 5204.89,2779.77 5204.89,2843.67 5246.76,2843.67 5246.76,2678.44 5204.89,2678.44 5204.89,2741.15 5151.67,2741.15 5151.67,2678.44 5109.78,2678.44 "/>
  <path class="fil6" d="M5358.81 2847.24c44.26,0 77.25,-35.37 77.25,-84.4l0 -3.27c0,-49.33 -32.68,-84.39 -76.96,-84.39 -44.29,0 -77.86,35.96 -77.86,84.69l0 3.28c0,49.03 32.99,84.1 77.57,84.1zm0.29 -36.56c-21.4,0 -36.25,-21.1 -36.25,-48.43l0 -2.08c0,-27.64 13.37,-48.45 35.96,-48.45 21.39,0 35.67,21.1 35.67,48.74l0 2.08c0,27.64 -13.09,48.14 -35.37,48.14z"/>
  <polygon class="fil6" points="5550.48,2677.25 5509.19,2677.25 5450.33,2843.67 5493.73,2843.67 5529.69,2732.82 5565.05,2843.67 5609.63,2843.67 "/>
  <path class="fil6" d="M5700.86 2847.24c44.26,0 77.25,-35.37 77.25,-84.4l0 -3.27c0,-49.33 -32.68,-84.39 -76.96,-84.39 -44.29,0 -77.86,35.96 -77.86,84.69l0 3.28c0,49.03 32.99,84.1 77.57,84.1zm0.29 -36.56c-21.39,0 -36.25,-21.1 -36.25,-48.43l0 -2.08c0,-27.64 13.38,-48.45 35.96,-48.45 21.39,0 35.64,21.1 35.64,48.74l0 2.08c0,27.64 -13.06,48.14 -35.35,48.14z"/>
  <polygon class="fil6" points="5812.56,2843.67 5854.48,2843.67 5854.48,2716.77 5921.34,2716.77 5921.34,2678.44 5812.56,2678.44 "/>
  <polygon class="fil6" points="5952.25,2843.67 5990.29,2843.67 6047.65,2749.76 6047.65,2843.67 6089.25,2843.67 6089.25,2678.44 6049.73,2678.44 5993.85,2769.96 5993.85,2678.44 5952.25,2678.44 "/>
  <path class="fil6" d="M6130.24 2843.67l38.06 0 57.34 -93.91 0 93.91 41.61 0 0 -165.23 -39.53 0 -55.86 91.52 0 -91.52 -41.62 0 0 165.23zm68.37 -180.98c28.22,0 48.42,-15.75 50.82,-44.57l-27.94 0c-2.68,10.4 -9.53,17.53 -22.88,17.53 -13.38,0 -20.22,-7.13 -22.9,-17.53l-27.92 0c2.37,28.82 22.59,44.57 50.82,44.57z"/>
 </g>
</svg>
