<?xml version="1.0" encoding="UTF-8"?>
<!DOCTYPE svg PUBLIC "-//W3C//DTD SVG 1.1//EN" "http://www.w3.org/Graphics/SVG/1.1/DTD/svg11.dtd">
<!-- Creator: CorelDRAW 2018 (64-Bit) -->
<svg xmlns="http://www.w3.org/2000/svg" xml:space="preserve" width="50.4414mm" height="23.6292mm" version="1.1" style="shape-rendering:geometricPrecision; text-rendering:geometricPrecision; image-rendering:optimizeQuality; fill-rule:evenodd; clip-rule:evenodd"
viewBox="0 0 1600.01 749.52"
 xmlns:xlink="http://www.w3.org/1999/xlink">
 <defs>
  <style type="text/css">
   <![CDATA[
    .fil2 {fill:#FEFEFE}
    .fil5 {fill:#727271}
    .fil1 {fill:#F7AA47}
    .fil3 {fill:#FCEB08}
    .fil0 {fill:#2AB5B2}
    .fil4 {fill:#727271;fill-rule:nonzero}
    .fil6 {fill:#2AB5B2;fill-rule:nonzero}
   ]]>
  </style>
 </defs>
 <g id="Слой_x0020_1">
  <metadata id="CorelCorpID_0Corel-Layer"/>
  <polygon class="fil0" points="17.87,358.11 492.95,358.11 492.95,720.9 17.87,720.9 "/>
  <path class="fil0" d="M51.47 311.49c-7.64,4.99 -15.09,10.26 -22.34,15.82 0,0 0,-99.4 0,-298.2 284.84,0 427.26,0 427.26,0 -8.21,2.51 -16.51,6.85 -24.89,13.03 -20.22,13.63 -38.69,27.12 -55.41,40.48 -18.78,15.24 -37.52,30.93 -56.24,47.08 -3.72,3.35 -7.72,6.89 -12.01,10.61 -27.89,18.55 -57.47,38.23 -88.72,59.02 -37.92,25.23 -75.62,50.31 -113.1,75.24 -21.24,14.58 -39.42,26.89 -54.55,36.92z"/>
  <path class="fil1" d="M430.06 565.33c15.14,-45.58 40.17,-158.83 49.6,-196.58 0,147.89 0,0 0,147.89 0,48.89 0,21.16 0,70.04 0,0 -2.49,-1.07 -49.6,-21.35z"/>
  <path class="fil2" d="M347 708.39c-217.09,0 -317.86,0 -317.86,0 0,0 0,-22.09 0,-74.12 -1.45,-27.63 8.04,-51.37 42.61,-63.43 -5.11,-12.79 -4.09,-25.11 3.05,-36.97 6.65,-9.91 15.87,-15.8 27.67,-17.66 14.49,-1.78 33.04,4.83 42.63,16.58 0,0 16.61,-14.96 46.57,-51.4 44.46,14.44 68.73,28.37 95.59,51.57 -10.43,41.57 -15.64,62.36 -15.64,62.36 20.88,10.14 38.26,25.16 42.36,38.57 3.64,11.33 0.73,26.95 -5.48,37.09 26.67,4.29 33.71,13.14 38.5,37.41z"/>
  <path class="fil3" d="M89.26 424.05c0,0 12.5,-18.78 19.1,-26.91 50.86,-64.07 166.87,-209.82 221.11,-251.8 150.19,-116.24 150.19,-116.24 150.19,-116.24 0,193.04 0,29.15 0,193.04 0,12.42 -0.8,23.72 -2.13,34.26 -8.23,65.45 -38.37,174.49 -57.14,238.42 -2.6,8.9 -25.33,89.09 -25.33,89.09 -64.54,-67.31 -179.22,-147.3 -305.81,-159.87z"/>
  <path class="fil1" d="M82.38 380.22c133.36,-147.74 0,0 137.16,-152.04 -190.41,116.14 -190.41,116.14 -190.41,116.14 53.25,35.9 0.46,0.3 53.25,35.9z"/>
  <path class="fil2" d="M336.54 262.01c31.68,0 57.36,25.68 57.36,57.36 0,31.68 -25.68,57.36 -57.36,57.36 -31.69,0 -57.36,-25.68 -57.36,-57.36 0,-31.68 25.68,-57.36 57.36,-57.36z"/>
  <path class="fil4" d="M727.03 125.91c21.04,-11.72 31.56,-29.77 31.56,-54.17 0,-10.76 -1.85,-20.44 -5.56,-29.06 -3.71,-8.61 -8.96,-15.96 -15.78,-22.06 -6.82,-6.1 -15.13,-10.82 -24.93,-14.17 -9.8,-3.35 -20.68,-5.02 -32.64,-5.02l-102.59 0 0 223.37 45.56 0 0 32.03 -45.56 0 0 -32.03 45.56 0 0 32.03 61.34 0c11.96,0 22.77,-1.74 32.46,-5.2 9.69,-3.47 17.93,-8.37 24.75,-14.71 6.82,-6.34 12.02,-13.99 15.61,-22.96 3.59,-8.97 5.38,-19.07 5.38,-30.31 0,-9.09 -1.25,-17.22 -3.76,-24.39 -2.51,-7.18 -6.52,-13.75 -12.02,-19.73 -2.64,-2.63 -5.27,-4.9 -7.9,-6.82 -2.63,-1.91 -6.46,-4.18 -11.48,-6.81zm-51.29 -21.16l-48.79 0 0 -58.83 48.79 0c10.28,0 18.35,2.63 24.21,7.9 5.86,5.26 8.79,12.43 8.79,21.52 0,9.08 -2.93,16.26 -8.79,21.52 -5.86,5.26 -13.93,7.89 -24.21,7.89zm3.23 107.61l-52.01 0 0 -62.78 52.01 0c10.28,0 18.42,2.75 24.39,8.25 5.98,5.5 8.97,13.15 8.97,22.96 0,9.8 -2.99,17.52 -8.97,23.14 -5.98,5.62 -14.11,8.43 -24.39,8.43z"/>
  <path class="fil4" d="M943.42 256.84l26.55 0 0 -39.46 -17.94 0c-5.98,0 -10.22,-1.43 -12.73,-4.3 -2.51,-2.87 -3.77,-7.05 -3.77,-12.55l0 -199.08 -46.63 0 0 201.95c0,6.7 1.02,13.21 3.05,19.55 2.03,6.34 5.26,12.02 9.68,17.04 4.42,5.02 10.1,9.09 17.04,12.2 6.93,3.11 15.18,4.67 24.75,4.67z"/>
  <path class="fil4" d="M999.6 494.59l45.55 0 0 -123.04c0,-44 -40.54,-66 -93.62,-66 -15.54,0 -28.34,1.91 -38.38,5.74 -10.04,3.83 -19.61,10.76 -28.69,20.81l29.42 29.06c5.02,-5.74 10.16,-9.86 15.42,-12.38 5.26,-2.51 12.07,-3.77 20.44,-3.77 12.44,0 35.34,2.34 40.72,6.99 5.37,4.66 8.07,12.15 8.07,22.42l0 9.33 -57.39 0c-10.99,0 -20.58,1.44 -28.7,4.31 -8.13,2.86 -14.83,6.75 -20.09,11.66 -5.27,4.9 -9.21,10.64 -11.84,17.22 -2.64,6.58 -3.95,13.57 -3.95,20.98 0,8.37 1.31,16.14 3.95,23.32 2.63,7.17 6.45,13.39 11.48,18.65 11,11 26.9,16.5 47.71,16.5 10.76,0 33.54,-1.44 40.35,-4.3 6.8,-2.86 13.33,-7.41 19.55,-13.63l0 16.14zm-1.08 -78.92l0 10.04c0,5.97 -0.55,10.83 -1.62,14.53 -1.07,3.7 -2.96,6.74 -5.56,9.15 -4.09,3.79 -8.26,6.28 -12.56,7.35 -4.29,1.07 -23.31,1.61 -29.06,1.61 -9.8,0 -16.98,-1.91 -21.52,-5.74 -4.54,-3.83 -6.82,-8.97 -6.82,-15.43 0,-14.35 9.21,-21.52 27.62,-21.52l49.51 0z"/>
  <path class="fil4" d="M1195.14 494.59l57.76 0 -71.74 -111.56 66.72 -75.33 -56.32 0 -62.06 76.4 0 -144.92 -46.63 0 0 255.4 46.63 0 0 -55.6 19.73 -22.24 45.91 77.84zm105.1 -237.75l46.63 0 0 -119.45c0,-10.28 -1.5,-19.79 -4.49,-28.52 -2.99,-8.73 -8.31,-16.92 -15.96,-24.57 -5.26,-5.26 -11.9,-9.33 -19.91,-12.2 -8.01,-2.87 -16.68,-4.31 -26,-4.31 -11.72,0 -22,1.86 -30.85,5.56 -8.85,3.7 -17.21,9.74 -25.11,18.11 -5.98,-8.13 -13.09,-14.11 -21.34,-17.93 -8.25,-3.83 -17.64,-5.74 -28.16,-5.74 -8.61,0 -16.98,1.68 -25.11,5.02 -8.13,3.35 -15.3,8.13 -21.52,14.35l0 -20.19 -45.55 0 0 172.21 46.63 0 0 -95.34c0,-6.46 0.96,-11.84 2.87,-16.14 1.91,-4.31 4.36,-7.77 7.35,-10.4 2.99,-2.63 6.34,-4.54 10.05,-5.74 3.71,-1.2 7.35,-1.8 10.94,-1.8 3.59,0 7.23,0.6 10.94,1.8 3.71,1.2 7.05,3.11 10.05,5.74 2.99,2.63 5.38,6.1 7.17,10.4 1.79,4.3 2.69,9.68 2.69,16.14l0 112.99 46.63 0 0 -114.07c0,-5.98 0.96,-11.12 2.87,-15.43 1.91,-4.3 4.36,-7.71 7.35,-10.22 2.99,-2.51 6.34,-4.36 10.05,-5.56 3.71,-1.2 7.35,-1.8 10.94,-1.8 3.58,0 7.23,0.6 10.94,1.8 3.7,1.2 7.05,3.11 10.05,5.74 2.99,2.63 5.38,6.1 7.17,10.4 1.79,4.3 2.69,9.68 2.69,16.14l0 112.99z"/>
  <path class="fil4" d="M1414.09 400.97c0,-16.98 -1.43,-31.03 -4.31,-42.15 -2.87,-11.12 -8.49,-21.22 -16.86,-30.31 -5.98,-6.22 -13.69,-11.6 -23.14,-16.14 -9.44,-4.55 -21.1,-6.82 -34.97,-6.82 -13.87,0 -25.47,2.27 -34.79,6.82 -9.33,4.54 -16.98,9.92 -22.95,16.14 -8.37,9.09 -13.99,19.19 -16.86,30.31 -2.87,11.12 -4.31,25.17 -4.31,42.15 0,16.98 1.44,31.09 4.31,42.33 2.87,11.24 8.49,21.4 16.86,30.49 5.97,6.22 13.63,11.6 22.95,16.14 9.33,4.55 20.93,6.82 34.79,6.82 13.87,0 25.53,-2.27 34.97,-6.82 9.45,-4.54 17.16,-9.92 23.14,-16.14 8.61,-8.85 14.29,-18.95 17.04,-30.31 2.75,-11.36 4.12,-25.53 4.12,-42.51zm-46.63 0c0,9.81 -0.6,18.65 -1.8,26.55 -1.19,7.89 -4.18,14.23 -8.96,19.01 -5.5,5.5 -12.8,8.25 -21.89,8.25 -8.84,0 -16.02,-2.75 -21.52,-8.25 -4.78,-4.78 -7.77,-11.12 -8.96,-19.01 -1.2,-7.89 -1.8,-16.74 -1.8,-26.55 0,-9.56 0.6,-18.29 1.8,-26.18 1.19,-7.89 4.18,-14.23 8.96,-19.01 5.5,-5.5 12.68,-8.25 21.52,-8.25 9.09,0 16.38,2.75 21.89,8.25 4.78,4.78 7.77,11.12 8.96,19.01 1.2,7.89 1.8,16.62 1.8,26.18z"/>
  <path class="fil4" d="M1553.38 494.59l46.63 0 0 -119.45c0,-10.28 -1.26,-19.79 -3.77,-28.52 -2.51,-8.73 -7.59,-16.92 -15.24,-24.57 -5.26,-5.26 -11.59,-9.33 -19.01,-12.2 -7.41,-2.87 -15.78,-4.3 -25.11,-4.3 -8.61,0 -16.98,1.61 -25.11,4.84 -8.13,3.23 -15.3,8.07 -21.52,14.53l0 -17.22 -45.55 0 0 186.89 46.63 0 0 -112.99c0,-6.46 0.96,-11.84 2.87,-16.14 1.91,-4.3 4.37,-7.77 7.36,-10.4 2.98,-2.63 6.34,-4.55 10.04,-5.74 3.71,-1.2 7.35,-1.79 10.95,-1.79 3.58,0 7.23,0.6 10.94,1.79 3.7,1.2 7.05,3.11 10.04,5.74 2.99,2.63 5.38,6.1 7.17,10.4 1.8,4.3 2.7,9.68 2.7,16.14l0 112.99z"/>
  <path class="fil4" d="M800.79 256.84l46.63 0 0 -180.09c-6.98,3.81 -14.99,5.97 -23.5,5.97 -8.36,0 -16.24,-2.09 -23.14,-5.78l0 179.9z"/>
  <path class="fil4" d="M998.53 256.84l46.63 0 0 -180.09c-6.98,3.81 -14.98,5.97 -23.49,5.97 -8.36,0 -16.24,-2.09 -23.14,-5.78l0 179.9z"/>
  <path class="fil3" d="M479.66 222.15c-37.61,-37.85 -86.98,-61.61 -150.19,-76.8 100.12,-77.49 150.19,-116.24 150.19,-116.24 0,128.7 0,193.04 0,193.04z"/>
  <path class="fil0" d="M823.92 1.44c17.73,0 32.11,14.38 32.11,32.11 0,17.73 -14.38,32.11 -32.11,32.11 -17.74,0 -32.11,-14.38 -32.11,-32.11 0,-17.73 14.38,-32.11 32.11,-32.11z"/>
  <path class="fil0" d="M1021.66 1.44c17.73,0 32.11,14.38 32.11,32.11 0,17.73 -14.38,32.11 -32.11,32.11 -17.74,0 -32.11,-14.38 -32.11,-32.11 0,-17.73 14.38,-32.11 32.11,-32.11z"/>
  <path class="fil5" d="M479.66 708.39l0 -89.32 0 0c13.56,5.76 11.18,3.07 12.3,1.93 9.41,-12.61 15.01,-27.19 16.8,-43.75l0 131.15 -29.1 0zm0 -121.71l0 -217.92 0 -0.01c0,147.89 0,0 0,147.89 0,48.89 0,21.16 0,70.04l-0 0zm0 -364.53l0 -193.04 0 0c0,193.04 0,29.15 0,193.04l0 0 -0 -0zm29.1 -201.09l0 0 -0.13 0.22 -0.37 0.65 -0.44 0.77 -0.54 0.95 -0.78 1.35 -0.2 0.34 -2.15 3.76 4.61 0 0 46.2c-0.53,-9.89 -4.38,-21.26 -11.53,-34.13l11.53 -20.11zm0 159.68l0 346.8c-3.1,-49.34 -12.74,-96.66 -28.91,-141.97 13.85,-61.08 23.48,-129.36 28.91,-204.82zm0 -159.68l0 8.04 -4.61 0 2.15 -3.76 0.2 -0.34 0.78 -1.35 0.54 -0.95 0.44 -0.77 0.37 -0.65 0.13 -0.22zm-74.26 8.04l-434.48 0 0 -29.11 471.49 0 -37 29.11zm74.26 679.28l0 29.11 -77.89 0c-12.04,-24.27 -29.36,-18.4 -51.96,-29.11l129.85 0zm-77.89 29.11c-287.24,0 -430.85,0 -430.85,0l0 -58.44 19.17 0 8.3 0 0 15.26c0.51,-1.67 1.06,-3.32 1.64,-4.95l0 19.02c102.41,0 211.46,0 317.86,0 -4.79,-24.26 -11.83,-33.12 -38.5,-37.41 6.22,-10.13 9.13,-25.75 5.49,-37.09 -4.1,-13.41 -21.48,-28.44 -42.36,-38.57 0,0 5.21,-20.79 15.63,-62.36 -6.18,-5.33 -12.21,-10.17 -18.39,-14.65l3.9 -11 -13.61 -4.8 -13.6 -4.8 -1.76 4.96c-4.44,-2.36 -9.08,-4.63 -13.99,-6.85l2.94 -4.24 -11.85 -8.19 -11.86 -8.19 -6.77 9.75c-3.4,-1.19 -6.93,-2.38 -10.59,-3.57 -29.96,36.43 -46.57,51.39 -46.57,51.39 -9.59,-11.76 -28.14,-18.37 -42.64,-16.58 -11.81,1.87 -21.03,7.75 -27.67,17.66 -7.14,11.85 -8.16,24.18 -3.05,36.97 -30.26,10.55 -41.3,30.06 -42.61,53.29l0 -64.55c3.61,-2.88 7.55,-5.39 11.83,-7.53 3.79,-51.73 55.06,-76.56 101.74,-54.32 0,0 9.93,-10.82 23.5,-27.1 -14.44,-8.31 -70.39,-18.81 -121.14,-28.5 0,0 5.98,-9.92 22.97,-36.03 -38.9,-28.25 0,0 -38.9,-28.25l0 -33.53 0 -29 0 -0.08c0.48,-0.88 12.2,-11.91 233.62,-151.06 208.76,-164.18 0,0 208.76,-164.18 16.35,0 37.26,0 37.26,0 0,14.04 0,21.06 0,21.06 -7.69,13.41 -11.53,20.12 -11.53,20.12 7.17,12.89 11.01,24.28 11.53,34.19 0,70.22 0,105.33 0,105.33 -5.43,75.48 -15.06,143.77 -28.91,204.87 16.18,45.33 25.82,92.67 28.91,142.02 0,33.08 0,49.62 0,49.62 -1.79,16.58 -7.39,31.17 -16.8,43.79 -1.12,1.14 1.26,3.83 -12.3,-1.93 -61.44,-26.1 2.39,1.02 -59.05,-25.09 -10.89,37.73 0,0 -10.89,37.73 -29.24,-22.65 -61.33,-54.53 -100.05,-81.44 -6.3,19.93 -9.46,29.89 -9.46,29.89 16.68,7.58 28.17,17.24 34.51,28.99 9.07,17.07 11.74,33.59 7.99,49.58 21.08,7.56 33.15,27.92 36.2,49.65 22.6,10.71 39.92,4.84 51.96,29.11zm-411.69 -58.44c-2.31,5.82 -4.28,11.91 -5.87,18.26 1.59,-6.35 3.56,-12.44 5.87,-18.26zm9.94 -334.74c53.25,35.9 0.45,0.3 53.25,35.9 133.36,-147.74 0,0 137.16,-152.04 -190.41,116.14 -190.41,116.14 -190.41,116.14zm-29.1 297.42c-0.03,-2.15 -0.03,-4.26 0,-6.34l0 6.34zm430.03 -76.41c15.14,-45.58 40.17,-158.84 49.61,-196.58 0,147.89 0,0 0,147.89 0,48.89 0,21.16 0,70.04 0,0 -2.49,-1.07 -49.61,-21.35zm-340.8 -141.28c0,0 12.5,-18.78 19.1,-26.91 43.81,-55.19 135.98,-171 195.35,-228.87 -2.14,-0.44 -4.29,-0.88 -6.48,-1.32 0,0 6.97,-8.12 20.91,-24.38 3.87,0.92 7.64,1.84 11.33,2.77l150.19 -116.24c0,193.04 0,29.15 0,193.04l0 0c1.75,1.67 3.51,3.38 5.28,5.14 1.82,30.57 0.62,42.22 -3.62,34.95 -1.34,-1.46 -2.66,-2.9 -3.99,-4.32 -8.5,65.61 -38.32,173.46 -56.95,236.91 -2.6,8.9 -25.33,89.09 -25.33,89.09 -64.54,-67.31 -179.22,-147.29 -305.81,-159.87zm395.69 -196.76c1.82,30.57 0.62,42.22 -3.62,34.95 -50.41,-55.4 -95.86,-77.62 -184.1,-95.28 0,0 6.97,-8.12 20.91,-24.38 79.57,18.97 119.26,37.67 166.8,84.72zm-212.18 280.02l-37.23 105.06c19.98,12.3 32.19,28.53 39.52,46.4 6.38,15.53 8.86,33.51 9.59,49.62l-28.83 0c-0.67,-12.84 -2.67,-27.11 -7.41,-38.66 -6.12,-14.91 -17.2,-28.28 -36.74,-37.52l-11.8 -5.58 45.68 -128.91 27.22 9.6zm-213.67 201.08c8,-31.07 26.64,-53.18 48.67,-63.63 12.87,-6.12 26.88,-8.72 40.59,-7.94 13.82,0.8 27.34,5.03 39.13,12.59 18.09,11.6 32.02,32.45 36.54,58.98l-29.41 0c-3.76,-15.33 -12.16,-27.93 -22.71,-34.7 -7.55,-4.84 -16.24,-7.56 -25.13,-8.07 -9,-0.52 -18.22,1.2 -26.69,5.22 -13.08,6.21 -24.47,19.62 -30.82,37.55l-30.15 0zm173.64 -216.8l-82.24 118.57 -7.41 0.12c-28.07,0.47 -53.98,9.35 -74.47,25.4 -18.05,14.13 -33.6,33.97 -41.12,58.64l0 -15.26 1.64 0 0 -46.83c6.33,-7.1 14.46,-13.53 21.75,-19.24 23.55,-18.44 52.7,-29.25 84.22,-31.2l73.92 -106.57 23.71 16.37zm103.8 -254.73c45.57,0 82.51,36.94 82.51,82.51 0,45.57 -36.94,82.51 -82.51,82.51 -45.58,0 -82.51,-36.94 -82.51,-82.51 0,-45.57 36.94,-82.51 82.51,-82.51zm0 27.5c30.38,0 55,24.63 55,55.01 0,30.38 -24.62,55.01 -55,55.01 -30.38,0 -55.01,-24.63 -55.01,-55.01 0,-30.38 24.62,-55.01 55.01,-55.01zm-336.51 -235.25l29.1 0 0 649.95 -29.1 0 0 -649.95z"/>
  <path class="fil4" d="M577.08 307.7l45.56 0 0 17.22c6.21,-6.22 13.4,-11 21.52,-14.35 2.81,-1.15 5.65,-2.11 8.52,-2.87l34.64 0c3.54,0.91 6.91,2.11 10.11,3.59 8.25,3.83 15.37,9.8 21.34,17.93 7.89,-8.37 16.26,-14.41 25.11,-18.11 3.34,-1.4 6.89,-2.54 10.64,-3.41l38.99 0c2.46,0.6 4.87,1.31 7.22,2.15 8.01,2.87 14.65,6.93 19.91,12.2 7.65,7.65 12.97,15.84 15.96,24.57 2.99,8.73 4.48,18.23 4.48,28.52l0 119.45 -46.63 0 0 -112.99c0,-6.46 -0.9,-11.84 -2.69,-16.15 -1.8,-4.3 -4.19,-7.77 -7.18,-10.4 -2.99,-2.63 -6.34,-4.54 -10.05,-5.74 -3.7,-1.2 -7.35,-1.79 -10.94,-1.79 -3.59,0 -7.23,0.6 -10.94,1.79 -3.71,1.2 -7.05,3.05 -10.05,5.56 -2.99,2.51 -5.44,5.92 -7.35,10.22 -1.92,4.3 -2.87,9.45 -2.87,15.43l0 114.07 -46.63 0 0 -112.99c0,-6.46 -0.9,-11.84 -2.69,-16.15 -1.8,-4.3 -4.18,-7.77 -7.18,-10.4 -2.99,-2.63 -6.33,-4.54 -10.04,-5.74 -3.71,-1.2 -7.36,-1.79 -10.94,-1.79 -3.59,0 -7.24,0.6 -10.94,1.79 -3.71,1.2 -7.06,3.11 -10.05,5.74 -2.99,2.63 -5.44,6.1 -7.35,10.4 -1.92,4.3 -2.87,9.68 -2.87,16.15l0 112.99 -46.63 0 0 -186.89z"/>
  <path class="fil4" d="M622.64 307.7l0 17.22c6.21,-6.22 13.4,-11 21.52,-14.35 8.13,-3.35 16.5,-5.02 25.11,-5.02 10.52,0 19.91,1.91 28.16,5.74 8.25,3.83 15.37,9.8 21.34,17.93 7.89,-8.37 16.26,-14.41 25.11,-18.11 8.85,-3.71 19.13,-5.56 30.84,-5.56 9.33,0 17.99,1.43 26,4.3 8.01,2.87 14.65,6.93 19.91,12.2 7.65,7.65 12.97,15.84 15.96,24.57 2.99,8.73 4.48,18.23 4.48,28.52l0 119.45 -46.63 0 0 -112.99c0,-6.46 -0.9,-11.84 -2.69,-16.15 -1.8,-4.3 -4.19,-7.77 -7.18,-10.4 -2.99,-2.63 -6.34,-4.54 -10.05,-5.74 -3.7,-1.2 -7.35,-1.79 -10.94,-1.79 -3.59,0 -7.23,0.6 -10.94,1.79 -3.71,1.2 -7.05,3.05 -10.05,5.56 -2.99,2.51 -5.44,5.92 -7.35,10.22 -1.92,4.3 -2.87,9.45 -2.87,15.43l0 114.07 -46.63 0 0 -112.99c0,-6.46 -0.9,-11.84 -2.69,-16.15 -1.8,-4.3 -4.18,-7.77 -7.18,-10.4 -2.99,-2.63 -6.33,-4.54 -10.04,-5.74 -3.71,-1.2 -7.36,-1.79 -10.94,-1.79 -3.59,0 -7.24,0.6 -10.94,1.79 -3.71,1.2 -7.06,3.11 -10.05,5.74 -2.99,2.63 -5.44,6.1 -7.35,10.4 -1.92,4.3 -2.87,9.68 -2.87,16.15l0 112.99 -46.63 0 0 -186.89 45.56 0z"/>
  <polygon class="fil6" points="580.19,588.91 591.37,588.91 591.37,532.8 580.19,532.8 "/>
  <path class="fil6" d="M603.39 588.91l10.86 0 0 -25.82c0,-5.24 2.7,-8.02 6.63,-8.02 4,0 6.39,2.7 6.39,7.94l0 25.9 10.95 0 0 -29.13c0,-8.94 -4.7,-14.57 -12.8,-14.57 -5.47,0 -8.63,3.16 -11.18,6.7l0 -5.86 -10.86 0 0 42.85z"/>
  <path class="fil6" d="M648.48 588.91l10.86 0 0 -25.82c0,-5.24 2.7,-8.02 6.63,-8.02 4.01,0 6.39,2.7 6.39,7.94l0 25.9 10.95 0 0 -29.13c0,-8.94 -4.7,-14.57 -12.8,-14.57 -5.47,0 -8.63,3.16 -11.18,6.7l0 -5.86 -10.86 0 0 42.85z"/>
  <path class="fil6" d="M711.91 589.83c11.48,0 20.04,-9.17 20.04,-21.89l0 -0.85c0,-12.79 -8.48,-21.89 -19.96,-21.89 -11.48,0 -20.19,9.33 -20.19,21.96l0 0.85c0,12.72 8.55,21.81 20.11,21.81zm0.08 -9.48c-5.55,0 -9.4,-5.47 -9.4,-12.56l0 -0.54c0,-7.17 3.47,-12.56 9.33,-12.56 5.55,0 9.25,5.47 9.25,12.64l0 0.54c0,7.17 -3.39,12.49 -9.18,12.49z"/>
  <polygon class="fil6" points="750.05,589.21 760.23,589.21 774.72,546.06 763.62,546.06 755.22,575.04 746.9,546.06 735.49,546.06 "/>
  <path class="fil6" d="M790.98 589.68c5.24,0 8.7,-2.16 11.25,-5.55l0 4.78 10.72 0 0 -26.13c0,-5.55 -1.39,-9.86 -4.39,-12.87 -2.85,-2.85 -7.17,-4.32 -12.95,-4.32 -6.17,0 -10.41,1.31 -14.49,3.39l3.01 8.55c2.7,-1.15 5.86,-2.39 9.94,-2.39 5.24,0 8.25,2.54 8.25,7.71l0 1.39c-2.7,-1 -5.39,-1.77 -9.09,-1.77 -8.86,0 -15.03,4.24 -15.03,13.72l0 0.46c0,8.32 5.7,13.02 12.79,13.02zm3.54 -8.02c-3.39,-0.08 -5.78,-1.93 -5.78,-5.63l0 -0.15c0,-4.01 2.7,-6.24 7.1,-6.24 2.46,0 4.85,0.54 6.62,1.39l0 3.78c0,4.08 -3.31,6.93 -7.94,6.86z"/>
  <path class="fil6" d="M835.76 589.6c3.39,0 6.08,-0.93 8.24,-2.16l0 -8.71c-1.47,0.69 -3.08,1.15 -4.85,1.15 -2.55,0 -3.78,-1.31 -3.78,-3.85l0 -20.73 8.71 0 0 -9.25 -8.71 0 0 -11.1 -10.87 0 0 11.1 -4.39 0 0 9.25 4.39 0 0 22.97c0,8.79 4.78,11.33 11.26,11.33z"/>
  <path class="fil6" d="M853.1 541.12l11.4 0 0 -10.02 -11.4 0 0 10.02zm0.23 47.78l10.94 0 0 -42.85 -10.94 0 0 42.85z"/>
  <path class="fil6" d="M893.72 589.83c11.48,0 20.03,-9.17 20.03,-21.89l0 -0.85c0,-12.79 -8.47,-21.89 -19.96,-21.89 -11.49,0 -20.19,9.33 -20.19,21.96l0 0.85c0,12.72 8.55,21.81 20.12,21.81zm0.08 -9.48c-5.55,0 -9.4,-5.47 -9.4,-12.56l0 -0.54c0,-7.17 3.47,-12.56 9.33,-12.56 5.55,0 9.25,5.47 9.25,12.64l0 0.54c0,7.17 -3.39,12.49 -9.17,12.49z"/>
  <path class="fil6" d="M922.69 588.91l10.87 0 0 -25.82c0,-5.24 2.7,-8.02 6.63,-8.02 4,0 6.39,2.7 6.39,7.94l0 25.9 10.95 0 0 -29.13c0,-8.94 -4.7,-14.57 -12.8,-14.57 -5.47,0 -8.63,3.16 -11.17,6.7l0 -5.86 -10.87 0 0 42.85z"/>
  <path class="fil6" d="M1004.69 589.83c6.78,0 11.02,-2.62 14.49,-6.55l-5.78 -7.17c-2.39,2.39 -4.55,3.93 -7.94,4.01 -5.86,0 -9.32,-5.08 -9.32,-12.49l0 -0.31c0,-7.17 3.7,-12.33 9.09,-12.33 3.47,0 5.71,1.77 7.86,3.93l5.94 -7.94c-3.62,-3.62 -7.78,-5.78 -13.95,-5.78 -11.56,0 -19.8,9.33 -19.8,21.96l0 0.93c0,12.64 8.02,21.73 19.42,21.73z"/>
  <path class="fil6" d="M1044.15 589.83c6.48,0 11.25,-2.47 15.18,-6.78l-5.63 -6.63c-2.69,2.7 -5.47,4.24 -9.09,4.24 -5.01,0 -8.71,-3 -9.63,-9.09l25.9 0c0.08,-1.62 0.08,-2.93 0.08,-3.62 0,-12.72 -6.16,-22.73 -18.19,-22.73 -10.71,0 -18.65,9.33 -18.65,22.04l0 0.69c0,13.34 8.71,21.89 20.04,21.89zm-9.25 -25.59c0.62,-6.24 3.55,-10.02 7.86,-10.02 4.55,0 7.09,3.85 7.63,10.02l-15.5 0z"/>
  <path class="fil6" d="M1069.82 588.91l10.87 0 0 -25.82c0,-5.24 2.7,-8.02 6.63,-8.02 4.01,0 6.4,2.7 6.4,7.94l0 25.9 10.94 0 0 -29.13c0,-8.94 -4.7,-14.57 -12.8,-14.57 -5.47,0 -8.63,3.16 -11.17,6.7l0 -5.86 -10.87 0 0 42.85z"/>
  <path class="fil6" d="M1127.85 589.6c3.39,0 6.09,-0.93 8.24,-2.16l0 -8.71c-1.46,0.69 -3.08,1.15 -4.85,1.15 -2.54,0 -3.78,-1.31 -3.78,-3.85l0 -20.73 8.71 0 0 -9.25 -8.71 0 0 -11.1 -10.86 0 0 11.1 -4.39 0 0 9.25 4.39 0 0 22.97c0,8.79 4.78,11.33 11.25,11.33z"/>
  <path class="fil6" d="M1162.15 589.83c6.48,0 11.25,-2.47 15.18,-6.78l-5.63 -6.63c-2.69,2.7 -5.47,4.24 -9.09,4.24 -5.01,0 -8.71,-3 -9.63,-9.09l25.9 0c0.08,-1.62 0.08,-2.93 0.08,-3.62 0,-12.72 -6.16,-22.73 -18.19,-22.73 -10.72,0 -18.65,9.33 -18.65,22.04l0 0.69c0,13.34 8.71,21.89 20.04,21.89zm-9.25 -25.59c0.62,-6.24 3.55,-10.02 7.86,-10.02 4.55,0 7.09,3.85 7.63,10.02l-15.5 0z"/>
  <path class="fil6" d="M1187.81 588.91l10.86 0 0 -18.19c0,-9.17 4.32,-13.56 11.41,-13.56l0.46 0 0 -11.79c-6.16,-0.38 -9.71,3.16 -11.87,8.4l0 -7.71 -10.86 0 0 42.85z"/>
  <path class="fil6" d="M597.14 664.01c11.49,0 20.04,-9.17 20.04,-21.89l0 -0.85c0,-12.79 -8.48,-21.89 -19.96,-21.89 -11.48,0 -20.19,9.33 -20.19,21.96l0 0.85c0,12.72 8.55,21.81 20.11,21.81zm0.08 -9.48c-5.54,0 -9.4,-5.47 -9.4,-12.56l0 -0.54c0,-7.17 3.47,-12.56 9.32,-12.56 5.55,0 9.25,5.47 9.25,12.64l0 0.54c0,7.17 -3.39,12.49 -9.17,12.49z"/>
  <path class="fil6" d="M627.89 663.09l10.95 0 0 -33.6 8.48 0 0 -8.94 -8.55 0 0 -1.85c0,-3.16 1.47,-4.7 4.32,-4.7 1.62,0 2.77,0.23 4.24,0.77l0 -9.09c-1.85,-0.54 -3.93,-0.93 -6.94,-0.93 -4.09,0 -7.17,1.08 -9.25,3.16 -2.16,2.08 -3.24,5.32 -3.24,9.63l0 3.01 -4.39 0 0 8.94 4.39 0 0 33.6z"/>
  <path class="fil6" d="M673.52 615.3l11.4 0 0 -10.02 -11.4 0 0 10.02zm0.23 47.78l10.94 0 0 -42.85 -10.94 0 0 42.85z"/>
  <path class="fil6" d="M695.79 663.09l10.87 0 0 -25.82c0,-5.24 2.7,-8.02 6.63,-8.02 4,0 6.39,2.7 6.39,7.94l0 25.9 10.95 0 0 -29.13c0,-8.94 -4.7,-14.57 -12.8,-14.57 -5.47,0 -8.63,3.16 -11.18,6.7l0 -5.86 -10.87 0 0 42.85z"/>
  <path class="fil6" d="M742.57 663.09l10.95 0 0 -33.6 8.48 0 0 -8.94 -8.55 0 0 -1.85c0,-3.16 1.46,-4.7 4.32,-4.7 1.62,0 2.77,0.23 4.24,0.77l0 -9.09c-1.85,-0.54 -3.93,-0.93 -6.94,-0.93 -4.09,0 -7.17,1.08 -9.25,3.16 -2.16,2.08 -3.24,5.32 -3.24,9.63l0 3.01 -4.39 0 0 8.94 4.39 0 0 33.6z"/>
  <path class="fil6" d="M786.35 664.01c11.49,0 20.04,-9.17 20.04,-21.89l0 -0.85c0,-12.79 -8.48,-21.89 -19.96,-21.89 -11.48,0 -20.19,9.33 -20.19,21.96l0 0.85c0,12.72 8.55,21.81 20.11,21.81zm0.08 -9.48c-5.54,0 -9.4,-5.47 -9.4,-12.56l0 -0.54c0,-7.17 3.47,-12.56 9.33,-12.56 5.55,0 9.25,5.47 9.25,12.64l0 0.54c0,7.17 -3.39,12.49 -9.17,12.49z"/>
  <path class="fil6" d="M815.33 663.09l10.86 0 0 -18.19c0,-9.17 4.32,-13.56 11.41,-13.56l0.46 0 0 -11.79c-6.17,-0.38 -9.71,3.16 -11.87,8.4l0 -7.71 -10.86 0 0 42.85z"/>
  <path class="fil6" d="M845.85 663.09l10.86 0 0 -25.82c0,-5.24 2.55,-8.02 6.48,-8.02 3.93,0 6.09,2.7 6.09,7.94l0 25.9 10.95 0 0 -25.82c0,-5.24 2.46,-8.02 6.39,-8.02 3.93,0 6.16,2.7 6.16,7.94l0 25.9 10.87 0 0 -29.13c0,-9.56 -5.08,-14.57 -12.8,-14.57 -5.32,0 -9.17,2.62 -12.25,6.39 -2.08,-3.93 -5.62,-6.39 -10.63,-6.39 -5.47,0 -8.71,3 -11.26,6.7l0 -5.86 -10.86 0 0 42.85z"/>
  <path class="fil6" d="M924.54 663.86c5.24,0 8.71,-2.16 11.25,-5.55l0 4.78 10.72 0 0 -26.13c0,-5.55 -1.39,-9.86 -4.39,-12.87 -2.85,-2.85 -7.17,-4.32 -12.95,-4.32 -6.17,0 -10.4,1.31 -14.49,3.39l3 8.55c2.7,-1.15 5.86,-2.39 9.95,-2.39 5.24,0 8.24,2.54 8.24,7.71l0 1.39c-2.7,-1 -5.4,-1.77 -9.1,-1.77 -8.86,0 -15.02,4.24 -15.02,13.72l0 0.46c0,8.32 5.7,13.02 12.79,13.02zm3.55 -8.02c-3.39,-0.08 -5.79,-1.93 -5.79,-5.63l0 -0.15c0,-4.01 2.7,-6.24 7.1,-6.24 2.46,0 4.85,0.54 6.62,1.39l0 3.78c0,4.08 -3.31,6.93 -7.93,6.86z"/>
  <path class="fil6" d="M969.32 663.78c3.39,0 6.09,-0.93 8.25,-2.16l0 -8.71c-1.46,0.69 -3.08,1.15 -4.85,1.15 -2.55,0 -3.78,-1.31 -3.78,-3.85l0 -20.73 8.71 0 0 -9.25 -8.71 0 0 -11.1 -10.87 0 0 11.1 -4.39 0 0 9.25 4.39 0 0 22.97c0,8.79 4.78,11.33 11.25,11.33z"/>
  <path class="fil6" d="M986.66 615.3l11.41 0 0 -10.02 -11.41 0 0 10.02zm0.23 47.78l10.95 0 0 -42.85 -10.95 0 0 42.85z"/>
  <path class="fil6" d="M1027.27 664.01c11.49,0 20.04,-9.17 20.04,-21.89l0 -0.85c0,-12.79 -8.48,-21.89 -19.96,-21.89 -11.48,0 -20.19,9.33 -20.19,21.96l0 0.85c0,12.72 8.55,21.81 20.11,21.81zm0.08 -9.48c-5.54,0 -9.4,-5.47 -9.4,-12.56l0 -0.54c0,-7.17 3.47,-12.56 9.33,-12.56 5.55,0 9.25,5.47 9.25,12.64l0 0.54c0,7.17 -3.39,12.49 -9.17,12.49z"/>
  <path class="fil6" d="M1056.25 663.09l10.86 0 0 -25.82c0,-5.24 2.7,-8.02 6.63,-8.02 4.01,0 6.39,2.7 6.39,7.94l0 25.9 10.95 0 0 -29.13c0,-8.94 -4.7,-14.57 -12.8,-14.57 -5.47,0 -8.63,3.16 -11.18,6.7l0 -5.86 -10.86 0 0 42.85z"/>
  <path class="fil6" d="M1131.09 663.86c5.24,0 8.71,-2.16 11.25,-5.55l0 4.78 10.72 0 0 -26.13c0,-5.55 -1.39,-9.86 -4.39,-12.87 -2.85,-2.85 -7.17,-4.32 -12.95,-4.32 -6.17,0 -10.4,1.31 -14.49,3.39l3 8.55c2.7,-1.15 5.86,-2.39 9.95,-2.39 5.24,0 8.25,2.54 8.25,7.71l0 1.39c-2.7,-1 -5.4,-1.77 -9.1,-1.77 -8.86,0 -15.03,4.24 -15.03,13.72l0 0.46c0,8.32 5.7,13.02 12.8,13.02zm3.55 -8.02c-3.39,-0.08 -5.79,-1.93 -5.79,-5.63l0 -0.15c0,-4.01 2.7,-6.24 7.09,-6.24 2.47,0 4.85,0.54 6.63,1.39l0 3.78c0,4.08 -3.31,6.93 -7.93,6.86z"/>
  <path class="fil6" d="M1163.22 663.09l10.87 0 0 -25.82c0,-5.24 2.7,-8.02 6.63,-8.02 4.01,0 6.4,2.7 6.4,7.94l0 25.9 10.94 0 0 -29.13c0,-8.94 -4.7,-14.57 -12.8,-14.57 -5.47,0 -8.63,3.16 -11.17,6.7l0 -5.86 -10.87 0 0 42.85z"/>
  <path class="fil6" d="M1223.11 663.86c5.78,0 9.25,-3.16 11.79,-6.86l0 6.09 10.86 0 0 -57.88 -10.86 0 0 20.73c-2.54,-3.39 -6.01,-6.55 -11.79,-6.55 -8.63,0 -16.42,7.01 -16.42,21.66l0 1.23c0,14.64 8.02,21.58 16.42,21.58zm3.16 -9.56c-4.93,0 -8.63,-4.62 -8.63,-12.25l0 -0.77c0,-7.63 3.7,-12.33 8.63,-12.33 4.93,0 8.79,4.7 8.79,12.33l0 0.77c0,7.48 -3.85,12.25 -8.79,12.25z"/>
  <path class="fil6" d="M578.8 749.37l10.86 0 0 -17.8c2.47,3.24 5.94,6.47 11.79,6.47 8.63,0 16.42,-7.01 16.42,-21.58l0 -1.23c0,-14.64 -7.79,-21.66 -16.42,-21.66 -5.78,0 -9.25,3.24 -11.79,6.93l0 -6.09 -10.86 0 0 54.95zm19.5 -20.89c-4.86,0 -8.79,-4.78 -8.79,-12.25l0 -0.77c0,-7.63 3.93,-12.33 8.79,-12.33 4.94,0 8.63,4.7 8.63,12.33l0 0.77c0,7.63 -3.7,12.25 -8.63,12.25z"/>
  <path class="fil6" d="M645.08 738.19c6.48,0 11.25,-2.47 15.18,-6.78l-5.63 -6.63c-2.69,2.7 -5.47,4.24 -9.09,4.24 -5.01,0 -8.71,-3 -9.63,-9.09l25.9 0c0.08,-1.62 0.08,-2.93 0.08,-3.62 0,-12.72 -6.16,-22.73 -18.19,-22.73 -10.72,0 -18.65,9.33 -18.65,22.04l0 0.69c0,13.34 8.71,21.89 20.04,21.89zm-9.25 -25.59c0.61,-6.24 3.55,-10.02 7.86,-10.02 4.55,0 7.09,3.85 7.63,10.02l-15.49 0z"/>
  <path class="fil6" d="M685.55 738.04c5.78,0 9.25,-3.16 11.79,-6.86l0 6.09 10.86 0 0 -57.88 -10.86 0 0 20.73c-2.55,-3.39 -6.01,-6.55 -11.79,-6.55 -8.63,0 -16.42,7.01 -16.42,21.66l0 1.23c0,14.64 8.02,21.58 16.42,21.58zm3.16 -9.56c-4.93,0 -8.63,-4.62 -8.63,-12.25l0 -0.77c0,-7.63 3.7,-12.33 8.63,-12.33 4.93,0 8.79,4.7 8.79,12.33l0 0.77c0,7.48 -3.85,12.25 -8.79,12.25z"/>
  <path class="fil6" d="M729.32 738.04c5.24,0 8.71,-2.16 11.25,-5.55l0 4.78 10.71 0 0 -26.13c0,-5.55 -1.39,-9.86 -4.39,-12.87 -2.85,-2.85 -7.17,-4.32 -12.95,-4.32 -6.16,0 -10.4,1.31 -14.49,3.39l3.01 8.55c2.7,-1.15 5.86,-2.39 9.94,-2.39 5.24,0 8.25,2.54 8.25,7.71l0 1.39c-2.7,-1 -5.4,-1.77 -9.1,-1.77 -8.86,0 -15.03,4.24 -15.03,13.72l0 0.46c0,8.32 5.71,13.02 12.79,13.02zm3.55 -8.02c-3.39,-0.08 -5.78,-1.93 -5.78,-5.63l0 -0.15c0,-4.01 2.7,-6.24 7.09,-6.24 2.47,0 4.85,0.54 6.63,1.39l0 3.78c0,4.08 -3.32,6.93 -7.94,6.86z"/>
  <path class="fil6" d="M777.95 749.52c7.32,0 12.64,-1.69 16.11,-5.08 3.24,-3.24 4.85,-8.17 4.85,-14.8l0 -35.22 -10.86 0 0 5.7c-2.85,-3.47 -6.09,-6.55 -12.1,-6.55 -8.32,0 -16.11,6.55 -16.11,20.11l0 0.23c0,13.49 7.64,20.19 16.11,20.19 5.86,0 9.17,-3.01 12.18,-6.94l0 3.01c0,6.93 -3.62,10.4 -10.79,10.4 -4.62,0 -8.79,-1.16 -12.26,-3.24l-3.46 8.48c5.01,2.39 10.25,3.7 16.34,3.7zm1.47 -24.81c-4.93,0 -8.63,-4.09 -8.63,-10.87l0 -0.08c0,-6.55 3.7,-10.79 8.63,-10.79 4.93,0 8.79,4.24 8.79,10.79l0 0.08c0,6.55 -3.85,10.87 -8.79,10.87z"/>
  <path class="fil6" d="M827.89 738.19c11.48,0 20.03,-9.17 20.03,-21.89l0 -0.85c0,-12.79 -8.48,-21.89 -19.96,-21.89 -11.49,0 -20.19,9.33 -20.19,21.96l0 0.85c0,12.72 8.55,21.81 20.12,21.81zm0.08 -9.48c-5.55,0 -9.4,-5.47 -9.4,-12.56l0 -0.54c0,-7.17 3.47,-12.56 9.33,-12.56 5.55,0 9.25,5.47 9.25,12.64l0 0.54c0,7.17 -3.39,12.49 -9.17,12.49z"/>
  <path class="fil6" d="M873.36 749.52c7.32,0 12.64,-1.69 16.11,-5.08 3.24,-3.24 4.86,-8.17 4.86,-14.8l0 -35.22 -10.87 0 0 5.7c-2.85,-3.47 -6.09,-6.55 -12.1,-6.55 -8.32,0 -16.1,6.55 -16.1,20.11l0 0.23c0,13.49 7.63,20.19 16.1,20.19 5.86,0 9.18,-3.01 12.18,-6.94l0 3.01c0,6.93 -3.62,10.4 -10.78,10.4 -4.62,0 -8.79,-1.16 -12.26,-3.24l-3.47 8.48c5.01,2.39 10.26,3.7 16.34,3.7zm1.47 -24.81c-4.93,0 -8.63,-4.09 -8.63,-10.87l0 -0.08c0,-6.55 3.7,-10.79 8.63,-10.79 4.94,0 8.79,4.24 8.79,10.79l0 0.08c0,6.55 -3.85,10.87 -8.79,10.87z"/>
  <path class="fil6" d="M905.11 689.49l11.41 0 0 -10.02 -11.41 0 0 10.02zm0.23 47.78l10.95 0 0 -42.85 -10.95 0 0 42.85z"/>
  <path class="fil6" d="M945.04 738.19c6.78,0 11.02,-2.62 14.49,-6.55l-5.78 -7.17c-2.39,2.39 -4.55,3.93 -7.94,4.01 -5.86,0 -9.32,-5.08 -9.32,-12.49l0 -0.31c0,-7.17 3.7,-12.33 9.09,-12.33 3.47,0 5.71,1.77 7.86,3.93l5.94 -7.94c-3.62,-3.62 -7.78,-5.78 -13.95,-5.78 -11.56,0 -19.8,9.33 -19.8,21.96l0 0.93c0,12.64 8.02,21.73 19.42,21.73z"/>
  <path class="fil6" d="M977.79 738.04c5.24,0 8.71,-2.16 11.25,-5.55l0 4.78 10.72 0 0 -26.13c0,-5.55 -1.39,-9.86 -4.39,-12.87 -2.85,-2.85 -7.17,-4.32 -12.95,-4.32 -6.17,0 -10.4,1.31 -14.49,3.39l3 8.55c2.7,-1.15 5.86,-2.39 9.95,-2.39 5.24,0 8.24,2.54 8.24,7.71l0 1.39c-2.7,-1 -5.4,-1.77 -9.1,-1.77 -8.86,0 -15.02,4.24 -15.02,13.72l0 0.46c0,8.32 5.7,13.02 12.79,13.02zm3.55 -8.02c-3.39,-0.08 -5.79,-1.93 -5.79,-5.63l0 -0.15c0,-4.01 2.7,-6.24 7.1,-6.24 2.46,0 4.85,0.54 6.62,1.39l0 3.78c0,4.08 -3.31,6.93 -7.93,6.86z"/>
  <polygon class="fil6" points="1010.31,737.27 1021.26,737.27 1021.26,679.39 1010.31,679.39 "/>
  <path class="fil6" d="M1064.65 737.96c3.39,0 6.09,-0.93 8.24,-2.16l0 -8.71c-1.46,0.69 -3.08,1.15 -4.85,1.15 -2.54,0 -3.78,-1.31 -3.78,-3.85l0 -20.73 8.71 0 0 -9.25 -8.71 0 0 -11.1 -10.86 0 0 11.1 -4.39 0 0 9.25 4.39 0 0 22.97c0,8.79 4.78,11.33 11.25,11.33z"/>
  <path class="fil6" d="M1098.94 738.19c6.48,0 11.25,-2.47 15.18,-6.78l-5.63 -6.63c-2.69,2.7 -5.47,4.24 -9.09,4.24 -5.01,0 -8.71,-3 -9.63,-9.09l25.9 0c0.08,-1.62 0.08,-2.93 0.08,-3.62 0,-12.72 -6.16,-22.73 -18.19,-22.73 -10.71,0 -18.65,9.33 -18.65,22.04l0 0.69c0,13.34 8.71,21.89 20.04,21.89zm-9.25 -25.59c0.62,-6.24 3.55,-10.02 7.86,-10.02 4.55,0 7.09,3.85 7.63,10.02l-15.5 0z"/>
  <path class="fil6" d="M1142.26 738.19c6.78,0 11.02,-2.62 14.49,-6.55l-5.78 -7.17c-2.39,2.39 -4.55,3.93 -7.94,4.01 -5.86,0 -9.32,-5.08 -9.32,-12.49l0 -0.31c0,-7.17 3.7,-12.33 9.09,-12.33 3.47,0 5.71,1.77 7.86,3.93l5.93 -7.94c-3.62,-3.62 -7.78,-5.78 -13.95,-5.78 -11.56,0 -19.8,9.33 -19.8,21.96l0 0.93c0,12.64 8.02,21.73 19.42,21.73z"/>
  <path class="fil6" d="M1164.6 737.27l10.87 0 0 -25.82c0,-5.24 2.7,-8.02 6.63,-8.02 4.01,0 6.4,2.7 6.4,7.94l0 25.9 10.94 0 0 -29.13c0,-8.94 -4.7,-14.57 -12.8,-14.57 -5.47,0 -8.63,3.16 -11.17,6.7l0 -20.88 -10.87 0 0 57.88z"/>
  <path class="fil6" d="M1209.69 737.27l10.86 0 0 -25.82c0,-5.24 2.7,-8.02 6.63,-8.02 4,0 6.39,2.7 6.39,7.94l0 25.9 10.95 0 0 -29.13c0,-8.94 -4.7,-14.57 -12.8,-14.57 -5.47,0 -8.63,3.16 -11.18,6.7l0 -5.86 -10.86 0 0 42.85z"/>
  <path class="fil6" d="M1273.12 738.19c11.49,0 20.04,-9.17 20.04,-21.89l0 -0.85c0,-12.79 -8.48,-21.89 -19.96,-21.89 -11.48,0 -20.19,9.33 -20.19,21.96l0 0.85c0,12.72 8.55,21.81 20.11,21.81zm0.08 -9.48c-5.54,0 -9.4,-5.47 -9.4,-12.56l0 -0.54c0,-7.17 3.47,-12.56 9.32,-12.56 5.55,0 9.25,5.47 9.25,12.64l0 0.54c0,7.17 -3.39,12.49 -9.17,12.49z"/>
  <polygon class="fil6" points="1302.49,737.27 1313.43,737.27 1313.43,679.39 1302.49,679.39 "/>
  <path class="fil6" d="M1342.87 738.19c11.48,0 20.03,-9.17 20.03,-21.89l0 -0.85c0,-12.79 -8.47,-21.89 -19.96,-21.89 -11.49,0 -20.19,9.33 -20.19,21.96l0 0.85c0,12.72 8.55,21.81 20.12,21.81zm0.08 -9.48c-5.55,0 -9.4,-5.47 -9.4,-12.56l0 -0.54c0,-7.17 3.47,-12.56 9.33,-12.56 5.55,0 9.25,5.47 9.25,12.64l0 0.54c0,7.17 -3.39,12.49 -9.17,12.49z"/>
  <path class="fil6" d="M1388.34 749.52c7.32,0 12.64,-1.69 16.11,-5.08 3.24,-3.24 4.85,-8.17 4.85,-14.8l0 -35.22 -10.86 0 0 5.7c-2.85,-3.47 -6.09,-6.55 -12.1,-6.55 -8.32,0 -16.11,6.55 -16.11,20.11l0 0.23c0,13.49 7.64,20.19 16.11,20.19 5.86,0 9.17,-3.01 12.18,-6.94l0 3.01c0,6.93 -3.62,10.4 -10.79,10.4 -4.62,0 -8.79,-1.16 -12.26,-3.24l-3.46 8.48c5.01,2.39 10.25,3.7 16.34,3.7zm1.47 -24.81c-4.93,0 -8.63,-4.09 -8.63,-10.87l0 -0.08c0,-6.55 3.7,-10.79 8.63,-10.79 4.93,0 8.79,4.24 8.79,10.79l0 0.08c0,6.55 -3.85,10.87 -8.79,10.87z"/>
  <path class="fil6" d="M1420.09 689.49l11.41 0 0 -10.02 -11.41 0 0 10.02zm0.23 47.78l10.94 0 0 -42.85 -10.94 0 0 42.85z"/>
  <path class="fil6" d="M1460.55 738.19c6.47,0 11.25,-2.47 15.18,-6.78l-5.62 -6.63c-2.7,2.7 -5.47,4.24 -9.09,4.24 -5.01,0 -8.71,-3 -9.63,-9.09l25.89 0c0.08,-1.62 0.08,-2.93 0.08,-3.62 0,-12.72 -6.16,-22.73 -18.19,-22.73 -10.71,0 -18.65,9.33 -18.65,22.04l0 0.69c0,13.34 8.71,21.89 20.04,21.89zm-9.25 -25.59c0.62,-6.24 3.54,-10.02 7.86,-10.02 4.55,0 7.09,3.85 7.63,10.02l-15.49 0z"/>
  <path class="fil6" d="M1499.01 738.04c8.55,0 15.03,-4.47 15.03,-13.26l0 -0.16c0,-6.78 -5.01,-9.79 -11.41,-12.87 -4.62,-2.08 -7.86,-3.39 -7.86,-5.78l0 -0.15c0,-1.77 1.54,-3.24 4.39,-3.24 3.08,0 6.55,1.54 9.87,3.7l4.39 -7.86c-4.31,-3 -9.4,-4.7 -14.1,-4.7 -8.25,0 -14.57,4.93 -14.57,13.02l0 0.16c0,7.24 5.16,10.25 11.33,12.95 4.7,2.08 7.94,3.16 7.94,5.7l0 0.15c0,1.93 -1.47,3.55 -4.78,3.55 -3.62,0 -7.63,-1.85 -11.56,-4.86l-4.77 7.71c5.16,4.32 11.09,5.93 16.1,5.93z"/>
 </g>
</svg>
