<?xml version="1.0" encoding="UTF-8"?>
<!DOCTYPE svg PUBLIC "-//W3C//DTD SVG 1.1//EN" "http://www.w3.org/Graphics/SVG/1.1/DTD/svg11.dtd">
<!-- Creator: CorelDRAW 2018 (64-Bit) -->
<svg xmlns="http://www.w3.org/2000/svg" xml:space="preserve" width="51.2415mm" height="23.5537mm" version="1.1" style="shape-rendering:geometricPrecision; text-rendering:geometricPrecision; image-rendering:optimizeQuality; fill-rule:evenodd; clip-rule:evenodd"
viewBox="0 0 1651.17 758.98"
 xmlns:xlink="http://www.w3.org/1999/xlink">
 <defs>
  <style type="text/css">
   <![CDATA[
    .fil2 {fill:#FEFEFE}
    .fil5 {fill:#727271}
    .fil1 {fill:#F7AA47}
    .fil3 {fill:#FCEB08}
    .fil0 {fill:#2AB5B2}
    .fil4 {fill:#727271;fill-rule:nonzero}
    .fil6 {fill:#2AB5B2;fill-rule:nonzero}
   ]]>
  </style>
 </defs>
 <g id="Слой_x0020_1">
  <metadata id="CorelCorpID_0Corel-Layer"/>
  <polygon class="fil0" points="18.16,363.79 500.77,363.79 500.77,732.34 18.16,732.34 "/>
  <path class="fil0" d="M52.29 316.43c-7.77,5.07 -15.33,10.42 -22.69,16.07 0,0 0,-100.98 0,-302.93 289.36,0 434.04,0 434.04,0 -8.34,2.55 -16.77,6.96 -25.29,13.23 -20.54,13.84 -39.31,27.55 -56.28,41.13 -19.08,15.48 -38.12,31.42 -57.13,47.82 -3.78,3.41 -7.84,7 -12.2,10.78 -28.33,18.85 -58.38,38.84 -90.13,59.96 -38.53,25.63 -76.82,51.11 -114.89,76.43 -21.57,14.81 -40.05,27.31 -55.41,37.5z"/>
  <path class="fil1" d="M436.88 574.3c15.38,-46.3 40.81,-161.35 50.39,-199.7 0,150.23 0,0 0,150.23 0,49.66 0,21.49 0,71.16 0,0 -2.53,-1.09 -50.39,-21.69z"/>
  <path class="fil2" d="M352.5 719.63c-220.53,0 -322.91,0 -322.91,0 0,0 0,-22.44 0,-75.3 -1.47,-28.07 8.17,-52.19 43.29,-64.43 -5.19,-13 -4.16,-25.51 3.1,-37.56 6.75,-10.07 16.12,-16.05 28.11,-17.95 14.72,-1.81 33.57,4.9 43.31,16.85 0,0 16.87,-15.2 47.31,-52.21 45.16,14.66 69.82,28.82 97.1,52.39 -10.59,42.23 -15.89,63.34 -15.89,63.34 21.22,10.3 38.86,25.56 43.03,39.19 3.7,11.51 0.74,27.38 -5.57,37.68 27.09,4.36 34.25,13.35 39.11,38z"/>
  <path class="fil3" d="M90.67 430.78c0,0 12.7,-19.08 19.4,-27.33 51.66,-65.08 169.52,-213.15 224.62,-255.8 152.58,-118.08 152.58,-118.08 152.58,-118.08 0,196.1 0,29.61 0,196.1 0,12.62 -0.81,24.09 -2.16,34.81 -8.37,66.49 -38.98,177.25 -58.05,242.2 -2.64,9.05 -25.73,90.51 -25.73,90.51 -65.57,-68.38 -182.06,-149.63 -310.66,-162.41z"/>
  <path class="fil1" d="M83.69 386.25c135.48,-150.08 0,0 139.34,-154.45 -193.43,117.99 -193.43,117.99 -193.43,117.99 54.09,36.47 0.46,0.31 54.09,36.47z"/>
  <path class="fil2" d="M341.88 266.16c32.18,0 58.27,26.09 58.27,58.27 0,32.18 -26.09,58.27 -58.27,58.27 -32.19,0 -58.27,-26.09 -58.27,-58.27 0,-32.18 26.08,-58.27 58.27,-58.27z"/>
  <path class="fil4" d="M738.56 127.91c21.38,-11.91 32.07,-30.24 32.07,-55.02 0,-10.93 -1.88,-20.77 -5.65,-29.52 -3.77,-8.75 -9.11,-16.21 -16.03,-22.41 -6.92,-6.19 -15.37,-10.99 -25.33,-14.39 -9.96,-3.4 -21.01,-5.1 -33.16,-5.1l-104.22 0 0 226.91 46.28 0 0 32.54 -46.28 0 0 -32.54 46.28 0 0 32.54 62.31 0c12.14,0 23.13,-1.76 32.97,-5.28 9.84,-3.52 18.22,-8.5 25.14,-14.94 6.93,-6.44 12.21,-14.21 15.85,-23.32 3.64,-9.11 5.46,-19.37 5.46,-30.79 0,-9.23 -1.27,-17.49 -3.82,-24.78 -2.55,-7.29 -6.62,-13.97 -12.21,-20.04 -2.68,-2.67 -5.35,-4.98 -8.02,-6.92 -2.67,-1.94 -6.56,-4.25 -11.66,-6.92zm-52.11 -21.5l-49.56 0 0 -59.76 49.56 0c10.45,0 18.64,2.67 24.6,8.02 5.95,5.34 8.93,12.63 8.93,21.86 0,9.23 -2.98,16.52 -8.93,21.86 -5.95,5.34 -14.15,8.02 -24.6,8.02zm3.28 109.32l-52.84 0 0 -63.77 52.84 0c10.45,0 18.71,2.79 24.78,8.38 6.07,5.59 9.11,13.36 9.11,23.32 0,9.96 -3.04,17.79 -9.11,23.5 -6.07,5.71 -14.33,8.56 -24.78,8.56z"/>
  <path class="fil4" d="M958.38 260.91l26.97 0 0 -40.09 -18.22 0c-6.07,0 -10.39,-1.46 -12.93,-4.37 -2.55,-2.91 -3.82,-7.17 -3.82,-12.75l0 -202.24 -47.37 0 0 205.16c0,6.8 1.03,13.42 3.1,19.86 2.07,6.44 5.34,12.21 9.83,17.31 4.5,5.1 10.26,9.24 17.31,12.39 7.04,3.16 15.42,4.74 25.14,4.74z"/>
  <path class="fil4" d="M1015.46 502.44l46.28 0 0 -124.99c0,-44.7 -41.18,-67.05 -95.11,-67.05 -15.79,0 -28.79,1.94 -38.99,5.83 -10.2,3.89 -19.92,10.93 -29.15,21.14l29.88 29.52c5.1,-5.83 10.32,-10.02 15.67,-12.57 5.35,-2.55 12.26,-3.82 20.77,-3.82 12.63,0 35.9,2.38 41.36,7.11 5.46,4.73 8.2,12.34 8.2,22.78l0 9.47 -58.3 0c-11.16,0 -20.9,1.47 -29.15,4.38 -8.26,2.91 -15.06,6.86 -20.4,11.84 -5.35,4.98 -9.35,10.81 -12.03,17.49 -2.68,6.68 -4.01,13.79 -4.01,21.32 0,8.5 1.33,16.4 4.01,23.69 2.67,7.29 6.55,13.6 11.66,18.95 11.17,11.18 27.33,16.76 48.47,16.76 10.93,0 34.08,-1.47 40.99,-4.37 6.91,-2.91 13.54,-7.53 19.86,-13.85l0 16.4zm-1.09 -80.17l0 10.2c0,6.06 -0.56,11 -1.64,14.76 -1.08,3.76 -3.01,6.84 -5.65,9.29 -4.15,3.85 -8.39,6.38 -12.76,7.47 -4.36,1.09 -23.68,1.64 -29.52,1.64 -9.96,0 -17.25,-1.94 -21.86,-5.83 -4.61,-3.89 -6.92,-9.11 -6.92,-15.67 0,-14.58 9.35,-21.86 28.06,-21.86l50.29 0z"/>
  <path class="fil4" d="M1214.1 502.44l58.67 0 -72.88 -113.33 67.78 -76.52 -57.21 0 -63.04 77.62 0 -147.22 -47.37 0 0 259.45 47.37 0 0 -56.48 20.05 -22.59 46.64 79.08zm106.77 -241.52l47.37 0 0 -121.35c0,-10.44 -1.52,-20.1 -4.56,-28.97 -3.04,-8.87 -8.44,-17.18 -16.21,-24.96 -5.34,-5.35 -12.08,-9.48 -20.23,-12.39 -8.13,-2.92 -16.94,-4.38 -26.41,-4.38 -11.9,0 -22.35,1.89 -31.34,5.65 -8.99,3.76 -17.49,9.9 -25.5,18.4 -6.07,-8.26 -13.3,-14.33 -21.68,-18.22 -8.38,-3.89 -17.92,-5.83 -28.61,-5.83 -8.75,0 -17.25,1.7 -25.51,5.1 -8.26,3.4 -15.55,8.26 -21.86,14.57l0 -20.51 -46.28 0 0 174.94 47.37 0 0 -96.86c0,-6.56 0.97,-12.03 2.92,-16.4 1.94,-4.38 4.43,-7.9 7.47,-10.57 3.04,-2.67 6.44,-4.61 10.21,-5.83 3.77,-1.22 7.47,-1.82 11.11,-1.82 3.64,0 7.35,0.61 11.11,1.82 3.77,1.21 7.17,3.16 10.21,5.83 3.04,2.67 5.47,6.19 7.29,10.57 1.82,4.37 2.73,9.83 2.73,16.4l0 114.79 47.37 0 0 -115.88c0,-6.07 0.97,-11.3 2.92,-15.67 1.94,-4.37 4.43,-7.83 7.47,-10.39 3.04,-2.55 6.44,-4.43 10.21,-5.65 3.77,-1.22 7.47,-1.82 11.12,-1.82 3.64,0 7.35,0.61 11.11,1.82 3.76,1.21 7.17,3.16 10.21,5.83 3.04,2.67 5.46,6.19 7.29,10.57 1.82,4.37 2.73,9.83 2.73,16.4l0 114.79z"/>
  <path class="fil4" d="M1436.52 407.33c0,-17.25 -1.46,-31.52 -4.38,-42.82 -2.91,-11.3 -8.62,-21.56 -17.13,-30.79 -6.07,-6.32 -13.9,-11.78 -23.5,-16.4 -9.59,-4.62 -21.44,-6.92 -35.53,-6.92 -14.09,0 -25.87,2.31 -35.35,6.92 -9.47,4.61 -17.25,10.08 -23.32,16.4 -8.51,9.23 -14.22,19.5 -17.13,30.79 -2.92,11.29 -4.38,25.57 -4.38,42.82 0,17.25 1.46,31.58 4.38,43 2.91,11.42 8.62,21.74 17.13,30.98 6.07,6.32 13.84,11.78 23.32,16.4 9.47,4.62 21.26,6.92 35.35,6.92 14.09,0 25.94,-2.31 35.53,-6.92 9.6,-4.61 17.43,-10.08 23.5,-16.4 8.75,-8.99 14.52,-19.25 17.31,-30.79 2.79,-11.54 4.19,-25.93 4.19,-43.18zm-47.37 0c0,9.96 -0.61,18.95 -1.83,26.97 -1.21,8.01 -4.25,14.45 -9.1,19.31 -5.59,5.59 -13,8.38 -22.23,8.38 -8.98,0 -16.27,-2.79 -21.86,-8.38 -4.86,-4.86 -7.89,-11.3 -9.11,-19.31 -1.22,-8.02 -1.82,-17 -1.82,-26.97 0,-9.72 0.61,-18.58 1.82,-26.6 1.21,-8.01 4.25,-14.45 9.11,-19.31 5.59,-5.59 12.88,-8.38 21.86,-8.38 9.24,0 16.64,2.79 22.23,8.38 4.85,4.86 7.89,11.3 9.1,19.31 1.21,8.02 1.83,16.89 1.83,26.6z"/>
  <path class="fil4" d="M1578.02 502.44l47.37 0 0 -121.35c0,-10.45 -1.28,-20.1 -3.83,-28.97 -2.55,-8.87 -7.71,-17.19 -15.49,-24.96 -5.35,-5.35 -11.78,-9.47 -19.31,-12.39 -7.53,-2.92 -16.03,-4.37 -25.51,-4.37 -8.74,0 -17.25,1.64 -25.5,4.92 -8.26,3.28 -15.55,8.2 -21.86,14.76l0 -17.49 -46.28 0 0 189.85 47.37 0 0 -114.79c0,-6.56 0.97,-12.03 2.91,-16.4 1.94,-4.37 4.44,-7.89 7.47,-10.57 3.03,-2.67 6.44,-4.62 10.2,-5.83 3.77,-1.21 7.47,-1.82 11.12,-1.82 3.64,0 7.35,0.61 11.11,1.82 3.76,1.21 7.17,3.16 10.2,5.83 3.04,2.67 5.47,6.19 7.29,10.57 1.83,4.37 2.74,9.84 2.74,16.4l0 114.79z"/>
  <path class="fil4" d="M813.49 260.91l47.37 0 0 -182.95c-7.09,3.87 -15.23,6.06 -23.87,6.06 -8.5,0 -16.5,-2.13 -23.5,-5.87l0 182.75z"/>
  <path class="fil4" d="M1014.36 260.91l47.37 0 0 -182.95c-7.09,3.87 -15.22,6.06 -23.86,6.06 -8.5,0 -16.5,-2.13 -23.5,-5.87l0 182.75z"/>
  <path class="fil3" d="M487.27 225.67c-38.2,-38.45 -88.36,-62.59 -152.57,-78.02 101.71,-78.72 152.57,-118.09 152.57,-118.09 0,130.74 0,196.1 0,196.1z"/>
  <path class="fil0" d="M836.99 1.46c18.01,0 32.62,14.61 32.62,32.62 0,18.02 -14.61,32.62 -32.62,32.62 -18.02,0 -32.62,-14.6 -32.62,-32.62 0,-18.02 14.6,-32.62 32.62,-32.62z"/>
  <path class="fil0" d="M1037.87 1.46c18.01,0 32.62,14.61 32.62,32.62 0,18.02 -14.61,32.62 -32.62,32.62 -18.02,0 -32.62,-14.6 -32.62,-32.62 0,-18.02 14.6,-32.62 32.62,-32.62z"/>
  <path class="fil5" d="M487.27 719.62l0 -90.74 0 0c13.77,5.85 11.36,3.12 12.5,1.96 9.56,-12.81 15.25,-27.62 17.07,-44.45l0 133.23 -29.56 0zm0 -123.64l0 -221.38 0 -0.01c0,150.23 0,0 0,150.23 0,49.66 0,21.5 0,71.16l-0 0zm0 -370.31l0 -196.1 0 0c0,196.1 0,29.62 0,196.1l0 0 -0 -0zm29.56 -204.28l0 0 -0.13 0.22 -0.38 0.66 -0.45 0.78 -0.55 0.96 -0.79 1.37 -0.2 0.35 -2.19 3.82 4.68 0 0 46.93c-0.54,-10.04 -4.45,-21.6 -11.71,-34.67l11.71 -20.43zm0 162.21l0 352.3c-3.15,-50.12 -12.94,-98.19 -29.37,-144.23 14.07,-62.05 23.85,-131.41 29.37,-208.07zm0 -162.21l0 8.17 -4.68 0 2.19 -3.82 0.2 -0.35 0.79 -1.37 0.55 -0.96 0.45 -0.78 0.38 -0.66 0.13 -0.23zm-75.43 8.17l-441.37 0 0 -29.57 478.96 0 -37.59 29.57zm75.43 690.06l0 29.57 -79.12 0c-12.24,-24.65 -29.83,-18.69 -52.79,-29.57l131.91 0zm-79.12 29.57c-291.79,0 -437.69,0 -437.69,0l0 -59.37 19.47 0 8.43 0 0 15.5c0.52,-1.7 1.07,-3.37 1.66,-5.03l0 19.32c104.04,0 214.81,0 322.91,0 -4.87,-24.65 -12.02,-33.65 -39.11,-38 6.32,-10.3 9.27,-26.16 5.57,-37.68 -4.17,-13.62 -21.82,-28.89 -43.03,-39.18 0,0 5.29,-21.12 15.88,-63.35 -6.27,-5.41 -12.41,-10.33 -18.68,-14.88l3.97 -11.18 -13.83 -4.88 -13.82 -4.88 -1.79 5.04c-4.51,-2.4 -9.23,-4.71 -14.21,-6.96l2.98 -4.31 -12.04 -8.32 -12.05 -8.32 -6.87 9.9c-3.45,-1.21 -7.04,-2.41 -10.76,-3.62 -30.43,37.01 -47.31,52.21 -47.31,52.21 -9.74,-11.94 -28.59,-18.66 -43.31,-16.84 -11.99,1.89 -21.36,7.88 -28.11,17.95 -7.26,12.04 -8.29,24.56 -3.1,37.56 -30.74,10.71 -41.96,30.53 -43.29,54.13l0 -65.57c3.66,-2.93 7.67,-5.48 12.02,-7.65 3.85,-52.55 55.94,-77.77 103.35,-55.18 0,0 10.09,-10.99 23.87,-27.53 -14.66,-8.44 -71.5,-19.11 -123.06,-28.96 0,0 6.07,-10.07 23.34,-36.6 -39.52,-28.69 0,0 -39.52,-28.69l0 -34.06 0 -29.46 0 -0.08c0.49,-0.89 12.4,-12.1 237.32,-153.45 212.07,-166.78 0,0 212.07,-166.78 16.61,0 37.85,0 37.85,0 0,14.26 0,21.39 0,21.39 -7.81,13.62 -11.72,20.44 -11.72,20.44 7.28,13.1 11.19,24.67 11.72,34.73 0,71.33 0,107 0,107 -5.51,76.68 -15.3,146.05 -29.37,208.12 16.43,46.05 26.23,94.14 29.37,144.28 0,33.61 0,50.41 0,50.41 -1.81,16.84 -7.5,31.67 -17.07,44.48 -1.13,1.16 1.28,3.9 -12.5,-1.96 -62.42,-26.52 2.42,1.03 -59.99,-25.49 -11.06,38.33 0,0 -11.06,38.33 -29.7,-23 -62.3,-55.39 -101.64,-82.73 -6.4,20.24 -9.61,30.37 -9.61,30.37 16.94,7.7 28.62,17.51 35.05,29.45 9.22,17.34 11.93,34.12 8.12,50.37 21.42,7.68 33.68,28.37 36.78,50.44 22.96,10.88 40.55,4.91 52.79,29.57zm-418.22 -59.37c-2.35,5.91 -4.34,12.1 -5.96,18.55 1.62,-6.45 3.62,-12.64 5.96,-18.55zm10.1 -340.05c54.09,36.47 0.46,0.31 54.09,36.47 135.48,-150.08 0,0 139.34,-154.46 -193.43,117.99 -193.43,117.99 -193.43,117.99zm-29.56 302.14c-0.04,-2.18 -0.04,-4.33 0,-6.44l0 6.44zm436.85 -77.63c15.38,-46.3 40.81,-161.35 50.39,-199.7 0,150.23 0,0 0,150.23 0,49.66 0,21.5 0,71.16 0,0 -2.53,-1.09 -50.39,-21.69zm-346.21 -143.52c0,0 12.7,-19.08 19.4,-27.33 44.51,-56.06 138.13,-173.71 198.45,-232.5 -2.17,-0.45 -4.36,-0.9 -6.58,-1.34 0,0 7.08,-8.25 21.24,-24.77 3.93,0.94 7.76,1.87 11.51,2.81l152.57 -118.08c0,196.1 0,29.62 0,196.1l0 0c1.78,1.7 3.57,3.44 5.37,5.22 1.85,31.06 0.63,42.89 -3.67,35.5 -1.36,-1.49 -2.7,-2.95 -4.05,-4.39 -8.64,66.65 -38.93,176.22 -57.85,240.67 -2.64,9.04 -25.73,90.5 -25.73,90.5 -65.57,-68.38 -182.06,-149.63 -310.66,-162.41zm401.97 -199.88c1.85,31.06 0.63,42.89 -3.67,35.5 -51.21,-56.27 -97.38,-78.85 -187.02,-96.79 0,0 7.08,-8.25 21.24,-24.77 80.84,19.27 121.15,38.27 169.45,86.06zm-215.54 284.46l-37.82 106.73c20.3,12.5 32.7,28.98 40.15,47.14 6.48,15.77 9,34.04 9.74,50.4l-29.29 0c-0.68,-13.04 -2.71,-27.54 -7.52,-39.27 -6.22,-15.15 -17.47,-28.73 -37.32,-38.12l-11.98 -5.67 46.4 -130.96 27.65 9.75zm-217.06 204.27c8.12,-31.57 27.06,-54.02 49.44,-64.64 13.08,-6.21 27.31,-8.86 41.23,-8.06 14.04,0.81 27.78,5.11 39.75,12.79 18.37,11.79 32.52,32.96 37.12,59.92l-29.88 0c-3.82,-15.57 -12.35,-28.38 -23.07,-35.25 -7.67,-4.92 -16.5,-7.68 -25.52,-8.2 -9.14,-0.53 -18.51,1.22 -27.12,5.31 -13.29,6.31 -24.85,19.93 -31.31,38.15l-30.63 0zm176.4 -220.24l-83.55 120.45 -7.53 0.13c-28.51,0.48 -54.84,9.5 -75.65,25.8 -18.34,14.36 -34.14,34.51 -41.77,59.57l0 -15.5 1.66 0 0 -47.58c6.43,-7.21 14.69,-13.75 22.1,-19.55 23.92,-18.73 53.53,-29.72 85.56,-31.69l75.1 -108.26 24.09 16.63zm105.45 -258.77c46.29,0 83.82,37.53 83.82,83.82 0,46.29 -37.53,83.82 -83.82,83.82 -46.3,0 -83.82,-37.53 -83.82,-83.82 0,-46.3 37.52,-83.82 83.82,-83.82zm0 27.94c30.86,0 55.88,25.02 55.88,55.88 0,30.86 -25.01,55.88 -55.88,55.88 -30.87,0 -55.88,-25.02 -55.88,-55.88 0,-30.86 25.01,-55.88 55.88,-55.88zm-341.85 -238.98l29.56 0 0 660.26 -29.56 0 0 -660.26z"/>
  <path class="fil4" d="M586.24 312.58l46.28 0 0 17.49c6.31,-6.32 13.61,-11.18 21.86,-14.57 2.86,-1.17 5.74,-2.15 8.65,-2.92l35.19 0c3.6,0.92 7.02,2.14 10.27,3.65 8.38,3.89 15.61,9.96 21.68,18.22 8.01,-8.5 16.52,-14.64 25.51,-18.4 3.39,-1.42 7,-2.58 10.81,-3.46l39.61 0c2.5,0.61 4.95,1.33 7.33,2.19 8.14,2.92 14.88,7.04 20.22,12.39 7.78,7.77 13.18,16.09 16.22,24.96 3.04,8.87 4.55,18.52 4.55,28.97l0 121.35 -47.37 0 0 -114.78c0,-6.56 -0.91,-12.03 -2.73,-16.4 -1.83,-4.37 -4.25,-7.89 -7.29,-10.57 -3.04,-2.67 -6.44,-4.61 -10.21,-5.83 -3.76,-1.21 -7.47,-1.82 -11.11,-1.82 -3.64,0 -7.35,0.61 -11.11,1.82 -3.77,1.22 -7.17,3.1 -10.21,5.65 -3.04,2.55 -5.52,6.01 -7.47,10.39 -1.95,4.37 -2.92,9.6 -2.92,15.67l0 115.88 -47.37 0 0 -114.78c0,-6.56 -0.91,-12.03 -2.73,-16.4 -1.82,-4.37 -4.25,-7.89 -7.29,-10.57 -3.04,-2.67 -6.43,-4.61 -10.2,-5.83 -3.77,-1.21 -7.47,-1.82 -11.12,-1.82 -3.64,0 -7.35,0.61 -11.11,1.82 -3.77,1.22 -7.17,3.16 -10.21,5.83 -3.04,2.67 -5.52,6.19 -7.47,10.57 -1.95,4.37 -2.92,9.84 -2.92,16.4l0 114.78 -47.37 0 0 -189.85z"/>
  <path class="fil4" d="M632.52 312.58l0 17.49c6.31,-6.32 13.61,-11.18 21.86,-14.57 8.26,-3.4 16.76,-5.1 25.51,-5.1 10.69,0 20.23,1.94 28.61,5.83 8.38,3.89 15.61,9.96 21.68,18.22 8.01,-8.5 16.52,-14.64 25.51,-18.4 8.99,-3.77 19.43,-5.65 31.33,-5.65 9.47,0 18.28,1.46 26.42,4.37 8.14,2.92 14.88,7.04 20.22,12.39 7.78,7.77 13.18,16.09 16.22,24.96 3.04,8.87 4.55,18.52 4.55,28.97l0 121.35 -47.37 0 0 -114.78c0,-6.56 -0.91,-12.03 -2.73,-16.4 -1.83,-4.37 -4.25,-7.89 -7.29,-10.57 -3.04,-2.67 -6.44,-4.61 -10.21,-5.83 -3.76,-1.21 -7.47,-1.82 -11.11,-1.82 -3.64,0 -7.35,0.61 -11.11,1.82 -3.77,1.22 -7.17,3.1 -10.21,5.65 -3.04,2.55 -5.52,6.01 -7.47,10.39 -1.95,4.37 -2.92,9.6 -2.92,15.67l0 115.88 -47.37 0 0 -114.78c0,-6.56 -0.91,-12.03 -2.73,-16.4 -1.82,-4.37 -4.25,-7.89 -7.29,-10.57 -3.04,-2.67 -6.43,-4.61 -10.2,-5.83 -3.77,-1.21 -7.47,-1.82 -11.12,-1.82 -3.64,0 -7.35,0.61 -11.11,1.82 -3.77,1.22 -7.17,3.16 -10.21,5.83 -3.04,2.67 -5.52,6.19 -7.47,10.57 -1.95,4.37 -2.92,9.84 -2.92,16.4l0 114.78 -47.37 0 0 -189.85 46.28 0z"/>
  <polygon class="fil6" points="634.62,598.48 634.62,541.48 623.74,541.48 601.82,577.1 601.82,541.48 590.62,541.48 590.62,598.48 600.8,598.48 623.43,561.6 623.43,598.48 "/>
  <polygon class="fil6" points="646.44,598.48 657.48,598.48 657.48,581.64 671.5,581.64 671.5,598.48 682.54,598.48 682.54,554.95 671.5,554.95 671.5,571.47 657.48,571.47 657.48,554.95 646.44,554.95 "/>
  <polygon class="fil6" points="693.42,598.48 704.46,598.48 704.46,581.64 718.47,581.64 718.47,598.48 729.51,598.48 729.51,554.95 718.47,554.95 718.47,571.47 704.46,571.47 704.46,554.95 693.42,554.95 "/>
  <path class="fil6" d="M759.03 599.42c11.67,0 20.36,-9.32 20.36,-22.24l0 -0.86c0,-13 -8.61,-22.23 -20.28,-22.23 -11.66,0 -20.51,9.47 -20.51,22.31l0 0.86c0,12.92 8.69,22.16 20.43,22.16zm0.08 -9.63c-5.63,0 -9.55,-5.56 -9.55,-12.76l0 -0.55c0,-7.28 3.53,-12.76 9.47,-12.76 5.64,0 9.4,5.56 9.4,12.84l0 0.55c0,7.28 -3.44,12.68 -9.32,12.68z"/>
  <path class="fil6" d="M788.47 598.48l18.32 0c9.71,0 16.6,-4.07 16.6,-12.45 0,-5.64 -3.05,-8.54 -7.75,-10.18 3.68,-1.8 6.26,-4.54 6.26,-9.55 0,-7.44 -5.71,-11.35 -15.18,-11.35l-18.24 0 0 43.53zm22.71 -30.69c0,3.05 -1.8,4.85 -5.95,4.85l-6.03 0 0 -9.55 6.11 0c3.99,-0.08 5.88,1.88 5.88,4.7zm1.48 17.46c0,3.37 -2.35,5.09 -6.34,5.09l-7.13 0 0 -9.94 6.89 0c4.39,0 6.57,1.8 6.57,4.86z"/>
  <path class="fil6" d="M842.8 599.26c5.32,0 8.85,-2.19 11.43,-5.64l0 4.85 10.89 0 0 -26.54c0,-5.64 -1.41,-10.02 -4.46,-13.07 -2.9,-2.9 -7.29,-4.39 -13.16,-4.39 -6.26,0 -10.57,1.33 -14.72,3.44l3.05 8.69c2.75,-1.17 5.95,-2.43 10.11,-2.43 5.32,0 8.38,2.58 8.38,7.83l0 1.41c-2.74,-1.02 -5.48,-1.8 -9.24,-1.8 -9,0 -15.26,4.31 -15.26,13.94l0 0.47c0,8.46 5.79,13.23 13,13.23zm3.6 -8.14c-3.45,-0.08 -5.88,-1.96 -5.88,-5.72l0 -0.15c0,-4.07 2.74,-6.34 7.21,-6.34 2.51,0 4.93,0.55 6.73,1.41l0 3.84c0,4.15 -3.37,7.04 -8.06,6.97z"/>
  <polygon class="fil6" points="906.61,608.19 916.55,608.19 916.55,588.46 911.54,588.46 911.54,554.95 900.51,554.95 900.51,588.38 886.49,588.38 886.49,554.95 875.45,554.95 875.45,598.48 906.61,598.48 "/>
  <polygon class="fil6" points="924.3,598.48 934.32,598.48 949.44,573.74 949.44,598.48 960.39,598.48 960.39,554.95 949.98,554.95 935.27,579.06 935.27,554.95 924.3,554.95 "/>
  <path class="fil6" d="M989.84 599.42c11.66,0 20.35,-9.32 20.35,-22.24l0 -0.86c0,-13 -8.61,-22.23 -20.27,-22.23 -11.67,0 -20.51,9.47 -20.51,22.31l0 0.86c0,12.92 8.69,22.16 20.44,22.16zm0.08 -9.63c-5.64,0 -9.55,-5.56 -9.55,-12.76l0 -0.55c0,-7.28 3.53,-12.76 9.47,-12.76 5.64,0 9.39,5.56 9.39,12.84l0 0.55c0,7.28 -3.44,12.68 -9.32,12.68z"/>
  <polygon class="fil6" points="1019.27,598.48 1030.31,598.48 1030.31,581.64 1044.33,581.64 1044.33,598.48 1055.36,598.48 1055.36,554.95 1044.33,554.95 1044.33,571.47 1030.31,571.47 1030.31,554.95 1019.27,554.95 "/>
  <polygon class="fil6" points="1066.25,598.48 1077.28,598.48 1077.28,581.64 1091.3,581.64 1091.3,598.48 1102.34,598.48 1102.34,554.95 1091.3,554.95 1091.3,571.47 1077.28,571.47 1077.28,554.95 1066.25,554.95 "/>
  <path class="fil6" d="M1124.18 554.95l-10.97 0 0 43.53 15.66 0c11.51,0 18.01,-5.87 18.01,-15.58l0 -0.08c0,-10.1 -7.05,-15.11 -16.75,-15.11l-5.95 0 0 -12.76zm0 21.69l5.08 0c4.46,-0.08 6.74,2.66 6.74,6.34l0 0.08c0,4.07 -2.43,6.42 -6.89,6.42l-4.93 0 0 -12.84zm28.11 21.84l10.96 0 0 -43.53 -10.96 0 0 43.53z"/>
  <path class="fil6" d="M1174.05 598.48l10.03 0 15.11 -24.74 0 24.74 10.96 0 0 -43.53 -10.41 0 -14.72 24.11 0 -24.11 -10.97 0 0 43.53zm18.01 -47.68c7.44,0 12.76,-4.15 13.39,-11.74l-7.36 0c-0.71,2.74 -2.51,4.62 -6.03,4.62 -3.53,0 -5.32,-1.88 -6.03,-4.62l-7.36 0c0.63,7.59 5.95,11.74 13.39,11.74z"/>
  <polygon class="fil6" points="1271.69,608.19 1281.63,608.19 1281.63,588.46 1276.62,588.46 1276.62,554.95 1265.58,554.95 1265.58,588.38 1251.57,588.38 1251.57,554.95 1240.52,554.95 1240.52,598.48 1271.69,598.48 "/>
  <path class="fil6" d="M1307.15 599.42c6.58,0 11.43,-2.51 15.43,-6.89l-5.72 -6.73c-2.74,2.74 -5.56,4.31 -9.24,4.31 -5.09,0 -8.85,-3.05 -9.79,-9.24l26.31 0c0.08,-1.64 0.08,-2.97 0.08,-3.68 0,-12.92 -6.26,-23.09 -18.47,-23.09 -10.89,0 -18.95,9.47 -18.95,22.39l0 0.7c0,13.55 8.85,22.24 20.36,22.24zm-9.4 -25.99c0.63,-6.34 3.6,-10.18 7.99,-10.18 4.62,0 7.21,3.92 7.75,10.18l-15.74 0z"/>
  <polygon class="fil6" points="1333.22,598.48 1344.27,598.48 1344.27,581.64 1358.28,581.64 1358.28,598.48 1369.32,598.48 1369.32,554.95 1358.28,554.95 1358.28,571.47 1344.27,571.47 1344.27,554.95 1333.22,554.95 "/>
  <polygon class="fil6" points="1389.76,598.48 1400.71,598.48 1400.71,564.89 1412.77,564.89 1412.77,554.95 1377.69,554.95 1377.69,564.89 1389.76,564.89 "/>
  <path class="fil6" d="M1421.15 610.77l11.04 0 0 -18.09c2.51,3.29 6.03,6.58 11.98,6.58 8.77,0 16.68,-7.12 16.68,-21.92l0 -1.25c0,-14.87 -7.91,-22 -16.68,-22 -5.87,0 -9.39,3.29 -11.98,7.04l0 -6.18 -11.04 0 0 55.82zm19.81 -21.22c-4.93,0 -8.93,-4.85 -8.93,-12.45l0 -0.78c0,-7.75 3.99,-12.53 8.93,-12.53 5.01,0 8.77,4.78 8.77,12.53l0 0.78c0,7.75 -3.76,12.45 -8.77,12.45z"/>
  <polygon class="fil6" points="589.6,673.83 599.62,673.83 614.74,649.09 614.74,673.83 625.69,673.83 625.69,630.3 615.28,630.3 600.56,654.42 600.56,630.3 589.6,630.3 "/>
  <polygon class="fil6" points="636.5,673.83 647.54,673.83 647.54,657 661.55,657 661.55,673.83 672.59,673.83 672.59,630.3 661.55,630.3 661.55,646.82 647.54,646.82 647.54,630.3 636.5,630.3 "/>
  <path class="fil6" d="M714.95 686.13l0 -12.14c13.78,-0.86 22.23,-9.63 22.23,-21.84l0 -0.24c0,-12.37 -8.38,-20.9 -22.23,-21.77l0 -15.11 -10.96 0 0 15.11c-14.02,0.86 -22.31,9.71 -22.31,21.84l0 0.24c0,12.37 8.29,20.9 22.31,21.77l0 12.14 10.96 0zm11.43 -33.98c0,7.28 -4.07,11.98 -11.67,12.53l0 -25.13c7.44,0.55 11.67,5.25 11.67,12.53l0 0.08zm-33.9 -0.16c0,-7.2 3.99,-12.06 11.75,-12.45l0 25.13c-7.52,-0.55 -11.75,-5.17 -11.75,-12.61l0 -0.08z"/>
  <path class="fil6" d="M764.9 674.78c11.67,0 20.36,-9.32 20.36,-22.24l0 -0.86c0,-13 -8.61,-22.23 -20.28,-22.23 -11.66,0 -20.51,9.47 -20.51,22.31l0 0.86c0,12.92 8.69,22.16 20.43,22.16zm0.08 -9.63c-5.64,0 -9.55,-5.56 -9.55,-12.76l0 -0.55c0,-7.28 3.53,-12.76 9.47,-12.76 5.64,0 9.4,5.56 9.4,12.84l0 0.55c0,7.28 -3.44,12.68 -9.32,12.68z"/>
  <path class="fil6" d="M794.34 686.13l11.04 0 0 -18.09c2.51,3.29 6.03,6.58 11.98,6.58 8.77,0 16.68,-7.12 16.68,-21.92l0 -1.25c0,-14.87 -7.91,-22 -16.68,-22 -5.87,0 -9.39,3.29 -11.98,7.04l0 -6.18 -11.04 0 0 55.82zm19.81 -21.22c-4.93,0 -8.93,-4.85 -8.93,-12.45l0 -0.78c0,-7.75 3.99,-12.53 8.93,-12.53 5.01,0 8.77,4.78 8.77,12.53l0 0.78c0,7.75 -3.75,12.45 -8.77,12.45z"/>
  <polygon class="fil6" points="843.19,673.83 853.91,673.83 853.91,647.84 864.1,665.61 864.33,665.61 874.67,647.69 874.67,673.83 885.39,673.83 885.39,630.3 874.04,630.3 864.25,647.61 854.62,630.3 843.19,630.3 "/>
  <path class="fil6" d="M906.76 674.62c5.32,0 8.85,-2.19 11.43,-5.64l0 4.85 10.88 0 0 -26.54c0,-5.64 -1.41,-10.02 -4.46,-13.07 -2.89,-2.9 -7.28,-4.39 -13.15,-4.39 -6.26,0 -10.57,1.33 -14.72,3.44l3.05 8.69c2.74,-1.17 5.95,-2.43 10.1,-2.43 5.32,0 8.38,2.58 8.38,7.83l0 1.41c-2.75,-1.02 -5.48,-1.8 -9.24,-1.8 -9,0 -15.27,4.31 -15.27,13.94l0 0.47c0,8.46 5.8,13.23 13,13.23zm3.6 -8.14c-3.45,-0.08 -5.87,-1.96 -5.87,-5.72l0 -0.15c0,-4.07 2.74,-6.34 7.2,-6.34 2.51,0 4.93,0.55 6.73,1.41l0 3.84c0,4.15 -3.37,7.04 -8.07,6.97z"/>
  <polygon class="fil6" points="970.58,683.54 980.52,683.54 980.52,663.81 975.51,663.81 975.51,630.3 964.47,630.3 964.47,663.74 950.45,663.74 950.45,630.3 939.41,630.3 939.41,673.83 970.58,673.83 "/>
  <polygon class="fil6" points="988.26,673.83 998.29,673.83 1013.4,649.09 1013.4,673.83 1024.36,673.83 1024.36,630.3 1013.94,630.3 999.23,654.42 999.23,630.3 988.26,630.3 "/>
  <path class="fil6" d="M1053.8 674.78c11.67,0 20.36,-9.32 20.36,-22.24l0 -0.86c0,-13 -8.61,-22.23 -20.28,-22.23 -11.66,0 -20.51,9.47 -20.51,22.31l0 0.86c0,12.92 8.69,22.16 20.43,22.16zm0.08 -9.63c-5.63,0 -9.55,-5.56 -9.55,-12.76l0 -0.55c0,-7.28 3.53,-12.76 9.47,-12.76 5.64,0 9.4,5.56 9.4,12.84l0 0.55c0,7.28 -3.44,12.68 -9.32,12.68z"/>
  <polygon class="fil6" points="1083.23,673.83 1094.27,673.83 1094.27,657 1108.29,657 1108.29,673.83 1119.33,673.83 1119.33,630.3 1108.29,630.3 1108.29,646.82 1094.27,646.82 1094.27,630.3 1083.23,630.3 "/>
  <polygon class="fil6" points="1130.21,673.83 1141.25,673.83 1141.25,657 1155.26,657 1155.26,673.83 1166.3,673.83 1166.3,630.3 1155.26,630.3 1155.26,646.82 1141.25,646.82 1141.25,630.3 1130.21,630.3 "/>
  <path class="fil6" d="M1188.14 630.3l-10.96 0 0 43.53 15.66 0c11.51,0 18.01,-5.87 18.01,-15.58l0 -0.08c0,-10.1 -7.04,-15.11 -16.75,-15.11l-5.95 0 0 -12.76zm0 21.69l5.09 0c4.46,-0.08 6.74,2.66 6.74,6.34l0 0.08c0,4.07 -2.43,6.42 -6.89,6.42l-4.93 0 0 -12.84zm28.11 21.84l10.96 0 0 -43.53 -10.96 0 0 43.53z"/>
  <polygon class="fil6" points="1247.03,630.3 1235.28,630.3 1247.96,651.68 1234.81,673.83 1246.39,673.83 1253.99,659.82 1261.59,673.83 1273.41,673.83 1260.26,651.52 1272.94,630.3 1261.43,630.3 1254.22,643.46 "/>
  <polygon class="fil6" points="1300.34,673.83 1310.36,673.83 1325.47,649.09 1325.47,673.83 1336.43,673.83 1336.43,630.3 1326.02,630.3 1311.3,654.42 1311.3,630.3 1300.34,630.3 "/>
  <polygon class="fil6" points="589.6,749.19 600.64,749.19 600.64,715.76 614.66,715.76 614.66,749.19 625.69,749.19 625.69,705.66 589.6,705.66 "/>
  <path class="fil6" d="M654.98 750.13c6.57,0 11.43,-2.51 15.42,-6.89l-5.71 -6.73c-2.74,2.74 -5.56,4.31 -9.24,4.31 -5.09,0 -8.85,-3.05 -9.79,-9.24l26.3 0c0.08,-1.64 0.08,-2.97 0.08,-3.68 0,-12.92 -6.26,-23.09 -18.48,-23.09 -10.88,0 -18.95,9.47 -18.95,22.39l0 0.7c0,13.55 8.85,22.24 20.36,22.24zm-9.4 -25.99c0.63,-6.34 3.6,-10.18 7.98,-10.18 4.62,0 7.21,3.92 7.75,10.18l-15.73 0z"/>
  <path class="fil6" d="M693.65 705.35l-12.44 33.9 -4.46 0 0 19.73 9.86 0 0 -9.79 25.99 0 0 9.79 9.86 0 0 -19.73 -4.54 0 -12.45 -33.9 -11.82 0zm5.87 12.41l7.28 21.96 -14.72 0 7.44 -21.96z"/>
  <path class="fil6" d="M740.24 749.97c5.32,0 8.85,-2.19 11.43,-5.64l0 4.85 10.89 0 0 -26.54c0,-5.64 -1.41,-10.02 -4.46,-13.07 -2.9,-2.9 -7.29,-4.39 -13.15,-4.39 -6.27,0 -10.57,1.33 -14.72,3.44l3.05 8.69c2.75,-1.17 5.95,-2.43 10.11,-2.43 5.32,0 8.38,2.58 8.38,7.83l0 1.41c-2.74,-1.02 -5.48,-1.8 -9.24,-1.8 -9,0 -15.26,4.31 -15.26,13.94l0 0.47c0,8.46 5.79,13.23 13,13.23zm3.6 -8.14c-3.45,-0.08 -5.88,-1.96 -5.88,-5.72l0 -0.15c0,-4.07 2.74,-6.34 7.21,-6.34 2.5,0 4.93,0.55 6.73,1.41l0 3.84c0,4.15 -3.36,7.04 -8.06,6.97z"/>
  <polygon class="fil6" points="772.88,749.19 783.93,749.19 783.93,715.76 801.54,715.76 801.54,705.66 772.88,705.66 "/>
  <path class="fil6" d="M825.89 750.13c11.66,0 20.36,-9.32 20.36,-22.24l0 -0.86c0,-13 -8.61,-22.23 -20.28,-22.23 -11.67,0 -20.51,9.47 -20.51,22.31l0 0.86c0,12.92 8.69,22.16 20.44,22.16zm0.08 -9.63c-5.64,0 -9.55,-5.56 -9.55,-12.76l0 -0.55c0,-7.28 3.53,-12.76 9.47,-12.76 5.64,0 9.39,5.56 9.39,12.84l0 0.55c0,7.28 -3.44,12.68 -9.32,12.68z"/>
  <polygon class="fil6" points="855.32,749.19 866.37,749.19 866.37,715.76 883.98,715.76 883.98,705.66 855.32,705.66 "/>
  <polygon class="fil6" points="892.12,749.19 902.15,749.19 917.26,724.45 917.26,749.19 928.22,749.19 928.22,705.66 917.81,705.66 903.08,729.77 903.08,705.66 892.12,705.66 "/>
  <path class="fil6" d="M961.33 749.19l11.12 0 0 -43.53 -11.12 0 0 19.73c-1.8,0.55 -3.6,0.94 -5.79,0.94 -4.46,0 -6.57,-1.57 -6.57,-6.18l0 -14.48 -11.04 0 0 15.58c0,10.73 6.11,15.03 15.98,15.03 2.74,0 5.32,-0.39 7.43,-1.02l0 13.94z"/>
  <path class="fil6" d="M1001.74 750.13c6.57,0 11.43,-2.51 15.42,-6.89l-5.71 -6.73c-2.74,2.74 -5.56,4.31 -9.24,4.31 -5.09,0 -8.85,-3.05 -9.79,-9.24l26.31 0c0.08,-1.64 0.08,-2.97 0.08,-3.68 0,-12.92 -6.26,-23.09 -18.48,-23.09 -10.88,0 -18.94,9.47 -18.94,22.39l0 0.7c0,13.55 8.85,22.24 20.36,22.24zm-9.4 -25.99c0.63,-6.34 3.6,-10.18 7.98,-10.18 4.62,0 7.21,3.92 7.75,10.18l-15.73 0z"/>
  <path class="fil6" d="M1045.74 750.13c6.89,0 11.19,-2.66 14.72,-6.66l-5.87 -7.28c-2.43,2.43 -4.62,3.99 -8.07,4.07 -5.95,0 -9.47,-5.17 -9.47,-12.68l0 -0.31c0,-7.28 3.75,-12.53 9.24,-12.53 3.52,0 5.79,1.8 7.98,3.99l6.03 -8.06c-3.68,-3.68 -7.91,-5.87 -14.17,-5.87 -11.75,0 -20.12,9.47 -20.12,22.31l0 0.94c0,12.84 8.15,22.08 19.73,22.08z"/>
  <polygon class="fil6" points="1079.48,705.66 1068.44,705.66 1068.44,749.19 1079.48,749.19 1079.48,732.12 1082.38,732.12 1093.49,749.19 1106.26,749.19 1091.15,726.96 1105.94,705.66 1092.94,705.66 1082.3,722.34 1079.48,722.34 "/>
  <polygon class="fil6" points="1112.75,749.19 1122.78,749.19 1137.89,724.45 1137.89,749.19 1148.85,749.19 1148.85,705.66 1138.43,705.66 1123.71,729.77 1123.71,705.66 1112.75,705.66 "/>
  <polygon class="fil6" points="1168.66,705.66 1156.91,705.66 1169.59,727.04 1156.44,749.19 1168.03,749.19 1175.63,735.18 1183.22,749.19 1195.04,749.19 1181.89,726.88 1194.57,705.66 1183.06,705.66 1175.86,718.81 "/>
  <polygon class="fil6" points="1231.52,749.19 1242.49,749.19 1242.49,715.61 1254.54,715.61 1254.54,705.66 1219.47,705.66 1219.47,715.61 1231.52,715.61 "/>
  <path class="fil6" d="M1279.2 750.13c6.58,0 11.43,-2.51 15.42,-6.89l-5.72 -6.73c-2.74,2.74 -5.56,4.31 -9.24,4.31 -5.08,0 -8.85,-3.05 -9.78,-9.24l26.31 0c0.08,-1.64 0.08,-2.97 0.08,-3.68 0,-12.92 -6.26,-23.09 -18.48,-23.09 -10.89,0 -18.95,9.47 -18.95,22.39l0 0.7c0,13.55 8.85,22.24 20.36,22.24zm-9.39 -25.99c0.63,-6.34 3.6,-10.18 7.98,-10.18 4.62,0 7.2,3.92 7.75,10.18l-15.73 0z"/>
  <polygon class="fil6" points="1312.48,705.66 1300.74,705.66 1313.42,727.04 1300.27,749.19 1311.85,749.19 1319.45,735.18 1327.04,749.19 1338.86,749.19 1325.71,726.88 1338.39,705.66 1326.88,705.66 1319.68,718.81 "/>
  <polygon class="fil6" points="1346.22,749.19 1357.26,749.19 1357.26,732.36 1371.28,732.36 1371.28,749.19 1382.31,749.19 1382.31,705.66 1371.28,705.66 1371.28,722.18 1357.26,722.18 1357.26,705.66 1346.22,705.66 "/>
  <path class="fil6" d="M1411.83 750.13c11.66,0 20.35,-9.32 20.35,-22.24l0 -0.86c0,-13 -8.61,-22.23 -20.27,-22.23 -11.67,0 -20.51,9.47 -20.51,22.31l0 0.86c0,12.92 8.69,22.16 20.44,22.16zm0.08 -9.63c-5.64,0 -9.55,-5.56 -9.55,-12.76l0 -0.55c0,-7.28 3.52,-12.76 9.47,-12.76 5.64,0 9.4,5.56 9.4,12.84l0 0.55c0,7.28 -3.45,12.68 -9.32,12.68z"/>
  <polygon class="fil6" points="1462.33,705.35 1451.45,705.35 1435.94,749.19 1447.38,749.19 1456.85,719.99 1466.17,749.19 1477.91,749.19 "/>
  <path class="fil6" d="M1501.95 750.13c11.66,0 20.35,-9.32 20.35,-22.24l0 -0.86c0,-13 -8.61,-22.23 -20.27,-22.23 -11.67,0 -20.51,9.47 -20.51,22.31l0 0.86c0,12.92 8.69,22.16 20.44,22.16zm0.08 -9.63c-5.64,0 -9.55,-5.56 -9.55,-12.76l0 -0.55c0,-7.28 3.53,-12.76 9.47,-12.76 5.64,0 9.39,5.56 9.39,12.84l0 0.55c0,7.28 -3.44,12.68 -9.31,12.68z"/>
  <polygon class="fil6" points="1531.38,749.19 1542.42,749.19 1542.42,715.76 1560.04,715.76 1560.04,705.66 1531.38,705.66 "/>
  <polygon class="fil6" points="1568.18,749.19 1578.2,749.19 1593.31,724.45 1593.31,749.19 1604.27,749.19 1604.27,705.66 1593.86,705.66 1579.14,729.77 1579.14,705.66 1568.18,705.66 "/>
  <path class="fil6" d="M1615.07 749.19l10.03 0 15.11 -24.74 0 24.74 10.96 0 0 -43.53 -10.41 0 -14.72 24.11 0 -24.11 -10.97 0 0 43.53zm18.01 -47.68c7.43,0 12.76,-4.15 13.39,-11.74l-7.36 0c-0.71,2.74 -2.51,4.62 -6.03,4.62 -3.53,0 -5.33,-1.88 -6.03,-4.62l-7.36 0c0.63,7.59 5.95,11.74 13.39,11.74z"/>
 </g>
</svg>
