<svg width="51" height="24" viewBox="0 0 51 24" fill="none" xmlns="http://www.w3.org/2000/svg">
<g clip-path="url(#clip0)">
<path fill-rule="evenodd" clip-rule="evenodd" d="M0.563354 11.2897H15.5406V22.7269H0.563354V11.2897Z" fill="#2AB5B2"/>
<path fill-rule="evenodd" clip-rule="evenodd" d="M1.62262 9.81996C1.38176 9.97727 1.1469 10.1434 0.918335 10.3187C0.918335 10.3187 0.918335 7.18504 0.918335 0.91774C9.89811 0.91774 14.388 0.91774 14.388 0.91774C14.1292 0.996869 13.8675 1.13369 13.6033 1.32852C12.9659 1.75821 12.3836 2.1835 11.8565 2.60468C11.2644 3.08513 10.6736 3.57977 10.0835 4.08891C9.9662 4.19452 9.8401 4.30612 9.70486 4.4234C8.82561 5.0082 7.89308 5.62862 6.9079 6.28404C5.71244 7.07943 4.52393 7.8701 3.34234 8.65603C2.67274 9.11568 2.0996 9.50376 1.62262 9.81996V9.81996Z" fill="#2AB5B2"/>
<path fill-rule="evenodd" clip-rule="evenodd" d="M13.5579 17.8224C14.0352 16.3855 14.8243 12.8152 15.1216 11.6251C15.1216 16.2875 15.1216 11.6251 15.1216 16.2875C15.1216 17.8287 15.1216 16.9545 15.1216 18.4955C15.1216 18.4955 15.0431 18.4618 13.5579 17.8224V17.8224Z" fill="#F7AA47"/>
<path fill-rule="evenodd" clip-rule="evenodd" d="M10.9394 22.3325C4.09551 22.3325 0.918668 22.3325 0.918668 22.3325C0.918668 22.3325 0.918668 21.6361 0.918668 19.9958C0.872955 19.1248 1.17213 18.3764 2.26198 17.9962C2.10088 17.5929 2.13304 17.2045 2.35813 16.8306C2.56778 16.5182 2.85844 16.3325 3.23045 16.2739C3.68725 16.2178 4.27205 16.4262 4.57439 16.7966C4.57439 16.7966 5.09803 16.325 6.04254 15.1762C7.44417 15.6314 8.2093 16.0706 9.05608 16.802C8.72726 18.1125 8.56301 18.7679 8.56301 18.7679C9.22127 19.0876 9.76919 19.5611 9.89844 19.9838C10.0132 20.341 9.92146 20.8335 9.72568 21.1531C10.5665 21.2884 10.7884 21.5674 10.9394 22.3325V22.3325Z" fill="#FEFEFE"/>
<path fill-rule="evenodd" clip-rule="evenodd" d="M2.81397 13.3685C2.81397 13.3685 3.20805 12.7764 3.41612 12.5201C5.01951 10.5003 8.67681 5.90543 10.3868 4.58198C15.1216 0.917435 15.1216 0.917435 15.1216 0.917435C15.1216 7.00315 15.1216 1.83641 15.1216 7.00315C15.1216 7.3947 15.0964 7.75094 15.0545 8.08322C14.795 10.1466 13.8448 13.5841 13.2531 15.5996C13.1711 15.8802 12.4545 18.4082 12.4545 18.4082C10.4199 16.2862 6.8045 13.7645 2.81366 13.3682L2.81397 13.3685Z" fill="#FCEB08"/>
<path fill-rule="evenodd" clip-rule="evenodd" d="M2.59708 11.9867C6.80134 7.32912 2.59708 11.9867 6.92114 7.19356C0.918334 10.855 0.918335 10.855 0.918335 10.855C2.59708 11.9867 0.932837 10.8644 2.59708 11.9867Z" fill="#F7AA47"/>
<path fill-rule="evenodd" clip-rule="evenodd" d="M10.6096 8.26007C11.6084 8.26007 12.418 9.06965 12.418 10.0684C12.418 11.0671 11.6084 11.8767 10.6096 11.8767C9.6106 11.8767 8.80133 11.0671 8.80133 10.0684C8.80133 9.06965 9.61091 8.26007 10.6096 8.26007Z" fill="#FEFEFE"/>
<path d="M22.9201 3.96942C23.5834 3.59994 23.9151 3.0309 23.9151 2.26168C23.9151 1.92246 23.8568 1.61729 23.7398 1.34554C23.6228 1.0741 23.4573 0.842389 23.2423 0.650083C23.0273 0.457776 22.7653 0.308975 22.4564 0.203364C22.1474 0.0977529 21.8044 0.045105 21.4274 0.045105H18.1932V7.087H19.6295V8.09676H18.1932V7.087H19.6295V8.09676H21.5633C21.9403 8.09676 22.2811 8.04191 22.5866 7.93283C22.8921 7.82344 23.1518 7.66896 23.3669 7.46909C23.5819 7.26921 23.7458 7.02804 23.859 6.74526C23.9721 6.46247 24.0286 6.14406 24.0286 5.78971C24.0286 5.50315 23.9892 5.24684 23.91 5.0208C23.8309 4.79445 23.7045 4.58732 23.5311 4.3988C23.4479 4.31589 23.365 4.24433 23.2821 4.1838C23.1991 4.12358 23.0784 4.05202 22.9201 3.96911V3.96942ZM21.3032 3.30234H19.765V1.44768H21.3032C21.6273 1.44768 21.8817 1.53059 22.0664 1.69674C22.2512 1.86256 22.3435 2.0886 22.3435 2.37517C22.3435 2.66142 22.2512 2.88778 22.0664 3.0536C21.8817 3.21943 21.6273 3.30234 21.3032 3.30234ZM21.405 6.69482H19.7654V4.71563H21.405C21.7291 4.71563 21.9857 4.80233 22.1739 4.97572C22.3624 5.14911 22.4567 5.39028 22.4567 5.69955C22.4567 6.0085 22.3624 6.25188 22.1739 6.42905C21.9854 6.60623 21.7291 6.69482 21.405 6.69482Z" fill="#727271"/>
<path d="M29.742 8.09709H30.579V6.85309H30.0134C29.8249 6.85309 29.6912 6.808 29.6121 6.71753C29.533 6.62705 29.4932 6.49527 29.4932 6.32188V0.0457458H28.0232V6.41236C28.0232 6.62358 28.0553 6.82881 28.1193 7.02868C28.1833 7.22856 28.2852 7.40762 28.4245 7.56588C28.5639 7.72414 28.7429 7.85245 28.9617 7.95049C29.1802 8.04854 29.4403 8.09772 29.742 8.09772V8.09709Z" fill="#727271"/>
<path d="M31.5131 15.5923H32.9491V11.7134C32.9491 10.3263 31.671 9.63271 29.9976 9.63271C29.5077 9.63271 29.1042 9.69292 28.7877 9.81366C28.4712 9.93441 28.1695 10.1529 27.8832 10.4697L28.8107 11.3858C28.969 11.2049 29.131 11.075 29.2968 10.9956C29.4626 10.9164 29.6773 10.8767 29.9412 10.8767C30.3334 10.8767 31.0553 10.9505 31.2249 11.0971C31.3942 11.244 31.4793 11.4801 31.4793 11.8039V12.098H29.6701C29.3236 12.098 29.0213 12.1434 28.7653 12.2339C28.509 12.3241 28.2978 12.4467 28.1319 12.6015C27.9658 12.756 27.8416 12.9369 27.7587 13.1444C27.6755 13.3518 27.6342 13.5722 27.6342 13.8058C27.6342 14.0696 27.6755 14.3146 27.7587 14.5409C27.8416 14.767 27.962 14.9631 28.1206 15.1289C28.4674 15.4757 28.9686 15.6491 29.6247 15.6491C29.9639 15.6491 30.6821 15.6037 30.8967 15.5135C31.1111 15.4233 31.317 15.2799 31.5131 15.0838V15.5926V15.5923ZM31.479 13.1043V13.4208C31.479 13.609 31.4617 13.7623 31.428 13.8789C31.3942 13.9955 31.3346 14.0914 31.2527 14.1674C31.1237 14.2868 30.9923 14.3653 30.8567 14.3991C30.7215 14.4328 30.1218 14.4498 29.9406 14.4498C29.6316 14.4498 29.4053 14.3896 29.2621 14.2689C29.119 14.1481 29.0471 13.9861 29.0471 13.7824C29.0471 13.33 29.3375 13.104 29.9179 13.104H31.4787L31.479 13.1043Z" fill="#727271"/>
<path d="M37.6776 15.5923H39.4986L37.2369 12.0753L39.3403 9.70047H37.5648L35.6083 12.109V7.54033H34.1382V15.592H35.6083V13.8392L36.2303 13.138L37.6776 15.592V15.5923ZM40.991 8.09708H42.461V4.33134C42.461 4.00725 42.4137 3.70744 42.3195 3.43222C42.2252 3.157 42.0575 2.89881 41.8163 2.65764C41.6505 2.49181 41.4412 2.3635 41.1886 2.27302C40.9361 2.18255 40.6628 2.13715 40.369 2.13715C39.9995 2.13715 39.6754 2.19579 39.3964 2.31243C39.1174 2.42908 38.8539 2.61949 38.6048 2.88336C38.4163 2.62706 38.1921 2.43853 37.932 2.31811C37.672 2.19736 37.3759 2.13715 37.0443 2.13715C36.7728 2.13715 36.509 2.19011 36.2527 2.29541C35.9964 2.40102 35.7703 2.55171 35.5742 2.7478V2.1113H34.1382V7.54033H35.6083V4.53468C35.6083 4.33102 35.6386 4.16141 35.6988 4.02585C35.759 3.88998 35.8362 3.7809 35.9305 3.69799C36.0247 3.61507 36.1304 3.55486 36.2473 3.51703C36.3643 3.4792 36.479 3.46028 36.5922 3.46028C36.7054 3.46028 36.8201 3.4792 36.9371 3.51703C37.0541 3.55486 37.1593 3.61507 37.2539 3.69799C37.3482 3.7809 37.4235 3.89029 37.48 4.02585C37.5364 4.16141 37.5648 4.33102 37.5648 4.53468V8.09676H39.0348V4.50063C39.0348 4.31211 39.0651 4.15006 39.1253 4.01419C39.1855 3.87863 39.2627 3.77112 39.357 3.692C39.4513 3.61287 39.5569 3.55454 39.6738 3.51671C39.7908 3.47888 39.9056 3.45997 40.0187 3.45997C40.1316 3.45997 40.2467 3.47888 40.3636 3.51671C40.4803 3.55454 40.5859 3.61476 40.6805 3.69767C40.7747 3.78058 40.8501 3.88998 40.9065 4.02554C40.9629 4.1611 40.9913 4.33071 40.9913 4.53436V8.09645L40.991 8.09708Z" fill="#727271"/>
<path d="M44.5802 12.6409C44.5802 12.1056 44.5351 11.6626 44.4443 11.3121C44.3538 10.9615 44.1767 10.6431 43.9128 10.3565C43.7243 10.1604 43.4812 9.99084 43.1833 9.84771C42.8857 9.70427 42.5181 9.63271 42.0808 9.63271C41.6436 9.63271 41.2779 9.70427 40.9841 9.84771C40.6899 9.99084 40.4487 10.1604 40.2605 10.3565C39.9967 10.6431 39.8195 10.9615 39.729 11.3121C39.6385 11.6626 39.5931 12.1056 39.5931 12.6409C39.5931 13.1762 39.6385 13.621 39.729 13.9754C39.8195 14.3297 39.9967 14.65 40.2605 14.9366C40.4487 15.1327 40.6902 15.3023 40.9841 15.4454C41.2782 15.5889 41.6439 15.6604 42.0808 15.6604C42.5181 15.6604 42.8857 15.5889 43.1833 15.4454C43.4812 15.3023 43.7243 15.1327 43.9128 14.9366C44.1842 14.6576 44.3633 14.3392 44.45 13.981C44.5367 13.6229 44.5799 13.1762 44.5799 12.6409H44.5802ZM43.1101 12.6409C43.1101 12.9502 43.0912 13.2288 43.0534 13.4779C43.0159 13.7266 42.9216 13.9265 42.7709 14.0772C42.5975 14.2506 42.3674 14.3373 42.0808 14.3373C41.8021 14.3373 41.5758 14.2506 41.4024 14.0772C41.2517 13.9265 41.1574 13.7266 41.1199 13.4779C41.0821 13.2292 41.0632 12.9502 41.0632 12.6409C41.0632 12.3395 41.0821 12.0643 41.1199 11.8155C41.1574 11.5668 41.2517 11.3669 41.4024 11.2162C41.5758 11.0428 41.8021 10.9562 42.0808 10.9562C42.3674 10.9562 42.5972 11.0428 42.7709 11.2162C42.9216 11.3669 43.0159 11.5668 43.0534 11.8155C43.0912 12.0643 43.1101 12.3395 43.1101 12.6409Z" fill="#727271"/>
<path d="M48.9714 15.5923H50.4414V11.8266C50.4414 11.5025 50.4017 11.2027 50.3226 10.9275C50.2434 10.6522 50.0833 10.3941 49.8421 10.1529C49.6763 9.98705 49.4767 9.85875 49.2428 9.76827C49.0092 9.67779 48.7453 9.63271 48.4512 9.63271C48.1798 9.63271 47.9159 9.68346 47.6596 9.78529C47.4033 9.88712 47.1773 10.0397 46.9812 10.2434V9.70049H45.5452V15.5923H47.0152V12.0302C47.0152 11.8266 47.0455 11.657 47.1057 11.5214C47.1659 11.3858 47.2435 11.2765 47.3377 11.1935C47.4317 11.1106 47.5376 11.0501 47.6542 11.0126C47.7712 10.9748 47.886 10.9562 47.9994 10.9562C48.1123 10.9562 48.2274 10.9751 48.3443 11.0126C48.461 11.0504 48.5666 11.1106 48.6609 11.1935C48.7551 11.2765 48.8305 11.3858 48.8869 11.5214C48.9436 11.657 48.972 11.8266 48.972 12.0302V15.5923H48.9714Z" fill="#727271"/>
<path d="M25.2455 8.09709H26.7155V2.41963C26.4955 2.53974 26.243 2.60784 25.9747 2.60784C25.7111 2.60784 25.4627 2.54195 25.2452 2.42562V8.09709H25.2455Z" fill="#727271"/>
<path d="M31.4794 8.09709H32.9494V2.41963C32.7294 2.53974 32.4772 2.60784 32.2089 2.60784C31.9453 2.60784 31.6969 2.54195 31.4794 2.42562V8.09709V8.09709Z" fill="#727271"/>
<path fill-rule="evenodd" clip-rule="evenodd" d="M15.1216 7.00346C13.9359 5.81021 12.3795 5.06116 10.3868 4.58228C13.5431 2.13936 15.1216 0.91774 15.1216 0.91774C15.1216 4.97509 15.1216 7.00346 15.1216 7.00346V7.00346Z" fill="#FCEB08"/>
<path fill-rule="evenodd" clip-rule="evenodd" d="M25.9746 0.0454254C26.5336 0.0454254 26.9869 0.498765 26.9869 1.05771C26.9869 1.61667 26.5336 2.07 25.9746 2.07C25.4154 2.07 24.9623 1.61667 24.9623 1.05771C24.9623 0.498765 25.4157 0.0454254 25.9746 0.0454254V0.0454254Z" fill="#2AB5B2"/>
<path fill-rule="evenodd" clip-rule="evenodd" d="M32.2085 0.0454254C32.7675 0.0454254 33.2208 0.498765 33.2208 1.05771C33.2208 1.61667 32.7675 2.07 32.2085 2.07C31.6493 2.07 31.1962 1.61667 31.1962 1.05771C31.1962 0.498765 31.6496 0.0454254 32.2085 0.0454254V0.0454254Z" fill="#2AB5B2"/>
<path fill-rule="evenodd" clip-rule="evenodd" d="M15.1216 22.3325V19.5166C15.5491 19.6982 15.4741 19.6134 15.5094 19.5775C15.806 19.1799 15.9826 18.7203 16.039 18.1982V22.3328H15.1216V22.3325ZM15.1216 18.4955V11.6254V11.6251C15.1216 16.2875 15.1216 11.6251 15.1216 16.2875C15.1216 17.8287 15.1216 16.9545 15.1216 18.4955ZM15.1216 7.00346V0.917743C15.1216 7.00346 15.1216 1.83672 15.1216 7.00346ZM16.039 0.663961L16.0349 0.670897L16.0233 0.691388L16.0094 0.715663L15.9924 0.745613L15.9678 0.788172L15.9615 0.798891L15.8937 0.917428H16.039V2.37391C16.0223 2.06212 15.9009 1.70368 15.6755 1.29794L16.039 0.663961V0.663961ZM16.039 5.69798V16.6311C15.9413 15.0756 15.6374 13.5838 15.1276 12.1554C15.5642 10.2298 15.8678 8.07722 16.039 5.6983V5.69798ZM16.039 0.663961V0.917428H15.8937L15.9615 0.798891L15.9678 0.788172L15.9924 0.745613L16.0094 0.715663L16.0233 0.691388L16.0349 0.670897L16.039 0.663961V0.663961ZM13.6979 0.917428H0.000648293V-0.000285014H14.8647L13.6982 0.917428H13.6979ZM16.039 22.3322V23.2499H13.5835C13.2039 22.4848 12.6579 22.6698 11.9454 22.3322H16.039V22.3322ZM13.5835 23.2499C4.52805 23.2499 0.000648293 23.2499 0.000648293 23.2499V21.4075H0.604996H0.866659V21.8886C0.882737 21.836 0.900076 21.784 0.918361 21.7326V22.3322C4.14691 22.3322 7.58478 22.3322 10.9391 22.3322C10.7881 21.5674 10.5662 21.2881 9.72537 21.1528C9.92146 20.8335 10.0132 20.341 9.89845 19.9835C9.7692 19.5608 9.22128 19.0869 8.56302 18.7676C8.56302 18.7676 8.72727 18.1122 9.05577 16.8016C8.86094 16.6336 8.67084 16.481 8.47601 16.3398L8.59896 15.993L8.1699 15.8417L7.74115 15.6904L7.68566 15.8467C7.54569 15.7723 7.39941 15.7008 7.24462 15.6308L7.3373 15.4971L6.96373 15.2389L6.58983 14.9807L6.3764 15.2881C6.26921 15.2506 6.15793 15.2131 6.04254 15.1755C5.09804 16.324 4.57439 16.7957 4.57439 16.7957C4.27206 16.4249 3.68726 16.2165 3.23014 16.273C2.85782 16.3319 2.56715 16.5173 2.35782 16.8297C2.13273 17.2033 2.10057 17.592 2.26167 17.9952C1.3077 18.3278 0.959659 18.9429 0.918361 19.6752V17.6402C1.03217 17.5494 1.15638 17.4703 1.29131 17.4028C1.41079 15.772 3.02711 14.9892 4.49873 15.6904C4.49873 15.6904 4.81178 15.3493 5.23959 14.836C4.78435 14.574 3.02049 14.243 1.42056 13.9375C1.42056 13.9375 1.60909 13.6248 2.14471 12.8017C0.918361 11.9111 2.14471 12.8017 0.918361 11.9111V10.854V9.93976V9.93724C0.933493 9.9095 1.30297 9.56177 8.28339 5.17497C14.8647 -0.000915527 8.28339 5.17497 14.8647 -0.000915527C15.3801 -0.000915527 16.0393 -0.000915527 16.0393 -0.000915527C16.0393 0.441705 16.0393 0.663015 16.0393 0.663015C15.7969 1.08577 15.6758 1.29731 15.6758 1.29731C15.9019 1.70368 16.0229 2.06276 16.0393 2.37517C16.0393 4.58891 16.0393 5.69577 16.0393 5.69577C15.8682 8.07533 15.5646 10.2282 15.1279 12.1544C15.638 13.5835 15.9419 15.0759 16.0393 16.6317C16.0393 17.6746 16.0393 18.196 16.0393 18.196C15.9829 18.7187 15.8064 19.1787 15.5097 19.5765C15.4744 19.6125 15.5494 19.6973 15.1219 19.5157C13.185 18.6929 15.1973 19.5478 13.2603 18.7247C12.917 19.9142 13.2603 18.7247 12.917 19.9142C11.9952 19.2001 10.9836 18.1951 9.76289 17.3467C9.56428 17.975 9.46466 18.289 9.46466 18.289C9.99051 18.528 10.3527 18.8325 10.5526 19.203C10.8385 19.7411 10.9227 20.2619 10.8045 20.766C11.4691 21.0043 11.8496 21.6462 11.9457 22.3312C12.6582 22.6689 13.2042 22.4838 13.5838 23.249L13.5835 23.2499ZM0.60468 21.4075C0.531856 21.591 0.46975 21.783 0.419625 21.9832C0.46975 21.783 0.531856 21.591 0.60468 21.4075ZM0.918046 10.8546C2.59679 11.9864 0.932232 10.8641 2.59679 11.9864C6.80105 7.3288 2.59679 11.9864 6.92085 7.19324C0.918045 10.8546 0.918046 10.8546 0.918046 10.8546ZM0.000648293 20.231C-0.000297478 20.1632 -0.000297478 20.0967 0.000648293 20.0311V20.231ZM13.5576 17.8221C14.0349 16.3852 14.824 12.8146 15.1216 11.6248C15.1216 16.2871 15.1216 11.6248 15.1216 16.2871C15.1216 17.8284 15.1216 16.9542 15.1216 18.4952C15.1216 18.4952 15.0431 18.4615 13.5576 17.8221V17.8221ZM2.81368 13.3682C2.81368 13.3682 3.20776 12.7761 3.41583 12.5198C4.79697 10.7799 7.70269 7.12893 9.57437 5.30454C9.5069 5.29067 9.43912 5.2768 9.37008 5.26293C9.37008 5.26293 9.58981 5.00694 10.0293 4.49433C10.1513 4.52333 10.2701 4.55234 10.3865 4.58166L15.1213 0.917112C15.1213 7.00283 15.1213 1.83609 15.1213 7.00283C15.1765 7.05548 15.232 7.10939 15.2878 7.16487C15.3451 8.12861 15.3073 8.49589 15.1736 8.26669C15.1314 8.22067 15.0898 8.17527 15.0479 8.1305C14.7799 10.1989 13.8398 13.5989 13.2525 15.5993C13.1705 15.8798 12.4539 18.4079 12.4539 18.4079C10.4193 16.2859 6.80389 13.7645 2.81305 13.3679L2.81368 13.3682ZM15.2881 7.16519C15.3455 8.12893 15.3076 8.4962 15.174 8.26701C13.5847 6.52049 12.1519 5.81999 9.37008 5.26324C9.37008 5.26324 9.58981 5.00725 10.0293 4.49465C12.5378 5.09269 13.789 5.68222 15.2878 7.1655L15.2881 7.16519ZM8.59896 15.993L7.42526 19.3051C8.05514 19.6929 8.44007 20.2045 8.67116 20.7679C8.87229 21.2575 8.95047 21.8243 8.97349 22.3322H8.0646C8.04348 21.9274 7.98043 21.4775 7.831 21.1134C7.63806 20.6434 7.28875 20.2219 6.67274 19.9306L6.30074 19.7547L7.74083 15.6907L8.59896 15.9933V15.993ZM1.86287 22.3322C2.11508 21.3527 2.70271 20.6557 3.39723 20.3262C3.80296 20.1333 4.24464 20.0513 4.67685 20.0759C5.11254 20.1011 5.53876 20.2345 5.91045 20.4728C6.48075 20.8385 6.9199 21.4958 7.0624 22.3322H6.13523C6.01669 21.8489 5.75188 21.4517 5.41928 21.2383C5.18126 21.0857 4.90731 20.9999 4.62704 20.9838C4.34331 20.9674 4.05264 21.0217 3.78562 21.1484C3.37327 21.3442 3.01419 21.7669 2.814 22.3322H1.8635H1.86287ZM7.33699 15.4974L4.74432 19.2354L4.51071 19.2392C3.62579 19.254 2.80896 19.534 2.16299 20.04C1.59396 20.4854 1.10373 21.1109 0.866659 21.8886V21.4075H0.918361V19.9312C1.11792 19.7074 1.37422 19.5047 1.60404 19.3246C2.34647 18.7433 3.26545 18.4025 4.25914 18.341L6.58952 14.9813L7.33699 15.4974V15.4974ZM10.6094 7.46689C12.046 7.46689 13.2105 8.63145 13.2105 10.0681C13.2105 11.5047 12.046 12.6693 10.6094 12.6693C9.17241 12.6693 8.00817 11.5047 8.00817 10.0681C8.00817 8.63145 9.17273 7.46689 10.6094 7.46689V7.46689ZM10.6094 8.33384C11.5671 8.33384 12.3433 9.11032 12.3433 10.0681C12.3433 11.0258 11.5671 11.8023 10.6094 11.8023C9.6516 11.8023 8.87513 11.0258 8.87513 10.0681C8.87513 9.11032 9.65129 8.33384 10.6094 8.33384ZM0.000648293 0.917428H0.918046V21.4075H0.000648293V0.917428Z" fill="#727271"/>
<path d="M18.1928 9.70049H19.6291V10.2434C19.8249 10.0473 20.0516 9.89657 20.3076 9.79096C20.3962 9.75471 20.4857 9.72444 20.5762 9.70049H21.6682C21.7798 9.72917 21.8861 9.767 21.9869 9.81366C22.247 9.93441 22.4715 10.1226 22.6597 10.3789C22.9084 10.115 23.1723 9.92463 23.4513 9.80799C23.5566 9.76385 23.6685 9.72791 23.7867 9.70049H25.0159C25.0935 9.7194 25.1695 9.74178 25.2435 9.76827C25.4961 9.85874 25.7054 9.98674 25.8712 10.1529C26.1124 10.394 26.2801 10.6522 26.3744 10.9275C26.4686 11.2027 26.5156 11.5022 26.5156 11.8266V15.5923H25.0456V12.0302C25.0456 11.8266 25.0172 11.657 24.9608 11.5211C24.904 11.3855 24.8287 11.2761 24.7344 11.1932C24.6401 11.1103 24.5345 11.0501 24.4176 11.0123C24.3009 10.9744 24.1859 10.9558 24.0727 10.9558C23.9595 10.9558 23.8448 10.9748 23.7278 11.0123C23.6108 11.0501 23.5055 11.1084 23.411 11.1876C23.3167 11.2667 23.2395 11.3742 23.1792 11.5097C23.1187 11.6453 23.0888 11.8077 23.0888 11.9962V15.5923H21.6187V12.0302C21.6187 11.8266 21.5904 11.657 21.5339 11.5211C21.4772 11.3855 21.4021 11.2761 21.3076 11.1932C21.2133 11.1103 21.108 11.0501 20.9911 11.0123C20.8741 10.9744 20.759 10.9558 20.6462 10.9558C20.533 10.9558 20.4179 10.9748 20.3013 11.0123C20.1843 11.0501 20.0787 11.1103 19.9844 11.1932C19.8902 11.2761 19.8129 11.3855 19.7527 11.5211C19.6922 11.6567 19.6622 11.8263 19.6622 12.0302V15.5923H18.1922V9.70049H18.1928Z" fill="#727271"/>
<path d="M19.6292 9.70049V10.2434C19.8249 10.0473 20.0516 9.89658 20.3076 9.79097C20.5639 9.68535 20.8278 9.63271 21.0992 9.63271C21.4308 9.63271 21.7269 9.69292 21.987 9.81366C22.247 9.93441 22.4715 10.1226 22.6597 10.3789C22.9085 10.115 23.1723 9.92463 23.4513 9.80799C23.7303 9.69103 24.0544 9.63271 24.4236 9.63271C24.7177 9.63271 24.9907 9.67779 25.2432 9.76827C25.4958 9.85875 25.7051 9.98674 25.8709 10.1529C26.1121 10.3941 26.2798 10.6522 26.3741 10.9275C26.4683 11.2027 26.5153 11.5022 26.5153 11.8266V15.5923H25.0453V12.0302C25.0453 11.8266 25.0169 11.657 24.9605 11.5211C24.9037 11.3855 24.8284 11.2761 24.7341 11.1932C24.6398 11.1103 24.5342 11.0501 24.4173 11.0123C24.3006 10.9744 24.1856 10.9558 24.0724 10.9558C23.9592 10.9558 23.8444 10.9748 23.7275 11.0123C23.6105 11.0501 23.5052 11.1084 23.4107 11.1876C23.3164 11.2667 23.2392 11.3742 23.1789 11.5097C23.1184 11.6453 23.0885 11.8077 23.0885 11.9962V15.5923H21.6184V12.0302C21.6184 11.8266 21.59 11.657 21.5336 11.5211C21.4769 11.3855 21.4018 11.2761 21.3073 11.1932C21.213 11.1103 21.1077 11.0501 20.9907 11.0123C20.8738 10.9744 20.7587 10.9558 20.6459 10.9558C20.5327 10.9558 20.4176 10.9748 20.301 11.0123C20.184 11.0501 20.0784 11.1103 19.9841 11.1932C19.8899 11.2761 19.8126 11.3855 19.7524 11.5211C19.6919 11.6567 19.6619 11.8263 19.6619 12.0302V15.5923H18.1919V9.70049H19.6282H19.6292Z" fill="#727271"/>
<path d="M18.2909 18.5658H18.6434V16.7969H18.2909V18.5658Z" fill="white"/>
<path d="M19.0223 18.5658H19.3647V17.7518C19.3647 17.5866 19.4498 17.499 19.5737 17.499C19.6998 17.499 19.7751 17.5841 19.7751 17.7493V18.5658H20.1203V17.6475C20.1203 17.3656 19.9722 17.1881 19.7168 17.1881C19.5444 17.1881 19.4447 17.2878 19.3643 17.3994V17.2146H19.022V18.5655L19.0223 18.5658Z" fill="white"/>
<path d="M20.4438 18.5658H20.7862V17.7518C20.7862 17.5866 20.8713 17.499 20.9952 17.499C21.1216 17.499 21.1966 17.5841 21.1966 17.7493V18.5658H21.5418V17.6475C21.5418 17.3656 21.3937 17.1881 21.1383 17.1881C20.9659 17.1881 20.8662 17.2878 20.7859 17.3994V17.2146H20.4435V18.5655L20.4438 18.5658Z" fill="white"/>
<path d="M22.4435 18.5948C22.8054 18.5948 23.0753 18.3057 23.0753 17.9047V17.8779C23.0753 17.4747 22.8079 17.1878 22.446 17.1878C22.0841 17.1878 21.8095 17.482 21.8095 17.8801V17.9069C21.8095 18.3079 22.0791 18.5945 22.4435 18.5945V18.5948ZM22.446 18.296C22.271 18.296 22.1497 18.1235 22.1497 17.9V17.883C22.1497 17.6569 22.2591 17.487 22.4438 17.487C22.6188 17.487 22.7354 17.6595 22.7354 17.8855V17.9025C22.7354 18.1286 22.6285 18.2963 22.446 18.2963V18.296Z" fill="white"/>
<path d="M23.6458 18.5753H23.9668L24.4236 17.2149H24.0736L23.8088 18.1285L23.5465 17.2149H23.1868L23.6458 18.5753Z" fill="white"/>
<path d="M24.9362 18.5901C25.1014 18.5901 25.2105 18.522 25.2909 18.4151V18.5658H25.6288V17.7421C25.6288 17.5671 25.585 17.4312 25.4904 17.3363C25.4006 17.2465 25.2644 17.2001 25.0822 17.2001C24.8877 17.2001 24.754 17.2414 24.6254 17.307L24.7203 17.5766C24.8054 17.5403 24.905 17.5012 25.0336 17.5012C25.1988 17.5012 25.2937 17.5813 25.2937 17.7443V17.7881C25.2086 17.7566 25.1238 17.7323 25.0072 17.7323C24.7278 17.7323 24.5333 17.866 24.5333 18.1648V18.1793C24.5333 18.4416 24.713 18.5898 24.9365 18.5898L24.9362 18.5901ZM25.0478 18.3373C24.941 18.3347 24.8656 18.2764 24.8656 18.1598V18.155C24.8656 18.0286 24.9507 17.9583 25.0894 17.9583C25.167 17.9583 25.2423 17.9754 25.2981 18.0021V18.1213C25.2981 18.2499 25.1938 18.3398 25.0478 18.3376V18.3373Z" fill="white"/>
<path d="M26.3479 18.5876C26.4548 18.5876 26.5396 18.5582 26.6077 18.5195V18.2449C26.5614 18.2666 26.5106 18.2811 26.4548 18.2811C26.3744 18.2811 26.3356 18.2398 26.3356 18.1598V17.5062H26.6102V17.2146H26.3356V16.8647H25.993V17.2146H25.8546V17.5062H25.993V18.2304C25.993 18.5075 26.1436 18.5876 26.3479 18.5876Z" fill="white"/>
<path d="M26.8946 17.0592H27.254V16.7433H26.8946V17.0592ZM26.9018 18.5655H27.2467V17.2146H26.9018V18.5655Z" fill="white"/>
<path d="M28.1751 18.5948C28.537 18.5948 28.8066 18.3057 28.8066 17.9047V17.8779C28.8066 17.4747 28.5396 17.1878 28.1773 17.1878C27.8151 17.1878 27.5408 17.482 27.5408 17.8801V17.9069C27.5408 18.3079 27.8104 18.5945 28.1751 18.5945V18.5948ZM28.1777 18.296C28.0027 18.296 27.8813 18.1235 27.8813 17.9V17.883C27.8813 17.6569 27.9907 17.487 28.1754 17.487C28.3504 17.487 28.4671 17.6595 28.4671 17.8855V17.9025C28.4671 18.1286 28.3602 18.2963 28.178 18.2963L28.1777 18.296Z" fill="white"/>
<path d="M29.0884 18.5658H29.4311V17.7518C29.4311 17.5866 29.5162 17.499 29.6401 17.499C29.7662 17.499 29.8416 17.5841 29.8416 17.7493V18.5658H30.1868V17.6475C30.1868 17.3656 30.0386 17.1881 29.7833 17.1881C29.6108 17.1881 29.5112 17.2878 29.4311 17.3994V17.2146H29.0884V18.5655V18.5658Z" fill="white"/>
<path d="M31.6736 18.5948C31.8873 18.5948 32.021 18.5122 32.1304 18.3883L31.9481 18.1623C31.8728 18.2376 31.8047 18.2862 31.6978 18.2887C31.5131 18.2887 31.404 18.1286 31.404 17.895V17.8852C31.404 17.6591 31.5207 17.4965 31.6906 17.4965C31.8 17.4965 31.8706 17.5523 31.9384 17.6204L32.1256 17.3701C32.0115 17.2559 31.8804 17.1878 31.6859 17.1878C31.3214 17.1878 31.0616 17.482 31.0616 17.8801V17.9095C31.0616 18.3079 31.3145 18.5945 31.6739 18.5945L31.6736 18.5948Z" fill="white"/>
<path d="M32.9175 18.5948C33.1218 18.5948 33.2722 18.517 33.3961 18.3811L33.2186 18.1721C33.1338 18.2572 33.0462 18.3057 32.932 18.3057C32.7741 18.3057 32.6574 18.2112 32.6284 18.0192H33.445C33.4475 17.9681 33.4475 17.9268 33.4475 17.905C33.4475 17.504 33.2533 17.1885 32.874 17.1885C32.5364 17.1885 32.2861 17.4826 32.2861 17.8833V17.905C32.2861 18.3256 32.5607 18.5951 32.9178 18.5951L32.9175 18.5948ZM32.6259 17.7881C32.6455 17.5914 32.7378 17.4722 32.8737 17.4722C33.0172 17.4722 33.0972 17.5936 33.1143 17.7881H32.6256H32.6259Z" fill="white"/>
<path d="M33.7268 18.5658H34.0695V17.7518C34.0695 17.5866 34.1546 17.499 34.2785 17.499C34.4049 17.499 34.4803 17.5841 34.4803 17.7493V18.5658H34.8252V17.6475C34.8252 17.3656 34.677 17.1881 34.4216 17.1881C34.2492 17.1881 34.1496 17.2878 34.0695 17.3994V17.2146H33.7268V18.5655V18.5658Z" fill="white"/>
<path d="M35.5562 18.5876C35.6631 18.5876 35.7482 18.5582 35.816 18.5195V18.2449C35.77 18.2666 35.7189 18.2811 35.6631 18.2811C35.583 18.2811 35.5439 18.2398 35.5439 18.1598V17.5062H35.8185V17.2146H35.5439V16.8647H35.2016V17.2146H35.0632V17.5062H35.2016V18.2304C35.2016 18.5075 35.3523 18.5876 35.5562 18.5876V18.5876Z" fill="white"/>
<path d="M36.6376 18.5948C36.8419 18.5948 36.9922 18.517 37.1161 18.3811L36.9386 18.1721C36.8538 18.2572 36.7662 18.3057 36.6521 18.3057C36.4941 18.3057 36.3775 18.2112 36.3485 18.0192H37.165C37.1675 17.9681 37.1675 17.9268 37.1675 17.905C37.1675 17.504 36.9733 17.1885 36.5941 17.1885C36.2561 17.1885 36.0061 17.4826 36.0061 17.8833V17.905C36.0061 18.3256 36.2807 18.5951 36.6379 18.5951L36.6376 18.5948ZM36.346 17.7881C36.3655 17.5914 36.4579 17.4722 36.5937 17.4722C36.7372 17.4722 36.8173 17.5936 36.8343 17.7881H36.3456H36.346Z" fill="white"/>
<path d="M37.4465 18.5658H37.7889V17.9924C37.7889 17.7033 37.9251 17.5649 38.1486 17.5649H38.1631V17.1932C37.9689 17.1812 37.857 17.2928 37.7889 17.458V17.2149H37.4465V18.5658V18.5658Z" fill="white"/>
<path d="M18.8253 20.9334C19.1875 20.9334 19.457 20.6443 19.457 20.2433V20.2165C19.457 19.8133 19.1897 19.5264 18.8278 19.5264C18.4659 19.5264 18.1913 19.8205 18.1913 20.2187V20.2455C18.1913 20.6465 18.4608 20.9331 18.8253 20.9331V20.9334ZM18.8278 20.6345C18.6531 20.6345 18.5314 20.4621 18.5314 20.2386V20.2215C18.5314 19.9955 18.6408 19.8256 18.8253 19.8256C19.0002 19.8256 19.1169 19.998 19.1169 20.2241V20.2411C19.1169 20.4671 19.01 20.6348 18.8278 20.6348V20.6345Z" fill="white"/>
<path d="M19.7947 20.9044H20.1399V19.8451H20.4072V19.5633H20.1377V19.505C20.1377 19.4053 20.184 19.3568 20.2739 19.3568C20.325 19.3568 20.3612 19.364 20.4076 19.3811V19.0945C20.3492 19.0775 20.2837 19.0652 20.1888 19.0652C20.0598 19.0652 19.9627 19.0992 19.8972 19.1648C19.8291 19.2304 19.795 19.3325 19.795 19.4684V19.5633H19.6566V19.8451H19.795V20.9044H19.7947Z" fill="white"/>
<path d="M21.2332 19.3978H21.5926V19.0819H21.2332V19.3978ZM21.2405 20.9041H21.5854V19.5532H21.2405V20.9041Z" fill="white"/>
<path d="M21.9353 20.9044H22.2779V20.0904C22.2779 19.9252 22.3631 19.8376 22.4869 19.8376C22.6131 19.8376 22.6884 19.9227 22.6884 20.0879V20.9044H23.0336V19.986C23.0336 19.7042 22.8854 19.5267 22.6301 19.5267C22.4576 19.5267 22.358 19.6263 22.2776 19.7379V19.5532H21.9349V20.9041L21.9353 20.9044Z" fill="white"/>
<path d="M23.4101 20.9044H23.7553V19.8451H24.0226V19.5633H23.7531V19.505C23.7531 19.4053 23.7991 19.3568 23.8892 19.3568C23.9403 19.3568 23.9766 19.364 24.0229 19.3811V19.0945C23.9646 19.0775 23.899 19.0652 23.8041 19.0652C23.6752 19.0652 23.5781 19.0992 23.5125 19.1648C23.4444 19.2304 23.4104 19.3325 23.4104 19.4684V19.5633H23.272V19.8451H23.4104V20.9044H23.4101Z" fill="white"/>
<path d="M24.7902 20.9334C25.1525 20.9334 25.422 20.6443 25.422 20.2433V20.2165C25.422 19.8133 25.1547 19.5264 24.7928 19.5264C24.4308 19.5264 24.1562 19.8205 24.1562 20.2187V20.2455C24.1562 20.6465 24.4258 20.9331 24.7902 20.9331V20.9334ZM24.7928 20.6345C24.6181 20.6345 24.4964 20.4621 24.4964 20.2386V20.2215C24.4964 19.9955 24.6058 19.8256 24.7905 19.8256C24.9655 19.8256 25.0822 19.998 25.0822 20.2241V20.2411C25.0822 20.4671 24.9753 20.6348 24.7931 20.6348L24.7928 20.6345Z" fill="white"/>
<path d="M25.7039 20.9044H26.0462V20.3309C26.0462 20.0418 26.1824 19.9035 26.4059 19.9035H26.4204V19.5318C26.2259 19.5198 26.1143 19.6314 26.0462 19.7966V19.5535H25.7039V20.9044Z" fill="white"/>
<path d="M26.666 20.9044H27.0084V20.0904C27.0084 19.9252 27.0888 19.8376 27.2127 19.8376C27.3366 19.8376 27.4047 19.9227 27.4047 20.0879V20.9044H27.7499V20.0904C27.7499 19.9252 27.8274 19.8376 27.9513 19.8376C28.0752 19.8376 28.1455 19.9227 28.1455 20.0879V20.9044H28.4882V19.986C28.4882 19.6847 28.328 19.5267 28.0847 19.5267C27.917 19.5267 27.7956 19.6093 27.6985 19.7282C27.6329 19.6043 27.5213 19.5267 27.3634 19.5267C27.1909 19.5267 27.0888 19.6213 27.0084 19.7379V19.5532H26.666V20.9041V20.9044Z" fill="white"/>
<path d="M29.1467 20.9287C29.3119 20.9287 29.4213 20.8606 29.5014 20.7537V20.9044H29.8394V20.0806C29.8394 19.9057 29.7955 19.7698 29.701 19.6749C29.6111 19.585 29.4749 19.5387 29.2927 19.5387C29.0982 19.5387 28.9648 19.58 28.8359 19.6456L28.9305 19.9151C29.0156 19.8789 29.1152 19.8398 29.2442 19.8398C29.4094 19.8398 29.5039 19.9198 29.5039 20.0828V20.1266C29.4188 20.0951 29.3337 20.0708 29.217 20.0708C28.9377 20.0708 28.7435 20.2045 28.7435 20.5034V20.5179C28.7435 20.7802 28.9232 20.9283 29.1467 20.9283V20.9287ZM29.2587 20.6758C29.1518 20.6733 29.0761 20.615 29.0761 20.4983V20.4936C29.0761 20.3672 29.1612 20.2969 29.3 20.2969C29.3775 20.2969 29.4529 20.3139 29.5087 20.3407V20.4599C29.5087 20.5885 29.4043 20.6783 29.2587 20.6761V20.6758Z" fill="white"/>
<path d="M30.5585 20.9261C30.6654 20.9261 30.7505 20.8968 30.8186 20.858V20.5835C30.7726 20.6052 30.7215 20.6197 30.6657 20.6197C30.5853 20.6197 30.5465 20.5784 30.5465 20.4983V19.8448H30.8211V19.5532H30.5465V19.2033H30.2038V19.5532H30.0654V19.8448H30.2038V20.569C30.2038 20.8461 30.3545 20.9261 30.5585 20.9261Z" fill="white"/>
<path d="M31.1052 19.3978H31.4649V19.0819H31.1052V19.3978ZM31.1124 20.9041H31.4576V19.5532H31.1124V20.9041Z" fill="white"/>
<path d="M32.3854 20.9334C32.7476 20.9334 33.0172 20.6443 33.0172 20.2433V20.2165C33.0172 19.8133 32.7498 19.5264 32.3879 19.5264C32.026 19.5264 31.7514 19.8205 31.7514 20.2187V20.2455C31.7514 20.6465 32.0209 20.9331 32.3854 20.9331V20.9334ZM32.3879 20.6345C32.2133 20.6345 32.0916 20.4621 32.0916 20.2386V20.2215C32.0916 19.9955 32.201 19.8256 32.3857 19.8256C32.5607 19.8256 32.6773 19.998 32.6773 20.2241V20.2411C32.6773 20.4671 32.5704 20.6348 32.3882 20.6348L32.3879 20.6345Z" fill="white"/>
<path d="M33.299 20.9044H33.6414V20.0904C33.6414 19.9252 33.7265 19.8376 33.8504 19.8376C33.9768 19.8376 34.0519 19.9227 34.0519 20.0879V20.9044H34.3971V19.986C34.3971 19.7042 34.2489 19.5267 33.9935 19.5267C33.8211 19.5267 33.7215 19.6263 33.6411 19.7379V19.5532H33.2987V20.9041L33.299 20.9044Z" fill="white"/>
<path d="M35.6584 20.9287C35.8236 20.9287 35.933 20.8606 36.0131 20.7537V20.9044H36.351V20.0806C36.351 19.9057 36.3072 19.7698 36.2126 19.6749C36.1228 19.585 35.9866 19.5387 35.8044 19.5387C35.6098 19.5387 35.4765 19.58 35.3476 19.6456L35.4421 19.9151C35.5273 19.8789 35.6269 19.8398 35.7558 19.8398C35.921 19.8398 36.0159 19.9198 36.0159 20.0828V20.1266C35.9308 20.0951 35.8457 20.0708 35.729 20.0708C35.4497 20.0708 35.2552 20.2045 35.2552 20.5034V20.5179C35.2552 20.7802 35.4349 20.9283 35.6587 20.9283L35.6584 20.9287ZM35.7703 20.6758C35.6634 20.6733 35.5878 20.615 35.5878 20.4983V20.4936C35.5878 20.3672 35.6729 20.2969 35.8113 20.2969C35.8892 20.2969 35.9642 20.3139 36.0203 20.3407V20.4599C36.0203 20.5885 35.916 20.6783 35.7703 20.6761V20.6758Z" fill="white"/>
<path d="M36.6713 20.9044H37.014V20.0904C37.014 19.9252 37.0991 19.8376 37.223 19.8376C37.3494 19.8376 37.4248 19.9227 37.4248 20.0879V20.9044H37.7697V19.986C37.7697 19.7042 37.6215 19.5267 37.3662 19.5267C37.1937 19.5267 37.0941 19.6263 37.014 19.7379V19.5532H36.6713V20.9041V20.9044Z" fill="white"/>
<path d="M38.5594 20.9287C38.7416 20.9287 38.851 20.829 38.9311 20.7124V20.9044H39.2735V19.0797H38.9311V19.7332C38.851 19.6263 38.7416 19.5267 38.5594 19.5267C38.2873 19.5267 38.0417 19.7477 38.0417 20.2096V20.2483C38.0417 20.7099 38.2946 20.9287 38.5594 20.9287V20.9287ZM38.659 20.6273C38.5036 20.6273 38.387 20.4816 38.387 20.2411V20.2168C38.387 19.9763 38.5036 19.8281 38.659 19.8281C38.8144 19.8281 38.9361 19.9763 38.9361 20.2168V20.2411C38.9361 20.4769 38.8148 20.6273 38.659 20.6273Z" fill="white"/>
<path d="M18.2471 23.6244H18.5894V23.0633C18.6673 23.1654 18.7767 23.2672 18.9611 23.2672C19.2332 23.2672 19.4788 23.0462 19.4788 22.5869V22.5481C19.4788 22.0866 19.2332 21.8653 18.9611 21.8653C18.7789 21.8653 18.6695 21.9674 18.5894 22.0838V21.8918H18.2471V23.6241V23.6244ZM18.8618 22.9659C18.7086 22.9659 18.5847 22.8152 18.5847 22.5797V22.5554C18.5847 22.3149 18.7086 22.1667 18.8618 22.1667C19.0176 22.1667 19.1339 22.3149 19.1339 22.5554V22.5797C19.1339 22.8202 19.0172 22.9659 18.8618 22.9659Z" fill="white"/>
<path d="M20.3366 23.272C20.5409 23.272 20.6913 23.1941 20.8152 23.0582L20.6377 22.8492C20.5529 22.9343 20.4652 22.9829 20.3511 22.9829C20.1932 22.9829 20.0765 22.8883 20.0475 22.6963H20.864C20.8665 22.6452 20.8665 22.6039 20.8665 22.5822C20.8665 22.1812 20.6723 21.8656 20.2931 21.8656C19.9551 21.8656 19.7051 22.1597 19.7051 22.5604V22.5822C19.7051 23.0027 19.9797 23.2723 20.3369 23.2723L20.3366 23.272ZM20.045 22.4652C20.0642 22.2685 20.1569 22.1493 20.2928 22.1493C20.4362 22.1493 20.5163 22.2707 20.5333 22.4652H20.045Z" fill="white"/>
<path d="M21.6124 23.2672C21.7947 23.2672 21.9041 23.1676 21.9841 23.051V23.243H22.3265V21.4183H21.9841V22.0718C21.9037 21.9649 21.7947 21.8653 21.6124 21.8653C21.3404 21.8653 21.0948 22.0863 21.0948 22.5481V22.5869C21.0948 23.0485 21.3476 23.2672 21.6124 23.2672V23.2672ZM21.7121 22.9659C21.5566 22.9659 21.44 22.8202 21.44 22.5797V22.5554C21.44 22.3148 21.5566 22.1667 21.7121 22.1667C21.8675 22.1667 21.9892 22.3148 21.9892 22.5554V22.5797C21.9892 22.8155 21.8678 22.9659 21.7121 22.9659Z" fill="white"/>
<path d="M22.9923 23.2672C23.1575 23.2672 23.2669 23.1991 23.347 23.0923V23.243H23.6846V22.4192C23.6846 22.2442 23.6408 22.1084 23.5462 22.0135C23.4564 21.9236 23.3202 21.8773 23.138 21.8773C22.9438 21.8773 22.8101 21.9186 22.6812 21.9841L22.7761 22.2537C22.8612 22.2174 22.9608 22.1783 23.0894 22.1783C23.2546 22.1783 23.3495 22.2584 23.3495 22.4214V22.4652C23.2644 22.4337 23.1793 22.4094 23.0626 22.4094C22.7833 22.4094 22.5888 22.5431 22.5888 22.842V22.8565C22.5888 23.1188 22.7688 23.2669 22.992 23.2669L22.9923 23.2672ZM23.1043 23.0144C22.9974 23.0119 22.922 22.9536 22.922 22.8369V22.8322C22.922 22.7058 23.0072 22.6355 23.1455 22.6355C23.2234 22.6355 23.2984 22.6525 23.3546 22.6793V22.7985C23.3546 22.9271 23.2499 23.0169 23.1043 23.0147V23.0144Z" fill="white"/>
<path d="M24.5254 23.6292C24.7562 23.6292 24.9239 23.5759 25.0333 23.469C25.1354 23.3669 25.1862 23.2114 25.1862 23.0024V21.8921H24.8438V22.0718C24.754 21.9624 24.6518 21.8653 24.4623 21.8653C24.2001 21.8653 23.9545 22.0718 23.9545 22.4993V22.5065C23.9545 22.9318 24.1953 23.143 24.4623 23.143C24.6471 23.143 24.7514 23.0481 24.8463 22.9242V23.0191C24.8463 23.2376 24.7322 23.347 24.5062 23.347C24.3605 23.347 24.2291 23.3104 24.1197 23.2449L24.0106 23.5122C24.1685 23.5875 24.3337 23.6288 24.5257 23.6288L24.5254 23.6292ZM24.5717 22.847C24.4163 22.847 24.2997 22.7181 24.2997 22.5043V22.5018C24.2997 22.2953 24.4163 22.1616 24.5717 22.1616C24.7272 22.1616 24.8489 22.2953 24.8489 22.5018V22.5043C24.8489 22.7108 24.7275 22.847 24.5717 22.847Z" fill="white"/>
<path d="M26.0998 23.272C26.4617 23.272 26.7313 22.9829 26.7313 22.5819V22.5551C26.7313 22.1519 26.4639 21.865 26.102 21.865C25.7398 21.865 25.4655 22.1591 25.4655 22.5573V22.5841C25.4655 22.9851 25.7351 23.2717 26.0998 23.2717V23.272ZM26.1023 22.9731C25.9274 22.9731 25.806 22.8007 25.806 22.5771V22.5601C25.806 22.3341 25.9154 22.1642 26.1001 22.1642C26.2751 22.1642 26.3917 22.3366 26.3917 22.5626V22.5797C26.3917 22.8057 26.2849 22.9734 26.1026 22.9734L26.1023 22.9731Z" fill="white"/>
<path d="M27.5333 23.6292C27.764 23.6292 27.9317 23.5759 28.0411 23.469C28.1433 23.3669 28.1944 23.2114 28.1944 23.0024V21.8921H27.8517V22.0718C27.7618 21.9624 27.6597 21.8653 27.4702 21.8653C27.2079 21.8653 26.9626 22.0718 26.9626 22.4993V22.5065C26.9626 22.9318 27.2032 23.143 27.4702 23.143C27.6549 23.143 27.7596 23.0481 27.8542 22.9242V23.0191C27.8542 23.2376 27.7401 23.347 27.5143 23.347C27.3687 23.347 27.2372 23.3104 27.1278 23.2449L27.0184 23.5122C27.1764 23.5875 27.3419 23.6288 27.5336 23.6288L27.5333 23.6292ZM27.5796 22.847C27.4242 22.847 27.3075 22.7181 27.3075 22.5043V22.5018C27.3075 22.2953 27.4242 22.1616 27.5796 22.1616C27.7353 22.1616 27.8567 22.2953 27.8567 22.5018V22.5043C27.8567 22.7108 27.7353 22.847 27.5796 22.847Z" fill="white"/>
<path d="M28.5342 21.7367H28.8939V21.4208H28.5342V21.7367ZM28.5415 23.243H28.8867V21.8921H28.5415V23.243Z" fill="white"/>
<path d="M29.7931 23.272C30.0068 23.272 30.1405 23.1894 30.2499 23.0655L30.0677 22.8394C29.9923 22.9148 29.9242 22.9633 29.8173 22.9659C29.6326 22.9659 29.5235 22.8057 29.5235 22.5721V22.5623C29.5235 22.3363 29.6402 22.1736 29.8101 22.1736C29.9195 22.1736 29.9901 22.2294 30.0579 22.2975L30.2451 22.0472C30.131 21.9331 29.9999 21.865 29.8054 21.865C29.4409 21.865 29.1812 22.1591 29.1812 22.5573V22.5866C29.1812 22.9851 29.434 23.2717 29.7934 23.2717L29.7931 23.272Z" fill="white"/>
<path d="M30.8255 23.2672C30.9907 23.2672 31.1001 23.1991 31.1802 23.0923V23.243H31.5181V22.4192C31.5181 22.2442 31.4743 22.1084 31.3797 22.0135C31.2899 21.9236 31.1537 21.8773 30.9715 21.8773C30.777 21.8773 30.6436 21.9186 30.5147 21.9841L30.6092 22.2537C30.6944 22.2174 30.794 22.1783 30.9229 22.1783C31.0881 22.1783 31.1827 22.2584 31.1827 22.4214V22.4652C31.0976 22.4337 31.0125 22.4094 30.8958 22.4094C30.6165 22.4094 30.4223 22.5431 30.4223 22.842V22.8565C30.4223 23.1188 30.602 23.2669 30.8255 23.2669V23.2672ZM30.9374 23.0144C30.8306 23.0119 30.7549 22.9536 30.7549 22.8369V22.8322C30.7549 22.7058 30.84 22.6355 30.9787 22.6355C31.0563 22.6355 31.1316 22.6525 31.1874 22.6793V22.7985C31.1874 22.9271 31.0831 23.0169 30.9374 23.0147V23.0144Z" fill="white"/>
<path d="M31.8507 23.243H32.1959V21.4183H31.8507V23.243Z" fill="white"/>
<path d="M33.5639 23.2647C33.6707 23.2647 33.7559 23.2354 33.8236 23.1966V22.922C33.7776 22.9438 33.7265 22.9583 33.6707 22.9583C33.5907 22.9583 33.5516 22.917 33.5516 22.8369V22.1834H33.8262V21.8918H33.5516V21.5418H33.2092V21.8918H33.0708V22.1834H33.2092V22.9075C33.2092 23.1846 33.3599 23.2647 33.5639 23.2647V23.2647Z" fill="white"/>
<path d="M34.6448 23.272C34.8491 23.272 34.9995 23.1941 35.1234 23.0582L34.9459 22.8492C34.8611 22.9343 34.7735 22.9829 34.6593 22.9829C34.5014 22.9829 34.3847 22.8883 34.3557 22.6963H35.1723C35.1748 22.6452 35.1748 22.6039 35.1748 22.5822C35.1748 22.1812 34.9806 21.8656 34.6013 21.8656C34.2637 21.8656 34.0134 22.1597 34.0134 22.5604V22.5822C34.0134 23.0027 34.288 23.2723 34.6451 23.2723L34.6448 23.272ZM34.3532 22.4652C34.3728 22.2685 34.4651 22.1493 34.601 22.1493C34.7444 22.1493 34.8245 22.2707 34.8415 22.4652H34.3529H34.3532Z" fill="white"/>
<path d="M36.0105 23.272C36.2243 23.272 36.358 23.1894 36.4674 23.0655L36.2851 22.8394C36.2098 22.9148 36.1417 22.9633 36.0348 22.9659C35.8501 22.9659 35.741 22.8057 35.741 22.5721V22.5623C35.741 22.3363 35.8576 22.1736 36.0276 22.1736C36.137 22.1736 36.2076 22.2294 36.2754 22.2975L36.4623 22.0472C36.3482 21.9331 36.217 21.865 36.0225 21.865C35.6581 21.865 35.3983 22.1591 35.3983 22.5573V22.5866C35.3983 22.9851 35.6512 23.2717 36.0105 23.2717V23.272Z" fill="white"/>
<path d="M36.7148 23.243H37.0575V22.429C37.0575 22.2638 37.1426 22.1761 37.2665 22.1761C37.393 22.1761 37.4683 22.2613 37.4683 22.4264V23.243H37.8132V22.3246C37.8132 22.0428 37.665 21.8653 37.4097 21.8653C37.2372 21.8653 37.1376 21.9649 37.0575 22.0765V21.4183H36.7148V23.243V23.243Z" fill="white"/>
<path d="M38.1363 23.243H38.4787V22.429C38.4787 22.2638 38.5638 22.1761 38.6877 22.1761C38.8138 22.1761 38.8891 22.2613 38.8891 22.4265V23.243H39.2343V22.3246C39.2343 22.0428 39.0862 21.8653 38.8308 21.8653C38.6584 21.8653 38.5587 21.9649 38.4784 22.0765V21.8918H38.136V23.2427L38.1363 23.243Z" fill="white"/>
<path d="M40.136 23.272C40.4982 23.272 40.7678 22.9829 40.7678 22.5819V22.5551C40.7678 22.1519 40.5004 21.865 40.1385 21.865C39.7766 21.865 39.502 22.1591 39.502 22.5573V22.5841C39.502 22.9851 39.7716 23.2717 40.136 23.2717V23.272ZM40.1385 22.9731C39.9639 22.9731 39.8422 22.8007 39.8422 22.5771V22.5601C39.8422 22.3341 39.9516 22.1642 40.136 22.1642C40.311 22.1642 40.4276 22.3366 40.4276 22.5626V22.5797C40.4276 22.8057 40.3207 22.9734 40.1385 22.9734V22.9731Z" fill="white"/>
<path d="M41.0619 23.243H41.4068V21.4183H41.0619V23.243Z" fill="white"/>
<path d="M42.3349 23.272C42.6968 23.272 42.9664 22.9829 42.9664 22.5819V22.5551C42.9664 22.1519 42.6994 21.865 42.3371 21.865C41.9749 21.865 41.7006 22.1591 41.7006 22.5573V22.5841C41.7006 22.9851 41.9702 23.2717 42.3349 23.2717V23.272ZM42.3374 22.9731C42.1625 22.9731 42.0411 22.8007 42.0411 22.5771V22.5601C42.0411 22.3341 42.1505 22.1642 42.3352 22.1642C42.5102 22.1642 42.6268 22.3366 42.6268 22.5626V22.5797C42.6268 22.8057 42.52 22.9734 42.3378 22.9734L42.3374 22.9731Z" fill="white"/>
<path d="M43.7684 23.6292C43.9991 23.6292 44.1669 23.5759 44.2763 23.469C44.3784 23.3669 44.4292 23.2114 44.4292 23.0024V21.8921H44.0868V22.0718C43.9969 21.9624 43.8948 21.8653 43.7053 21.8653C43.443 21.8653 43.1974 22.0718 43.1974 22.4993V22.5065C43.1974 22.9318 43.4383 23.143 43.7053 23.143C43.8901 23.143 43.9944 23.0481 44.0893 22.9242V23.0191C44.0893 23.2376 43.9752 23.347 43.7491 23.347C43.6035 23.347 43.472 23.3104 43.3626 23.2449L43.2536 23.5122C43.4115 23.5875 43.5767 23.6288 43.7687 23.6288L43.7684 23.6292ZM43.8147 22.847C43.6593 22.847 43.5427 22.7181 43.5427 22.5043V22.5018C43.5427 22.2953 43.6593 22.1616 43.8147 22.1616C43.9701 22.1616 44.0918 22.2953 44.0918 22.5018V22.5043C44.0918 22.7108 43.9705 22.847 43.8147 22.847Z" fill="white"/>
<path d="M44.7693 21.7367H45.129V21.4208H44.7693V21.7367ZM44.7765 23.243H45.1214V21.8921H44.7765V23.243Z" fill="white"/>
<path d="M46.0449 23.272C46.2488 23.272 46.3995 23.1941 46.5234 23.0582L46.3462 22.8492C46.2611 22.9343 46.1738 22.9829 46.0597 22.9829C45.9017 22.9829 45.7851 22.8883 45.7561 22.6963H46.5723C46.5748 22.6452 46.5748 22.6039 46.5748 22.5822C46.5748 22.1812 46.3806 21.8656 46.0013 21.8656C45.6637 21.8656 45.4134 22.1597 45.4134 22.5604V22.5822C45.4134 23.0027 45.688 23.2723 46.0452 23.2723L46.0449 23.272ZM45.7532 22.4652C45.7728 22.2685 45.8648 22.1493 46.001 22.1493C46.1445 22.1493 46.2245 22.2707 46.2416 22.4652H45.7532Z" fill="white"/>
<path d="M47.2573 23.2672C47.5269 23.2672 47.7312 23.1263 47.7312 22.8492V22.8442C47.7312 22.6304 47.5732 22.5355 47.3714 22.4384C47.2258 22.3729 47.1236 22.3316 47.1236 22.2562V22.2515C47.1236 22.1957 47.1722 22.1493 47.262 22.1493C47.3591 22.1493 47.4685 22.1979 47.5732 22.266L47.7116 22.0182C47.5757 21.9236 47.4153 21.87 47.2671 21.87C47.007 21.87 46.8078 22.0254 46.8078 22.2805V22.2855C46.8078 22.5138 46.9704 22.6087 47.1649 22.6938C47.3131 22.7594 47.4153 22.7934 47.4153 22.8735V22.8782C47.4153 22.9391 47.3689 22.9901 47.2646 22.9901C47.1504 22.9901 47.024 22.9318 46.9001 22.8369L46.7498 23.08C46.9124 23.2162 47.0994 23.2669 47.2573 23.2669V23.2672Z" fill="white"/>
</g>
<defs>
<clipPath id="clip0">
<rect width="50.4414" height="23.6292" fill="white"/>
</clipPath>
</defs>
</svg>
