<svg width="214" height="230" viewBox="0 0 214 230" fill="none" xmlns="http://www.w3.org/2000/svg">
<path d="M204.908 1H9.0916C4.62273 1 1 4.61983 1 9.08511V220.915C1 225.38 4.62273 229 9.0916 229H204.908C209.377 229 213 225.38 213 220.915V9.08511C213 4.61983 209.377 1 204.908 1Z" fill="#1CD8C7" stroke="white" stroke-dasharray="4 2"/>
<path fill-rule="evenodd" clip-rule="evenodd" d="M100.474 169.956C111.43 173.613 120.755 181.47 137.263 189.246C155.912 197.969 180.255 182.117 188.394 173.063C196.532 164.008 208.478 150.269 198.994 120.783C191.898 100.279 179.388 80.3734 154.722 62.9037C133.216 48.0313 109.618 44.9889 88.6261 47.9666C67.634 50.9443 35.317 59.0926 21.906 80.333C8.49496 101.573 5.81583 126.285 27.5183 152.526C36.6521 162.438 50.4985 172.003 63.6837 172.448C76.869 172.893 90.0818 166.517 100.474 169.956Z" fill="#30EDDC"/>
<path opacity="0.2" d="M107 156.176C127.11 156.176 143.412 139.873 143.412 119.763C143.412 99.6534 127.11 83.3511 107 83.3511C86.8902 83.3511 70.5879 99.6534 70.5879 119.763C70.5879 139.873 86.8902 156.176 107 156.176Z" stroke="#128B83"/>
<path opacity="0.2" d="M107 181.26C140.963 181.26 168.496 153.727 168.496 119.763C168.496 85.8 140.963 58.2672 107 58.2672C73.0367 58.2672 45.5039 85.8 45.5039 119.763C45.5039 153.727 73.0367 181.26 107 181.26Z" stroke="#128B83"/>
<path opacity="0.2" d="M107.406 206.344C154.999 206.344 193.582 167.761 193.582 120.168C193.582 72.5745 154.999 33.9924 107.406 33.9924C59.8126 33.9924 21.2305 72.5745 21.2305 120.168C21.2305 167.761 59.8126 206.344 107.406 206.344Z" stroke="#128B83"/>
<path d="M124.802 208.771C127.036 208.771 128.847 206.96 128.847 204.725C128.847 202.491 127.036 200.679 124.802 200.679C122.567 200.679 120.756 202.491 120.756 204.725C120.756 206.96 122.567 208.771 124.802 208.771Z" fill="#FDEC00"/>
<path d="M30.1306 85.7786C31.4713 85.7786 32.5581 84.6918 32.5581 83.3512C32.5581 82.0105 31.4713 80.9237 30.1306 80.9237C28.7899 80.9237 27.7031 82.0105 27.7031 83.3512C27.7031 84.6918 28.7899 85.7786 30.1306 85.7786Z" fill="#FDEC00"/>
<path d="M167.687 131.092C169.028 131.092 170.115 130.005 170.115 128.664C170.115 127.323 169.028 126.237 167.687 126.237C166.347 126.237 165.26 127.323 165.26 128.664C165.26 130.005 166.347 131.092 167.687 131.092Z" fill="#128B83"/>
<path d="M148.214 64.4411C154.303 64.4411 159.239 59.5051 159.239 53.4163C159.239 47.3274 154.303 42.3914 148.214 42.3914C142.125 42.3914 137.189 47.3274 137.189 53.4163C137.189 59.5051 142.125 64.4411 148.214 64.4411Z" fill="#FDEC00"/>
<path fill-rule="evenodd" clip-rule="evenodd" d="M148.217 64.7405C146.367 64.7397 144.546 64.2866 142.913 63.4206C141.279 62.5547 139.881 61.3021 138.842 59.7722C138.56 59.3767 138.313 58.9571 138.105 58.5181C136.993 56.3162 136.63 53.8116 137.072 51.3849C137.513 48.9581 138.734 46.7417 140.55 45.0724C142.366 43.4031 144.677 42.3721 147.133 42.136C149.588 41.8999 152.053 42.4715 154.154 43.7642C156.254 45.0569 157.876 46.9999 158.772 49.2981C159.667 51.5962 159.789 54.124 159.117 56.4973C158.445 58.8707 157.017 60.9599 155.05 62.4477C153.082 63.9355 150.683 64.7405 148.217 64.7405ZM150.134 63.8342C151.337 63.6112 152.492 63.1815 153.548 62.5639C153.385 62.1753 153.092 61.8553 152.719 61.6584C152.347 61.4615 151.918 61.3997 151.504 61.4837C151.091 61.5676 150.72 61.792 150.454 62.1188C150.188 62.4455 150.043 62.8544 150.045 63.2758C150.045 63.4654 150.075 63.6537 150.133 63.8342H150.134ZM137.804 51.4379C138.022 51.5642 138.269 51.6312 138.521 51.6321C138.893 51.6323 139.25 51.4913 139.521 51.2378C139.792 50.9843 139.957 50.6372 139.982 50.2668C140.007 49.8964 139.89 49.5304 139.655 49.243C139.42 48.9557 139.084 48.7683 138.716 48.719C138.29 49.5795 137.982 50.4943 137.804 51.4379H137.804ZM147.91 42.8203C148.04 43.0396 148.224 43.2213 148.446 43.3476C148.667 43.4739 148.917 43.5403 149.172 43.5405C149.386 43.5411 149.598 43.4941 149.792 43.4032C149.985 43.3123 150.157 43.1796 150.293 43.0145C149.609 42.8812 148.914 42.8135 148.217 42.8122C148.114 42.8122 148.011 42.8122 147.909 42.8203H147.91ZM151.056 43.2006C150.847 43.5555 150.541 43.844 150.175 44.0331C149.809 44.2222 149.397 44.3041 148.987 44.2694C148.576 44.2348 148.184 44.085 147.855 43.8372C147.525 43.5894 147.273 43.2538 147.126 42.8688C145.473 43.0428 143.884 43.6019 142.487 44.5013C141.089 45.4007 139.922 46.6152 139.08 48.0475C139.369 48.1251 139.638 48.2611 139.873 48.4469C140.107 48.6328 140.301 48.8646 140.443 49.1282C140.584 49.3918 140.67 49.6816 140.696 49.9797C140.721 50.2778 140.685 50.5779 140.59 50.8616C140.495 51.1452 140.343 51.4064 140.143 51.6291C139.943 51.8519 139.7 52.0315 139.429 52.1567C139.157 52.2819 138.862 52.3502 138.563 52.3574C138.264 52.3646 137.967 52.3105 137.689 52.1985C137.472 54.0834 137.765 55.9919 138.537 57.725C138.686 58.0325 139.405 59.2463 139.479 59.3919C139.483 59.4024 139.487 59.4133 139.49 59.4243C140.464 60.8388 141.767 61.9954 143.287 62.7946C144.808 63.5938 146.499 64.0117 148.217 64.0122C148.614 64.0084 149.01 63.9842 149.405 63.9394C149.237 63.3242 149.306 62.6685 149.597 62.1014C149.889 61.5343 150.382 61.097 150.981 60.8757C151.579 60.6544 152.238 60.6651 152.828 60.9056C153.419 61.1462 153.898 61.5992 154.171 62.1754C155.842 61.0387 157.153 59.4481 157.95 57.591C158.747 55.7339 158.996 53.6877 158.669 51.6935C158.341 49.6994 157.451 47.8404 156.102 46.3357C154.753 44.831 153.002 43.7433 151.055 43.2006H151.056ZM155.526 54.1405C155.092 54.1405 154.668 54.0118 154.308 53.7709C153.947 53.5299 153.666 53.1875 153.5 52.7868C153.334 52.3861 153.29 51.9452 153.375 51.5198C153.46 51.0944 153.669 50.7037 153.975 50.397C154.282 50.0903 154.673 49.8816 155.098 49.797C155.523 49.7124 155.964 49.7557 156.365 49.9217C156.766 50.0877 157.108 50.3688 157.349 50.7294C157.59 51.09 157.719 51.5139 157.719 51.9476C157.719 52.2356 157.662 52.5209 157.552 52.787C157.441 53.0531 157.28 53.2948 157.076 53.4984C156.872 53.7021 156.631 53.8636 156.364 53.9737C156.098 54.0839 155.813 54.1406 155.525 54.1405H155.526ZM155.526 50.4912C155.237 50.4913 154.954 50.5772 154.714 50.738C154.474 50.8988 154.287 51.1271 154.177 51.3942C154.066 51.6614 154.038 51.9552 154.095 52.2386C154.151 52.5219 154.291 52.7821 154.496 52.9861C154.7 53.1901 154.961 53.3288 155.244 53.3847C155.528 53.4405 155.822 53.411 156.089 53.2998C156.355 53.1886 156.583 53.0008 156.743 52.7601C156.903 52.5194 156.988 52.2366 156.987 51.9476C156.986 51.5608 156.831 51.1903 156.557 50.9174C156.283 50.6444 155.912 50.4911 155.525 50.4912H155.526ZM154.064 57.4337H153.335V56.6974H154.064V57.4337ZM152.602 47.1978H153.331V47.9261H152.602V47.1978ZM150.045 54.8687C149.829 54.8681 149.618 54.8035 149.439 54.683C149.259 54.5626 149.12 54.3918 149.038 54.1921C148.955 53.9925 148.934 53.7729 148.977 53.5613C149.019 53.3496 149.124 53.1552 149.276 53.0028C149.429 52.8503 149.624 52.7466 149.836 52.7047C150.048 52.6628 150.267 52.6846 150.467 52.7674C150.666 52.8502 150.836 52.9902 150.956 53.1698C151.076 53.3494 151.14 53.5604 151.14 53.7763C151.14 53.9201 151.112 54.0624 151.056 54.1952C151.001 54.3279 150.92 54.4485 150.819 54.55C150.717 54.6515 150.596 54.7318 150.463 54.7865C150.33 54.8412 150.187 54.8692 150.044 54.8687H150.045ZM150.045 53.4122C149.973 53.4124 149.902 53.4338 149.842 53.4739C149.783 53.5141 149.736 53.571 149.709 53.6375C149.681 53.7041 149.674 53.7773 149.688 53.8479C149.702 53.9185 149.737 53.9833 149.788 54.0341C149.839 54.0849 149.904 54.1196 149.975 54.1336C150.045 54.1475 150.118 54.1402 150.185 54.1126C150.251 54.085 150.308 54.0384 150.348 53.9786C150.388 53.9187 150.409 53.8483 150.409 53.7763C150.409 53.7283 150.4 53.6809 150.382 53.6366C150.363 53.5923 150.336 53.5521 150.302 53.5183C150.268 53.4845 150.228 53.4577 150.184 53.4395C150.139 53.4213 150.092 53.412 150.044 53.4122H150.045ZM150.773 57.0615H150.045V56.3333H150.773V57.0615ZM147.484 62.1835H148.217V62.9117H147.488V62.1835H147.484ZM146.023 58.162H146.751V58.8902H146.023V58.162ZM145.174 53.0885C145.037 53.1398 144.891 53.163 144.745 53.157C144.599 53.1509 144.455 53.1156 144.323 53.0532C144.19 52.9907 144.072 52.9024 143.974 52.7934C143.877 52.6844 143.802 52.5569 143.754 52.4185C143.707 52.2801 143.687 52.1336 143.697 51.9876C143.707 51.8416 143.747 51.699 143.812 51.5684C143.878 51.4378 143.97 51.3217 144.081 51.227C144.193 51.1323 144.322 51.061 144.462 51.0171C144.599 50.9666 144.745 50.944 144.89 50.9506C145.036 50.9571 145.179 50.9926 145.311 51.0552C145.443 51.1177 145.561 51.206 145.658 51.3147C145.755 51.4235 145.83 51.5505 145.877 51.6885C145.925 51.8264 145.944 51.9725 145.934 52.1181C145.925 52.2636 145.886 52.4058 145.821 52.5362C145.755 52.6666 145.664 52.7827 145.553 52.8775C145.443 52.9724 145.314 53.0441 145.175 53.0885H145.174ZM145.164 51.9315C145.141 51.8629 145.098 51.8028 145.041 51.7586C144.983 51.7145 144.914 51.6883 144.842 51.6835C144.77 51.6786 144.698 51.6953 144.635 51.7314C144.573 51.7675 144.522 51.8213 144.49 51.8861C144.458 51.951 144.446 52.0239 144.456 52.0955C144.465 52.1672 144.496 52.2344 144.544 52.2887C144.592 52.3429 144.654 52.3818 144.724 52.4003C144.794 52.4188 144.868 52.4162 144.936 52.3927C144.982 52.3774 145.023 52.3534 145.059 52.3219C145.095 52.2905 145.125 52.2523 145.146 52.2094C145.167 52.1666 145.18 52.1199 145.183 52.0722C145.186 52.0245 145.18 51.9767 145.165 51.9315H145.164ZM143.464 44.6409H144.193V45.3692H143.464V44.6409ZM143.823 48.6867L143.13 48.9213L142.893 48.2336L143.585 47.9909L143.823 48.6867ZM141.705 53.1209L142.397 52.8781L142.634 53.574L141.942 53.8087L141.705 53.1209ZM143.1 56.6974C143.316 56.6974 143.528 56.7616 143.708 56.8819C143.888 57.0022 144.029 57.1732 144.112 57.3733C144.195 57.5734 144.217 57.7936 144.175 58.0062C144.133 58.2188 144.029 58.4141 143.876 58.5676C143.723 58.7211 143.528 58.8259 143.316 58.8687C143.103 58.9115 142.883 58.8903 142.683 58.808C142.482 58.7256 142.311 58.5856 142.19 58.4059C142.069 58.2261 142.004 58.0146 142.003 57.7979C142.003 57.5065 142.118 57.227 142.324 57.0206C142.53 56.8143 142.809 56.6981 143.1 56.6974H143.1ZM143.1 58.162C143.171 58.1617 143.242 58.1401 143.301 58.0998C143.361 58.0596 143.407 58.0026 143.435 57.9361C143.462 57.8695 143.469 57.7963 143.455 57.7258C143.441 57.6553 143.406 57.5906 143.355 57.5398C143.304 57.489 143.239 57.4545 143.168 57.4406C143.098 57.4267 143.025 57.434 142.958 57.4616C142.892 57.4892 142.835 57.5359 142.795 57.5957C142.755 57.6555 142.734 57.7259 142.734 57.7979C142.734 57.8459 142.743 57.8934 142.762 57.9378C142.78 57.9821 142.807 58.0223 142.841 58.0562C142.875 58.09 142.916 58.1169 142.96 58.135C143.005 58.1532 143.052 58.1623 143.1 58.162H143.1Z" fill="#006460"/>
<g clip-path="url(#clip0)">
<path d="M115.456 118.074H104.242L88.0154 121.022L62.0742 133.937V163.347C62.0742 164.521 63.0285 165.473 64.2026 165.473H115.456L120.474 162.269V127.057L115.456 118.074Z" fill="#FCCD7F"/>
<path d="M146.845 121.022H126.377L122.938 118.073H115.455V121.022V165.005V165.473H125.661V164.538H142.762V165.473H149.782C150.958 165.473 151.91 164.521 151.91 163.347V134.376V129.364L146.845 121.022Z" fill="#FDD79B"/>
<path d="M115.456 118.074H104.242L88.0154 121.022L68.5354 130.72L62.0742 133.937V163.347C62.0742 164.521 63.0261 165.474 64.2005 165.474H73.0208C71.8468 165.474 70.8925 164.521 70.8925 163.347V145.601C70.8925 141.968 73.8372 139.024 77.4698 139.024H103.246C105.103 139.024 106.873 138.133 107.978 136.646L118.175 122.941L115.456 118.074Z" fill="#FBC56D"/>
<path d="M126.379 121.022L122.94 118.073H115.457V121.022V126.596L122.931 136.642C124.038 138.133 125.808 139.023 127.666 139.023H151.912V134.376V129.364L146.847 121.022H126.379Z" fill="#FCCD7F"/>
<path d="M156.944 132.638C157.343 133.176 156.96 133.937 156.293 133.937H127.666C127.409 133.937 127.167 133.814 127.014 133.609L115.457 118.074H145.8C145.994 118.074 146.177 118.165 146.293 118.321L156.944 132.638Z" fill="#FDDEB0"/>
<path d="M156.111 131.519L156.944 132.638C157.343 133.176 156.96 133.937 156.293 133.937H127.666C127.409 133.937 127.167 133.814 127.014 133.609L115.457 118.074H120.404L129.09 129.701C129.942 130.842 131.281 131.513 132.705 131.514L156.111 131.519Z" fill="#FDD79B"/>
<path d="M115.456 118.074L103.897 133.61C103.744 133.815 103.502 133.937 103.246 133.937H58.3406C57.6732 133.937 57.2907 133.176 57.6895 132.639L68.3394 118.323C68.456 118.167 68.6398 118.074 68.8349 118.074H115.456Z" fill="#FDDEB0"/>
<path d="M66.8691 130.478C66.2017 130.478 65.8192 129.717 66.218 129.18L74.4807 118.073H68.8349C68.6398 118.073 68.456 118.166 68.3394 118.322L57.6895 132.638C57.2907 133.175 57.6732 133.936 58.3406 133.936H103.246C103.502 133.936 103.744 133.814 103.897 133.609L106.226 130.478H66.8691V130.478Z" fill="#FDD79B"/>
<path d="M142.762 165.27V165.473H125.662V165.27V147.523C125.662 146.967 126.207 146.572 126.734 146.749L134.212 149.24L141.963 146.658C142.355 146.528 142.762 146.821 142.762 147.234V165.27Z" fill="white"/>
<path d="M115.453 99.1651V97.439C115.453 96.3312 115.99 95.2947 116.889 94.6479C121.084 91.6309 123.818 86.7107 123.818 81.1491C123.818 71.6717 115.886 64.0467 106.299 64.5499C97.7296 64.9995 90.8538 72.0303 90.5809 80.607C90.4014 86.2463 93.0328 91.2799 97.1792 94.4151C98.0326 95.0603 98.5285 96.0724 98.5285 97.1421V99.1649L98.4473 103.914H115.851L115.453 99.1651Z" fill="#FDEC00"/>
<path d="M98.449 103.915H104.882L104.952 99.8463V97.8235C104.952 96.7539 104.456 95.7416 103.602 95.0966C99.4558 91.9614 96.8247 86.9278 97.0042 81.2884C97.2707 72.9066 103.845 66.0051 112.142 65.2759C110.31 64.7059 108.343 64.4431 106.301 64.5503C97.7316 65 90.8557 72.0307 90.5829 80.6074C90.4034 86.2468 93.0345 91.2804 97.1812 94.4155C98.0346 95.0607 98.5304 96.0728 98.5304 97.1427V99.1653L98.449 103.915Z" fill="white"/>
<path d="M111.743 103.584L103.014 103.915L102.469 105.974V107.632C102.469 110.243 104.586 112.36 107.197 112.36C109.808 112.36 111.925 110.243 111.925 107.632V105.974L111.743 103.584Z" fill="#E5E1E5"/>
<path d="M106.317 107.632V105.974L106.862 103.915L111.754 103.729L111.743 103.584L103.014 103.915L102.469 105.974V107.632C102.469 110.243 104.586 112.36 107.197 112.36C107.882 112.36 108.533 112.213 109.121 111.95C107.469 111.213 106.317 109.557 106.317 107.632Z" fill="#D7D0D6"/>
<path d="M113.592 99.1651H100.395C98.5145 99.1651 96.9902 100.689 96.9902 102.569C96.9902 104.45 98.5145 105.974 100.395 105.974H113.592C115.472 105.974 116.996 104.45 116.996 102.569C116.996 100.689 115.472 99.1651 113.592 99.1651Z" fill="#C9BFC8"/>
<path d="M100.836 102.569C100.836 100.689 102.36 99.1651 104.24 99.1651H100.393C98.5125 99.1651 96.9883 100.689 96.9883 102.569C96.9883 104.45 98.5125 105.974 100.393 105.974H104.24C102.36 105.974 100.836 104.45 100.836 102.569Z" fill="#BAAFB9"/>
<path d="M158.168 131.727L147.332 117.162C147.044 116.775 146.59 116.547 146.107 116.547H139.532C138.689 116.547 138.006 117.23 138.006 118.073C138.006 118.916 138.689 119.599 139.532 119.599H145.34L154.871 132.41H128.024L118.493 119.599H133.029C133.871 119.599 134.555 118.916 134.555 118.073C134.555 117.23 133.871 116.547 133.029 116.547H69.201C68.2976 116.547 67.4361 116.98 66.8969 117.705L56.4642 131.728C55.9334 132.441 55.8516 133.379 56.251 134.174C56.6504 134.968 57.4511 135.462 58.3409 135.462H60.5484V163.346C60.5484 165.361 62.1876 167 64.2024 167H149.783C151.798 167 153.437 165.361 153.437 163.346V135.462H156.291C157.181 135.462 157.982 134.968 158.381 134.173C158.78 133.378 158.699 132.441 158.168 131.727ZM63.6006 163.346V135.462H71.9614C72.8042 135.462 73.4875 134.779 73.4875 133.936C73.4875 133.093 72.8042 132.41 71.9614 132.41H59.7608L69.2916 119.599H112.418L102.887 132.41H78.4651C77.6223 132.41 76.939 133.093 76.939 133.936C76.939 134.779 77.6223 135.462 78.4651 135.462H103.245C103.981 135.462 104.682 135.11 105.122 134.519L113.929 122.681V163.948H64.2024C63.8706 163.948 63.6006 163.678 63.6006 163.346ZM141.236 163.948H127.188V148.508L133.729 150.687C134.042 150.792 134.381 150.792 134.694 150.687L141.236 148.508V163.948H141.236ZM150.385 163.346C150.385 163.678 150.115 163.948 149.783 163.948H144.288V147.234C144.288 146.55 143.957 145.903 143.402 145.503C142.847 145.103 142.129 144.993 141.48 145.21L134.212 147.631L127.218 145.301C126.506 145.064 125.717 145.184 125.108 145.623C124.499 146.062 124.136 146.772 124.136 147.523V163.948H116.981V122.681L125.789 134.519C126.228 135.11 126.93 135.462 127.665 135.462H150.385V163.346H150.385Z" fill="black"/>
<path d="M90.6701 83.4933C91.5119 83.4524 92.1611 82.7368 92.1202 81.895C92.0995 81.4689 92.0954 81.052 92.108 80.6556C92.3553 72.8861 98.6244 66.4813 106.381 66.0741C110.571 65.8566 114.553 67.3178 117.586 70.1963C120.622 73.0765 122.293 76.9664 122.293 81.1493C122.293 85.992 119.941 90.5751 116 93.4091C114.703 94.3419 113.929 95.8482 113.929 97.4392V97.652C113.817 97.6445 113.705 97.6392 113.591 97.6392H112.282V85.8443H114.302C117.098 85.8443 119.374 83.569 119.374 80.7722C119.374 77.9754 117.098 75.7002 114.302 75.7002C111.505 75.7002 109.23 77.9754 109.23 80.7722V82.7921H105.164V80.7722C105.164 77.9754 102.889 75.7002 100.092 75.7002C97.2951 75.7002 95.0198 77.9754 95.0198 80.7722C95.0198 83.569 97.2951 85.8443 100.092 85.8443H102.112V97.639H100.394C100.28 97.639 100.168 97.6443 100.056 97.6518V97.1423C100.056 95.5979 99.3255 94.1235 98.1016 93.1979C96.181 91.7457 94.6167 89.833 93.5773 87.6664C93.2127 86.9064 92.3013 86.5864 91.5414 86.9502C90.7814 87.3148 90.4609 88.2262 90.8253 88.9862C92.0741 91.5898 93.9536 93.8879 96.2606 95.6323C96.7261 95.9843 97.0041 96.5488 97.0041 97.1421V98.9937C96.0563 99.8929 95.4634 101.163 95.4634 102.569C95.4634 105.288 97.6751 107.5 100.394 107.5H100.942V107.631C100.942 111.08 103.748 113.885 107.196 113.885C110.645 113.885 113.451 111.08 113.451 107.631V107.5H113.591C116.31 107.5 118.522 105.288 118.522 102.569C118.522 101.163 117.929 99.8929 116.981 98.9937V97.4388C116.981 96.8275 117.28 96.2474 117.781 95.8866C122.517 92.4809 125.345 86.9713 125.345 81.1489C125.345 76.1203 123.335 71.4443 119.686 67.9817C116.04 64.522 111.258 62.7603 106.221 63.0262C96.8938 63.5156 89.3548 71.2168 89.0575 80.5584C89.0423 81.0361 89.0471 81.5357 89.0718 82.0431C89.1129 82.8849 89.8281 83.532 90.6701 83.4933ZM112.282 80.7722C112.282 79.6584 113.188 78.7523 114.302 78.7523C115.416 78.7523 116.322 79.6584 116.322 80.7722C116.322 81.8861 115.416 82.7921 114.302 82.7921H112.282V80.7722ZM100.092 82.7921C98.9782 82.7921 98.0721 81.8861 98.0721 80.7722C98.0721 79.6584 98.9782 78.7523 100.092 78.7523C101.206 78.7523 102.112 79.6584 102.112 80.7722V82.7921H100.092ZM105.164 85.8443H109.23V97.639H105.164V85.8443ZM110.399 107.632C110.399 109.397 108.962 110.834 107.197 110.834C105.431 110.834 103.995 109.397 103.995 107.632V107.5H110.399V107.632H110.399ZM113.592 104.448H100.394C99.3585 104.448 98.5159 103.605 98.5159 102.569C98.5159 101.534 99.3585 100.691 100.394 100.691H113.592C114.627 100.691 115.47 101.534 115.47 102.569C115.47 103.605 114.627 104.448 113.592 104.448Z" fill="black"/>
<path d="M74.6602 77.9264L79.6285 79.8529C79.8098 79.9231 79.9964 79.9565 80.1797 79.9565C80.7914 79.9565 81.3686 79.5864 81.603 78.9818C81.9078 78.196 81.5178 77.3119 80.732 77.0071L75.7637 75.0806C74.9779 74.7768 74.0937 75.1658 73.7891 75.9517C73.4845 76.7375 73.8744 77.6214 74.6602 77.9264Z" fill="black"/>
<path d="M75.2145 98.9166C75.3978 98.9166 75.5844 98.8832 75.7657 98.8131L80.734 96.8867C81.5198 96.5819 81.9099 95.6978 81.6051 94.9122C81.3003 94.1264 80.4164 93.7367 79.6305 94.0409L74.6623 95.9672C73.8764 96.272 73.4864 97.1561 73.7912 97.9418C74.0258 98.5463 74.6028 98.9166 75.2145 98.9166Z" fill="black"/>
<path d="M134.416 79.9563C134.599 79.9563 134.786 79.9229 134.967 79.8527L139.935 77.9262C140.721 77.6214 141.111 76.7373 140.806 75.9515C140.502 75.1658 139.618 74.7764 138.832 75.0804L133.863 77.0069C133.078 77.3117 132.688 78.1958 132.992 78.9816C133.227 79.5862 133.804 79.9563 134.416 79.9563Z" fill="black"/>
<path d="M133.863 96.8867L138.832 98.813C139.013 98.8832 139.2 98.9166 139.383 98.9166C139.995 98.9166 140.572 98.5463 140.806 97.9418C141.111 97.1561 140.721 96.272 139.935 95.9672L134.967 94.0409C134.181 93.7371 133.297 94.1266 132.992 94.9122C132.688 95.6978 133.078 96.5819 133.863 96.8867Z" fill="black"/>
</g>
<defs>
<clipPath id="clip0">
<rect width="104" height="104" fill="white" transform="translate(55 63)"/>
</clipPath>
</defs>
</svg>
