<svg width="221" height="238" viewBox="0 0 221 238" fill="none" xmlns="http://www.w3.org/2000/svg">
<path d="M208.365 0.54303H12.5486C8.07977 0.54303 4.45703 4.16286 4.45703 8.62814V220.458C4.45703 224.923 8.07977 228.543 12.5486 228.543H208.365C212.834 228.543 216.457 224.923 216.457 220.458V8.62814C216.457 4.16286 212.834 0.54303 208.365 0.54303Z" fill="#1CD8C7" stroke="white" stroke-dasharray="4 2"/>
<path fill-rule="evenodd" clip-rule="evenodd" d="M69.9105 87.9485C61.265 95.608 49.798 99.7557 34.8099 110.164C17.9314 121.953 19.4874 150.961 23.2595 162.536C27.0317 174.111 32.9576 191.326 63.2352 197.856C84.5404 201.962 108.034 201.081 135.496 188.455C159.129 177.266 173.563 158.351 181.48 138.683C189.397 119.014 198.499 86.9525 186.81 64.718C175.121 42.4835 155.059 27.8075 121.482 33.4818C108.331 36.4358 93.1253 43.645 86.1472 54.8412C79.1692 66.0375 78.0847 80.6682 69.9105 87.9485Z" fill="#30EDDC"/>
<path opacity="0.2" d="M110.457 155.719C130.567 155.719 146.869 139.416 146.869 119.307C146.869 99.1966 130.567 82.8943 110.457 82.8943C90.3472 82.8943 74.0449 99.1966 74.0449 119.307C74.0449 139.416 90.3472 155.719 110.457 155.719Z" stroke="#128B83"/>
<path opacity="0.2" d="M110.457 180.803C144.421 180.803 171.953 153.27 171.953 119.307C171.953 85.3431 144.421 57.8104 110.457 57.8104C76.4937 57.8104 48.9609 85.3431 48.9609 119.307C48.9609 153.27 76.4937 180.803 110.457 180.803Z" stroke="#128B83"/>
<path opacity="0.2" d="M110.861 205.887C158.455 205.887 197.037 167.305 197.037 119.711C197.037 72.1177 158.455 33.5356 110.861 33.5356C63.2677 33.5356 24.6855 72.1177 24.6855 119.711C24.6855 167.305 63.2677 205.887 110.861 205.887Z" stroke="#128B83"/>
<path d="M128.259 208.314C130.493 208.314 132.304 206.503 132.304 204.268C132.304 202.034 130.493 200.223 128.259 200.223C126.024 200.223 124.213 202.034 124.213 204.268C124.213 206.503 126.024 208.314 128.259 208.314Z" fill="#FDEC00"/>
<path d="M33.5876 85.3218C34.9283 85.3218 36.0151 84.235 36.0151 82.8943C36.0151 81.5537 34.9283 80.4669 33.5876 80.4669C32.247 80.4669 31.1602 81.5537 31.1602 82.8943C31.1602 84.235 32.247 85.3218 33.5876 85.3218Z" fill="#FDEC00"/>
<path d="M171.144 130.635C172.485 130.635 173.572 129.548 173.572 128.207C173.572 126.867 172.485 125.78 171.144 125.78C169.804 125.78 168.717 126.867 168.717 128.207C168.717 129.548 169.804 130.635 171.144 130.635Z" fill="#128B83"/>
<path d="M164.671 63.9843C170.76 63.9843 175.696 59.0483 175.696 52.9595C175.696 46.8706 170.76 41.9347 164.671 41.9347C158.582 41.9347 153.646 46.8706 153.646 52.9595C153.646 59.0483 158.582 63.9843 164.671 63.9843Z" fill="#FDEC00"/>
<path fill-rule="evenodd" clip-rule="evenodd" d="M164.672 64.2836C162.822 64.2829 161.002 63.8298 159.368 62.9638C157.734 62.0978 156.336 60.8453 155.298 59.3154C155.015 58.9199 154.768 58.5003 154.56 58.0612C153.448 55.8594 153.085 53.3548 153.527 50.928C153.968 48.5013 155.19 46.2849 157.005 44.6156C158.821 42.9463 161.132 41.9153 163.588 41.6792C166.043 41.4431 168.508 42.0147 170.609 43.3074C172.71 44.6001 174.331 46.5431 175.227 48.8412C176.123 51.1394 176.244 53.6672 175.572 56.0405C174.9 58.4139 173.472 60.5031 171.505 61.9909C169.538 63.4787 167.138 64.2837 164.672 64.2836ZM166.589 63.3774C167.792 63.1544 168.947 62.7246 170.003 62.107C169.84 61.7185 169.547 61.3985 169.174 61.2016C168.802 61.0046 168.373 60.9429 167.96 61.0268C167.547 61.1108 167.175 61.3352 166.909 61.662C166.643 61.9887 166.498 62.3976 166.5 62.819C166.5 63.0085 166.53 63.1969 166.588 63.3774H166.589ZM154.259 50.9811C154.477 51.1074 154.725 51.1743 154.976 51.1753C155.348 51.1755 155.705 51.0345 155.976 50.781C156.247 50.5275 156.412 50.1804 156.437 49.81C156.462 49.4396 156.345 49.0736 156.11 48.7862C155.875 48.4988 155.539 48.3115 155.171 48.2622C154.745 49.1227 154.438 50.0375 154.259 50.9811H154.259ZM164.365 42.3635C164.495 42.5828 164.679 42.7645 164.901 42.8908C165.122 43.017 165.373 43.0835 165.627 43.0837C165.841 43.0843 166.053 43.0373 166.247 42.9464C166.441 42.8554 166.612 42.7227 166.748 42.5577C166.064 42.4244 165.369 42.3567 164.672 42.3554C164.569 42.3554 164.466 42.3554 164.364 42.3635H164.365ZM167.511 42.7438C167.302 43.0986 166.996 43.3872 166.63 43.5763C166.264 43.7653 165.852 43.8473 165.442 43.8126C165.031 43.778 164.639 43.6282 164.31 43.3804C163.98 43.1326 163.728 42.7969 163.581 42.412C161.928 42.5859 160.339 43.1451 158.942 44.0444C157.545 44.9438 156.378 46.1584 155.535 47.5906C155.824 47.6683 156.094 47.8042 156.328 47.9901C156.562 48.176 156.756 48.4077 156.898 48.6713C157.039 48.9349 157.125 49.2248 157.151 49.5229C157.176 49.821 157.14 50.1211 157.045 50.4047C156.95 50.6884 156.798 50.9496 156.598 51.1723C156.399 51.395 156.155 51.5746 155.884 51.6999C155.612 51.8251 155.317 51.8934 155.018 51.9006C154.719 51.9078 154.422 51.8537 154.145 51.7416C153.927 53.6265 154.22 55.5351 154.993 57.2682C155.141 57.5757 155.86 58.7894 155.934 58.9351C155.938 58.9456 155.942 58.9565 155.945 58.9675C156.919 60.382 158.222 61.5386 159.742 62.3378C161.263 63.137 162.954 63.5548 164.672 63.5554C165.069 63.5516 165.465 63.5273 165.86 63.4826C165.692 62.8673 165.761 62.2116 166.052 61.6446C166.344 61.0775 166.838 60.6402 167.436 60.4189C168.034 60.1976 168.693 60.2083 169.283 60.4488C169.874 60.6894 170.353 61.1424 170.626 61.7186C172.297 60.5819 173.608 58.9912 174.405 57.1341C175.202 55.277 175.451 53.2308 175.124 51.2367C174.796 49.2426 173.906 47.3836 172.557 45.8789C171.208 44.3742 169.457 43.2864 167.51 42.7438H167.511ZM171.981 53.6836C171.547 53.6836 171.123 53.555 170.763 53.314C170.402 53.0731 170.121 52.7306 169.955 52.3299C169.789 51.9293 169.746 51.4883 169.83 51.063C169.915 50.6376 170.124 50.2469 170.43 49.9402C170.737 49.6335 171.128 49.4248 171.553 49.3401C171.978 49.2555 172.419 49.2989 172.82 49.4649C173.221 49.6309 173.563 49.912 173.804 50.2726C174.045 50.6332 174.174 51.0571 174.174 51.4908C174.174 51.7788 174.117 52.064 174.007 52.3301C173.896 52.5962 173.735 52.838 173.531 53.0416C173.327 53.2452 173.086 53.4068 172.819 53.5169C172.553 53.6271 172.268 53.6838 171.98 53.6836H171.981ZM171.981 50.0343C171.692 50.0345 171.409 50.1204 171.169 50.2812C170.929 50.4419 170.742 50.6703 170.632 50.9374C170.521 51.2045 170.493 51.4984 170.55 51.7817C170.606 52.0651 170.746 52.3253 170.951 52.5293C171.155 52.7333 171.416 52.872 171.7 52.9278C171.983 52.9837 172.277 52.9542 172.544 52.843C172.81 52.7318 173.038 52.544 173.198 52.3033C173.358 52.0626 173.443 51.7798 173.442 51.4908C173.441 51.104 173.286 50.7335 173.012 50.4605C172.738 50.1876 172.367 50.0343 171.98 50.0343H171.981ZM170.519 56.9769H169.79V56.2406H170.519V56.9769ZM169.057 46.741H169.786V47.4693H169.057V46.741ZM166.5 54.4119C166.284 54.4113 166.073 54.3466 165.894 54.2262C165.714 54.1058 165.575 53.935 165.493 53.7353C165.411 53.5356 165.389 53.3161 165.432 53.1044C165.474 52.8928 165.579 52.6984 165.732 52.546C165.884 52.3935 166.079 52.2898 166.291 52.2479C166.503 52.206 166.722 52.2278 166.922 52.3106C167.121 52.3934 167.291 52.5334 167.411 52.713C167.531 52.8926 167.595 53.1036 167.595 53.3195C167.595 53.4632 167.567 53.6056 167.511 53.7384C167.456 53.8711 167.375 53.9917 167.274 54.0932C167.172 54.1946 167.051 54.2749 166.918 54.3296C166.785 54.3843 166.643 54.4123 166.499 54.4119H166.5ZM166.5 52.9554C166.428 52.9555 166.357 52.977 166.298 53.0171C166.238 53.0572 166.191 53.1141 166.164 53.1807C166.136 53.2472 166.129 53.3205 166.143 53.3911C166.158 53.4617 166.192 53.5264 166.243 53.5773C166.294 53.6281 166.359 53.6628 166.43 53.6767C166.5 53.6907 166.573 53.6834 166.64 53.6558C166.706 53.6282 166.763 53.5816 166.803 53.5218C166.843 53.4619 166.865 53.3914 166.865 53.3195C166.865 53.2715 166.855 53.2241 166.837 53.1798C166.818 53.1355 166.791 53.0953 166.757 53.0615C166.723 53.0276 166.683 53.0008 166.639 52.9826C166.594 52.9644 166.547 52.9552 166.499 52.9554H166.5ZM167.228 56.6047H166.5V55.8764H167.228V56.6047ZM163.939 61.7267H164.672V62.4549H163.943V61.7267H163.939ZM162.478 57.7052H163.206V58.4334H162.478V57.7052ZM161.629 52.6317C161.492 52.683 161.346 52.7062 161.2 52.7002C161.054 52.6941 160.91 52.6588 160.778 52.5963C160.646 52.5339 160.527 52.4456 160.429 52.3366C160.332 52.2276 160.257 52.1001 160.209 51.9617C160.162 51.8233 160.142 51.6768 160.152 51.5308C160.162 51.3848 160.202 51.2422 160.268 51.1116C160.334 50.9809 160.425 50.8649 160.537 50.7702C160.648 50.6755 160.778 50.6042 160.917 50.5603C161.054 50.5098 161.2 50.4872 161.345 50.4937C161.491 50.5003 161.634 50.5358 161.766 50.5983C161.898 50.6609 162.016 50.7492 162.113 50.8579C162.21 50.9667 162.285 51.0937 162.332 51.2317C162.38 51.3696 162.399 51.5157 162.389 51.6612C162.38 51.8068 162.341 51.9489 162.276 52.0794C162.21 52.2098 162.119 52.3259 162.009 52.4207C161.898 52.5156 161.769 52.5873 161.63 52.6317H161.629ZM161.619 51.4747C161.596 51.4061 161.553 51.346 161.496 51.3018C161.438 51.2576 161.369 51.2315 161.297 51.2266C161.225 51.2218 161.153 51.2384 161.091 51.2745C161.028 51.3106 160.977 51.3645 160.945 51.4293C160.913 51.4942 160.902 51.5671 160.911 51.6387C160.921 51.7104 160.951 51.7776 160.999 51.8318C161.047 51.8861 161.109 51.9249 161.179 51.9434C161.249 51.962 161.323 51.9593 161.391 51.9358C161.437 51.9206 161.479 51.8966 161.515 51.8651C161.551 51.8337 161.58 51.7955 161.601 51.7526C161.622 51.7098 161.635 51.6631 161.638 51.6154C161.641 51.5677 161.635 51.5199 161.62 51.4747H161.619ZM159.92 44.1841H160.648V44.9124H159.92V44.1841ZM160.278 48.2299L159.585 48.4645L159.348 47.7767L160.04 47.5341L160.278 48.2299ZM158.16 52.6641L158.852 52.4213L159.089 53.1172L158.397 53.3519L158.16 52.6641ZM159.555 56.2406C159.771 56.2406 159.983 56.3047 160.163 56.425C160.344 56.5453 160.484 56.7163 160.567 56.9164C160.65 57.1165 160.672 57.3368 160.63 57.5494C160.588 57.762 160.484 57.9573 160.331 58.1108C160.178 58.2643 159.983 58.3691 159.771 58.4119C159.559 58.4546 159.338 58.4335 159.138 58.3511C158.937 58.2688 158.766 58.1288 158.645 57.949C158.524 57.7693 158.459 57.5577 158.458 57.3411C158.458 57.0497 158.573 56.7701 158.779 56.5638C158.985 56.3575 159.264 56.2413 159.555 56.2406H159.555ZM159.555 57.7052C159.627 57.7048 159.697 57.6832 159.756 57.643C159.816 57.6028 159.863 57.5458 159.89 57.4793C159.917 57.4127 159.924 57.3395 159.91 57.269C159.896 57.1984 159.861 57.1337 159.81 57.083C159.759 57.0322 159.694 56.9977 159.623 56.9838C159.553 56.9699 159.48 56.9771 159.413 57.0047C159.347 57.0323 159.29 57.079 159.25 57.1389C159.21 57.1987 159.189 57.2691 159.189 57.3411C159.189 57.3891 159.198 57.4366 159.217 57.4809C159.235 57.5253 159.262 57.5655 159.296 57.5994C159.33 57.6332 159.371 57.66 159.415 57.6782C159.46 57.6963 159.507 57.7055 159.555 57.7052H159.555Z" fill="#006460"/>
<g clip-path="url(#clip0)">
<path d="M129.939 146.57H88.0723C88.0723 145.494 88.1533 144.434 88.3111 143.402C88.4338 142.6 88.6003 141.813 88.8128 141.047C90.0508 136.502 92.7829 132.574 96.4487 129.822C97.163 129.285 97.9144 128.792 98.6946 128.349C98.8873 128.24 99.0824 128.132 99.2774 128.032C102.183 126.502 105.493 125.637 109.006 125.637C112.428 125.637 115.66 126.459 118.513 127.916C118.703 128.014 118.892 128.113 119.08 128.216C120.062 128.757 120.997 129.373 121.876 130.061C125.274 132.712 127.834 136.393 129.085 140.633C129.35 141.531 129.558 142.456 129.7 143.402C129.858 144.434 129.939 145.494 129.939 146.57Z" fill="#E0E0E3"/>
<path d="M129.939 146.57H88.0723C88.0723 145.494 88.1533 144.434 88.3111 143.402C88.4338 142.6 88.6003 141.813 88.8128 141.047C95.4539 139.609 102.564 138.831 109.957 138.831C116.607 138.831 123.028 139.46 129.085 140.633C129.35 141.531 129.558 142.456 129.7 143.402C129.858 144.434 129.939 145.494 129.939 146.57Z" fill="#D1D1D1"/>
<path d="M129.938 146.571H88.0723C88.0723 145.494 88.1533 144.435 88.3111 143.402H129.699C129.857 144.435 129.938 145.494 129.938 146.571Z" fill="#D1D1D1"/>
<path d="M117.132 117.384L116.916 119.363L116.823 120.228L116.18 126.154C115.87 129.005 112.752 131.198 109.006 131.198C105.261 131.198 102.142 129.005 101.833 126.154L101.326 121.478L101.067 119.083C101.064 119.083 101.064 119.083 101.064 119.083L100.88 117.384C100.533 114.18 103.845 111.432 108.054 111.432H109.957C114.167 111.432 117.479 114.18 117.132 117.384Z" fill="#FFDAA7"/>
<path d="M110.721 132.038C110.655 131.557 110.243 131.199 109.758 131.199H109.008H108.258C107.772 131.199 107.361 131.557 107.294 132.038L105.335 146.178C105.301 146.429 105.365 146.684 105.516 146.889L108.225 150.56C108.614 151.087 109.402 151.087 109.791 150.56L112.499 146.889C112.65 146.684 112.715 146.429 112.68 146.178L110.721 132.038Z" fill="#00DDC0"/>
<path d="M119.667 110.616C119.667 111.441 119.597 112.201 119.476 112.899C118.871 116.454 117.026 118.345 117.026 118.345C116.732 114.82 114.513 112.674 114.513 112.674C114.513 112.674 110.558 114.77 107.074 114.1C103.592 113.43 100.912 118.051 100.912 118.051C100.912 118.051 99.2985 117.45 98.9706 115.104C98.7292 113.386 98.0955 112.187 97.4055 111.36C96.3131 110.049 95.0859 109.678 95.0859 109.678C105.326 98.1592 115.447 105.46 115.447 105.46C115.447 105.46 119.667 105.593 119.667 110.616Z" fill="#EAEAEA"/>
<path d="M119.477 112.899C118.871 116.454 117.027 118.345 117.027 118.345C116.733 114.82 114.514 112.674 114.514 112.674C114.514 112.674 110.559 114.77 107.075 114.1C103.592 113.43 100.913 118.051 100.913 118.051C100.913 118.051 99.2993 117.45 98.9714 115.104C98.73 113.386 98.0963 112.187 97.4062 111.36C106.801 103.209 115.447 109.445 115.447 109.445C115.447 109.445 118.654 109.546 119.477 112.899Z" fill="#E0E0E3"/>
<path d="M155.856 156.331L124.578 148.428C125.358 145.337 126.986 142.679 129.149 140.646C131.015 138.886 133.279 137.591 135.746 136.877C135.814 136.857 135.884 136.84 135.952 136.82C138.551 136.104 141.366 136.034 144.168 136.741C146.32 137.285 148.259 138.236 149.924 139.493C150.24 139.73 150.547 139.978 150.84 140.238C153.943 142.957 155.921 146.8 156.287 150.957C156.445 152.712 156.311 154.524 155.856 156.331Z" fill="#00DDC0"/>
<path d="M155.856 156.331L124.578 148.428C125.358 145.337 126.986 142.679 129.149 140.646C139.48 142.65 148.75 146.233 156.287 150.957C156.445 152.712 156.311 154.524 155.856 156.331Z" fill="#00CDB3"/>
<path d="M151.022 130.412L150.488 131.85L149.682 134.018L148.655 136.785C147.886 138.856 145.141 139.906 142.344 139.199C139.546 138.492 137.63 136.265 137.937 134.077L138.374 130.965L138.699 128.648C138.697 128.648 138.697 128.648 138.697 128.648L138.881 127.344C139.226 124.885 142.218 123.457 145.364 124.252L146.786 124.611C149.931 125.406 151.886 128.083 151.022 130.412Z" fill="#FFDAA7"/>
<path d="M152.764 130.898C152.764 130.9 152.762 130.902 152.762 130.902C152.297 132.002 151.849 132.713 151.849 132.713C147.069 130.755 144.367 126.508 144.367 126.508L137.242 129.023C137.242 129.023 137.139 127.796 137.35 126.207C137.805 122.777 139.724 117.657 147.302 119.572C155.478 121.638 154.068 127.804 152.764 130.898Z" fill="#798DAA"/>
<path d="M152.764 130.898C152.764 130.9 152.762 130.902 152.762 130.902C152.297 132.002 151.849 132.713 151.849 132.713C147.069 130.755 144.367 126.508 144.367 126.508L137.242 129.023C137.242 129.023 137.139 127.796 137.35 126.207C138.549 123.652 141.08 121.556 146.375 122.893C152.163 124.356 153.146 127.872 152.764 130.898Z" fill="#6B7F9E"/>
<path d="M95.1784 148.01L64.0083 156.331C63.535 154.557 63.3773 152.773 63.4978 151.038C63.776 147.085 65.5113 143.389 68.2961 140.652C70.2177 138.763 72.641 137.33 75.4325 136.585C77.9808 135.904 80.5507 135.873 82.9632 136.393C85.9429 137.03 88.6863 138.505 90.862 140.626C92.8755 142.584 94.4006 145.096 95.1784 148.01Z" fill="#6B7F9E"/>
<path d="M95.1784 148.01L64.0083 156.331C63.535 154.557 63.3773 152.773 63.4978 151.038C71.0809 146.259 80.4324 142.639 90.862 140.626C92.8755 142.584 94.4006 145.096 95.1784 148.01Z" fill="#586C89"/>
<path d="M79.8406 128.826L80.0741 130.342L80.8752 135.545C81.2112 137.729 79.325 139.982 76.5369 140.726C73.7489 141.471 70.9908 140.457 70.1938 138.397L68.2174 133.284C68.2162 133.284 68.2162 133.284 68.2162 133.284L67.7421 132.056C66.8466 129.739 68.7656 127.036 71.8999 126.199L73.3172 125.821C76.4514 124.984 79.4624 126.371 79.8406 128.826Z" fill="#FFDAA7"/>
<path d="M81.4818 127.152C80.8722 127.552 80.2566 127.917 79.641 128.253C75.3359 130.582 71.0087 131.359 68.8602 131.459C67.5466 131.52 66.3174 130.618 65.909 129.283C65.8145 128.977 65.74 128.679 65.6797 128.387C65.4705 127.375 65.4564 126.438 65.5932 125.591C66.1464 122.137 69.2123 120.105 72.0588 120.051C74.4186 120.005 76.9091 119.073 78.6392 118.264C79.7114 117.765 80.9426 118.691 80.9024 119.918C80.9024 119.952 80.8984 119.984 80.8963 120.019C80.83 120.771 80.7153 121.467 80.5805 122.085C80.1721 123.958 79.5807 125.14 79.5807 125.14L80.5141 125.613L81.3812 126.054C81.8137 126.271 81.872 126.895 81.4818 127.152Z" fill="#798DAA"/>
<path d="M80.9024 123.155C80.9024 123.189 80.8984 123.221 80.8964 123.255C80.8179 124.129 80.6771 124.925 80.5141 125.613C80.1923 126.975 79.7879 127.925 79.641 128.253C75.336 130.582 71.0087 131.359 68.8602 131.459C67.5466 131.52 66.3174 130.618 65.909 129.283C65.8145 128.977 65.74 128.679 65.6797 128.387C66.412 125.201 69.335 123.34 72.0589 123.288C74.4186 123.241 76.9091 122.31 78.6392 121.501C79.3594 121.165 80.152 121.473 80.5805 122.085C80.7917 122.382 80.9165 122.753 80.9024 123.155Z" fill="#6B7F9E"/>
<path d="M159.949 161.399C152.091 150.847 132.671 143.381 109.958 143.381C87.245 143.381 67.8244 150.847 59.9668 161.399H159.949Z" fill="#FFDA2D"/>
<path d="M159.949 161.399H153.212C143.841 153.823 127.966 148.842 109.958 148.842C91.9498 148.842 76.0755 153.823 66.7043 161.399H59.9668C67.824 150.847 87.2456 143.38 109.958 143.38C132.671 143.38 152.092 150.847 159.949 161.399Z" fill="#FFE571"/>
<path d="M133.808 100.121C136.439 102.65 130.826 102.439 125.392 99.3914C124.465 99.5733 123.505 99.6696 122.522 99.6696C118.192 99.6696 114.301 97.7985 111.612 94.8186C110.731 93.8435 109.982 92.7501 109.386 91.567C108.389 89.5841 107.828 87.3448 107.828 84.9762C107.828 78.6572 111.816 73.2694 117.412 71.1945C119.002 70.6029 120.725 70.2808 122.521 70.2808C123.016 70.2808 123.505 70.3049 123.987 70.3552C131.415 71.0871 137.217 77.3556 137.217 84.9762C137.217 89.6738 135.013 93.8566 131.581 96.5472C132.042 97.8335 132.743 99.0979 133.808 100.121Z" fill="#E0E0E3"/>
<path d="M119.298 79.4878C119.298 85.7608 116.277 91.3304 111.612 94.8188C110.731 93.8437 109.982 92.7503 109.386 91.5672C108.389 89.5843 107.828 87.345 107.828 84.9764C107.828 78.6574 111.816 73.2696 117.412 71.1947C118.621 73.7033 119.298 76.5167 119.298 79.4878Z" fill="#D1D1D1"/>
<path d="M99.7317 64.6848C91.616 64.6848 85.0371 71.2639 85.0371 79.3794C85.0371 84.0774 87.2418 88.2602 90.6727 90.95C90.2135 92.2367 89.512 93.5013 88.4468 94.5239C85.8142 97.0512 91.4288 96.842 96.8614 93.793C97.7898 93.9769 98.7494 94.074 99.7317 94.074C107.847 94.074 114.426 87.4949 114.426 79.3794C114.426 71.2639 107.847 64.6848 99.7317 64.6848Z" fill="#FFDA2D"/>
<path d="M95.1706 90.9506C94.7117 92.2371 94.01 93.5013 92.9454 94.5238C92.4056 95.0427 92.2121 95.446 92.2932 95.7325C88.8654 96.7325 86.5787 96.3173 88.447 94.5238C89.5116 93.5013 90.2133 92.2371 90.6721 90.9506C87.2414 88.2605 85.0371 84.0772 85.0371 79.3794C85.0371 71.2643 91.6167 64.6848 99.7317 64.6848C100.496 64.6848 101.248 64.7433 101.981 64.8558C94.9334 65.9383 89.5353 72.0292 89.5353 79.3796C89.5355 84.0772 91.7398 88.2607 95.1706 90.9506Z" fill="#FFE571"/>
<path d="M161.158 160.498C160.094 159.069 158.833 157.696 157.393 156.388C158.105 153.334 157.998 150.155 157.072 147.172C156.825 146.377 155.981 145.932 155.184 146.179C154.388 146.426 153.943 147.271 154.19 148.067C154.805 150.049 154.983 152.136 154.725 154.192C151.002 151.407 146.391 148.98 141.043 147.017C137.13 145.58 132.925 144.435 128.525 143.591C129.012 142.945 129.551 142.339 130.139 141.782C132.216 139.811 134.864 138.482 137.672 137.982C138.686 139.249 140.227 140.222 141.974 140.664C142.682 140.843 143.394 140.93 144.089 140.93C145.477 140.93 146.793 140.58 147.867 139.918C149.426 140.877 150.814 142.136 151.912 143.605C152.209 144.001 152.662 144.21 153.122 144.21C153.436 144.21 153.753 144.112 154.024 143.909C154.691 143.41 154.827 142.464 154.329 141.797C153.116 140.177 151.613 138.766 149.925 137.651C149.977 137.539 150.026 137.426 150.069 137.31L151.26 134.102C151.266 134.105 151.271 134.107 151.276 134.109C151.462 134.186 151.656 134.222 151.848 134.222C152.352 134.222 152.84 133.968 153.124 133.52C153.264 133.297 156.551 128.013 154.712 123.405C153.676 120.809 151.307 119.027 147.671 118.109C144.04 117.192 141.126 117.636 139.01 119.43C135.239 122.629 135.715 128.884 135.738 129.149C135.776 129.615 136.029 130.036 136.422 130.29C136.574 130.389 136.741 130.457 136.914 130.495L136.442 133.868C136.382 134.294 136.382 134.724 136.436 135.153C134.052 135.681 131.784 136.704 129.808 138.143C127.577 132.642 123.219 128.206 117.725 125.888L118.476 118.969C119.294 117.935 121.175 115.074 121.175 110.617C121.175 105.865 117.987 104.251 115.956 103.989C115.054 103.428 112.598 102.086 109.258 101.748C105.431 101.362 99.6707 102.25 93.9582 108.677C93.6107 109.068 93.4689 109.605 93.6188 110.106C93.7679 110.604 94.1414 110.984 94.6418 111.121C94.8405 111.192 97.016 112.033 97.4763 115.314C97.739 117.188 98.6899 118.36 99.5385 118.988L100.287 125.89C99.702 126.137 99.1281 126.404 98.5741 126.696C98.5664 126.7 98.5592 126.705 98.5517 126.709C98.5457 126.712 98.5397 126.715 98.5336 126.719C94.1849 129.017 90.7426 132.644 88.6798 137.053C86.7132 135.869 84.5417 135.08 82.2763 134.731L81.3925 128.988C81.7003 128.804 82.0063 128.613 82.3095 128.414C82.9402 128 83.291 127.295 83.248 126.529C83.2043 125.753 82.7499 125.056 82.062 124.708L81.4909 124.418C81.8355 123.414 82.2397 121.929 82.3984 120.155C82.5024 118.992 81.9741 117.854 81.02 117.185C80.1113 116.548 78.9829 116.441 78.0014 116.899C76.4433 117.626 74.1423 118.501 72.0292 118.542C69.4948 118.591 66.9959 119.896 65.5072 121.948C63.9571 124.085 63.5874 126.847 64.4659 129.724C64.7737 130.732 65.3927 131.568 66.1871 132.14C66.2296 132.295 66.2775 132.449 66.3358 132.602L68.5761 138.392C63.2313 142.668 60.8122 149.731 62.4775 156.427C61.0552 157.724 59.8094 159.083 58.7556 160.498C58.4149 160.956 58.3615 161.567 58.6174 162.076C58.8735 162.586 59.3954 162.908 59.9659 162.908H83.0979C83.9311 162.908 84.6067 162.233 84.6067 161.399C84.6067 160.566 83.9311 159.891 83.0979 159.891H63.2333C64.1261 158.968 65.1213 158.076 66.2055 157.216C66.2757 157.168 66.3418 157.116 66.4022 157.058C69.976 154.265 74.5364 151.823 79.9107 149.849C88.7482 146.605 99.138 144.89 109.957 144.89C120.776 144.89 131.166 146.605 140.003 149.849C147.126 152.464 152.821 155.902 156.681 159.89H89.4676C88.6343 159.89 87.9588 160.566 87.9588 161.399C87.9588 162.233 88.6343 162.908 89.4676 162.908H159.948C160.519 162.908 161.041 162.586 161.297 162.076C161.553 161.567 161.499 160.956 161.158 160.498ZM147.24 136.258C147.137 136.537 146.963 136.792 146.724 137.016C145.84 137.847 144.266 138.13 142.713 137.738C141.37 137.398 140.248 136.609 139.714 135.628C139.465 135.172 139.37 134.72 139.43 134.286L140.084 129.62L143.809 128.305C144.667 129.398 146.282 131.196 148.57 132.681L147.24 136.258ZM140.969 121.726C142.298 120.603 144.305 120.37 146.932 121.034C149.573 121.701 151.247 122.872 151.906 124.514C152.766 126.654 151.869 129.255 151.188 130.732C147.688 128.838 145.661 125.73 145.64 125.698C145.357 125.253 144.872 124.999 144.367 124.999C144.2 124.999 144.03 125.027 143.865 125.085L138.791 126.876C138.946 125.241 139.449 123.009 140.969 121.726ZM127.385 140.274C126.587 141.119 125.874 142.042 125.256 143.029C121.481 142.446 117.584 142.079 113.614 141.94L112.392 133.116L115.059 136.015C115.347 136.329 115.751 136.502 116.17 136.502C116.254 136.502 116.339 136.495 116.423 136.481C116.927 136.395 117.353 136.06 117.556 135.59L119.784 130.41C123.301 132.76 125.997 136.221 127.385 140.274ZM103.663 131.249L102.734 132.258L101.377 129.098C101.951 129.939 102.731 130.669 103.663 131.249ZM103.334 125.992L102.506 118.36C103.301 117.212 105.064 115.248 106.79 115.581C109.569 116.115 112.511 115.171 114.081 114.527C114.618 115.302 115.335 116.626 115.509 118.337L114.679 125.992C114.455 128.065 111.964 129.689 109.007 129.689C106.051 129.689 103.559 128.065 103.334 125.992ZM117.138 128.925L115.704 132.259L114.618 131.078C115.541 130.455 116.299 129.678 116.834 128.79C116.936 128.835 117.038 128.879 117.138 128.925ZM97.493 109.343C106.186 100.917 114.216 106.436 114.565 106.683C114.808 106.859 115.099 106.958 115.399 106.967C115.406 106.967 116.088 107.014 116.755 107.432C117.686 108.016 118.158 109.087 118.158 110.616C118.158 112.167 117.88 113.458 117.521 114.477C116.681 112.689 115.631 111.655 115.563 111.589C115.094 111.134 114.384 111.034 113.807 111.34C112.837 111.854 109.789 113.085 107.36 112.618C104.389 112.046 102.01 114.185 100.705 115.76C100.601 115.529 100.514 115.245 100.465 114.894C100.059 111.998 98.6887 110.299 97.493 109.343ZM98.563 130.192L100.881 135.589C101.082 136.059 101.509 136.395 102.013 136.481C102.098 136.495 102.183 136.502 102.267 136.502C102.685 136.502 103.089 136.329 103.377 136.016L105.546 133.66L104.387 142.025C101.084 142.203 97.8376 142.538 94.677 143.026C93.727 141.457 92.5518 140.063 91.1723 138.868C92.7129 135.297 95.2833 132.283 98.563 130.192ZM79.3844 135.776C79.5999 137.169 78.1484 138.736 76.149 139.27C74.1501 139.803 72.1109 139.167 71.6023 137.851L69.6914 132.912C72.0435 132.695 75.289 131.949 78.5669 130.464L79.3844 135.776ZM67.95 123.72C68.8945 122.417 70.48 121.589 72.0877 121.558C74.7209 121.507 77.4389 120.489 79.2619 119.64C79.3046 119.66 79.4058 119.742 79.3929 119.886C79.1537 122.562 78.2364 124.452 78.2293 124.467C77.8584 125.21 78.1571 126.113 78.8976 126.487L79.3219 126.702C75.163 129.051 70.8415 129.855 68.7895 129.951C68.6028 129.961 68.4192 129.926 68.2473 129.856C68.2025 129.832 68.156 129.811 68.1087 129.791C67.7617 129.602 67.4797 129.261 67.3519 128.842C66.7478 126.863 66.9546 125.092 67.95 123.72ZM78.8707 147.017C73.4905 148.992 68.8549 151.436 65.1203 154.242C64.407 149.246 66.3374 144.189 70.2225 140.944C71.3665 141.926 72.9598 142.482 74.6997 142.482C75.4248 142.482 76.1749 142.386 76.9273 142.185C79.4876 141.501 81.4161 139.781 82.1264 137.766C84.4079 138.168 86.5675 139.109 88.4378 140.528C88.4406 140.531 88.4436 140.533 88.4465 140.535C88.4469 140.535 88.4473 140.535 88.4477 140.536C89.5964 141.406 90.5964 142.427 91.4335 143.582C87.0169 144.427 82.7977 145.575 78.8707 147.017ZM107.45 141.905L108.724 132.707H109.289L110.56 141.878C110.359 141.877 110.158 141.872 109.957 141.872C109.119 141.872 108.283 141.885 107.45 141.905Z" fill="black"/>
<path d="M88.8554 91.3914C88.4641 92.1981 87.9773 92.8829 87.4017 93.4355C85.701 95.068 86.314 96.3183 86.6566 96.7802C87.173 97.4764 88.1131 97.7615 89.2698 97.7613C91.571 97.7613 94.7298 96.6335 97.1165 95.3718C97.9796 95.5118 98.8567 95.5828 99.7314 95.5828C102.942 95.5828 105.934 94.6405 108.454 93.0237C111.317 98.0325 116.657 101.181 122.522 101.181C123.393 101.181 124.27 101.11 125.136 100.969C127.523 102.23 130.682 103.358 132.983 103.358C134.14 103.358 135.081 103.072 135.597 102.376C135.939 101.914 136.552 100.664 134.851 99.0321C134.276 98.4799 133.789 97.7951 133.398 96.989C136.797 93.9171 138.725 89.6006 138.725 84.9764C138.725 76.0413 131.456 68.772 122.522 68.772C119.421 68.772 116.381 69.6732 113.786 71.3321C110.988 66.4637 105.738 63.1758 99.7312 63.1758C98.8691 63.1758 98.0035 63.2442 97.1584 63.3792C96.3356 63.5105 95.7751 64.284 95.9063 65.107C96.0376 65.9298 96.8107 66.4895 97.6341 66.3591C98.3224 66.2493 99.0279 66.1936 99.731 66.1936C107.002 66.1936 112.917 72.1086 112.917 79.3796C112.917 86.6504 107.002 92.5654 99.731 92.5654C98.8667 92.5654 97.9995 92.4805 97.1535 92.3132C96.8011 92.243 96.4356 92.3015 96.1223 92.4775C93.8453 93.7556 91.7601 94.3868 90.3767 94.6323C91.0874 93.7264 91.6627 92.6632 92.0931 91.4576C92.3113 90.846 92.114 90.1634 91.603 89.7629C88.3887 87.2428 86.5451 83.4582 86.5451 79.3796C86.5451 74.9922 88.7188 70.9044 92.3596 68.4449C93.05 67.9784 93.2317 67.0405 92.7652 66.3501C92.2987 65.6596 91.361 65.478 90.6702 65.9443C86.1977 68.9661 83.5273 73.9886 83.5273 79.3796C83.5281 84.0033 85.456 88.3197 88.8554 91.3914ZM115.935 79.3794C115.935 77.5352 115.621 75.7639 115.051 74.1111C117.238 72.6083 119.853 71.7898 122.523 71.7898C129.793 71.7898 135.708 77.7052 135.708 84.9766C135.708 89.0556 133.864 92.8404 130.651 95.3607C130.14 95.7611 129.942 96.4434 130.16 97.0548C130.59 98.26 131.165 99.3228 131.875 100.228C130.492 99.9831 128.407 99.352 126.129 98.0745C125.816 97.8989 125.451 97.8406 125.099 97.9102C124.248 98.0782 123.382 98.1635 122.523 98.1635C117.6 98.1635 113.133 95.4384 110.862 91.1385C113.983 88.1831 115.935 84.0064 115.935 79.3794Z" fill="black"/>
<path d="M77.0732 108.499H78.4448V109.871C78.4448 110.705 79.1204 111.38 79.9536 111.38C80.7869 111.38 81.4624 110.705 81.4624 109.871V108.499H82.834C83.6673 108.499 84.3428 107.824 84.3428 106.99C84.3428 106.157 83.6673 105.482 82.834 105.482H81.4624V104.11C81.4624 103.277 80.7869 102.601 79.9536 102.601C79.1204 102.601 78.4448 103.277 78.4448 104.11V105.482H77.0732C76.24 105.482 75.5645 106.157 75.5645 106.99C75.5645 107.824 76.24 108.499 77.0732 108.499Z" fill="black"/>
<path d="M68.4209 97.773H69.7927V99.1446C69.7927 99.978 70.4682 100.653 71.3015 100.653C72.1347 100.653 72.8103 99.978 72.8103 99.1446V97.773H74.1819C75.0151 97.773 75.6907 97.0976 75.6907 96.2642C75.6907 95.4307 75.0151 94.7554 74.1819 94.7554H72.8103V93.3838C72.8103 92.5503 72.1347 91.875 71.3015 91.875C70.4682 91.875 69.7927 92.5503 69.7927 93.3838V94.7554H68.4209C67.5876 94.7554 66.9121 95.4307 66.9121 96.2642C66.9121 97.0976 67.5876 97.773 68.4209 97.773Z" fill="black"/>
<path d="M136.298 109.924V108.552C136.298 107.719 135.623 107.043 134.79 107.043C133.956 107.043 133.281 107.719 133.281 108.552V109.924H131.909C131.076 109.924 130.4 110.599 130.4 111.432C130.4 112.266 131.076 112.941 131.909 112.941H133.281V114.313C133.281 115.146 133.956 115.822 134.79 115.822C135.623 115.822 136.298 115.146 136.298 114.313V112.941H137.67C138.503 112.941 139.179 112.266 139.179 111.432C139.179 110.599 138.503 109.924 137.67 109.924H136.298Z" fill="black"/>
<path d="M146.38 91.1777H147.751V92.5493C147.751 93.3828 148.427 94.0581 149.26 94.0581C150.094 94.0581 150.769 93.3828 150.769 92.5493V91.1777H152.141C152.974 91.1777 153.649 90.5024 153.649 89.669C153.649 88.8355 152.974 88.1602 152.141 88.1602H150.769V86.7884C150.769 85.9549 150.094 85.2796 149.26 85.2796C148.427 85.2796 147.751 85.9549 147.751 86.7884V88.1602H146.38C145.546 88.1602 144.871 88.8355 144.871 89.669C144.871 90.5024 145.546 91.1777 146.38 91.1777Z" fill="black"/>
<path d="M146.38 109.158H147.751V110.53C147.751 111.363 148.427 112.038 149.26 112.038C150.094 112.038 150.769 111.363 150.769 110.53V109.158H152.141C152.974 109.158 153.649 108.483 153.649 107.649C153.649 106.816 152.974 106.14 152.141 106.14H150.769V104.769C150.769 103.935 150.094 103.26 149.26 103.26C148.427 103.26 147.751 103.935 147.751 104.769V106.14H146.38C145.546 106.14 144.871 106.816 144.871 107.649C144.871 108.483 145.546 109.158 146.38 109.158Z" fill="black"/>
</g>
<defs>
<clipPath id="clip0">
<rect width="103" height="103" fill="white" transform="translate(58.457 61.5421)"/>
</clipPath>
</defs>
</svg>
