<svg width="18" height="14" viewBox="0 0 18 14" fill="none" xmlns="http://www.w3.org/2000/svg">
<path fill-rule="evenodd" clip-rule="evenodd" d="M2.45459 1.55556C2.00647 1.55556 1.63642 1.90733 1.63642 2.33333V11.6667C1.63642 12.0927 2.00647 12.4444 2.45459 12.4444H15.5454C15.9935 12.4444 16.3636 12.0927 16.3636 11.6667V2.33333C16.3636 1.90733 15.9935 1.55556 15.5454 1.55556H2.45459ZM6.69401e-05 2.33333C6.69401e-05 1.04822 1.10273 0 2.45459 0H15.5454C16.8973 0 17.9999 1.04822 17.9999 2.33333V11.6667C17.9999 12.9518 16.8973 14 15.5454 14H2.45459C1.10273 14 6.69401e-05 12.9518 6.69401e-05 11.6667V2.33333Z" fill="#C4C4C4"/>
<path fill-rule="evenodd" clip-rule="evenodd" d="M0.147969 1.88729C0.407097 1.53538 0.917259 1.44983 1.28744 1.69617L9 6.82839L16.7126 1.69617C17.0827 1.44983 17.5929 1.53538 17.852 1.88729C18.1112 2.23919 18.0211 2.72417 17.651 2.9705L9.4692 8.41494C9.18748 8.60241 8.81252 8.60241 8.53081 8.41494L0.349055 2.9705C-0.021128 2.72417 -0.111159 2.23919 0.147969 1.88729Z" fill="#C4C4C4"/>
</svg>
