<svg width="17" height="17" viewBox="0 0 17 17" fill="none" xmlns="http://www.w3.org/2000/svg">
<path d="M14.0826 17C14.0081 17 13.9336 17 13.8591 17C11.4747 16.7043 9.09038 15.8913 7.07858 14.6348C5.21579 13.4522 3.57654 11.8261 2.38436 9.97826C1.04316 7.98261 0.223534 5.61736 0 3.25215C0 2.66084 0.14902 2.06953 0.521577 1.62605C0.894134 1.18257 1.41571 0.886939 2.0118 0.813025C2.08632 0.813025 2.16083 0.813025 2.23534 0.813025H4.47068C5.58835 0.813025 6.557 1.62605 6.70602 2.73475C6.78053 3.39996 6.92955 4.06521 7.15308 4.65651C7.45113 5.46956 7.2276 6.35652 6.63151 7.02174L6.10993 7.53909C7.00406 8.86953 8.12174 10.0522 9.53745 10.9391L10.059 10.4217C10.6551 9.83042 11.6238 9.60867 12.4434 9.90432C13.0395 10.1261 13.7101 10.2739 14.3807 10.3478C15.4984 10.4957 16.318 11.4565 16.318 12.5652V14.7826C16.318 15.3739 16.0945 15.9652 15.6474 16.3348C15.2003 16.7043 14.6787 17 14.0826 17ZM4.47068 2.29129H2.23534C2.01181 2.29129 1.78827 2.43913 1.63925 2.58696C1.56474 2.73478 1.49023 2.88257 1.49023 3.10431C1.71376 5.24779 2.45887 7.31736 3.65105 9.16519C4.76872 10.8652 6.18443 12.3435 7.8982 13.3782C9.76098 14.5609 11.8473 15.3 14.0081 15.5217C14.3062 15.5217 14.4552 15.4478 14.6042 15.3C14.7532 15.1521 14.8278 15.0043 14.8278 14.7826V12.5652C14.8278 12.1957 14.5297 11.9 14.1572 11.8261C13.412 11.7522 12.6669 11.5304 11.9218 11.2347C11.6238 11.1608 11.3257 11.1608 11.1022 11.3826L10.1335 12.3434C9.91 12.5652 9.53745 12.6391 9.2394 12.4913C7.2276 11.3826 5.58835 9.75652 4.47068 7.76087C4.39617 7.46522 4.47068 7.09564 4.69422 6.8739L5.66286 5.91304C5.81188 5.76522 5.8864 5.39565 5.81189 5.17391C5.51384 4.43478 5.36482 3.69565 5.21579 2.95652C5.21579 2.58696 4.84324 2.29129 4.47068 2.29129ZM13.3375 7.4652C12.965 7.4652 12.6669 7.24347 12.5924 6.8739C12.3689 5.6913 11.4002 4.80433 10.2081 4.50868C9.8355 4.43476 9.53745 4.06519 9.61196 3.62171C9.68647 3.25215 10.059 2.9565 10.5061 3.03042C12.2944 3.39998 13.7101 4.73043 14.0081 6.50434C14.0826 6.8739 13.8591 7.31739 13.412 7.3913C13.412 7.3913 13.412 7.4652 13.3375 7.4652ZM16.318 7.3913C15.9454 7.3913 15.6474 7.09563 15.5729 6.72607C15.2748 3.99129 13.114 1.84783 10.2826 1.47826C9.91001 1.40435 9.61196 1.03476 9.61196 0.66519C9.61196 0.295625 10.059 0 10.4316 0C13.9336 0.369565 16.616 3.03043 16.9886 6.50434C17.0631 6.8739 16.765 7.24345 16.318 7.31736C16.3925 7.39128 16.318 7.3913 16.318 7.3913Z" fill="#C4C4C4"/>
</svg>
