<svg width="72" height="72" viewBox="0 0 72 72" fill="none" xmlns="http://www.w3.org/2000/svg">
<g clip-path="url(#clip0)">
<path d="M27.5607 30.8222L27.3434 46.2918L18.948 53.1285C18.3477 53.6174 17.4489 53.1835 17.4598 52.4101C17.5519 45.8571 19.9648 39.5482 24.2707 34.6018L27.5607 30.8222Z" fill="#FFC850"/>
<path d="M44.5755 31.0613L44.358 46.5309L52.5629 53.6009C53.1496 54.1064 54.0607 53.698 54.0716 52.9247C54.1637 46.3716 51.9278 39.9974 47.7601 34.9319L44.5755 31.0613Z" fill="#FFC850"/>
<path d="M18.9938 51.0707C19.0703 45.6266 20.598 40.3322 23.3784 35.6828C19.6331 40.4514 17.5453 46.325 17.4598 52.4101C17.4489 53.1834 18.3477 53.6172 18.9479 53.1284L20.1944 52.1134C19.5938 52.1868 18.9844 51.7413 18.9938 51.0707Z" fill="#F9B428"/>
<path d="M53.7512 51.7364L44.3982 43.677L44.3581 46.531L52.563 53.601C53.1496 54.1065 54.0609 53.6981 54.0717 52.9248C54.0764 52.5928 54.0735 52.2616 54.0663 51.9307C53.9563 51.8852 53.85 51.8214 53.7512 51.7364Z" fill="#F9B428"/>
<path d="M35.8629 1.30587L31.4379 9.12356L28.1689 14.8988C27.8998 15.3742 27.7547 15.9096 27.747 16.4558L27.286 49.2525C27.2801 49.6683 27.6125 50.0102 28.0283 50.016L34.5966 50.1084L37.0062 50.1422L43.505 50.2336C43.9592 50.24 44.3326 49.8769 44.339 49.4227L44.5755 31.0613L44.7963 16.7905C44.8057 16.182 44.6614 15.5811 44.3767 15.0434L37.1122 1.32343C36.8488 0.826154 36.14 0.816191 35.8629 1.30587Z" fill="#FFEB00"/>
<path d="M29.3821 46.3205L29.7968 16.818C29.8032 16.3667 29.9231 15.9242 30.1454 15.5314L37.6319 2.30511C37.5526 2.15531 37.1914 1.4731 37.1121 1.32351C37.1101 1.31961 37.1075 1.31647 37.1054 1.31264C36.8345 0.821958 36.135 0.824696 35.8628 1.30595L28.1317 14.9643C27.887 15.3968 27.755 15.884 27.748 16.3809L27.286 49.2525C27.2802 49.6647 27.6129 50.0103 28.0283 50.0161L29.3299 50.0344L29.3821 46.3205Z" fill="#B6A80B" fill-opacity="0.75"/>
<path d="M39.1609 26.1822C40.8537 24.5365 40.8917 21.8301 39.2459 20.1374C37.6001 18.4446 34.8937 18.4066 33.201 20.0524C31.5083 21.6982 31.4703 24.4046 33.1161 26.0973C34.7618 27.79 37.4682 27.828 39.1609 26.1822Z" fill="white"/>
<path d="M33.3494 21.6539C33.3609 20.8382 33.6004 20.0792 34.0059 19.4363C32.7672 20.1699 31.9284 21.5117 31.9067 23.0566C31.8735 25.4173 33.7603 27.3579 36.121 27.3911C37.6659 27.4129 39.0308 26.612 39.7989 25.3944C36.9456 27.0844 33.3023 24.9982 33.3494 21.6539Z" fill="#DEDEDE"/>
<path d="M37.0234 50.0193L34.5829 49.985L30.0069 49.9207L29.9588 53.3469C29.9501 53.9664 30.4498 54.4804 31.0694 54.4892C32.0014 54.5023 34.6936 54.5401 35.7393 54.5548C36.7453 54.569 39.396 54.6062 40.4091 54.6205C41.0286 54.6292 41.5426 54.1294 41.5514 53.5099L41.5996 50.0837L37.0234 50.0193Z" fill="#04B5AD"/>
<path d="M31.9727 53.8398L32.0274 49.9492L30.0068 49.9208L29.9587 53.347C29.95 53.9665 30.4497 54.4805 31.0693 54.4893L32.1453 54.5044C32.0333 54.3078 31.9693 54.0811 31.9727 53.8398Z" fill="#02948D"/>
<path d="M37.0584 46.4284L34.6488 46.3945L27.3275 46.2916L27.2859 49.2526C27.2801 49.6685 27.6125 50.0103 28.0283 50.0161L34.5965 50.1085L37.0061 50.1423L43.5049 50.2337C43.9591 50.2401 44.3325 49.8769 44.3389 49.4228L44.3796 46.5313L37.0584 46.4284Z" fill="#04B5AD"/>
<path d="M28.0283 50.016L29.3299 50.0343L29.382 46.3205L27.3275 46.2916L27.2859 49.2526C27.2801 49.6683 27.6125 50.0102 28.0283 50.016Z" fill="#02948D"/>
<path d="M30.7693 61.9147C30.3526 61.9089 30.0195 61.5663 30.0254 61.1496L30.0764 57.5216C30.0823 57.105 30.4249 56.7719 30.8415 56.7777C31.2582 56.7835 31.5913 57.1261 31.5854 57.5428L31.5344 61.1708C31.5285 61.5876 31.1859 61.9205 30.7693 61.9147Z" fill="#E4EAF8"/>
<path d="M34.2987 61.9643C33.882 61.9585 33.5489 61.6159 33.5549 61.1992L33.6059 57.5713C33.6118 57.1545 33.9543 56.8215 34.371 56.8274C34.7877 56.8332 35.1208 57.1758 35.1149 57.5925L35.0638 61.2204C35.0579 61.637 34.7155 61.9701 34.2987 61.9643Z" fill="#E4EAF8"/>
<path d="M41.3573 62.0635C40.9406 62.0577 40.6075 61.7151 40.6134 61.2984L40.6644 57.6705C40.6703 57.2538 41.0128 56.9207 41.4295 56.9266C41.8462 56.9324 42.1793 57.275 42.1733 57.6917L42.1223 61.3197C42.1165 61.7364 41.774 62.0694 41.3573 62.0635Z" fill="#E4EAF8"/>
<path d="M37.828 62.0139C37.4113 62.008 37.0782 61.6654 37.0841 61.2488L37.1352 57.6209C37.1409 57.2042 37.4835 56.8711 37.9002 56.877C38.3169 56.8828 38.65 57.2254 38.6441 57.6421L38.593 61.27C38.5872 61.6866 38.2449 62.0197 37.828 62.0139Z" fill="#E4EAF8"/>
<path d="M35.8628 1.30593L31.4378 9.12364L41.3159 9.26248L37.1122 1.32343C36.8489 0.826151 36.14 0.816188 35.8628 1.30593Z" fill="#FFEB00"/>
<path d="M35.8629 1.30588L34.41 3.87266L31.4378 9.12358L33.7541 9.15613L37.632 2.30498L37.1123 1.32344C36.8489 0.826097 36.14 0.816272 35.8629 1.30588Z" fill="#C8B909"/>
<path d="M35.8242 54.6212L35.6521 54.6188C35.0343 54.6101 34.5405 54.1022 34.5491 53.4844L34.8505 32.0436C34.8592 31.4257 35.3671 30.9319 35.9849 30.9406L36.157 30.943C36.7748 30.9517 37.2687 31.4596 37.26 32.0774L36.9587 53.5182C36.95 54.1361 36.4421 54.6299 35.8242 54.6212Z" fill="#FFC850"/>
<path d="M35.8242 54.6212L35.6521 54.6188C35.0343 54.6101 34.5405 54.1022 34.5491 53.4844L34.8505 32.0436C34.8592 31.4257 35.3671 30.9319 35.9849 30.9406L36.157 30.943C36.7748 30.9517 37.2687 31.4596 37.26 32.0774L36.9587 53.5182C36.95 54.1361 36.4421 54.6299 35.8242 54.6212Z" fill="#FFC850"/>
<path d="M35.7191 53.1745L36.0195 31.8015C36.0241 31.4756 36.164 31.1838 36.3844 30.9772C36.3005 30.9565 36.2135 30.9439 36.1233 30.9426L36.0189 30.9411C35.3824 30.9322 34.8591 31.441 34.8501 32.0775L34.5497 53.4506C34.5407 54.087 35.0495 54.6103 35.6861 54.6194L35.7905 54.6208C36.1011 54.6253 36.3842 54.5057 36.5943 54.3088C36.0856 54.1829 35.7114 53.721 35.7191 53.1745Z" fill="#F9B428"/>
</g>
<defs>
<clipPath id="clip0">
<rect width="50" height="50" fill="white" transform="translate(0.648132 35.5031) rotate(-44.1947)"/>
</clipPath>
</defs>
</svg>
