<svg width="18" height="18" viewBox="0 0 18 18" fill="none" xmlns="http://www.w3.org/2000/svg">
<path fill-rule="evenodd" clip-rule="evenodd" d="M2.45455 3.27272C2.23755 3.27272 2.02944 3.35893 1.876 3.51237C1.72256 3.66581 1.63636 3.8739 1.63636 4.0909V15.5455C1.63636 15.7624 1.72256 15.9705 1.876 16.124C2.02944 16.2774 2.23755 16.3636 2.45455 16.3636H13.9091C14.1261 16.3636 14.3342 16.2774 14.4876 16.124C14.6411 15.9705 14.7273 15.7624 14.7273 15.5455V11.1764C14.7273 10.7245 15.0936 10.3582 15.5455 10.3582C15.9973 10.3582 16.3636 10.7245 16.3636 11.1764V15.5455C16.3636 16.1964 16.105 16.8208 15.6447 17.2811C15.1844 17.7414 14.5601 18 13.9091 18H2.45455C1.80356 18 1.17923 17.7414 0.718918 17.2811C0.258601 16.8208 0 16.1964 0 15.5455V4.0909C0 3.43991 0.258601 2.8156 0.718918 2.35528C1.17923 1.89497 1.80356 1.63635 2.45455 1.63635H6.82363C7.2755 1.63635 7.64181 2.00267 7.64181 2.45454C7.64181 2.9064 7.2755 3.27272 6.82363 3.27272H2.45455Z" fill="#C4C4C4"/>
<path fill-rule="evenodd" clip-rule="evenodd" d="M13.3305 0.23964C13.6501 -0.07988 14.1681 -0.07988 14.4876 0.23964L17.7604 3.51237C18.0799 3.83189 18.0799 4.34991 17.7604 4.66943L9.57854 12.8513C9.4251 13.0047 9.217 13.0909 9 13.0909H5.72727C5.2754 13.0909 4.90909 12.7246 4.90909 12.2727V9C4.90909 8.783 4.99529 8.5749 5.14873 8.42146L13.3305 0.23964ZM6.54545 9.3389V11.4545H8.6611L16.0247 4.0909L13.9091 1.97526L6.54545 9.3389Z" fill="#C4C4C4"/>
</svg>
